<?xml version="1.0" encoding="iso-8859-1"?>
<!-- Generator: Adobe Illustrator 19.0.0, SVG Export Plug-In . SVG Version: 6.00 Build 0)  -->
<svg version="1.1" id="Capa_1" xmlns="http://www.w3.org/2000/svg" xmlns:xlink="http://www.w3.org/1999/xlink" x="0px" y="0px"
	 viewBox="0 0 511.998 511.998" style="enable-background:new 0 0 511.998 511.998;" xml:space="preserve">
<path id="SVGCleanerId_0" style="fill:#AFAFAF;" d="M284.727,42.478c-1.02-19.05-16.72-34.38-35.79-34.96
	c-20.97-0.64-38.16,16.16-38.16,36.98c0,13.13,6.84,24.65,17.14,31.22c1.16,0.74,1.86,2.02,1.86,3.4v91.745h36V79.118
	c0-1.38,0.7-2.67,1.86-3.41C278.467,68.808,285.467,56.438,284.727,42.478z M247.777,58.498c-7.73,0-14-6.27-14-14s6.27-14,14-14
	s14,6.27,14,14S255.507,58.498,247.777,58.498z"/>
<g>
	<path id="SVGCleanerId_0_1_" style="fill:#AFAFAF;" d="M284.727,42.478c-1.02-19.05-16.72-34.38-35.79-34.96
		c-20.97-0.64-38.16,16.16-38.16,36.98c0,13.13,6.84,24.65,17.14,31.22c1.16,0.74,1.86,2.02,1.86,3.4v91.745h36V79.118
		c0-1.38,0.7-2.67,1.86-3.41C278.467,68.808,285.467,56.438,284.727,42.478z M247.777,58.498c-7.73,0-14-6.27-14-14s6.27-14,14-14
		s14,6.27,14,14S255.507,58.498,247.777,58.498z"/>
</g>
<path style="fill:#9B9A9A;" d="M249.027,75.718c-10.3-6.57-17.14-18.09-17.14-31.22c0-16.756,11.137-30.9,26.415-35.453
	c-2.989-0.895-6.127-1.428-9.365-1.527c-20.97-0.64-38.16,16.16-38.16,36.98c0,13.13,6.84,24.65,17.14,31.22
	c1.16,0.74,1.86,2.02,1.86,3.4v91.745h21.11V79.118C250.887,77.738,250.187,76.458,249.027,75.718z"/>
<rect x="229.781" y="204.66" style="fill:#AFAFAF;" width="36" height="102.8"/>
<rect x="229.781" y="213.2" style="fill:#9B9A9A;" width="19.704" height="92.87"/>
<path style="fill:#DDDDDD;" d="M247.777,143.998c-73.73,0-133.5,59.77-133.5,133.5s59.77,133.5,133.5,133.5s133.5-59.77,133.5-133.5
	S321.507,143.998,247.777,143.998z M247.777,332.498c-30.38,0-55-24.62-55-55s24.62-55,55-55s55,24.62,55,55
	S278.157,332.498,247.777,332.498z"/>
<path style="fill:#BDC1C1;" d="M346.311,277.498c0-54.695-44.339-99.034-99.034-99.034s-99.034,44.339-99.034,99.034
	s44.339,99.034,99.034,99.034S346.311,332.192,346.311,277.498z M247.777,332.498c-30.38,0-55-24.62-55-55s24.62-55,55-55
	s55,24.62,55,55S278.157,332.498,247.777,332.498z"/>
<path style="fill:#FF5500;" d="M467.857,242.288c2.41,18.61,2.41,37.21,0,55.82c0,2.75-3.19,4.28-5.33,2.55l-41.386-30.46
	l41.386-30.46C464.667,238.008,467.857,239.538,467.857,242.288z"/>
<path style="fill:#FF7400;" d="M340.337,276.471c-3.411-3.768-3.411-9.035,0-12.803c7.732-8.559,23.183-22.664,40.979-22.664
	c17.671,0,33.023,13.896,40.811,22.468c3.53,3.887,3.53,9.308,0,13.195c-7.788,8.573-23.141,22.468-40.811,22.468
	C363.519,299.135,348.069,285.03,340.337,276.471z"/>
<path style="fill:#EA6706;" d="M395.449,278.564c-17.797,0-33.247-14.106-40.979-22.664c-0.959-1.06-1.639-2.24-2.059-3.471
	c-4.965,3.821-9.094,7.942-12.074,11.24c-3.411,3.768-3.411,9.035,0,12.803c7.732,8.559,23.183,22.664,40.979,22.664
	c17.671,0,33.023-13.896,40.811-22.468c2.502-2.755,3.221-6.279,2.177-9.483C416.394,273.259,406.365,278.564,395.449,278.564z"/>
<path style="fill:#FF5500;" d="M340.337,276.471c5.013,5.549,13.272,13.425,23.31,18.282c2.993-7.143,4.733-15.604,4.733-24.683
	s-1.74-17.54-4.733-24.683c-10.038,4.856-18.297,12.733-23.31,18.282C336.926,267.436,336.926,272.703,340.337,276.471z"/>
<path style="fill:#ED3124;" d="M136.794,203.285l58.322,58.322c5.301-17.597,19.173-31.469,36.77-36.77l-58.322-58.322
	C159.037,176.249,146.528,188.758,136.794,203.285z"/>
<path style="fill:#E00E0E;" d="M195.117,261.607c0.649-2.155,1.43-4.25,2.327-6.285c0.048-0.109,0.099-0.217,0.147-0.326
	c0.405-0.903,0.834-1.792,1.286-2.669c0.054-0.105,0.107-0.211,0.162-0.316c1.026-1.959,2.163-3.849,3.409-5.66
	c0.002-0.003,0.004-0.006,0.006-0.009c0.598-0.868,1.224-1.715,1.87-2.547c0.087-0.111,0.174-0.222,0.261-0.333
	c0.612-0.776,1.243-1.535,1.896-2.277c0.055-0.063,0.109-0.127,0.164-0.19c1.451-1.634,2.997-3.18,4.631-4.631
	c0.063-0.055,0.127-0.109,0.19-0.164c0.741-0.652,1.501-1.283,2.277-1.896c0.111-0.087,0.221-0.175,0.333-0.261
	c0.831-0.646,1.678-1.272,2.547-1.87c0.003-0.002,0.006-0.004,0.009-0.006c1.811-1.246,3.701-2.383,5.66-3.409
	c0.105-0.055,0.211-0.108,0.316-0.162c0.876-0.452,1.766-0.88,2.669-1.286c0.109-0.049,0.217-0.099,0.326-0.147
	c2.034-0.897,4.13-1.678,6.285-2.327l-33.487-33.487c-15.319,8.71-28.087,21.385-36.907,36.633L195.117,261.607z"/>
<path style="fill:#ED3124;" d="M358.759,351.71l-58.322-58.322c-5.301,17.597-19.173,31.469-36.77,36.77l58.322,58.322
	C336.517,378.747,349.026,366.237,358.759,351.71z"/>
<path style="fill:#E00E0E;" d="M300.437,293.388c-0.649,2.155-1.43,4.25-2.327,6.285c-0.048,0.109-0.099,0.217-0.147,0.326
	c-0.405,0.903-0.834,1.792-1.286,2.669c-0.054,0.105-0.107,0.211-0.162,0.316c-1.026,1.959-2.163,3.849-3.409,5.66
	c-0.002,0.003-0.004,0.006-0.006,0.009c-0.598,0.868-1.224,1.715-1.87,2.547c-0.087,0.111-0.174,0.222-0.261,0.333
	c-0.612,0.776-1.243,1.535-1.896,2.277c-0.055,0.063-0.109,0.127-0.164,0.19c-1.451,1.634-2.997,3.18-4.631,4.631
	c-0.063,0.055-0.127,0.109-0.19,0.164c-0.741,0.652-1.501,1.283-2.277,1.896c-0.111,0.087-0.221,0.175-0.333,0.261
	c-0.831,0.646-1.678,1.272-2.547,1.87c-0.003,0.002-0.006,0.004-0.009,0.006c-1.811,1.246-3.701,2.383-5.66,3.409
	c-0.105,0.055-0.211,0.108-0.316,0.162c-0.876,0.452-1.766,0.88-2.669,1.286c-0.109,0.049-0.217,0.099-0.326,0.147
	c-2.034,0.897-4.13,1.678-6.285,2.327l33.124,33.124c15.248-8.82,27.923-21.588,36.633-36.907L300.437,293.388z"/>
<path id="SVGCleanerId_1" style="fill:#ED3124;" d="M173.564,388.48l58.322-58.322c-17.597-5.301-31.469-19.173-36.77-36.77
	l-58.322,58.322C146.528,366.237,159.037,378.747,173.564,388.48z"/>
<path style="fill:#ED3124;" d="M321.989,166.515l-58.322,58.322c17.597,5.301,31.469,19.173,36.77,36.77l58.322-58.322
	C349.026,188.758,336.517,176.249,321.989,166.515z"/>
<g>
	<path id="SVGCleanerId_1_1_" style="fill:#ED3124;" d="M173.564,388.48l58.322-58.322c-17.597-5.301-31.469-19.173-36.77-36.77
		l-58.322,58.322C146.528,366.237,159.037,378.747,173.564,388.48z"/>
</g>
<g>
	<path style="fill:#E00E0E;" d="M225.602,327.831c-0.109-0.048-0.217-0.099-0.326-0.147c-0.903-0.405-1.792-0.834-2.669-1.286
		c-0.105-0.054-0.211-0.107-0.316-0.162c-1.959-1.026-3.849-2.163-5.66-3.409c-0.003-0.002-0.006-0.004-0.009-0.006
		c-0.868-0.598-1.715-1.224-2.547-1.87c-0.111-0.087-0.222-0.174-0.333-0.261c-0.776-0.612-1.535-1.243-2.277-1.896
		c-0.063-0.055-0.127-0.109-0.19-0.164c-1.634-1.451-3.18-2.997-4.631-4.631c-0.055-0.063-0.109-0.127-0.164-0.19
		c-0.652-0.741-1.283-1.501-1.896-2.277c-0.087-0.111-0.175-0.221-0.261-0.333c-0.646-0.831-1.272-1.678-1.87-2.547
		c-0.002-0.003-0.004-0.006-0.006-0.009c-1.246-1.811-2.383-3.701-3.409-5.66c-0.055-0.105-0.108-0.211-0.162-0.316
		c-0.452-0.876-0.88-1.766-1.286-2.669c-0.049-0.109-0.099-0.217-0.147-0.326c-0.897-2.034-1.678-4.13-2.327-6.285l-33.624,33.624
		c8.82,15.248,21.588,27.923,36.907,36.633l33.487-33.487C229.732,329.509,227.636,328.728,225.602,327.831z"/>
	<path style="fill:#E00E0E;" d="M296.79,191.714l-33.124,33.124c2.155,0.649,4.25,1.43,6.285,2.327
		c0.109,0.048,0.217,0.099,0.326,0.147c0.903,0.405,1.792,0.834,2.669,1.286c0.105,0.054,0.211,0.107,0.316,0.162
		c1.959,1.026,3.849,2.163,5.66,3.409c0.003,0.002,0.006,0.004,0.009,0.006c0.868,0.598,1.715,1.224,2.547,1.87
		c0.111,0.087,0.222,0.174,0.333,0.261c0.776,0.612,1.535,1.243,2.277,1.896c0.063,0.055,0.127,0.109,0.19,0.164
		c1.634,1.451,3.18,2.997,4.631,4.631c0.055,0.063,0.109,0.127,0.164,0.19c0.652,0.741,1.283,1.501,1.896,2.277
		c0.087,0.111,0.175,0.221,0.261,0.333c0.646,0.831,1.272,1.678,1.87,2.547c0.002,0.003,0.004,0.006,0.006,0.009
		c1.246,1.811,2.383,3.701,3.409,5.66c0.055,0.105,0.108,0.211,0.162,0.316c0.452,0.876,0.88,1.766,1.286,2.669
		c0.049,0.109,0.099,0.217,0.147,0.326c0.897,2.034,1.678,4.13,2.327,6.285l32.987-32.987
		C324.714,213.302,312.038,200.534,296.79,191.714z"/>
</g>
<path style="fill:#AFAFAF;" d="M350.587,322.308c-3.03-5.24-10.59-5.24-13.62,0l-24.978,43.351
	c-0.984,1.707,0.249,3.839,2.219,3.839h14.569v23c0,38.67-26.92,71.16-63,79.75v-175.79h-36v176.26c-37.08-7.85-65-40.83-65-80.22
	v-23h14.569c1.97,0,3.202-2.132,2.219-3.839l-24.978-43.351c-3.03-5.24-10.59-5.24-13.62,0l-24.978,43.351
	c-0.984,1.707,0.249,3.839,2.219,3.839h14.569v21.672c0,62.069,50.784,113.787,112.852,113.325
	c30.592-0.228,58.265-12.723,78.348-32.797c20.26-20.27,32.8-48.27,32.8-79.2v-23h14.569c1.97,0,3.202-2.132,2.219-3.839
	L350.587,322.308z"/>
<g>
	<path style="fill:#9B9A9A;" d="M267.333,496.414c-62.067,0.462-112.852-51.256-112.852-113.325v-21.672h-14.569
		c-1.97,0-3.202-2.132-2.219-3.839l19.608-34.031l-0.714-1.24c-3.03-5.24-10.59-5.24-13.62,0l-24.978,43.351
		c-0.984,1.707,0.248,3.839,2.219,3.839h14.569v21.672c0,62.069,50.784,113.787,112.852,113.325
		c18.509-0.138,35.946-4.773,51.284-12.854C288.904,494.664,278.308,496.332,267.333,496.414z"/>
	<path style="fill:#9B9A9A;" d="M249.481,461.431V293.388h-19.704v179.869c0.062,0.035,0.123,0.069,0.185,0.103
		C238.75,478.256,249.481,471.623,249.481,461.431z"/>
</g>
<circle style="fill:#FFFFFF;" cx="247.781" cy="44.498" r="14"/>
<path style="fill:#2CD4E5;" d="M71.574,89.261c15.407-1.213,28.161,11.541,26.947,26.947c-0.954,12.119-10.773,21.938-22.893,22.893
	c-15.407,1.213-28.161-11.541-26.947-26.947C49.636,100.035,59.455,90.216,71.574,89.261z"/>
<path style="fill:#11C197;" d="M73.682,105.253c0.458-5.812,2.969-11.08,6.779-15.11c-2.794-0.796-5.785-1.126-8.887-0.882
	c-12.119,0.954-21.938,10.773-22.893,22.893c-1.213,15.407,11.541,28.161,26.948,26.947c6.308-0.497,11.977-3.409,16.113-7.782
	C80.657,128.163,72.713,117.558,73.682,105.253z"/>
<g>
	<circle style="fill:#2CD4E5;" cx="414.771" cy="170.86" r="19.365"/>
	<path style="fill:#2CD4E5;" d="M459.667,357.264c12.25-1.212,22.454,8.993,21.242,21.242c-0.897,9.064-8.228,16.396-17.292,17.292
		c-12.25,1.212-22.454-8.993-21.242-21.242C443.271,365.492,450.603,358.161,459.667,357.264z"/>
</g>
<path style="fill:#11C197;" d="M478.743,382.549c-12.25,1.212-22.454-8.993-21.243-21.243c0.131-1.326,0.415-2.609,0.807-3.846
	c-8.427,1.458-15.082,8.491-15.933,17.096c-1.212,12.25,8.993,22.454,21.242,21.242c7.738-0.765,14.198-6.227,16.485-13.447
	C479.653,382.43,479.202,382.503,478.743,382.549z"/>
<path style="fill:#2CD4E5;" d="M60.839,402.77c16.487,0,29.846,13.359,29.846,29.846s-13.359,29.846-29.846,29.846
	s-29.846-13.359-29.846-29.846S44.352,402.77,60.839,402.77z"/>
<path style="fill:#11C197;" d="M60.839,421.861c0-6.948,2.379-13.335,6.358-18.406c-2.05-0.445-4.175-0.685-6.358-0.685
	c-16.487,0-29.846,13.359-29.846,29.846s13.359,29.846,29.846,29.846c9.539,0,18.025-4.478,23.488-11.441
	C70.898,448.109,60.839,436.166,60.839,421.861z"/>
<circle style="fill:#2CD4E5;" cx="365.411" cy="45.01" r="14.507"/>
<g>
	<path style="fill:#11C197;" d="M431.424,178.323c-10.698,0-19.365-8.668-19.365-19.365c0-2.621,0.527-5.117,1.47-7.397
		c-10.113,0.646-18.118,9.026-18.118,19.302c0,10.697,8.668,19.365,19.365,19.365c8.076,0,14.99-4.944,17.896-11.968
		C432.256,178.286,431.844,178.323,431.424,178.323z"/>
	<path style="fill:#11C197;" d="M375.911,52.755c-8.014,0-14.507-6.493-14.507-14.507c0-2.8,0.806-5.406,2.18-7.623
		c-7.148,0.901-12.679,6.987-12.679,14.38c0,8.014,6.493,14.507,14.507,14.507c5.213,0,9.77-2.757,12.327-6.885
		C377.139,52.703,376.531,52.755,375.911,52.755z"/>
</g>
<path d="M105.998,111.565c-1.238-15.738-14.042-28.541-29.78-29.781c-9.529-0.747-18.864,2.681-25.598,9.415
	s-10.166,16.064-9.415,25.598c1.238,15.738,14.042,28.542,29.78,29.781c0.864,0.068,1.726,0.102,2.585,0.102
	c8.618,0,16.89-3.393,23.013-9.517C103.318,130.43,106.749,121.099,105.998,111.565L105.998,111.565z M85.977,126.557
	c-3.627,3.627-8.663,5.478-13.813,5.068c-8.458-0.666-15.339-7.546-16.005-16.004c-0.405-5.153,1.441-10.188,5.068-13.814
	c3.297-3.297,7.758-5.123,12.412-5.123c0.466,0,0.933,0.018,1.401,0.055c8.458,0.666,15.339,7.546,16.005,16.004
	C91.451,117.895,89.604,122.931,85.977,126.557z"/>
<path d="M414.775,197.729c14.813,0,26.865-12.052,26.865-26.866c0-14.813-12.052-26.865-26.865-26.865s-26.865,12.052-26.865,26.865
	C387.91,185.677,399.961,197.729,414.775,197.729z M414.775,158.998c6.543,0,11.865,5.323,11.865,11.865
	c0,6.543-5.322,11.866-11.865,11.866s-11.865-5.323-11.865-11.866S408.232,158.998,414.775,158.998z"/>
<path d="M488.373,373.818c-1.253-12.664-11.354-22.765-24.018-24.018c-8.093-0.803-15.997,2.019-21.71,7.732
	c-5.715,5.714-8.534,13.627-7.735,21.711c1.253,12.664,11.354,22.765,24.019,24.018c0.903,0.089,1.804,0.134,2.7,0.134
	c7.123,0,13.935-2.792,19.011-7.867C486.354,389.815,489.173,381.901,488.373,373.818z M470.034,384.922
	c-2.524,2.524-6.039,3.766-9.628,3.413c-5.482-0.542-10.025-5.085-10.567-10.567c-0.355-3.594,0.889-7.104,3.413-9.628
	c2.241-2.241,5.257-3.472,8.42-3.472c0.4,0,0.805,0.02,1.208,0.06c5.481,0.542,10.024,5.085,10.566,10.567
	C473.801,378.889,472.558,382.398,470.034,384.922z"/>
<path d="M60.839,395.271c-20.593,0-37.347,16.753-37.347,37.346c0,20.593,16.754,37.347,37.347,37.347s37.347-16.753,37.347-37.347
	C98.186,412.024,81.432,395.271,60.839,395.271z M60.839,454.963c-12.322,0-22.347-10.025-22.347-22.347
	s10.024-22.346,22.347-22.346s22.347,10.024,22.347,22.346S73.162,454.963,60.839,454.963z"/>
<path d="M365.412,67.012c12.135,0,22.007-9.873,22.007-22.007s-9.872-22.007-22.007-22.007s-22.007,9.872-22.007,22.007
	S353.277,67.012,365.412,67.012z M365.412,37.998c3.863,0,7.007,3.143,7.007,7.007s-3.144,7.007-7.007,7.007
	s-7.007-3.144-7.007-7.007S361.548,37.998,365.412,37.998z"/>
<path d="M427.434,281.979l30.377,24.511c1.968,1.591,4.343,2.409,6.748,2.409c1.576,0,3.166-0.351,4.663-1.066
	c3.6-1.719,5.901-5.174,6.118-9.115c2.42-18.926,2.42-38.114,0-57.041c-0.216-3.941-2.519-7.396-6.119-9.115
	c-3.779-1.804-8.152-1.291-11.404,1.338l-30.248,24.407c-8.433-9.253-25.449-24.574-45.795-24.802
	c-8.802-26.748-25.783-50.715-48.256-67.953c-17.936-13.757-38.421-22.82-60.24-26.778V80.957
	c12.537-8.778,19.755-23.497,18.939-38.881c-1.226-22.885-20.137-41.358-43.051-42.055c-12.158-0.367-23.655,4.08-32.371,12.533
	c-8.717,8.456-13.518,19.8-13.518,31.944c0,14.632,7.065,28.125,19,36.47v57.841c-65.618,12.035-115.5,69.646-115.5,138.689
	c0,22.65,5.481,45.087,15.872,65.052l-13.37,23.204c-1.338,2.32-1.336,5.178,0.005,7.497c1.34,2.319,3.814,3.747,6.493,3.747h11.5
	v15.5c0,65.893,53.607,119.5,119.5,119.5c31.913,0,61.923-12.428,84.505-34.998c22.567-22.578,34.995-52.588,34.995-84.502v-15.5
	h11.5c2.679,0,5.153-1.428,6.493-3.747c1.341-2.319,1.343-5.177,0.005-7.497l-12.328-21.397
	c6.449-11.952,11.103-24.699,13.865-37.967C404.253,304.393,419.525,290.623,427.434,281.979z M461.223,250.427
	c1.244,13.147,1.243,26.394,0,39.542l-24.503-19.771L461.223,250.427z M416.576,268.514c0.937,1.032,0.937,2.079,0.001,3.11
	c-6.79,7.474-20.399,20.011-35.261,20.011c-3.974,0-7.858-0.895-11.546-2.351c4.264-12.352,4.193-25.2-0.215-38.344
	c3.752-1.507,7.71-2.437,11.761-2.437C396.177,248.503,409.787,261.041,416.576,268.514z M356.297,258.886
	c2.092,7.77,2.16,15.231,0.206,22.53c-4.337-3.406-7.977-7.068-10.601-9.973c-0.002-0.001-0.003-0.003-0.005-0.005
	c-0.821-0.908-0.821-1.829,0.005-2.742C348.484,265.838,352.05,262.245,356.297,258.886z M348.968,202.469l-45.902,45.902
	c-5.886-11.129-15.035-20.277-26.163-26.163l45.854-45.854C332.682,183.707,341.534,192.499,348.968,202.469z M273.277,416.194
	c16.878-3.095,33.13-9.301,47.803-18.233c-2.096,29.061-20.796,53.948-47.803,64.16V416.194z M303.284,373.251
	c1.34,2.319,3.814,3.747,6.493,3.747h11.5v2.853c-14.337,10.312-30.767,17.506-48,21.062v-50.539l12.096,12.095
	c1.465,1.464,3.385,2.197,5.304,2.197s3.839-0.732,5.304-2.197c2.929-2.929,2.929-7.678,0-10.606l-19.393-19.393
	c11.307-6.038,20.406-15.191,26.284-26.041l21.945,21.945l-21.537,37.379C301.941,368.074,301.943,370.932,303.284,373.251z
	 M218.632,332.805l-23.178,23.178c-2.929,2.929-2.929,7.678,0,10.606c1.465,1.464,3.385,2.197,5.304,2.197s3.839-0.732,5.304-2.197
	l16.216-16.216v50.539c-18.053-3.722-35.176-11.421-50-22.531v-1.385h11.5c2.679,0,5.153-1.428,6.493-3.747
	c1.341-2.319,1.343-5.177,0.005-7.497l-20.806-36.111l23.013-23.013C198.294,317.66,207.349,326.86,218.632,332.805z
	 M222.277,416.194v46.657c-28.163-9.849-48.176-36.088-49.881-66.18C187.612,406.303,204.577,412.951,222.277,416.194z
	 M222.277,317.592c-13.484-8.583-22-23.609-22-40.094c0-16.814,8.782-31.615,22-40.059V317.592z M234.15,216.494l-48.556-48.556
	c18.358-10.46,39.585-16.44,62.183-16.44c22.289,0,43.593,5.944,62.134,16.489l-48.507,48.507
	c-4.388-0.979-8.948-1.496-13.627-1.496C243.098,214.998,238.538,215.515,234.15,216.494z M231.95,69.395
	c-8.562-5.461-13.673-14.769-13.673-24.897c0-8.051,3.183-15.571,8.962-21.176c5.775-5.604,13.393-8.561,21.471-8.307
	c15.185,0.462,27.716,12.702,28.528,27.86c0.563,10.635-4.659,20.792-13.635,26.51c-3.335,2.128-5.326,5.767-5.326,9.733v57.76
	c-3.476-0.253-6.977-0.38-10.5-0.38c-3.531,0-7.033,0.131-10.5,0.388V79.118C237.277,75.156,235.285,71.522,231.95,69.395z
	 M172.762,176.32l45.888,45.888c-11.128,5.886-20.277,15.035-26.163,26.163l-45.888-45.889
	C153.993,192.537,162.816,183.714,172.762,176.32z M121.777,277.498c0-22.598,5.98-43.825,16.44-62.183l48.556,48.556
	c-0.979,4.388-1.496,8.948-1.496,13.627c0,4.651,0.516,9.213,1.5,13.623l-25.233,25.232c-2.888-3.468-7.126-5.475-11.768-5.475
	c-5.551,0-10.524,2.87-13.308,7.686l-4.704,8.164C125.206,311.244,121.777,294.44,121.777,277.498z M237.277,231.168
	c3.379-0.765,6.893-1.17,10.5-1.17s7.121,0.405,10.5,1.17v29.848c0,4.142,3.357,7.5,7.5,7.5s7.5-3.358,7.5-7.5v-23.578
	c13.218,8.444,22,23.245,22,40.059c0,15.929-8.513,30.743-22,39.524v-16.626c0-4.142-3.357-7.5-7.5-7.5s-7.5,3.358-7.5,7.5l0,0
	c-0.003,0.111-0.002-0.111,0,0v171.852c0,0.047,0-0.047,0,0l0,0c0,2.295,1.051,4.463,2.852,5.885
	c1.801,1.423,4.151,1.943,6.386,1.411c19.243-4.581,36.697-15.662,49.146-31.202c12.649-15.79,19.616-35.623,19.616-55.844v-23
	c0-4.142-3.357-7.5-7.5-7.5h-6.022l20.706-35.937c0.052-0.09,0.106-0.184,0.316-0.184s0.265,0.093,0.312,0.174l20.711,35.946h-6.022
	c-4.143,0-7.5,3.358-7.5,7.5v23c0,27.908-10.869,54.153-30.602,73.896c-19.746,19.735-45.99,30.604-73.898,30.604
	c-57.621,0-104.5-46.878-104.5-104.5v-23c0-4.142-3.357-7.5-7.5-7.5h-6.022l20.706-35.937c0.052-0.09,0.106-0.184,0.316-0.184
	s0.265,0.093,0.312,0.174l20.711,35.946h-6.022c-4.143,0-7.5,3.358-7.5,7.5v23c0,42.031,29.837,78.854,70.946,87.558
	c2.213,0.468,4.52-0.087,6.276-1.511s2.777-3.565,2.777-5.827L237.277,231.168 M357.08,318.554
	c-2.778-4.807-7.752-7.677-13.303-7.677c-4.152,0-7.981,1.606-10.813,4.431l-24.249-24.249c1.024-4.402,1.561-8.946,1.561-13.562
	c0-4.678-0.517-9.239-1.496-13.626l48.58-48.581c3.73,6.539,6.897,13.463,9.427,20.718c-14.157,4.821-25.609,15.54-32.011,22.627
	c-5.996,6.625-5.996,16.243,0,22.868c6.988,7.734,19.975,19.781,35.928,23.786c-1.813,8.058-4.411,15.893-7.769,23.427
	L357.08,318.554z"/>
<path d="M269.277,44.498c0-11.855-9.645-21.5-21.5-21.5c-11.855,0-21.5,9.645-21.5,21.5s9.645,21.5,21.5,21.5
	C259.632,65.998,269.277,56.353,269.277,44.498z M241.277,44.498c0-3.584,2.916-6.5,6.5-6.5s6.5,2.916,6.5,6.5s-2.916,6.5-6.5,6.5
	S241.277,48.082,241.277,44.498z"/>
<g>
</g>
<g>
</g>
<g>
</g>
<g>
</g>
<g>
</g>
<g>
</g>
<g>
</g>
<g>
</g>
<g>
</g>
<g>
</g>
<g>
</g>
<g>
</g>
<g>
</g>
<g>
</g>
<g>
</g>
</svg>
