<?xml version="1.0" encoding="iso-8859-1"?>
<!-- Generator: Adobe Illustrator 19.0.0, SVG Export Plug-In . SVG Version: 6.00 Build 0)  -->
<svg version="1.1" id="Capa_1" xmlns="http://www.w3.org/2000/svg" xmlns:xlink="http://www.w3.org/1999/xlink" x="0px" y="0px"
	 viewBox="0 0 512 512" style="enable-background:new 0 0 512 512;" xml:space="preserve">
<path style="fill:#BC0F0F;" d="M143.781,394.27c-76.369,0-138.27-61.901-138.27-138.27s61.901-138.27,138.27-138.27h31.911v276.54
	H143.781z"/>
<path style="fill:#ED3124;" d="M179.851,117.73c76.369,0,138.27,61.901,138.27,138.27s-61.901,138.27-138.27,138.27
	S41.581,332.369,41.581,256S103.482,117.73,179.851,117.73z"/>
<g>
	<path style="fill:#D81712;" d="M300.67,323.276l-116.811-73.633c-3.511-2.213-8.151-1.161-10.364,2.35
		c-2.212,3.511-1.161,8.151,2.35,10.364l116.807,73.63C295.548,331.91,298.221,327.664,300.67,323.276z"/>
	<path style="fill:#D81712;" d="M177.701,256c0-51.624,28.29-96.631,70.21-120.381c-20.093-11.384-43.315-17.889-68.06-17.889
		c-76.369,0-138.27,61.901-138.27,138.27s61.901,138.27,138.27,138.27c24.745,0,47.967-6.506,68.06-17.889
		C205.991,352.631,177.701,307.624,177.701,256z"/>
</g>
<path style="fill:#EAEAEA;" d="M179.851,160.814c52.573,0,95.186,42.613,95.186,95.186s-42.613,95.186-95.186,95.186
	S84.665,308.573,84.665,256S127.279,160.814,179.851,160.814z"/>
<g>
	<path style="fill:#CECCC6;" d="M264.142,300.25l-80.283-50.607c-3.511-2.213-8.151-1.161-10.364,2.35
		c-2.212,3.511-1.161,8.151,2.35,10.364l80.277,50.603C259.116,308.957,261.797,304.706,264.142,300.25z"/>
	<path style="fill:#CECCC6;" d="M210.995,345.969c-20.748-24.182-33.294-55.604-33.294-89.969s12.548-65.786,33.294-89.969
		c-9.759-3.378-20.237-5.217-31.144-5.217c-52.573,0-95.186,42.613-95.186,95.186s42.613,95.186,95.186,95.186
		C190.76,351.186,201.237,349.346,210.995,345.969z"/>
</g>
<circle style="fill:#ED3124;" cx="179.851" cy="256" r="40.078"/>
<g>
	<path style="fill:#D81712;" d="M217.16,270.635l-33.3-20.991c-3.511-2.213-8.151-1.161-10.364,2.35
		c-2.212,3.511-1.161,8.151,2.35,10.364l33.293,20.987C212.559,279.683,215.297,275.38,217.16,270.635z"/>
	<path style="fill:#D81712;" d="M183.554,295.901c-3.804-12.633-5.852-26.027-5.852-39.901s2.048-27.269,5.852-39.901
		c-1.219-0.112-2.453-0.177-3.702-0.177c-22.133,0-40.078,17.945-40.078,40.078s17.945,40.078,40.078,40.078
		C181.101,296.078,182.334,296.013,183.554,295.901z"/>
</g>
<path style="fill:#ED3124;" d="M437.945,224.939c4.469,0,6.853,5.25,3.928,8.617L422.325,256l19.548,22.444
	c2.926,3.367,0.541,8.617-3.928,8.617h-62.407c-3.25,0-6.214-1.859-7.63-4.784L355.194,256l12.714-26.276
	c1.416-2.926,4.38-4.784,7.63-4.784H437.945z"/>
<path style="fill:#D81712;" d="M375.538,287.061h62.407c4.469,0,6.853-5.25,3.928-8.617L422.325,256h-67.131l12.714,26.276
	C369.324,285.202,372.288,287.061,375.538,287.061z"/>
<path d="M449.519,287.134c2.093-4.592,1.337-9.811-1.98-13.626L432.29,256l15.255-17.514c3.31-3.809,4.067-9.028,1.974-13.62
	c-2.092-4.59-6.527-7.442-11.574-7.442h-67.722c-2.882,0-5.51,1.648-6.764,4.241l-12.977,26.819h-25.037
	c-3.925-76.907-67.728-138.27-145.593-138.27h-34.067C65.399,110.215,0,175.614,0,256s65.399,145.785,145.785,145.785h34.067
	c77.865,0,141.67-61.363,145.593-138.27h25.037l12.977,26.819c1.254,2.594,3.883,4.241,6.764,4.241h67.722
	C442.992,294.575,447.427,291.724,449.519,287.134z M15.029,256c0-56.754,36.346-105.178,86.984-123.22
	C61.209,158.649,34.067,204.214,34.067,256s27.142,97.351,67.947,123.22C51.375,361.178,15.029,312.754,15.029,256z
	 M179.851,386.755c-72.099,0-130.755-58.657-130.755-130.755s58.657-130.755,130.755-130.755
	c69.577,0,126.635,54.625,130.542,123.241h-28.116c-1.116-15.23-5.608-30.067-13.16-43.305c-2.057-3.605-6.648-4.86-10.25-2.803
	c-3.606,2.056-4.861,6.646-2.804,10.251c6.26,10.973,10.055,23.241,11.138,35.858h-40.35c-3.614-22.685-23.314-40.078-47-40.078
	c-26.242,0-47.593,21.351-47.593,47.593c0,26.242,21.351,47.593,47.593,47.593c23.686,0,43.386-17.393,47-40.078h40.352
	c-3.823,44.838-41.54,80.157-87.352,80.157c-48.342,0-87.671-39.329-87.671-87.671s39.329-87.671,87.671-87.671
	c15.108,0,30,3.903,43.065,11.286c3.612,2.04,8.197,0.766,10.239-2.846c2.042-3.613,0.768-8.198-2.846-10.24
	c-15.317-8.656-32.765-13.231-50.459-13.231c-56.63,0-102.701,46.071-102.701,102.701s46.071,102.701,102.701,102.701
	c54.103,0,98.568-42.051,102.428-95.186h28.114C306.487,332.131,249.428,386.755,179.851,386.755z M179.851,235.46
	c-4.151,0-7.515,3.365-7.515,7.515v26.051c0,4.15,3.364,7.515,7.515,7.515s7.515-3.365,7.515-7.515v-5.511h24.173
	c-3.402,14.345-16.318,25.049-31.688,25.049c-17.956,0-32.564-14.609-32.564-32.564s14.608-32.564,32.564-32.564
	c15.37,0,28.286,10.704,31.688,25.049h-24.173v-5.511C187.366,238.824,184.002,235.46,179.851,235.46z M374.935,279.546
	l-7.757-16.031h14.066c4.151,0,7.515-3.365,7.515-7.515c0-4.15-3.364-7.515-7.515-7.515h-14.066l7.757-16.031h57.932l-13.963,16.031
	h-15.617c-4.151,0-7.515,3.365-7.515,7.515c0,4.15,3.364,7.515,7.515,7.515h15.618l13.963,16.031H374.935z"/>
<path d="M355.194,173.339h36.07c4.151,0,7.515-3.365,7.515-7.515c0-4.15-3.364-7.515-7.515-7.515h-36.07
	c-4.151,0-7.515,3.365-7.515,7.515C347.679,169.974,351.043,173.339,355.194,173.339z"/>
<path d="M433.346,197.386h40.078c4.151,0,7.515-3.365,7.515-7.515c0-4.15-3.364-7.515-7.515-7.515h-40.078
	c-4.151,0-7.515,3.365-7.515,7.515C425.832,194.021,429.195,197.386,433.346,197.386z"/>
<path d="M504.485,248.485h-36.07c-4.151,0-7.515,3.365-7.515,7.515c0,4.15,3.364,7.515,7.515,7.515h36.07
	c4.151,0,7.515-3.365,7.515-7.515C512,251.85,508.636,248.485,504.485,248.485z"/>
<path d="M421.323,329.644h-72.141c-4.151,0-7.515,3.365-7.515,7.515s3.364,7.515,7.515,7.515h72.141
	c4.151,0,7.515-3.365,7.515-7.515S425.474,329.644,421.323,329.644z"/>
<path d="M479.436,310.607h-26.051c-4.151,0-7.515,3.365-7.515,7.515c0,4.15,3.364,7.515,7.515,7.515h26.051
	c4.151,0,7.515-3.365,7.515-7.515C486.951,313.971,483.587,310.607,479.436,310.607z"/>
<g>
</g>
<g>
</g>
<g>
</g>
<g>
</g>
<g>
</g>
<g>
</g>
<g>
</g>
<g>
</g>
<g>
</g>
<g>
</g>
<g>
</g>
<g>
</g>
<g>
</g>
<g>
</g>
<g>
</g>
</svg>
