<?xml version="1.0" encoding="iso-8859-1"?>
<!-- Generator: Adobe Illustrator 19.0.0, SVG Export Plug-In . SVG Version: 6.00 Build 0)  -->
<svg version="1.1" id="Capa_1" xmlns="http://www.w3.org/2000/svg" xmlns:xlink="http://www.w3.org/1999/xlink" x="0px" y="0px"
	 viewBox="0 0 512 512" style="enable-background:new 0 0 512 512;" xml:space="preserve">
<path style="fill:#DDDBC7;" d="M246.463,95.875c0-10.838-15.339-31.728-22.034-40.329c-1.556-2-4.572-2-6.128,0
	c-6.695,8.601-22.034,29.49-22.034,40.329c0,9.892,5.72,18.441,14.033,22.53v26.602h22.129v-26.602
	C240.742,114.316,246.463,105.766,246.463,95.875z"/>
<path style="fill:#D3CEA9;" d="M230.182,145.006v-22.966c-8.312-4.089-14.033-12.638-14.033-22.53c0-8.387,9.183-22.788,16.44-32.86
	c-3.078-4.455-6.05-8.391-8.161-11.103c-1.556-2-4.572-2-6.128,0c-6.695,8.6-22.034,29.489-22.034,40.328
	c0,9.892,5.72,18.441,14.033,22.53v26.602H230.182z"/>
<path style="fill:#AFAFAF;" d="M76.8,131.614v40.558H40.659v-40.558c0-3.102,2.52-5.622,5.622-5.622h24.897
	C74.28,125.992,76.8,128.512,76.8,131.614z"/>
<path style="fill:#A09F9F;" d="M64.351,125.992H46.281c-3.102,0-5.622,2.52-5.622,5.622v40.558h18.071v-40.558
	C58.729,128.512,61.249,125.992,64.351,125.992z"/>
<path style="fill:#DDDDDD;" d="M504.471,48.389c0-13.693-11.103-24.797-24.797-24.797H316.737
	c-13.704,0-24.837,10.973-25.098,24.616c0,0.161,0,0.321,0,0.482v54.472h212.831V48.389z"/>
<path style="fill:#CECDCA;" d="M296.815,61.481c0-0.161,0-0.321,0-0.482c0.261-13.643,11.395-24.616,25.098-24.616H484.85
	c7.912,0,14.953,3.711,19.493,9.482c-1.264-12.508-11.828-22.273-24.669-22.273H316.737c-13.704,0-24.837,10.973-25.098,24.616
	c0,0.161,0,0.321,0,0.482v54.472h5.176V61.481z"/>
<path style="fill:#C6BDB6;" d="M8.031,432.891v36.573c0,10.742,8.704,19.446,19.446,19.446h215.1
	c10.742,0,19.446-8.704,19.446-19.446v-36.573H8.031z"/>
<path style="fill:#EEBF00;" d="M504.471,96.326v334.406c0,12.449-10.089,22.538-22.538,22.538H309.75
	c-9.999,0-18.111-8.112-18.111-18.111V73.788V48.69c0.02,13.854,11.756,25.098,25.66,25.098h164.633
	c12.298,0,22.297,9.848,22.528,22.086C504.471,96.025,504.471,96.176,504.471,96.326z"/>
<path style="fill:#EAA428;" d="M330.29,435.16V73.788h-12.991c-13.904,0-25.64-11.244-25.66-25.098v25.098V435.16
	c0,9.999,8.112,18.111,18.111,18.111h38.651C338.402,453.271,330.29,445.159,330.29,435.16z"/>
<rect x="431.184" y="73.788" style="fill:#FFE477;" width="30.118" height="379.482"/>
<path style="fill:#DDDDDD;" d="M261.522,382.364v57.485c0,10.742-8.704,19.446-19.446,19.446h-215.1
	c-10.742,0-19.446-8.704-19.446-19.446v-57.485c0-10.742,8.704-19.446,19.446-19.446h215.1
	C252.818,362.918,261.522,371.622,261.522,382.364z"/>
<path style="fill:#C6CCCC;" d="M150.819,439.718c-30.901,0-55.951-25.05-55.951-55.951v-20.849H26.975
	c-10.74,0-19.446,8.706-19.446,19.446v57.485c0,10.74,8.706,19.446,19.446,19.446h215.1c10.74,0,19.446-8.706,19.446-19.446v-0.13
	H150.819z"/>
<circle style="fill:#ED3124;" cx="50.698" cy="411.106" r="22.086"/>
<circle style="fill:#FFE477;" cx="134.024" cy="411.106" r="22.086"/>
<circle style="fill:#00C37A;" cx="217.349" cy="411.106" r="22.086"/>
<path style="fill:#E00E0E;" d="M50.698,389.02c-8.513,0-15.897,4.821-19.583,11.877c1.538-0.339,3.134-0.523,4.774-0.523
	c12.198,0,22.086,9.889,22.086,22.086c0,3.684-0.908,7.155-2.503,10.209c9.902-2.183,17.313-11.005,17.313-21.563
	C72.784,398.908,62.896,389.02,50.698,389.02z"/>
<path style="fill:#F4C951;" d="M134.024,389.02c-8.513,0-15.897,4.821-19.584,11.877c1.538-0.339,3.134-0.523,4.774-0.523
	c12.198,0,22.086,9.889,22.086,22.086c0,3.684-0.908,7.155-2.503,10.209c9.902-2.183,17.313-11.005,17.313-21.563
	C156.11,398.908,146.221,389.02,134.024,389.02z"/>
<path style="fill:#00AA95;" d="M217.349,389.02c-8.513,0-15.897,4.821-19.583,11.877c1.538-0.339,3.134-0.523,4.774-0.523
	c12.198,0,22.086,9.889,22.086,22.086c0,3.684-0.908,7.155-2.503,10.209c9.902-2.183,17.313-11.005,17.313-21.563
	C239.435,398.908,229.547,389.02,217.349,389.02z"/>
<path style="fill:#E2B17D;" d="M240.64,142.527c0.522,2.901,0.713,5.863,0.552,8.835l-11.776,180.867
	c-0.191,3.413-3.514,6.094-7.549,6.094s-7.359-2.68-7.549-6.094L202.531,151.15c-0.151-2.992,0.04-5.973,0.572-8.895l3.032-16.575
	c0.502-2.731,2.881-4.708,5.652-4.708h20.149c2.781,0,5.16,1.988,5.652,4.718L240.64,142.527z"/>
<path style="fill:#D69C67;" d="M220.102,151.15c-0.151-2.992,0.04-5.973,0.572-8.895l3.032-16.575
	c0.502-2.731,2.881-4.708,5.652-4.708h-17.571c-2.771,0-5.15,1.978-5.652,4.708l-3.032,16.575c-0.532,2.921-0.723,5.903-0.572,8.895
	l11.786,181.077c0.191,3.413,3.514,6.094,7.549,6.094s7.359-2.68,7.549-6.094l1.236-18.985L220.102,151.15z"/>
<path style="fill:#2CD4E5;" d="M165.145,83.155v236.594c0,9.979-8.092,18.071-18.071,18.071c-4.99,0-9.507-2.028-12.78-5.291
	c-3.263-3.273-5.291-7.79-5.291-12.78V83.155l13.965-24.696c1.807-3.192,6.405-3.192,8.212,0L165.145,83.155z"/>
<path style="fill:#1FCCB3;" d="M152.365,332.529c-3.263-3.273-5.291-7.79-5.291-12.78V83.155l9.035-15.979l-4.929-8.717
	c-1.807-3.192-6.405-3.192-8.212,0l-13.965,24.696v236.594c0,4.99,2.028,9.507,5.291,12.78c3.273,3.263,7.79,5.291,12.78,5.291
	c3.296,0,6.376-0.897,9.036-2.439C154.741,334.589,153.477,333.637,152.365,332.529z"/>
<path style="fill:#ED3124;" d="M84.181,168.572L95.033,289.1c0.293,3.253-1.787,6.276-4.946,7.102
	c-20.234,5.29-40.474,5.29-60.708,0c-3.159-0.826-5.238-3.849-4.946-7.102l10.852-120.528c0.227-2.524,1.862-4.693,4.209-5.65
	c13.493-5.496,26.985-5.496,40.478,0C82.32,163.879,83.954,166.049,84.181,168.572z"/>
<path style="fill:#E00E0E;" d="M60.982,296.202c-3.159-0.826-5.239-3.849-4.946-7.102l10.852-120.528
	c0.227-2.524,1.861-4.693,4.209-5.65c1.479-0.602,2.959-1.127,4.437-1.598c-12.014-3.821-24.027-3.297-36.041,1.598
	c-2.347,0.956-3.982,3.125-4.209,5.65L24.432,289.1c-0.293,3.253,1.787,6.276,4.946,7.102c15.383,4.022,30.77,4.977,46.155,2.884
	C70.684,298.426,65.833,297.471,60.982,296.202z"/>
<path style="fill:#DDDDDD;" d="M30.447,222.305l-3.557,39.503c21.894,4.284,43.795,4.298,65.689,0.029l-3.556-39.498
	C69.494,225.726,49.966,225.716,30.447,222.305z"/>
<path d="M512,48.389c0-17.825-14.502-32.326-32.326-32.326H316.737c-17.653,0-32.289,14.356-32.626,32.002
	c-0.001,0.047-0.001,0.095-0.001,0.144V435.16c0,14.138,11.502,25.64,25.64,25.64h172.183c16.58,0,30.067-13.489,30.067-30.067
	V96.326c0-0.096-0.001-0.192-0.002-0.288c0.001-0.054,0.002-0.108,0.002-0.164V48.389z M438.714,445.741V312.843
	c0-4.158-3.37-7.529-7.529-7.529c-4.159,0-7.529,3.371-7.529,7.529v132.898H309.75c-5.835,0-10.581-4.747-10.581-10.581V75.999
	c5.216,3.362,11.447,5.319,18.131,5.319h106.355v161.129c0,4.158,3.37,7.529,7.529,7.529c4.159,0,7.529-3.371,7.529-7.529V81.318
	h15.059v364.424H438.714z M496.941,430.733c0,8.276-6.733,15.009-15.009,15.009h-13.101V81.318h13.101
	c8.118,0,14.847,6.594,15,14.699c0.002,0.08,0.005,0.16,0.009,0.239V430.733z M496.941,70.321c-4.431-2.58-9.564-4.062-15.009-4.062
	H317.299c-9.813,0-18.117-8.05-18.131-17.569v-0.403c0.216-9.472,8.084-17.166,17.569-17.166h162.936
	c9.521,0,17.267,7.746,17.267,17.267V70.321z"/>
<path d="M461.302,39.153h-92.361c-4.159,0-7.529,3.371-7.529,7.529s3.37,7.529,7.529,7.529h92.361c4.159,0,7.529-3.371,7.529-7.529
	S465.461,39.153,461.302,39.153z"/>
<path d="M242.076,355.388h-215.1C12.101,355.388,0,367.49,0,382.364v86.601c0,14.873,12.099,26.972,26.972,26.972H242.08
	c14.872,0,26.971-12.099,26.971-26.972v-86.601C269.051,367.49,256.95,355.388,242.076,355.388z M15.059,382.364
	c0-6.571,5.346-11.917,11.917-11.917h215.1c6.571,0,11.917,5.346,11.917,11.917v57.485c0,6.571-5.346,11.917-11.917,11.917h-215.1
	c-6.571,0-11.917-5.346-11.917-11.917V382.364z M242.079,480.878H26.972c-6.57,0-11.914-5.344-11.914-11.914v-4.919
	c3.596,1.778,7.642,2.778,11.917,2.778h215.1c4.276,0,8.322-1,11.917-2.778v4.919C253.992,475.535,248.648,480.878,242.079,480.878z
	"/>
<path d="M50.698,440.722c16.33,0,29.616-13.286,29.616-29.616c0-16.33-13.286-29.616-29.616-29.616s-29.616,13.286-29.616,29.616
	C21.082,427.436,34.368,440.722,50.698,440.722z M50.698,396.549c8.026,0,14.557,6.531,14.557,14.557
	c0,8.026-6.531,14.557-14.557,14.557s-14.557-6.531-14.557-14.557C36.141,403.08,42.672,396.549,50.698,396.549z"/>
<path d="M134.024,440.722c16.33,0,29.616-13.286,29.616-29.616c0-16.33-13.286-29.616-29.616-29.616s-29.616,13.286-29.616,29.616
	C104.408,427.436,117.694,440.722,134.024,440.722z M134.024,396.549c8.026,0,14.557,6.531,14.557,14.557
	c0,8.026-6.531,14.557-14.557,14.557c-8.026,0-14.557-6.531-14.557-14.557C119.467,403.08,125.997,396.549,134.024,396.549z"/>
<path d="M217.349,440.722c16.33,0,29.616-13.286,29.616-29.616c0-16.33-13.286-29.616-29.616-29.616s-29.616,13.286-29.616,29.616
	C187.733,427.436,201.019,440.722,217.349,440.722z M217.349,396.549c8.026,0,14.557,6.531,14.557,14.557
	c0,8.026-6.531,14.557-14.557,14.557s-14.557-6.531-14.557-14.557C202.792,403.08,209.323,396.549,217.349,396.549z"/>
<path d="M200.034,120.545c-0.61,1.163-1.057,2.432-1.305,3.782l-3.033,16.58c-0.634,3.481-0.864,7.055-0.685,10.625
	c0.001,0.037,0.004,0.073,0.006,0.109L206.8,332.648c0.414,7.404,7.031,13.203,15.067,13.203s14.653-5.8,15.063-13.134
	l11.781-180.949c0.19-3.524-0.031-7.082-0.662-10.584l-3.051-16.828c-0.287-1.593-0.851-3.077-1.636-4.404
	c6.529-5.97,10.631-14.554,10.631-24.077c0-15.778-22.348-43.565-26.829-48.975c-1.43-1.727-3.556-2.727-5.799-2.727
	s-4.369,1-5.799,2.727c-4.48,5.41-26.829,33.198-26.829,48.975C188.737,105.718,193.119,114.557,200.034,120.545z M230.445,128.502
	l2.784,15.359c0.422,2.346,0.571,4.732,0.449,7.011l-11.714,179.917c-0.062,0.004-0.134,0.004-0.196,0l-11.72-180.072
	c-0.116-2.394,0.039-4.787,0.461-7.107l2.764-15.108H230.445z M221.357,63.893c8.469,11.34,17.577,25.833,17.577,31.982
	c0,9.687-7.882,17.569-17.569,17.569s-17.569-7.882-17.569-17.569C203.796,90.182,212.115,76.234,221.357,63.893z"/>
<path d="M147.075,345.349c14.116,0,25.6-11.484,25.6-25.6V83.155c0-1.299-0.335-2.575-0.975-3.705L157.733,54.75
	c-2.17-3.834-6.253-6.215-10.659-6.215c-4.405,0-8.489,2.382-10.661,6.218l-13.965,24.696c-0.639,1.13-0.975,2.406-0.975,3.705
	v236.594c0,6.826,2.659,13.253,7.504,18.112C133.822,342.69,140.249,345.349,147.075,345.349z M147.075,330.29
	c-2.812,0-5.463-1.098-7.448-3.077c-1.995-2.001-3.093-4.651-3.093-7.464V93.867h21.082v225.882
	C157.616,325.562,152.887,330.29,147.075,330.29z M154.038,78.808h-13.925l6.963-12.314L154.038,78.808z"/>
<path d="M21.715,301.846c12.613,3.89,25.316,5.835,38.019,5.835s25.405-1.946,38.019-5.835c3.397-1.047,5.6-4.33,5.281-7.87
	L91.327,163.969c-0.237-2.632-1.836-4.946-4.213-6.1c-0.928-0.45-1.855-0.876-2.784-1.28V130.61c0-7.252-5.899-13.151-13.151-13.151
	H46.281c-7.252,0-13.151,5.899-13.151,13.151v26.888c-0.259,0.121-0.517,0.245-0.776,0.37c-2.377,1.152-3.977,3.468-4.213,6.1
	L16.434,293.976C16.115,297.516,18.318,300.799,21.715,301.846z M42.741,169.731c11.4-4.542,22.585-4.542,33.986,0L80.83,215.3
	c-14.024,2.711-28.172,2.71-42.191-0.003L42.741,169.731z M59.741,232.396c7.49,0,14.983-0.677,22.445-2.029l2.192,24.338
	c-16.362,3.704-32.901,3.704-49.288,0.003l2.192-24.345C44.747,231.718,52.243,232.396,59.741,232.396z M31.993,289.098
	l1.736-19.273c8.647,1.817,17.328,2.725,26.007,2.725c8.683,0,17.363-0.91,26.004-2.728l1.736,19.275
	C69.04,293.781,50.427,293.781,31.993,289.098z M48.188,132.518h21.082v18.071H48.188V132.518z"/>
<g>
</g>
<g>
</g>
<g>
</g>
<g>
</g>
<g>
</g>
<g>
</g>
<g>
</g>
<g>
</g>
<g>
</g>
<g>
</g>
<g>
</g>
<g>
</g>
<g>
</g>
<g>
</g>
<g>
</g>
</svg>
