<?xml version="1.0" encoding="iso-8859-1"?>
<!-- Generator: Adobe Illustrator 19.0.0, SVG Export Plug-In . SVG Version: 6.00 Build 0)  -->
<svg version="1.1" id="Capa_1" xmlns="http://www.w3.org/2000/svg" xmlns:xlink="http://www.w3.org/1999/xlink" x="0px" y="0px"
	 viewBox="0 0 512 512" style="enable-background:new 0 0 512 512;" xml:space="preserve">
<path style="fill:#00AA95;" d="M436.352,344.633v58.404c0,12.565-10.19,22.754-22.754,22.754h-41.371v-81.159H436.352z"/>
<rect x="372.227" y="344.633" style="fill:#029B85;" width="33.135" height="81.159"/>
<path style="fill:#FFD422;" d="M449.378,338.491v7.735c0,2.996-2.425,5.421-5.431,5.421h-71.72v-28.055h62.252
	C442.705,323.592,449.378,330.265,449.378,338.491z"/>
<path style="fill:#00AA95;" d="M154.802,348.641v77.151h-38.365c-12.565,0-22.754-10.19-22.754-22.754v-54.396H154.802z"/>
<rect x="124.674" y="348.641" style="fill:#029B85;" width="30.129" height="77.151"/>
<path style="fill:#FFD422;" d="M154.802,323.592v28.055H86.088c-3.006,0-5.431-2.425-5.431-5.421v-7.735
	c0-8.226,6.673-14.899,14.899-14.899H154.802z"/>
<rect x="55.609" y="169.942" style="fill:#898989;" width="22.043" height="34.846"/>
<path style="fill:#008877;" d="M382.247,253.455V419.6c0,26.111-21.161,47.272-47.272,47.272H195.061
	c-26.111,0-47.272-21.161-47.272-47.272V253.455H382.247z"/>
<g>
	<rect x="124.674" y="323.592" style="fill:#EDA900;" width="30.129" height="28.055"/>
	<rect x="372.227" y="323.592" style="fill:#EDA900;" width="33.135" height="28.055"/>
</g>
<path style="fill:#007A68;" d="M380.454,253.455H242.527h-92.946h-1.792v12.883v65.788V419.6c0,26.108,21.164,47.272,47.272,47.272
	h94.738c-26.111,0-47.272-21.161-47.272-47.272v-31.838c0-4.077,3.304-7.381,7.381-7.381h63.484l29.678-0.852
	c22.314-4.248,39.177-23.857,39.177-47.403v-65.788C382.247,261.87,381.613,257.552,380.454,253.455z"/>
<path style="fill:#00AA95;" d="M382.247,244.618v65.788c0,23.546-16.863,43.154-39.177,47.403l-29.678,0.852h-95.967l-28.626-0.541
	c-23.215-3.497-41.01-23.526-41.01-47.713v-65.788c0-26.101,21.161-47.272,47.272-47.272h139.913
	C361.085,197.345,382.247,218.517,382.247,244.618z"/>
<path style="fill:#049E88;" d="M290.915,322.135l-22.185-0.419c-15.962-0.302-31.009-8.207-39.701-21.598
	c-4.903-7.553-7.749-16.562-7.749-26.237v-65.788c0-3.698,0.439-7.292,1.242-10.747h-27.462c-26.108,0-47.272,21.164-47.272,47.272
	v65.788c0,24.187,17.795,44.216,41.01,47.713l28.626,0.541h95.967l29.678-0.852c18.479-3.518,33.209-17.574,37.73-35.674H290.915z"
	/>
<path style="fill:#FFE477;" d="M217.425,310.066v90.07c0,1.914-0.827,3.734-2.267,4.994l-6.8,5.944
	c-3.026,2.645-7.585,2.485-10.43-0.361l-5.615-5.623c-1.241-1.243-1.94-2.929-1.94-4.686v-90.337H217.425z"/>
<path style="fill:#F4C951;" d="M205.838,405.089c-1.241-1.243-1.94-2.929-1.94-4.686v-90.337h-13.526v90.337
	c0,1.757,0.697,3.443,1.94,4.686l5.615,5.623c2.846,2.846,7.404,3.006,10.43,0.361l1.846-1.613L205.838,405.089z"/>
<path style="fill:#EEBF00;" d="M225.941,303.503v9.118c0,4.399-3.567,7.966-7.966,7.966h-28.155c-4.399,0-7.966-3.567-7.966-7.966
	v-9.118c0-4.399,3.567-7.966,7.966-7.966h28.155C222.374,295.537,225.941,299.104,225.941,303.503z"/>
<path style="fill:#FFE477;" d="M341.667,310.066v90.337c0,1.757-0.697,3.443-1.94,4.686l-5.615,5.623
	c-2.846,2.846-7.404,3.006-10.43,0.361l-6.8-5.944c-1.441-1.259-2.267-3.08-2.267-4.994v-90.07H341.667z"/>
<path style="fill:#F4C951;" d="M330.408,405.129c-1.441-1.259-2.267-3.08-2.267-4.994v-90.07h-13.526v90.07
	c0,1.914,0.827,3.734,2.267,4.994l6.8,5.944c3.026,2.645,7.585,2.485,10.43-0.361l1.25-1.252L330.408,405.129z"/>
<path style="fill:#EEBF00;" d="M350.184,303.503v9.118c0,4.399-3.567,7.966-7.966,7.966h-28.155c-4.399,0-7.966-3.567-7.966-7.966
	v-9.118c0-4.399,3.567-7.966,7.966-7.966h28.155C346.617,295.537,350.184,299.104,350.184,303.503z"/>
<g>
	<path style="fill:#EDA900;" d="M211.864,312.611c-4.399,0-7.966-3.567-7.966-7.966v-9.108h-14.077
		c-4.399,0-7.966,3.567-7.966,7.966v9.118c0,4.399,3.567,7.966,7.966,7.966h28.155c4.399,0,7.966-3.567,7.966-7.966v-0.01H211.864z"
		/>
	<path style="fill:#EDA900;" d="M336.106,312.611c-4.399,0-7.966-3.567-7.966-7.966v-9.108h-14.077
		c-4.399,0-7.966,3.567-7.966,7.966v9.118c0,4.399,3.567,7.966,7.966,7.966h28.155c4.399,0,7.966-3.567,7.966-7.966v-0.01H336.106z"
		/>
</g>
<path style="fill:#FFE477;" d="M291.068,417.085v15.41c0,4.599-3.727,8.326-8.326,8.326h-35.449c-4.599,0-8.326-3.727-8.326-8.326
	v-15.41c0-4.599,3.727-8.326,8.326-8.326h35.449C287.341,408.758,291.068,412.486,291.068,417.085z"/>
<path style="fill:#ED3124;" d="M415.311,139.142v40.269c0,9.909-8.036,17.935-17.935,17.935H132.659
	c-9.899,0-17.935-8.026-17.935-17.935v-40.269c0-9.909,8.036-17.945,17.935-17.945h264.717
	C407.275,121.197,415.311,129.232,415.311,139.142z"/>
<path style="fill:#E00E0E;" d="M182.256,159.271c-9.899,0-17.935-8.026-17.935-17.935v-20.139h-31.662
	c-9.899,0-17.935,8.036-17.935,17.945v40.269c0,9.909,8.036,17.935,17.935,17.935h264.717c9.899,0,17.935-8.026,17.935-17.935
	v-20.139H182.256z"/>
<g>
	<rect x="167.828" y="121.197" style="fill:#FFD422;" width="32.063" height="76.149"/>
	<rect x="333.151" y="121.197" style="fill:#FFD422;" width="32.063" height="76.149"/>
</g>
<path style="fill:#6D3D22;" d="M495.468,16.602v478.485c0,5.19-4.208,9.398-9.398,9.398h-7.254c-5.19,0-9.398-4.208-9.398-9.398
	V143.711l-72.472-80.457c-3.357-3.727-3.056-9.468,0.671-12.825l5.851-5.28c3.727-3.357,9.478-3.056,12.835,0.671l40.188,44.617
	c4.549,5.05,12.925,1.834,12.925-4.97V16.602c0-5.02,4.068-9.088,9.088-9.088h7.875C491.4,7.515,495.468,11.583,495.468,16.602z"/>
<g>
	<path style="fill:#5E311B;" d="M442.679,90.437c3.756,4.17,10.111,2.694,12.215-1.774l-38.59-42.843
		c-3.357-3.727-9.108-4.028-12.835-0.671l-0.873,0.788L442.679,90.437z"/>
	<path style="fill:#5E311B;" d="M486.38,7.515h-7.875c-1.041,0-2.037,0.183-2.969,0.506c3.559,1.231,6.119,4.603,6.119,8.582
		v478.485c0,4.035-2.548,7.467-6.119,8.798c1.022,0.381,2.124,0.6,3.279,0.6h7.254c5.19,0,9.398-4.208,9.398-9.398V16.602
		C495.468,11.583,491.4,7.515,486.38,7.515z"/>
</g>
<path style="fill:#2CD4E5;" d="M66.63,199.89c27.664,0,50.098,22.434,50.098,50.098s-22.434,50.098-50.098,50.098
	s-50.098-22.434-50.098-50.098S38.966,199.89,66.63,199.89z"/>
<path style="fill:#11C197;" d="M66.63,241.478c0-15.369,6.931-29.117,17.83-38.308c-5.541-2.112-11.549-3.279-17.83-3.279
	c-27.664,0-50.098,22.434-50.098,50.098s22.434,50.098,50.098,50.098c12.295,0,23.55-4.439,32.268-11.79
	C80.037,281.107,66.63,262.859,66.63,241.478z"/>
<path style="fill:#535454;" d="M84.665,159.712v7.214c0,4.369-3.547,7.915-7.915,7.915H56.51c-4.369,0-7.915-3.547-7.915-7.915
	v-7.214c0-4.369,3.547-7.915,7.915-7.915h20.24C81.118,151.796,84.665,155.343,84.665,159.712z"/>
<path style="fill:#F94A46;" d="M84.174,234.996l-4.263,26.43c-0.153,0.948-0.896,1.69-1.844,1.844l-26.43,4.263
	c-1.499,0.241-2.794-1.054-2.553-2.553l4.263-26.43c0.153-0.948,0.896-1.69,1.844-1.844l26.43-4.263
	C83.12,232.203,84.416,233.498,84.174,234.996z"/>
<path d="M282.742,401.244h-35.449c-8.735,0-15.841,7.106-15.841,15.841v15.41c0,8.735,7.106,15.841,15.841,15.841h35.45
	c8.735,0,15.841-7.106,15.841-15.841v-15.41C298.583,408.35,291.477,401.244,282.742,401.244z M283.554,432.495
	c0,0.448-0.364,0.812-0.812,0.812h-35.449c-0.447,0-0.812-0.364-0.812-0.812v-15.41c0-0.448,0.364-0.812,0.812-0.812h35.45
	c0.447,0,0.812,0.364,0.812,0.812v15.41H283.554z"/>
<path d="M434.479,316.077h-44.717v-71.455c0-15.64-6.587-29.77-17.132-39.763h24.747c14.033,0,25.45-11.417,25.45-25.45v-40.269
	c0-14.038-11.417-25.46-25.45-25.46H132.659c-14.033,0-25.45,11.421-25.45,25.46v40.269c0,14.032,11.417,25.45,25.45,25.45h24.747
	c-10.546,9.993-17.132,24.122-17.132,39.763v71.455H95.557c-12.359,0-22.414,10.055-22.414,22.414v7.735
	c0,7.133,5.807,12.935,12.945,12.935h0.08v43.876c0,16.691,13.579,30.269,30.269,30.269h25.572
	c6.101,23.598,27.573,41.08,53.051,41.08h139.914c25.478,0,46.95-17.482,53.051-41.08h25.572c16.691,0,30.269-13.579,30.269-30.269
	v-43.876h0.08c7.138,0,12.945-5.803,12.945-12.935v-7.735C456.892,326.132,446.838,316.077,434.479,316.077z M434.479,331.107
	c4.071,0,7.384,3.312,7.384,7.384v5.641h-52.102v-13.025H434.479z M407.796,139.142v40.269c0,5.745-4.675,10.42-10.42,10.42h-24.648
	v-61.119h24.648C403.121,128.711,407.796,133.391,407.796,139.142z M357.699,128.711v61.119h-17.033v-61.119H357.699z
	 M192.376,128.711v61.119h-17.033v-61.119H192.376z M122.239,179.41v-40.269c0-5.751,4.675-10.43,10.42-10.43h27.654v61.119h-27.654
	C126.914,189.831,122.239,185.156,122.239,179.41z M155.303,244.623c0-21.924,17.836-39.76,39.76-39.76h49.065
	c4.151,0,7.515-3.365,7.515-7.515c0-4.15-3.364-7.515-7.515-7.515h-7.439c-0.064-0.002-0.129-0.002-0.194-0.002h-29.09v-61.119
	h118.231v61.119l0,0c-0.065,0,0-0.002-0.065,0l-30.109,0.002c-4.151,0-7.515,3.365-7.515,7.515c0,4.15,3.364,7.515,7.515,7.515
	h39.51c21.924,0,39.76,17.836,39.76,39.76v65.783c0,16.879-10.375,31.736-25.55,37.822v-21.785
	c5.048-2.553,8.517-7.791,8.517-13.824v-9.118c0-8.536-6.945-15.48-15.48-15.48h-28.155c-8.537,0-15.48,6.945-15.48,15.48v9.118
	c0,6.033,3.469,11.27,8.517,13.824v24.704h-82.16v-24.704c5.048-2.553,8.517-7.791,8.517-13.824v-9.118
	c0-8.536-6.945-15.48-15.48-15.48h-28.155c-8.537,0-15.48,6.945-15.48,15.48v9.118c0,6.033,3.469,11.27,8.517,13.824v22.515
	c-16.116-5.552-27.554-21.024-27.554-38.553L155.303,244.623L155.303,244.623z M334.153,328.602v71.436l-5.354,5.361
	c-0.058,0.056-0.13,0.051-0.171,0.016l-6.498-5.68v-71.133H334.153z M342.669,312.621c0,0.248-0.202,0.451-0.451,0.451h-28.155
	c-0.248,0-0.451-0.202-0.451-0.451v-9.118c0-0.248,0.202-0.451,0.451-0.451h28.155c0.248,0,0.451,0.202,0.451,0.451V312.621z
	 M218.427,312.621c0,0.248-0.202,0.451-0.451,0.451h-28.155c-0.248,0-0.451-0.202-0.451-0.451v-9.118
	c0-0.248,0.202-0.451,0.451-0.451h28.155c0.248,0,0.451,0.202,0.451,0.451V312.621z M197.886,328.602h12.023v71.133l-6.498,5.68
	c-0.042,0.036-0.114,0.04-0.168-0.013l-5.357-5.365V328.602z M88.172,338.491c0-4.072,3.313-7.384,7.384-7.384h44.717v13.025H88.172
	V338.491z M101.198,403.037v-42.874h39.076v58.114h-23.837C108.034,418.277,101.198,411.441,101.198,403.037z M334.974,459.357
	H195.061c-21.923,0-39.758-17.835-39.758-39.758V348.35c7.281,7.837,16.785,13.626,27.554,16.253v38.543
	c0,1.991,0.791,3.902,2.197,5.31l7.558,7.569c2.944,2.943,6.834,4.43,10.733,4.43c3.551,0,7.107-1.233,9.957-3.724l9.068-7.926
	c1.633-1.427,2.569-3.49,2.569-5.658v-36.969h82.16v36.969c0,2.168,0.937,4.231,2.569,5.658l9.068,7.926
	c2.85,2.491,6.406,3.724,9.955,3.724c3.901,0,7.793-1.488,10.738-4.433l7.555-7.565c1.407-1.409,2.197-3.319,2.197-5.31v-39.064
	c9.992-2.818,18.752-8.308,25.55-15.593v71.11C374.732,441.522,356.897,459.357,334.974,459.357z M428.838,403.037
	c0,8.403-6.836,15.24-15.24,15.24h-23.837v-58.114h39.076V403.037z"/>
<path d="M486.38,0h-7.874c-9.155,0-16.603,7.448-16.603,16.602l-0.004,68.609l-40.011-44.421
	c-6.126-6.802-16.645-7.352-23.454-1.221l-5.846,5.275c-6.799,6.123-7.349,16.637-1.225,23.438l70.541,78.314v348.491
	c0,9.326,7.587,16.913,16.913,16.913h7.254c9.326,0,16.913-7.587,16.913-16.913V16.602C502.982,7.448,495.534,0,486.38,0z
	 M487.953,495.087c0,1.039-0.846,1.884-1.884,1.884h-7.254c-1.038,0-1.884-0.845-1.884-1.884V143.711
	c0-1.858-0.688-3.649-1.932-5.03l-72.471-80.457c-0.578-0.641-0.525-1.634,0.121-2.217l5.845-5.274
	c0.301-0.271,0.677-0.404,1.053-0.404c0.432,0,0.86,0.175,1.171,0.52l40.188,44.617c4.172,4.632,10.628,6.179,16.444,3.947
	c5.819-2.234,9.58-7.708,9.58-13.945V16.602c0-0.868,0.705-1.573,1.573-1.573h7.874c0.868,0,1.573,0.705,1.573,1.573
	L487.953,495.087L487.953,495.087z"/>
<path d="M124.243,249.988c0-25.286-16.374-46.819-39.076-54.554v-15.581c4.219-2.756,7.014-7.522,7.014-12.927v-7.214
	c0-8.509-6.922-15.43-15.43-15.43H56.51c-8.509,0-15.43,6.922-15.43,15.43v7.214c0,5.406,2.794,10.171,7.014,12.927v15.581
	c-22.702,7.734-39.076,29.267-39.076,54.554c0,31.768,25.844,57.613,57.613,57.613S124.243,281.756,124.243,249.988z M56.11,159.712
	c0-0.217,0.184-0.401,0.401-0.401h20.24c0.217,0,0.401,0.183,0.401,0.401v7.214c0,0.217-0.184,0.401-0.401,0.401H56.51
	c-0.217,0-0.401-0.183-0.401-0.401V159.712z M63.123,192.376v-10.02h7.014v10.02H63.123z M66.63,292.571
	c-23.481,0-42.583-19.102-42.583-42.583s19.102-42.583,42.583-42.583s42.583,19.102,42.583,42.583S90.111,292.571,66.63,292.571z"/>
<path d="M83.469,224.535l-31.061,5.01c-3.198,0.516-5.706,3.024-6.222,6.222l-5.01,31.061c-0.385,2.382,0.399,4.804,2.105,6.511
	c1.42,1.42,3.337,2.2,5.313,2.2c0.397,0,0.798-0.031,1.196-0.096l31.061-5.01c3.198-0.516,5.706-3.024,6.222-6.222l5.01-31.061
	c0.385-2.382-0.399-4.804-2.105-6.511C88.273,224.933,85.856,224.15,83.469,224.535z M73.101,256.459l-15.43,2.489l2.489-15.43
	l15.43-2.489L73.101,256.459z"/>
<g>
</g>
<g>
</g>
<g>
</g>
<g>
</g>
<g>
</g>
<g>
</g>
<g>
</g>
<g>
</g>
<g>
</g>
<g>
</g>
<g>
</g>
<g>
</g>
<g>
</g>
<g>
</g>
<g>
</g>
</svg>
