<?xml version="1.0" encoding="iso-8859-1"?>
<!-- Generator: Adobe Illustrator 19.0.0, SVG Export Plug-In . SVG Version: 6.00 Build 0)  -->
<svg version="1.1" id="Capa_1" xmlns="http://www.w3.org/2000/svg" xmlns:xlink="http://www.w3.org/1999/xlink" x="0px" y="0px"
	 viewBox="0 0 512.001 512.001" style="enable-background:new 0 0 512.001 512.001;" xml:space="preserve">
<g>
	<path style="fill:#ED3124;" d="M314.372,364.409c4.992,9.563,5.293,19.117,0.912,28.67c-1.834,4-6.867,5.353-10.536,2.917
		l-35.116-23.247l36.068-11.839C309.059,359.808,312.738,361.281,314.372,364.409z"/>
	<path style="fill:#ED3124;" d="M264.421,372.749l-35.116,23.247c-3.669,2.436-8.701,1.083-10.536-2.917
		c-4.381-9.553-4.08-19.107,0.912-28.67c1.634-3.128,5.313-4.601,8.671-3.499L264.421,372.749z"/>
</g>
<path style="fill:#34D6D2;" d="M469.31,157.635c0,54.162-30.675,99.312-71.384,109.577c-1.484,0.371-2.506,1.714-2.506,3.228v4.441
	c0,8.531-7.067,15.408-15.668,15.107c-8.19-0.291-14.566-7.268-14.566-15.468v-4.08c0-1.514-1.022-2.857-2.506-3.228
	c-40.709-10.265-71.384-55.415-71.384-109.577c0-61.731,39.847-111.773,89.007-111.773S469.31,95.904,469.31,157.635z"/>
<path style="fill:#20C6AA;" d="M358.961,157.635c0-46.689,22.798-86.684,55.175-103.406c-10.431-5.388-21.854-8.366-33.833-8.366
	c-49.16,0-89.007,50.042-89.007,111.773c0,54.162,30.675,99.312,71.384,109.577c1.484,0.371,2.506,1.714,2.506,3.228v4.08
	c0,8.2,6.376,15.177,14.566,15.468c8.601,0.301,15.668-6.576,15.668-15.107v-4.441c0-1.514,1.022-2.857,2.506-3.228
	c5.615-1.416,11.03-3.518,16.21-6.193C381.767,244.298,358.961,204.325,358.961,157.635z"/>
<path style="fill:#E8B62A;" d="M218.699,157.635c0,54.162-30.675,99.312-71.384,109.577c-1.484,0.371-2.506,1.714-2.506,3.228v4.441
	c0,8.531-7.067,15.408-15.668,15.107c-8.19-0.291-14.566-7.268-14.566-15.468v-4.08c0-1.514-1.022-2.857-2.506-3.228
	c-40.709-10.265-71.384-55.415-71.384-109.577c0-61.731,39.847-111.773,89.007-111.773S218.699,95.904,218.699,157.635z"/>
<path style="fill:#FF7400;" d="M361.257,140.964c0,64.658-36.619,118.559-85.228,130.819c-1.754,0.441-2.987,2.035-2.987,3.849
	v5.303c0,10.185-8.441,18.395-18.706,18.034c-9.774-0.351-17.382-8.681-17.382-18.465v-4.872c0-1.814-1.233-3.408-2.987-3.849
	c-48.609-12.26-85.228-66.161-85.228-130.819c0-73.7,47.576-133.446,106.259-133.446S361.257,67.264,361.257,140.964z"/>
<path style="fill:#EAA428;" d="M108.35,157.635c0-46.689,22.798-86.684,55.175-103.406c-10.431-5.388-21.854-8.366-33.833-8.366
	c-49.16,0-89.007,50.042-89.007,111.773c0,54.162,30.675,99.312,71.384,109.577c1.484,0.371,2.506,1.714,2.506,3.228v4.08
	c0,8.2,6.376,15.177,14.566,15.468c8.601,0.301,15.668-6.576,15.668-15.107v-4.441c0-1.514,1.023-2.857,2.506-3.228
	c5.615-1.416,11.03-3.518,16.21-6.193C131.155,244.298,108.35,204.325,108.35,157.635z"/>
<path style="fill:#FF5500;" d="M216.403,140.964c0-58.845,30.33-108.789,72.427-126.535c-10.628-4.48-22.004-6.911-33.833-6.911
	c-58.683,0-106.259,59.746-106.259,133.446c0,64.658,36.619,118.559,85.228,130.819c1.754,0.441,2.987,2.035,2.987,3.849v4.872
	c0,9.784,7.609,18.114,17.382,18.465c10.265,0.361,18.706-7.849,18.706-18.034v-5.303c0-1.814,1.233-3.408,2.987-3.849
	c4.371-1.103,8.642-2.547,12.801-4.301C246.736,249.737,216.403,199.807,216.403,140.964z"/>
<g>
	<path style="fill:#E8B62A;" d="M498.852,292.995c2.757,1.504,2.757,5.453,0,6.957l-9.533,5.223
		c-0.672,0.361-1.213,0.902-1.574,1.574l-5.223,9.533c-1.504,2.757-5.453,2.757-6.957,0l-5.223-9.533
		c-0.361-0.672-0.902-1.213-1.574-1.574l-9.533-5.223c-2.757-1.504-2.757-5.453,0-6.957l9.533-5.223
		c0.672-0.361,1.213-0.902,1.574-1.574l5.223-9.533c1.504-2.757,5.453-2.757,6.957,0l5.223,9.533
		c0.361,0.672,0.902,1.213,1.574,1.574L498.852,292.995z"/>
	<path style="fill:#E8B62A;" d="M434.696,164.682c2.757,1.504,2.757,5.453,0,6.957l-9.533,5.223
		c-0.672,0.361-1.213,0.902-1.574,1.574l-5.223,9.533c-1.504,2.757-5.453,2.757-6.957,0l-5.223-9.533
		c-0.361-0.672-0.902-1.213-1.574-1.574l-9.533-5.223c-2.757-1.504-2.757-5.453,0-6.957l9.533-5.223
		c0.672-0.361,1.213-0.902,1.574-1.574l5.223-9.533c1.504-2.757,5.453-2.757,6.957,0l5.223,9.533
		c0.361,0.672,0.902,1.213,1.574,1.574L434.696,164.682z"/>
	<path style="fill:#E8B62A;" d="M52.764,34.364c2.757,1.504,2.757,5.453,0,6.957l-9.533,5.223c-0.672,0.361-1.213,0.902-1.574,1.574
		l-5.223,9.533c-1.504,2.757-5.453,2.757-6.957,0l-5.223-9.533c-0.361-0.672-0.902-1.213-1.574-1.574l-9.533-5.223
		c-2.757-1.504-2.757-5.453,0-6.957l9.533-5.223c0.672-0.361,1.213-0.902,1.574-1.574l5.223-9.533c1.504-2.757,5.453-2.757,6.957,0
		l5.223,9.533c0.361,0.672,0.902,1.213,1.574,1.574L52.764,34.364z"/>
</g>
<path d="M476.83,157.635c0-65.777-43.301-119.291-96.525-119.291c-13.549,0-26.991,3.53-39.276,10.264
	C319.999,18.592,289.001,0,254.998,0c-30.72,0-59.492,14.888-81.017,41.92c-1.731,2.173-3.398,4.407-5,6.693
	c-12.282-6.735-25.747-10.27-39.288-10.27c-53.225,0-96.525,53.514-96.525,119.291c0,27.432,7.696,54.206,21.668,75.39
	c13.346,20.232,31.786,34.543,52.222,40.606v0.889c0,10.424,6.715,19.196,16.081,22.033l10.386,64.051
	c2.282,14.071,0.291,28.333-5.76,41.242l-4.053,8.645c-7.708,16.445-9.991,35.309-6.43,53.116c0.715,3.574,3.854,6.045,7.365,6.045
	c0.488,0,0.984-0.048,1.483-0.146c4.072-0.815,6.712-4.776,5.898-8.847c-2.936-14.68-1.055-30.229,5.3-43.785l4.053-8.645
	c7.34-15.66,9.756-32.96,6.988-50.031l-10.111-62.348c2.626-1.074,5.05-2.649,7.158-4.685c4.457-4.305,6.912-10.087,6.912-16.281
	v-1.249c12.408-3.68,24.186-10.44,34.493-19.78c12.629,11.699,27.155,20.106,42.615,24.5v2.153c0,12.1,8.001,22.232,19.028,25.149
	l9.24,56.977l-27.004-8.863c-6.892-2.266-14.329,0.744-17.683,7.161c-6.097,11.681-6.46,23.551-1.081,35.284
	c1.778,3.877,5.164,6.776,9.288,7.949c1.336,0.381,2.703,0.567,4.062,0.567c2.88,0,5.724-0.841,8.17-2.465l27.698-18.336
	c2.545,16.801,0.084,33.792-7.136,49.196l-4.838,10.32c-9.203,19.634-11.82,41.249-7.567,62.508
	c0.715,3.574,3.854,6.045,7.365,6.045c0.488,0,0.984-0.048,1.483-0.146c4.072-0.815,6.712-4.776,5.898-8.847
	c-3.617-18.087-1.391-36.476,6.438-53.178l4.838-10.32c7.812-16.668,10.885-34.917,8.991-53.117l23.969,15.869
	c2.452,1.628,5.299,2.47,8.179,2.47c1.358,0,2.725-0.187,4.061-0.567c4.123-1.174,7.508-4.072,9.288-7.95
	c5.379-11.732,5.016-23.603-1.083-35.287c-3.351-6.412-10.784-9.424-17.679-7.158l-30.248,9.928l-9.514-58.67
	c3.379-1.205,6.492-3.128,9.157-5.701c5.035-4.862,7.808-11.392,7.808-18.389v-2.584c15.381-4.377,29.952-12.811,42.604-24.51
	c10.308,9.345,22.08,16.103,34.504,19.789v0.889c0,10.424,6.715,19.196,16.081,22.033l10.386,64.051
	c2.282,14.071,0.291,28.333-5.76,41.242l-4.053,8.645c-7.708,16.445-9.991,35.309-6.43,53.116c0.715,3.574,3.854,6.045,7.365,6.045
	c0.488,0,0.984-0.048,1.483-0.146c4.072-0.815,6.712-4.776,5.898-8.847c-2.936-14.68-1.055-30.229,5.3-43.785l4.053-8.645
	c7.34-15.66,9.756-32.96,6.988-50.031l-10.111-62.348c2.626-1.074,5.05-2.649,7.158-4.685c4.457-4.305,6.912-10.087,6.912-16.281
	v-1.249c20.428-6.058,38.874-20.371,52.222-40.607C469.134,211.841,476.83,185.066,476.83,157.635z M225.425,389.548
	c-3.168-7.175-2.904-14.193,0.798-21.423l21.101,6.926L225.425,389.548z M307.831,368.125c3.703,7.234,3.965,14.249,0.798,21.423
	l-21.899-14.497L307.831,368.125z M145.491,259.917c-4.828,1.207-8.201,5.534-8.201,10.523v4.441c0,2.078-0.824,4.02-2.32,5.464
	c-1.499,1.446-3.451,2.191-5.564,2.129c-4.032-0.143-7.314-3.712-7.314-7.955v-4.079c0-4.989-3.372-9.316-8.186-10.519
	c-38.072-9.598-65.704-52.616-65.704-102.287c0-57.486,36.556-104.254,81.489-104.254c10.904,0,21.412,2.691,31.317,8.007
	c-12.864,23.254-19.789,50.771-19.789,79.577c0,32.466,9.101,64.143,25.628,89.198c2.986,4.528,6.189,8.804,9.582,12.81
	C167.143,251.312,156.541,257.132,145.491,259.917z M396.103,259.917c-4.828,1.207-8.201,5.534-8.201,10.523v4.441
	c0,2.078-0.824,4.02-2.32,5.464c-1.498,1.446-3.442,2.191-5.564,2.129c-4.032-0.143-7.314-3.712-7.314-7.955v-4.079
	c0-4.989-3.372-9.316-8.186-10.519c-11.069-2.791-21.666-8.608-30.956-16.949c2.226-2.625,4.369-5.366,6.418-8.214
	c16.341-22.717,26.137-50.726,28.332-80.997c0.301-4.141-2.814-7.742-6.955-8.042c-4.136-0.303-7.742,2.814-8.042,6.955
	c-3.994,55.094-36.531,101.077-79.118,111.817c-5.107,1.282-8.674,5.864-8.674,11.141v5.303c0,2.88-1.143,5.57-3.216,7.571
	c-1.968,1.901-4.537,2.935-7.256,2.954c-0.052,0-0.105,0-0.158,0.001c-0.096-0.001-0.191-0.002-0.288-0.006
	c-5.588-0.201-10.134-5.114-10.134-10.952v-4.872c0-5.278-3.568-9.859-8.667-11.139c-46.092-11.626-79.548-63.577-79.548-123.529
	c0-69.437,44.295-125.927,98.741-125.927c47.365,0,88.16,43.03,97.004,102.315c0.612,4.107,4.436,6.93,8.545,6.327
	c4.107-0.612,6.94-4.439,6.327-8.545c-2.952-19.789-9.168-37.968-17.885-53.752c9.898-5.314,20.403-8.002,31.314-8.002
	c44.933,0,81.489,46.768,81.489,104.254C461.793,207.305,434.16,250.323,396.103,259.917z"/>
<path d="M502.465,286.402l-8.624-4.725l-4.721-8.618c-2.015-3.69-5.874-5.981-10.076-5.981c-4.202,0-8.065,2.294-10.072,5.974
	l-4.725,8.624l-8.613,4.719c-3.692,2.014-5.986,5.875-5.986,10.079s2.294,8.065,5.974,10.072l8.624,4.725l4.719,8.613
	c2.014,3.692,5.875,5.986,10.079,5.986s8.065-2.294,10.072-5.974l4.725-8.624l8.613-4.719c3.692-2.014,5.986-5.875,5.986-10.079
	S506.145,288.409,502.465,286.402z M485.758,298.552c-1.972,1.061-3.574,2.663-4.606,4.583l-2.108,3.846l-2.079-3.795
	c-1.061-1.972-2.663-3.574-4.583-4.606l-3.846-2.108l3.795-2.079c1.972-1.061,3.574-2.663,4.606-4.583l2.108-3.846l2.079,3.795
	c1.061,1.972,2.663,3.574,4.583,4.606l3.846,2.108L485.758,298.552z"/>
<path d="M438.309,158.089l-8.624-4.725l-4.721-8.618c-2.015-3.69-5.874-5.981-10.076-5.981c-4.202,0-8.065,2.294-10.072,5.974
	l-4.725,8.624l-8.613,4.719c-3.692,2.014-5.986,5.875-5.986,10.079s2.294,8.065,5.974,10.072l8.624,4.725l4.719,8.613
	c2.014,3.692,5.875,5.986,10.079,5.986s8.065-2.294,10.072-5.974l4.725-8.624l8.613-4.719c3.692-2.014,5.986-5.875,5.986-10.079
	S441.989,160.096,438.309,158.089z M421.602,170.239c-1.972,1.061-3.574,2.663-4.606,4.583l-2.108,3.846l-2.079-3.795
	c-1.061-1.972-2.662-3.574-4.583-4.606l-3.846-2.108l3.795-2.079c1.972-1.061,3.574-2.663,4.606-4.583l2.108-3.846l2.079,3.795
	c1.061,1.972,2.663,3.574,4.583,4.606l3.846,2.108L421.602,170.239z"/>
<path d="M22.878,61.251c2.014,3.692,5.875,5.986,10.079,5.986s8.065-2.294,10.072-5.974l4.725-8.624l8.613-4.719
	c3.692-2.014,5.986-5.875,5.986-10.079s-2.294-8.065-5.974-10.072l-8.624-4.725l-4.722-8.618c-2.015-3.69-5.874-5.981-10.076-5.981
	c-4.202,0-8.065,2.294-10.072,5.974l-4.725,8.624l-8.613,4.719c-3.692,2.014-5.986,5.875-5.986,10.079s2.294,8.065,5.974,10.072
	l8.624,4.725L22.878,61.251z M26.242,35.763c1.972-1.061,3.574-2.662,4.606-4.583l2.108-3.846l2.079,3.795
	c1.061,1.972,2.662,3.574,4.583,4.606l3.846,2.108l-3.795,2.079c-1.972,1.061-3.574,2.662-4.606,4.583l-2.108,3.846l-2.079-3.795
	c-1.061-1.972-2.662-3.574-4.583-4.606l-3.846-2.108L26.242,35.763z"/>
<path d="M43.482,352.61c4.153,0,7.518-3.365,7.518-7.518v-7.518c0-4.153-3.365-7.518-7.518-7.518s-7.518,3.365-7.518,7.518v7.518
	C35.963,349.245,39.329,352.61,43.482,352.61z"/>
<path d="M64.032,350.605h-7.518c-4.153,0-7.518,3.365-7.518,7.518s3.365,7.518,7.518,7.518h7.518c4.153,0,7.518-3.365,7.518-7.518
	S68.185,350.605,64.032,350.605z"/>
<path d="M43.482,363.637c-4.153,0-7.518,3.365-7.518,7.518v7.518c0,4.153,3.365,7.518,7.518,7.518S51,382.827,51,378.674v-7.518
	C51,367.002,47.635,363.637,43.482,363.637z"/>
<path d="M30.45,350.605h-7.518c-4.153,0-7.518,3.365-7.518,7.518s3.365,7.518,7.518,7.518h7.518c4.153,0,7.518-3.365,7.518-7.518
	S34.603,350.605,30.45,350.605z"/>
<path d="M315.144,445.838c4.153,0,7.518-3.365,7.518-7.518v-7.518c0-4.153-3.365-7.518-7.518-7.518s-7.518,3.365-7.518,7.518v7.518
	C307.626,442.472,310.992,445.838,315.144,445.838z"/>
<path d="M335.694,443.833h-7.518c-4.153,0-7.518,3.365-7.518,7.518s3.365,7.518,7.518,7.518h7.518c4.153,0,7.518-3.365,7.518-7.518
	S339.848,443.833,335.694,443.833z"/>
<path d="M315.144,456.865c-4.153,0-7.518,3.365-7.518,7.518v7.518c0,4.153,3.365,7.518,7.518,7.518s7.518-3.365,7.518-7.518v-7.518
	C322.663,460.23,319.297,456.865,315.144,456.865z"/>
<path d="M302.112,443.833h-7.518c-4.153,0-7.518,3.365-7.518,7.518s3.365,7.518,7.518,7.518h7.518c4.153,0,7.518-3.365,7.518-7.518
	S306.266,443.833,302.112,443.833z"/>
<g>
</g>
<g>
</g>
<g>
</g>
<g>
</g>
<g>
</g>
<g>
</g>
<g>
</g>
<g>
</g>
<g>
</g>
<g>
</g>
<g>
</g>
<g>
</g>
<g>
</g>
<g>
</g>
<g>
</g>
</svg>
