<?xml version="1.0" encoding="iso-8859-1"?>
<!-- Generator: Adobe Illustrator 19.0.0, SVG Export Plug-In . SVG Version: 6.00 Build 0)  -->
<svg version="1.1" id="Capa_1" xmlns="http://www.w3.org/2000/svg" xmlns:xlink="http://www.w3.org/1999/xlink" x="0px" y="0px"
	 viewBox="0 0 512 512" style="enable-background:new 0 0 512 512;" xml:space="preserve">
<path style="fill:#535454;" d="M274,363.736v137.083c0,2.038-1.67,3.682-3.74,3.682h-26.52c-2.07,0-3.74-1.644-3.74-3.682V363.736
	H274z"/>
<path style="fill:#3B3D3D;" d="M257,500.818V363.736h-17v137.083c0,2.038,1.67,3.682,3.74,3.682h17
	C258.67,504.5,257,502.856,257,500.818z"/>
<g>
	<path style="fill:#898989;" d="M189.931,222.5H131v28.42c0,5.84,4.74,10.58,10.58,10.58h48.351V222.5z"/>
	<path style="fill:#898989;" d="M330.378,222.5v39h42.042c5.84,0,10.58-4.74,10.58-10.58V222.5H330.378z"/>
</g>
<path style="fill:#F5DCB4;" d="M414,21.91v196.18c0,7.96-6.45,14.41-14.41,14.41H334H177h-64.59c-7.96,0-14.41-6.45-14.41-14.41
	V21.91c0-7.96,6.45-14.41,14.41-14.41h287.18C407.55,7.5,414,13.95,414,21.91z"/>
<path style="fill:#EDCFA4;" d="M234.427,218.09V21.91c0-7.96,6.45-14.41,14.41-14.41H112.41C104.45,7.5,98,13.95,98,21.91v196.18
	c0,7.96,6.45,14.41,14.41,14.41H177h71.837C240.877,232.5,234.427,226.05,234.427,218.09z"/>
<path style="fill:#FFC48F;" d="M346.03,109.5h-26.98H192.04h-26.07c-7.99,0-14.47,6.48-14.47,14.47V232.5H177h157h26.5V123.97
	C360.5,115.98,354.02,109.5,346.03,109.5z"/>
<circle style="fill:#EA3B18;" cx="256" cy="145.5" r="71"/>
<path style="fill:#DD3217;" d="M254.502,145.5c0-26.582,14.621-49.739,36.249-61.907C280.476,77.812,268.628,74.5,256,74.5
	c-39.21,0-71,31.79-71,71s31.79,71,71,71c12.628,0,24.476-3.312,34.751-9.093C269.122,195.239,254.502,172.082,254.502,145.5z"/>
<polygon style="fill:#B2B6B7;" points="313.454,358.883 313.455,358.883 313.454,358.882 "/>
<path style="fill:#8F9596;" d="M319,512H196c-4.143,0-7.5-3.358-7.5-7.5s3.357-7.5,7.5-7.5h123c4.143,0,7.5,3.358,7.5,7.5
	S323.143,512,319,512z"/>
<path style="fill:#ED3124;" d="M333,223.887v22.127c0,3.525-2.46,6.387-5.49,6.387H186.49c-3.03,0-5.49-2.862-5.49-6.387v-22.127
	c0-3.525,2.46-6.387,5.49-6.387h141.02C330.54,217.5,333,220.362,333,223.887z"/>
<path style="fill:#D12C11;" d="M327.51,234.95H186.49c-3.03,0-5.49-2.862-5.49-6.387v17.45c0,3.525,2.46,6.387,5.49,6.387h141.02
	c3.03,0,5.49-2.862,5.49-6.387v-17.45C333,232.088,330.54,234.95,327.51,234.95z"/>
<path d="M190.672,363.4c0.007,0.064,0.014,0.128,0.021,0.192c0.463,3.748,2.727,7.052,6.054,8.838s7.331,1.846,10.713,0.16
	l19.606-9.778l5.434,2.488V497H196c-4.143,0-7.5,3.358-7.5,7.5s3.357,7.5,7.5,7.5h123c4.143,0,7.5-3.358,7.5-7.5s-3.357-7.5-7.5-7.5
	h-37.5V362.715l4.134-2.507l20.354,11.684c3.393,1.948,7.508,2.067,11.009,0.318s5.878-5.112,6.357-8.996
	c0.008-0.064,0.015-0.128,0.021-0.192L332.538,269c0.007-0.067-0.006,0.067,0,0l0,0h39.884c9.969,0,18.078-8.11,18.078-18.078V240
	h9.093c12.08,0,21.907-9.828,21.907-21.908V21.908C421.5,9.828,411.673,0,399.593,0H112.407C100.327,0,90.5,9.828,90.5,21.908
	v196.185c0,12.08,9.827,21.908,21.907,21.908H123.5v10.922c0,9.968,8.109,18.078,18.078,18.078h39.886l9.229,94.592 M141.578,254
	c-1.697,0-3.078-1.381-3.078-3.078V240h35v2.013c0,4.769,2.583,8.945,6.424,11.203L180,254H141.578z M291.708,93.016
	c-8.415,5.731-18.074,9.345-28.208,10.543V82.441C273.868,83.666,283.479,87.399,291.708,93.016z M319.059,138H263.5v-19.357
	c14.459-1.379,28.204-6.725,39.788-15.48C311.791,112.651,317.488,124.703,319.059,138z M257.01,360.026l-21.588-9.886l15.923-5.347
	l16.603,8.599L257.01,360.026z M205.46,344.377c-0.537,0.18-1.039,0.416-1.504,0.697l-1.7-17.424l9.719-3.245l20.834,10.79
	L205.46,344.377z M195.553,258.925L195.268,256h35.566l8.311,4.304l-24.975,8.22L195.553,258.925z M199.671,301.14l-1.139-11.678
	l14.353-4.724l27.718,14.292l-27.362,9.137L199.671,301.14z M232.863,278.163l24.925-8.203l27.391,14.185l-24.711,8.252
	L232.863,278.163z M277.731,263.396L300.202,256h18.531l-1.706,17.51l-12.017,4.013L277.731,263.396z M231.806,317.782l27.412-9.154
	l20.787,10.718l-27.407,9.203L231.806,317.782z M279.083,301.995l24.662-8.236l10.766,5.575l-0.849,8.71l-13.835,4.646
	L279.083,301.995z M325.5,240h-137v-15h137V240z M248.5,208.559c-10.367-1.225-19.977-4.958-28.205-10.573
	c8.414-5.722,18.093-9.339,28.205-10.541V208.559z M263.5,187.441c10.134,1.198,19.793,4.812,28.208,10.543
	c-8.229,5.616-17.84,9.35-28.208,10.575V187.441z M248.5,172.359c-14.426,1.384-28.209,6.737-39.787,15.479
	c-8.504-9.488-14.201-21.54-15.772-34.838H248.5V172.359z M303.289,187.836c-11.585-8.755-25.33-14.101-39.789-15.48V153h55.559
	C317.488,166.297,311.791,178.349,303.289,187.836z M248.5,103.559c-10.134-1.198-19.793-4.812-28.208-10.543
	c8.229-5.616,17.84-9.35,28.208-10.575V103.559z M208.712,103.163c11.584,8.755,25.329,14.102,39.788,15.48V138h-55.559
	C194.512,124.703,200.209,112.651,208.712,103.163z M177.5,145.5c0,26.689,13.388,50.31,33.802,64.5h-24.814
	c-7.161,0-12.987,5.826-12.987,12.987V224H159V123.965c0-3.841,3.125-6.965,6.966-6.965h16.888
	C179.398,125.839,177.5,135.452,177.5,145.5z M266.5,497h-19V372.169l4.877,2.233c1.547,0.708,3.202,1.06,4.853,1.06
	c2.1,0,4.191-0.568,6.042-1.691l3.229-1.958V497H266.5z M291.389,346.216c-2.289-1.314-4.912-1.789-7.441-1.43l-12.815-6.637
	l27.457-9.219l12.414,6.401l-2.044,20.971L291.389,346.216z M375.5,250.922c0,1.697-1.381,3.078-3.078,3.078H334l0.076-0.784
	c3.841-2.258,6.424-6.435,6.424-11.203V240h35V250.922z M406.5,218.092c0,3.809-3.099,6.908-6.907,6.908H368v-23.892
	c0-4.142-3.357-7.5-7.5-7.5s-7.5,3.358-7.5,7.5V224h-12.5v-1.013c0-7.161-5.826-12.987-12.987-12.987h-26.814
	c2.638-1.833,5.158-3.824,7.547-5.959c0.391-0.288,0.76-0.618,1.099-0.991c0.017-0.019,0.033-0.038,0.05-0.057
	c15.435-14.344,25.105-34.81,25.105-57.493c0-10.048-1.898-19.661-5.354-28.5h16.888c3.841,0,6.966,3.125,6.966,6.965v23.773
	c0,4.142,3.357,7.5,7.5,7.5s7.5-3.358,7.5-7.5v-23.773c0-12.112-9.854-21.965-21.966-21.965h-24.717
	c-3.423-5.124-7.433-9.824-11.933-14.004c-0.014-0.015-0.027-0.031-0.042-0.047c-0.338-0.371-0.704-0.699-1.093-0.986
	C294.362,74.553,276.047,67,256,67s-38.363,7.554-52.251,19.964c-0.388,0.287-0.755,0.615-1.092,0.986
	c-0.014,0.015-0.028,0.031-0.042,0.047c-4.499,4.18-8.509,8.88-11.933,14.004h-24.717C153.854,102,144,111.854,144,123.965V225
	h-31.593c-3.809,0-6.907-3.099-6.907-6.908V21.908c0-3.809,3.099-6.908,6.907-6.908h287.186c3.809,0,6.907,3.099,6.907,6.908
	L406.5,218.092L406.5,218.092z"/>
<g>
</g>
<g>
</g>
<g>
</g>
<g>
</g>
<g>
</g>
<g>
</g>
<g>
</g>
<g>
</g>
<g>
</g>
<g>
</g>
<g>
</g>
<g>
</g>
<g>
</g>
<g>
</g>
<g>
</g>
</svg>
