<?xml version="1.0" encoding="iso-8859-1"?>
<!-- Generator: Adobe Illustrator 19.0.0, SVG Export Plug-In . SVG Version: 6.00 Build 0)  -->
<svg version="1.1" id="Capa_1" xmlns="http://www.w3.org/2000/svg" xmlns:xlink="http://www.w3.org/1999/xlink" x="0px" y="0px"
	 viewBox="0 0 512 512" style="enable-background:new 0 0 512 512;" xml:space="preserve">
<path style="fill:#DDDBC7;" d="M107.711,254.108c17.216,44.011,21.515,92.141,11.554,138.327c-0.24,1.082-0.481,2.175-0.721,3.257
	l-9.74,42.548c-1.994,8.728-9.76,14.921-18.719,14.921h-48.01c-8.949,0-16.715-6.193-18.709-14.921l-9.74-42.548
	c-0.291-1.263-0.571-2.535-0.842-3.798c-9.66-45.234-5.832-92.322,10.101-135.742l9.63-26.244
	c3.357-9.129,5.071-18.789,5.071-28.519l0.01-16.113c0-11.003-2.094-21.966-6.714-31.946c-2.535-5.481-3.868-11.634-3.638-18.108
	c0.721-20.643,17.516-37.488,38.159-38.269c22.637-0.862,41.266,17.246,41.266,39.692c0,6.564-1.593,12.746-4.409,18.198
	c-6.002,11.614-9.41,24.391-9.41,37.458v8.177c0,10.321,1.934,20.563,5.692,30.173L107.711,254.108z"/>
<path style="fill:#CECBB6;" d="M65.696,438.241l-9.74-42.548c-0.291-1.263-0.571-2.535-0.842-3.798
	c-9.66-45.234-5.832-92.322,10.101-135.742l9.63-26.244c3.357-9.129,5.071-18.789,5.071-28.519l0.01-16.113
	c0-11.003-2.094-21.966-6.714-31.946c-2.535-5.481-3.868-11.634-3.638-18.108c0.471-13.481,7.799-25.339,18.576-32.164
	c-6.54-4.139-14.368-6.424-22.748-6.106c-20.643,0.782-37.438,17.627-38.159,38.269c-0.23,6.473,1.102,12.626,3.638,18.108
	c4.62,9.981,6.714,20.943,6.714,31.946l-0.01,16.113c0,9.73-1.714,19.39-5.071,28.519l-9.63,26.244
	C6.95,299.573,3.122,346.66,12.783,391.894c0.271,1.263,0.551,2.535,0.842,3.798l9.74,42.548c1.994,8.728,9.76,14.921,18.709,14.921
	h42.332C75.457,453.162,67.691,446.969,65.696,438.241z"/>
<path style="fill:#ED3124;" d="M11.338,384.519c0.445,2.463,0.921,4.922,1.445,7.375c0.271,1.263,0.551,2.535,0.842,3.798
	l2.03,8.868h100.857l2.03-8.868c0.241-1.082,0.481-2.175,0.722-3.257c0.568-2.632,1.083-5.272,1.558-7.916H11.338z"/>
<path style="fill:#E00E0E;" d="M57.986,404.561l-2.03-8.868c-0.291-1.263-0.571-2.535-0.842-3.798c-0.524-2.453-1-4.912-1.445-7.375
	H11.338l0,0c0.219,1.217,0.447,2.432,0.684,3.646c0.245,1.245,0.496,2.488,0.761,3.73c0.271,1.263,0.551,2.535,0.842,3.798
	l2.03,8.868H57.986z"/>
<path style="fill:#ED3124;" d="M95.634,221.681c-1.83-6.908-2.785-14.034-2.785-21.204v-2.846H37.587l-0.002,3.758
	c0,6.854-0.869,13.669-2.544,20.292H95.634z"/>
<path style="fill:#E00E0E;" d="M79.919,197.631H37.587l-0.002,3.758c0,1.066-0.028,2.131-0.07,3.196
	c-0.014,0.353-0.032,0.704-0.05,1.056c-0.038,0.728-0.086,1.454-0.144,2.179c-0.031,0.396-0.057,0.792-0.093,1.186
	c-0.084,0.902-0.184,1.803-0.299,2.702c-0.08,0.636-0.175,1.271-0.27,1.905c-0.048,0.317-0.096,0.633-0.147,0.95
	c-0.386,2.393-0.877,4.768-1.471,7.119h42.332c1.675-6.623,2.544-13.438,2.544-20.292L79.919,197.631z"/>
<path style="fill:#DDDBC7;" d="M310.191,256.153c15.943,43.42,19.761,90.508,10.101,135.742c-0.271,1.263-0.551,2.535-0.832,3.798
	l-9.74,42.548c-1.994,8.728-9.76,14.921-18.719,14.921h-48.01c-8.949,0-16.715-6.193-18.709-14.921l-9.74-42.548
	c-0.251-1.082-0.491-2.175-0.721-3.257c-9.971-46.186-5.662-94.316,11.544-138.327l9.169-23.459
	c3.768-9.61,5.692-19.851,5.692-30.173V192.3c0-13.067-3.407-25.844-9.41-37.458c-2.816-5.451-4.409-11.634-4.409-18.198
	c0-22.447,18.629-40.554,41.276-39.692c20.633,0.782,37.428,17.627,38.149,38.269c0.23,6.473-1.092,12.626-3.628,18.108
	c-4.63,9.981-6.714,20.943-6.714,31.946v16.113c0.01,9.73,1.724,19.39,5.081,28.519L310.191,256.153z"/>
<path style="fill:#CECBB6;" d="M266.613,438.241l-9.74-42.548c-0.251-1.082-0.491-2.175-0.721-3.257
	c-9.971-46.186-5.662-94.316,11.544-138.327l9.169-23.459c3.768-9.61,5.692-19.851,5.692-30.173V192.3
	c0-13.067-3.407-25.844-9.41-37.458c-2.816-5.451-4.409-11.634-4.409-18.198c0-14.136,7.392-26.547,18.52-33.588
	c-5.724-3.627-12.418-5.834-19.577-6.106c-22.647-0.862-41.276,17.246-41.276,39.692c0,6.564,1.593,12.746,4.409,18.198
	c6.002,11.614,9.41,24.391,9.41,37.458v8.177c0,10.321-1.924,20.563-5.692,30.173l-9.169,23.459
	c-17.206,44.011-21.515,92.141-11.544,138.327c0.23,1.082,0.471,2.175,0.721,3.257l9.74,42.548
	c1.994,8.728,9.76,14.921,18.709,14.921h42.332C276.374,453.162,268.608,446.969,266.613,438.241z"/>
<path style="fill:#ED3124;" d="M212.261,384.519c0.476,2.645,0.992,5.284,1.56,7.916c0.23,1.082,0.471,2.175,0.721,3.257l2.03,8.868
	H317.43l2.03-8.868c0.281-1.263,0.561-2.535,0.832-3.798c0.524-2.453,1-4.912,1.445-7.375H212.261z"/>
<path style="fill:#E00E0E;" d="M258.904,404.561l-2.03-8.868c-0.251-1.082-0.491-2.175-0.721-3.257
	c-0.568-2.632-1.084-5.272-1.56-7.916h-42.331c0.236,1.315,0.483,2.628,0.742,3.941c0.263,1.327,0.533,2.652,0.819,3.975
	c0.23,1.082,0.471,2.175,0.721,3.257l2.03,8.868L258.904,404.561L258.904,404.561z"/>
<path style="fill:#ED3124;" d="M298.168,222.182c-1.762-6.78-2.671-13.767-2.678-20.793v-2.255h-55.265v1.343
	c0,7.343-0.992,14.641-2.912,21.705H298.168z"/>
<path style="fill:#E00E0E;" d="M282.557,199.134h-42.332v1.343c0,1.134-0.032,2.268-0.079,3.4c-0.015,0.374-0.036,0.746-0.057,1.119
	c-0.043,0.775-0.097,1.548-0.162,2.321c-0.035,0.419-0.065,0.838-0.105,1.257c-0.097,0.977-0.21,1.952-0.342,2.924
	c-0.087,0.649-0.191,1.296-0.295,1.942c-0.061,0.381-0.121,0.762-0.187,1.141c-0.127,0.738-0.262,1.474-0.41,2.209
	c-0.018,0.089-0.038,0.177-0.057,0.267c-0.352,1.721-0.757,3.43-1.218,5.126h42.332c1.919-7.064,2.911-14.362,2.911-21.705v-1.343
	H282.557z"/>
<path style="fill:#DDDBC7;" d="M396.26,279.441c14.039,38.259,17.406,79.746,8.898,119.608c-0.241,1.122-0.491,2.235-0.742,3.347
	l-8.578,37.498c-1.764,7.696-8.608,13.147-16.494,13.147h-42.308c-7.886,0-14.731-5.451-16.484-13.147l-8.578-37.498
	c-0.22-0.952-0.431-1.914-0.641-2.866c-8.778-40.704-4.99-83.113,10.171-121.893l8.087-20.663c3.307-8.478,5.01-17.496,5.01-26.595
	v-7.205c0-11.514-2.996-22.767-8.287-32.999c-2.485-4.81-3.888-10.261-3.888-16.043c0-19.781,16.414-35.734,36.366-34.973
	c18.188,0.691,32.989,15.532,33.62,33.72c0.2,5.712-0.962,11.133-3.197,15.953c-4.078,8.798-5.922,18.458-5.912,28.148v14.199
	c0,8.578,1.513,17.085,4.469,25.142L396.26,279.441z"/>
<path style="fill:#CECBB6;" d="M354.708,439.894l-8.578-37.498c-0.22-0.952-0.431-1.914-0.641-2.866
	c-8.778-40.704-4.99-83.113,10.171-121.893l8.087-20.663c3.307-8.478,5.01-17.496,5.01-26.595v-7.205
	c0-11.514-2.996-22.767-8.287-32.999c-2.485-4.81-3.888-10.261-3.888-16.043c0-13.113,7.218-24.539,17.893-30.533
	c-4.683-2.634-10.019-4.224-15.684-4.439c-19.951-0.762-36.366,15.192-36.366,34.973c0,5.782,1.403,11.233,3.888,16.043
	c5.291,10.231,8.287,21.485,8.287,32.999v7.205c0,9.099-1.704,18.118-5.01,26.595l-8.087,20.663
	c-15.161,38.781-18.949,81.189-10.171,121.893c0.21,0.952,0.421,1.914,0.641,2.866l8.578,37.498
	c1.754,7.696,8.598,13.147,16.484,13.147h34.156C363.306,453.041,356.462,447.59,354.708,439.894z"/>
<path d="M382.123,236.585h-47.521c-4.152,0-7.516-3.364-7.516-7.516s3.364-7.516,7.516-7.516h47.521
	c4.152,0,7.516,3.364,7.516,7.516S386.275,236.585,382.123,236.585z"/>
<path d="M384.874,256.859h-51.666c-4.152,0-7.516-3.364-7.516-7.516s3.364-7.516,7.516-7.516h51.666
	c4.152,0,7.516,3.364,7.516,7.516S389.026,256.859,384.874,256.859z"/>
<path d="M402.534,418.142h-88.681c-4.152,0-7.516-3.364-7.516-7.516c0-4.152,3.364-7.516,7.516-7.516h88.681
	c4.152,0,7.516,3.364,7.516,7.516C410.049,414.778,406.685,418.142,402.534,418.142z"/>
<path d="M402.534,398.996h-88.681c-4.152,0-7.516-3.364-7.516-7.516c0-4.152,3.364-7.516,7.516-7.516h88.681
	c4.152,0,7.516,3.364,7.516,7.516C410.049,395.632,406.685,398.996,402.534,398.996z"/>
<path style="fill:#128CA0;" d="M379.224,202.641c69.184,0,125.26,56.076,125.26,125.26s-56.076,125.26-125.26,125.26
	s-125.26-56.076-125.26-125.26S310.041,202.641,379.224,202.641z"/>
<path style="fill:#0D828E;" d="M340.403,298.88c0-38.6,17.46-73.113,44.909-96.09c-2.017-0.096-4.046-0.149-6.088-0.149
	c-69.184,0-125.26,56.076-125.26,125.26s56.076,125.26,125.26,125.26c30.585,0,58.602-10.965,80.351-29.17
	C393.219,420.816,340.403,366.023,340.403,298.88z"/>
<g>
	<path style="fill:#086F7A;" d="M417.303,272.787c8.858,0,16.033,7.175,16.033,16.033c0,8.858-7.175,16.033-16.033,16.033
		s-16.033-7.175-16.033-16.033C401.27,279.962,408.445,272.787,417.303,272.787z"/>
	<path style="fill:#086F7A;" d="M417.303,350.949c8.858,0,16.033,7.175,16.033,16.033c0,8.858-7.175,16.033-16.033,16.033
		s-16.033-7.175-16.033-16.033C401.27,358.124,408.445,350.949,417.303,350.949z"/>
	<path style="fill:#086F7A;" d="M463.399,311.868c8.858,0,16.033,7.175,16.033,16.033c0,8.858-7.175,16.033-16.033,16.033
		c-8.858,0-16.033-7.175-16.033-16.033C447.366,319.043,454.541,311.868,463.399,311.868z"/>
</g>
<path style="fill:#DDDBC7;" d="M213.6,235.089c17.637,48.07,21.875,100.188,11.173,150.252c-0.301,1.403-0.601,2.806-0.922,4.209
	l-10.782,47.098c-2.205,9.66-10.802,16.514-20.713,16.514h-53.14c-9.911,0-18.508-6.854-20.723-16.514l-10.772-47.098
	c-0.271-1.202-0.541-2.405-0.802-3.607c-11.033-51.126-6.263-104.397,12.777-153.108l10.161-25.964
	c4.159-10.642,6.293-21.976,6.293-33.399v-9.059c0-14.46-3.768-28.599-10.412-41.456c-3.116-6.033-4.88-12.877-4.88-20.142
	c0-24.852,20.613-44.893,45.685-43.941c22.837,0.872,41.426,19.521,42.228,42.358c0.251,7.175-1.213,13.979-4.018,20.042
	c-5.121,11.053-7.435,23.188-7.435,35.363l0.01,17.837c0,10.772,1.904,21.465,5.612,31.576L213.6,235.089z"/>
<path style="fill:#CECBB6;" d="M160.824,436.647l-10.772-47.098c-0.271-1.202-0.541-2.405-0.802-3.607
	c-11.033-51.126-6.263-104.397,12.777-153.108l10.161-25.964c4.159-10.642,6.293-21.976,6.293-33.399v-9.059
	c0-14.46-3.768-28.599-10.412-41.456c-3.116-6.033-4.88-12.877-4.88-20.142c0-16.59,9.193-31.026,22.76-38.515
	c-5.811-3.216-12.408-5.159-19.407-5.426c-25.072-0.952-45.685,19.09-45.685,43.941c0,7.265,1.764,14.109,4.88,20.142
	c6.644,12.857,10.412,26.996,10.412,41.456v9.059c0,11.424-2.134,22.757-6.293,33.399l-10.161,25.964
	c-19.04,48.711-23.809,101.982-12.777,153.108c0.261,1.203,0.531,2.405,0.802,3.607l10.772,47.098
	c2.215,9.66,10.812,16.514,20.723,16.514h42.332C171.636,453.162,163.038,446.307,160.824,436.647z"/>
<path style="fill:#ED3124;" d="M104.896,375.5c0.604,3.488,1.274,6.97,2.022,10.442c0.261,1.203,0.531,2.405,0.802,3.607
	l2.288,10.001h111.555l2.29-10.001c0.321-1.403,0.621-2.806,0.922-4.209c0.699-3.272,1.332-6.553,1.904-9.84H104.896z"/>
<path style="fill:#E00E0E;" d="M152.339,399.55l-2.288-10.001c-0.271-1.202-0.541-2.405-0.802-3.607
	c-0.75-3.471-1.419-6.952-2.022-10.442h-42.332c0.295,1.704,0.606,3.405,0.934,5.106c0.009,0.048,0.018,0.096,0.027,0.143
	c0.335,1.734,0.688,3.465,1.061,5.193c0.261,1.203,0.531,2.405,0.802,3.607l2.288,10.001H152.339z"/>
<path style="fill:#ED3124;" d="M199.945,196.128c-1.722-7.079-2.619-14.346-2.619-21.655l-0.001-2.395h-61.176v1.393
	c0,7.655-0.981,15.264-2.864,22.657H199.945z"/>
<path style="fill:#E00E0E;" d="M178.481,172.078h-42.332v1.393c0,1.246-0.035,2.488-0.087,3.731
	c-0.016,0.384-0.034,0.768-0.055,1.151c-0.051,0.948-0.117,1.894-0.198,2.839c-0.054,0.645-0.119,1.29-0.187,1.933
	c-0.078,0.725-0.159,1.449-0.255,2.172c-0.091,0.703-0.193,1.405-0.301,2.106c-0.052,0.34-0.111,0.678-0.167,1.017
	c-0.428,2.591-0.965,5.163-1.613,7.709h42.332c1.884-7.392,2.864-15.002,2.864-22.657V172.078z"/>
<path d="M394.381,195.986c0.5-1.363,1.051-2.696,1.651-3.991c2.819-6.079,4.129-12.599,3.89-19.375
	c-0.769-22.133-18.709-40.128-40.844-40.969c-11.677-0.459-22.732,3.761-31.132,11.848c-8.406,8.09-13.036,18.97-13.036,30.634
	c0,6.769,1.634,13.509,4.728,19.495c2.213,4.279,3.947,8.685,5.185,13.159c-6.998,3.156-13.673,6.899-19.966,11.169
	c-1.225-5.414-1.846-10.959-1.851-16.567v-16.113c0-10.495,2.024-20.179,6.019-28.791c3.134-6.772,4.586-14.016,4.318-21.525
	c-0.859-24.593-20.79-44.587-45.373-45.516c-12.964-0.508-25.26,4.183-34.596,13.169c-9.338,8.99-14.481,21.076-14.481,34.033
	c0,7.517,1.815,15.003,5.248,21.649c5.607,10.849,8.571,22.608,8.571,34.008v8.177c0,9.447-1.741,18.675-5.177,27.437l-4.465,11.425
	c-0.775-2.287-1.578-4.566-2.413-6.84l-10.661-29.037c-3.419-9.323-5.153-19.077-5.153-28.993l-0.01-17.833
	c0-11.717,2.268-22.553,6.741-32.207c3.41-7.369,4.994-15.263,4.709-23.462c-0.94-26.793-22.662-48.581-49.454-49.604
	c-14.149-0.56-27.532,4.559-37.703,14.352c-10.177,9.798-15.783,22.974-15.783,37.098c0,8.191,1.977,16.349,5.719,23.593
	c6.263,12.118,9.573,25.26,9.573,38.005v9.059c0,10.536-1.944,20.853-5.777,30.661l-10.162,25.967
	c-1.069,2.735-2.094,5.485-3.076,8.249l-4.078-10.435c-3.434-8.782-5.176-18.013-5.176-27.436v-1.244
	c0.003-0.082,0.004-0.163,0.004-0.245s-0.002-0.164-0.004-0.246v-6.442c0-11.399,2.964-23.158,8.571-34.009
	c3.433-6.646,5.247-14.131,5.247-21.648c0-12.958-5.144-25.045-14.483-34.036c-9.333-8.985-21.622-13.68-34.582-13.166
	c-24.59,0.93-44.526,20.923-45.386,45.511c-0.268,7.501,1.188,14.745,4.328,21.532c3.993,8.628,6.018,18.314,6.018,28.785
	l-0.01,16.118c0,8.886-1.55,17.609-4.611,25.93l-9.63,26.244C0.248,296.023-3.902,341.104,3.698,384.525
	c0.009,0.053,0.018,0.105,0.027,0.157c0.516,2.938,1.085,5.867,1.71,8.788c0.279,1.299,0.567,2.607,0.865,3.9l2.103,9.189
	c0.02,0.097,0.042,0.194,0.066,0.291l7.57,33.066c2.794,12.224,13.5,20.762,26.035,20.762h48.01c10.394,0,19.53-5.863,23.944-14.827
	c4.952,9.008,14.449,14.827,25.189,14.827h53.14c11.361,0,21.322-6.504,25.988-16.403c4.081,9.847,13.661,16.403,24.646,16.403H291
	c10.26,0,19.294-5.714,23.77-14.481c3.873,8.649,12.455,14.361,22.266,14.361h36.511c1.883,0.08,3.775,0.12,5.677,0.12
	c73.213,0,132.776-59.563,132.776-132.776C512,259.813,460.483,203.531,394.381,195.986z M128.373,102.814
	c0-10.002,3.969-19.331,11.176-26.27c7.201-6.933,16.676-10.532,26.706-10.162c18.962,0.725,34.338,16.147,35.004,35.11
	c0.203,5.82-0.916,11.413-3.326,16.62c-5.396,11.647-8.132,24.608-8.132,38.527l0.004,7.663h-46.141
	c-0.018-15.1-3.907-30.589-11.249-44.796C129.732,114.314,128.373,108.698,128.373,102.814z M190.995,189.772h-48.67
	c0.573-3.449,0.964-6.93,1.169-10.438h46.435C190.1,182.837,190.455,186.32,190.995,189.772z M34.754,135.483
	c0.585-16.761,14.173-30.387,30.934-31.021c8.838-0.322,17.225,2.852,23.587,8.976c6.369,6.131,9.877,14.373,9.877,23.206
	c0,5.2-1.201,10.162-3.57,14.748c-6.571,12.713-10.105,26.553-10.243,40.08H45.107l0.004-6.197c0-12.672-2.493-24.482-7.408-35.101
	C35.564,145.55,34.572,140.61,34.754,135.483z M86.42,214.481h-42.27c0.387-2.641,0.655-5.302,0.806-7.979h40.577
	C85.711,209.18,86.007,211.842,86.42,214.481z M21.752,397.513l-0.803-3.505c-0.245-1.062-0.481-2.13-0.71-3.191h80.063
	c0.031,0.135,0.061,0.272,0.092,0.407l1.438,6.288L21.752,397.513L21.752,397.513z M101.476,436.566
	c-1.222,5.346-5.906,9.08-11.393,9.08h-48.01c-5.48,0-10.16-3.734-11.383-9.082l-5.498-24.02h80.077l0.852,3.726L101.476,436.566z
	 M211.203,411.116c-0.026,0.104-0.05,0.209-0.072,0.316l-5.39,23.543c-1.434,6.283-6.938,10.67-13.386,10.67h-53.14
	c-6.447,0-11.957-4.391-13.397-10.674l-4.625-20.22c-0.022-0.105-0.046-0.21-0.072-0.315l-1.609-7.038h92.542L211.203,411.116z
	 M217.425,383.764l-0.03,0.14c-0.284,1.323-0.567,2.648-0.87,3.967l-1.029,4.496h-99.421l-1.022-4.47
	c-0.267-1.182-0.532-2.365-0.788-3.541c-0.072-0.336-0.144-0.671-0.214-1.007h103.463
	C217.484,383.488,217.454,383.626,217.425,383.764z M220.233,368.318H111.348c-1.606-10.814-2.517-21.768-2.717-32.727
	c-0.074-4.105-3.424-7.379-7.512-7.379c-0.046,0-0.092,0-0.138,0.001c-4.151,0.075-7.453,3.5-7.378,7.651
	c0.243,13.385,1.489,26.765,3.712,39.923H17.512c-5.733-38.91-1.505-79.076,12.427-117.044l9.628-26.24
	c0.365-0.992,0.711-1.988,1.04-2.989h49.519c0.442,1.299,0.913,2.589,1.415,3.873l9.17,23.462c0.605,1.545,1.201,3.119,1.782,4.699
	c-2.65,10.179-4.723,20.489-6.199,30.862c-0.584,4.111,2.273,7.914,6.382,8.499c4.108,0.602,7.914-2.273,8.499-6.381
	c2.857-20.083,8.079-39.919,15.518-58.953l10.163-25.968c0.621-1.589,1.2-3.191,1.737-4.802h55.97
	c0.413,1.285,0.853,2.564,1.319,3.836l10.662,29.038C222.097,280.069,226.757,324.916,220.233,368.318z M338.369,154.327
	c5.43-5.226,12.583-7.931,20.137-7.658c14.304,0.544,25.898,12.171,26.395,26.474c0.154,4.396-0.688,8.611-2.506,12.53
	c-1.399,3.021-2.587,6.186-3.551,9.454c-13.913,0.04-27.329,2.23-39.933,6.255c-1.478-4.992-3.457-9.898-5.918-14.656
	c-2.024-3.915-3.049-8.152-3.049-12.592C329.942,166.592,332.935,159.559,338.369,154.327z M243.797,113.44
	c6.364-6.127,14.727-9.315,23.602-8.979c16.754,0.634,30.335,14.261,30.921,31.027c0.183,5.134-0.806,10.075-2.935,14.676
	c-4.917,10.601-7.411,22.414-7.411,35.109v6.197h-40.239c-0.139-13.528-3.674-27.368-10.243-40.079
	c-2.37-4.587-3.57-9.548-3.57-14.749C233.923,127.811,237.429,119.57,243.797,113.44z M288.932,214.481h-42.275
	c0.413-2.638,0.708-5.3,0.885-7.979h40.58C288.274,209.18,288.545,211.842,288.932,214.481z M232.364,256.845l9.166-23.451
	c0.504-1.286,0.977-2.579,1.421-3.881h47.207c-26.831,24.311-43.71,59.415-43.71,98.389c0,16.874,3.164,33.023,8.93,47.884h-21.12
	c6.336-37.197,4.865-75.484-4.252-112.651C230.76,261.037,231.551,258.927,232.364,256.845z M231.178,391.223
	c0.031-0.135,0.061-0.271,0.091-0.406h31.054c1.228,2.273,2.52,4.505,3.874,6.696h-36.46L231.178,391.223z M302.393,436.567
	c-1.222,5.345-5.906,9.079-11.392,9.079h-48.01c-5.48,0-10.16-3.734-11.383-9.082l-5.405-23.611l0.094-0.409H277
	c7.419,8.946,15.988,16.905,25.478,23.65L302.393,436.567z M380.64,445.637c-0.421-0.073-0.854-0.111-1.296-0.111h-5.476
	c-62.449-2.809-112.389-54.494-112.389-117.624c0-64.925,52.82-117.744,117.744-117.744s117.744,52.82,117.744,117.744
	C496.969,392.353,444.915,444.875,380.64,445.637z"/>
<path d="M417.303,312.369c12.985,0,23.549-10.564,23.549-23.549c0-12.985-10.564-23.549-23.549-23.549s-23.549,10.564-23.549,23.549
	C393.754,301.805,404.318,312.369,417.303,312.369z M417.303,280.303c4.697,0,8.518,3.821,8.518,8.518
	c0,4.697-3.821,8.518-8.518,8.518c-4.697,0-8.518-3.821-8.518-8.518C408.786,284.124,412.607,280.303,417.303,280.303z"/>
<path d="M417.303,343.434c-12.985,0-23.549,10.564-23.549,23.549c0,12.985,10.564,23.549,23.549,23.549s23.549-10.564,23.549-23.549
	C440.852,353.998,430.288,343.434,417.303,343.434z M417.303,375.5c-4.697,0-8.518-3.821-8.518-8.518
	c0-4.697,3.821-8.518,8.518-8.518c4.697,0,8.518,3.821,8.518,8.518C425.821,371.679,421.999,375.5,417.303,375.5z"/>
<path d="M463.399,304.353c-12.985,0-23.549,10.564-23.549,23.549c0,12.985,10.564,23.549,23.549,23.549
	c12.985,0,23.549-10.564,23.549-23.549C486.948,314.917,476.384,304.353,463.399,304.353z M463.399,336.419
	c-4.697,0-8.518-3.821-8.518-8.518c0-4.697,3.821-8.518,8.518-8.518c4.697,0,8.518,3.821,8.518,8.518
	C471.917,332.598,468.095,336.419,463.399,336.419z"/>
<g>
</g>
<g>
</g>
<g>
</g>
<g>
</g>
<g>
</g>
<g>
</g>
<g>
</g>
<g>
</g>
<g>
</g>
<g>
</g>
<g>
</g>
<g>
</g>
<g>
</g>
<g>
</g>
<g>
</g>
</svg>
