<?xml version="1.0" encoding="iso-8859-1"?>
<!-- Generator: Adobe Illustrator 19.0.0, SVG Export Plug-In . SVG Version: 6.00 Build 0)  -->
<svg version="1.1" id="Capa_1" xmlns="http://www.w3.org/2000/svg" xmlns:xlink="http://www.w3.org/1999/xlink" x="0px" y="0px"
	 viewBox="0 0 512 512" style="enable-background:new 0 0 512 512;" xml:space="preserve">
<path style="fill:#ED3124;" d="M161.048,324.782v0.03v29.267c0,3.488,0.62,6.837,1.759,9.966
	c1.549,4.238,11.564,12.434,11.564,12.434H54.156V255.383h49.918v-6.797c0-13.104,10.625-23.729,23.729-23.729h23.679
	c15.213,0,27.558,12.334,27.558,27.558v14.424v22.99v17.992c0,4.698-1.899,8.936-4.978,12.015
	c-3.079,3.079-7.317,4.978-12.015,4.978C161.718,324.812,161.378,324.802,161.048,324.782z"/>
<path style="fill:#E5140E;" d="M162.807,364.045c-1.139-3.129-1.759-6.477-1.759-9.966v-27.333H54.156v49.733h120.215
	C174.37,376.479,164.356,368.283,162.807,364.045z"/>
<path style="fill:#DDDDDD;" d="M85.082,285.83H54.096v61.972h30.986c8.556,0,16.303-3.468,21.91-9.076
	c5.607-5.607,9.076-13.354,9.076-21.91C116.068,299.704,102.194,285.83,85.082,285.83z"/>
<path style="fill:#D1D3D3;" d="M85.082,285.83H54.096v7.437h24.521c17.112,0,30.986,13.874,30.986,30.986
	c0,6.001-1.711,11.601-4.666,16.347c0.712-0.595,1.399-1.218,2.055-1.874c5.607-5.607,9.076-13.354,9.076-21.91
	C116.068,299.704,102.194,285.83,85.082,285.83z"/>
<path style="fill:#23A9B7;" d="M350.963,324.782v0.03v29.267c0,3.488-0.62,6.837-1.759,9.966
	c-1.549,4.238-12.822,12.434-12.822,12.434h124.472V255.383h-52.916v-6.797c0-13.104-10.625-23.729-23.729-23.729h-23.679
	c-15.213,0-27.558,12.334-27.558,27.558v14.424v22.99v17.992c0,4.698,1.899,8.936,4.978,12.015
	c3.079,3.079,7.317,4.978,12.015,4.978C350.293,324.812,350.633,324.802,350.963,324.782z"/>
<path style="fill:#15959B;" d="M349.204,364.045c1.139-3.129,1.759-6.477,1.759-9.966v-27.333h106.892v49.733H337.64
	C337.64,376.479,347.654,368.283,349.204,364.045z"/>
<path style="fill:#DDDDDD;" d="M427.929,285.83c-17.112,0-30.986,13.874-30.986,30.986c0,8.556,3.468,16.303,9.076,21.91
	c5.607,5.607,13.354,9.076,21.91,9.076h34.984V285.83H427.929z"/>
<path style="fill:#D1D3D3;" d="M402.706,326.746c0-17.112,13.874-30.986,30.986-30.986h29.221v-9.931h-34.984
	c-17.112,0-30.986,13.874-30.986,30.986c0,7.732,2.839,14.796,7.523,20.225C403.33,333.819,402.706,330.357,402.706,326.746z"/>
<path style="fill:#D81D19;" d="M60.153,258.942v108.242c0,9.726-7.876,17.602-17.602,17.602H25.099
	c-9.726,0-17.602-7.876-17.602-17.602V258.942c0-9.716,7.876-17.592,17.602-17.592h17.452
	C52.277,241.35,60.153,249.226,60.153,258.942z"/>
<path style="fill:#D30202;" d="M42.551,321.38H25.099c-9.726,0-17.602-7.876-17.602-17.602v63.406
	c0,9.726,7.876,17.602,17.602,17.602h17.452c9.726,0,17.602-7.876,17.602-17.602v-63.406
	C60.153,313.503,52.277,321.38,42.551,321.38z"/>
<path id="SVGCleanerId_0" style="fill:#D81D19;" d="M256.005,266.868v62.402c0,30.936-27.308,56.015-60.993,56.015
	c-7.487,0-14.404-2.219-20.021-5.987c-1.749-1.179-3.378-2.509-4.858-3.968c-3.249-3.209-5.777-7.047-7.327-11.285
	c-1.139-3.129-1.759-6.477-1.759-9.966v-29.267v-0.03c0.33,0.02,0.67,0.03,1,0.03c4.698,0,8.936-1.899,12.015-4.978
	c3.079-3.079,4.978-7.317,4.978-12.015v-17.992v-22.99v-14.424c0-10.645-6.037-19.881-14.873-24.469l4.198-5.238
	c6.217-7.217,15.843-11.845,26.648-11.845c16.842,0,32.086,6.267,43.131,16.403C249.179,237.401,256.005,251.405,256.005,266.868z"
	/>
<g>
	<path id="SVGCleanerId_0_1_" style="fill:#D81D19;" d="M256.005,266.868v62.402c0,30.936-27.308,56.015-60.993,56.015
		c-7.487,0-14.404-2.219-20.021-5.987c-1.749-1.179-3.378-2.509-4.858-3.968c-3.249-3.209-5.777-7.047-7.327-11.285
		c-1.139-3.129-1.759-6.477-1.759-9.966v-29.267v-0.03c0.33,0.02,0.67,0.03,1,0.03c4.698,0,8.936-1.899,12.015-4.978
		c3.079-3.079,4.978-7.317,4.978-12.015v-17.992v-22.99v-14.424c0-10.645-6.037-19.881-14.873-24.469l4.198-5.238
		c6.217-7.217,15.843-11.845,26.648-11.845c16.842,0,32.086,6.267,43.131,16.403C249.179,237.401,256.005,251.405,256.005,266.868z"
		/>
</g>
<path style="fill:#CC0000;" d="M195.013,351.613c-7.487,0-14.404-2.219-20.021-5.987c-1.749-1.179-3.378-2.509-4.858-3.968
	c-3.249-3.209-5.777-7.047-7.327-11.285c-0.653-1.792-1.128-3.658-1.421-5.579c-0.113-0.004-0.227-0.003-0.338-0.01v0.03v29.267
	c0,3.488,0.62,6.837,1.759,9.966c1.549,4.238,4.078,8.076,7.327,11.285c1.479,1.459,3.109,2.789,4.858,3.968
	c5.617,3.768,12.534,5.987,20.021,5.987c33.685,0,60.993-25.079,60.993-56.015v-33.673
	C256.005,326.535,228.698,351.613,195.013,351.613z"/>
<g>
	<path style="fill:#128CA0;" d="M451.858,258.942v108.242c0,9.726,7.876,17.602,17.602,17.602h17.452
		c9.726,0,17.602-7.876,17.602-17.602V258.942c0-9.716-7.876-17.592-17.602-17.592H469.46
		C459.734,241.35,451.858,249.226,451.858,258.942z"/>
	<path style="fill:#128CA0;" d="M256.005,266.868v62.402c0,30.936,27.308,56.015,60.993,56.015c7.487,0,14.404-2.219,20.021-5.987
		c1.749-1.179,3.379-2.509,4.858-3.968c3.249-3.209,5.777-7.047,7.327-11.285c1.139-3.129,1.759-6.477,1.759-9.966v-29.267v-0.03
		c-0.33,0.02-0.67,0.03-1,0.03c-4.698,0-8.936-1.899-12.015-4.978c-3.079-3.079-4.978-7.317-4.978-12.015v-17.992v-22.99v-14.424
		c0-10.645,6.037-19.881,14.873-24.469l-4.198-5.238c-6.217-7.217-15.843-11.845-26.648-11.845
		c-16.842,0-32.086,6.267-43.131,16.403C262.832,237.401,256.005,251.405,256.005,266.868z"/>
</g>
<g>
	<path style="fill:#0D828E;" d="M469.46,321.38h17.452c9.726,0,17.602-7.876,17.602-17.602v63.406
		c0,9.726-7.876,17.602-17.602,17.602H469.46c-9.726,0-17.602-7.876-17.602-17.602v-63.406
		C451.858,313.503,459.734,321.38,469.46,321.38z"/>
	<path style="fill:#0D828E;" d="M316.998,351.613c7.487,0,14.404-2.219,20.021-5.987c1.749-1.179,3.379-2.509,4.858-3.968
		c3.249-3.209,5.777-7.047,7.327-11.285c0.653-1.792,1.128-3.658,1.421-5.579c0.113-0.004,0.227-0.003,0.338-0.01v0.03v29.267
		c0,3.488-0.62,6.837-1.759,9.966c-1.549,4.238-4.078,8.076-7.327,11.285c-1.479,1.459-3.109,2.789-4.858,3.968
		c-5.617,3.768-12.534,5.987-20.021,5.987c-33.685,0-60.993-25.079-60.993-56.015v-33.673
		C256.005,326.535,283.313,351.613,316.998,351.613z"/>
</g>
<g>
	<path style="fill:#E8B62A;" d="M271.6,133.859l-12.726,37.336c-0.823,2.414-4.251,2.374-5.017-0.059l-12-38.122
		c-0.393-1.247,0.186-2.603,1.362-3.174c9.205-4.465,18.264-4.174,27.178,0.86C271.505,131.324,272.009,132.655,271.6,133.859z"/>
	<path style="fill:#E8B62A;" d="M320.679,174.944l-37.837,11.169c-2.446,0.722-4.392-2.1-2.848-4.13l24.197-31.808
		c0.792-1.041,2.233-1.351,3.379-0.72c8.958,4.937,13.955,12.499,14.995,22.682C322.693,173.402,321.897,174.585,320.679,174.944z"
		/>
	<path style="fill:#E8B62A;" d="M208.349,150.175l24.197,31.808c1.544,2.03-0.402,4.852-2.848,4.13l-37.837-11.169
		c-1.219-0.36-2.014-1.541-1.885-2.806c1.041-10.182,6.036-17.745,14.995-22.682C206.116,148.825,207.557,149.136,208.349,150.175z"
		/>
</g>
<path d="M86.225,329.261c1.429,1.271,3.209,1.897,4.982,1.897c2.064,0,4.121-0.849,5.601-2.512
	c2.753-3.093,2.478-7.831-0.614-10.584l-0.974-0.867l0.956-0.887c3.034-2.817,3.21-7.561,0.393-10.595
	c-2.816-3.033-7.56-3.21-10.595-0.393l-2.002,1.859l-2.04-1.817c-3.093-2.752-7.831-2.478-10.584,0.614
	c-2.753,3.093-2.478,7.831,0.614,10.584l0.974,0.867l-0.956,0.887c-3.034,2.817-3.21,7.561-0.393,10.595
	c1.477,1.59,3.483,2.395,5.496,2.395c1.825,0,3.655-0.663,5.1-2.003l2.002-1.859L86.225,329.261z"/>
<path d="M486.908,233.85h-17.459c-9.872,0-18.431,5.731-22.524,14.041h-31.502c-0.371-16.898-14.233-30.533-31.219-30.533h-23.677
	c-3.622,0-7.118,0.552-10.407,1.577c-0.227-0.388-0.493-0.762-0.797-1.115c-7.916-9.187-19.701-14.457-32.332-14.457
	c-26.534,0-49.593,14.067-60.959,34.581c-3.271-5.918-7.573-11.383-12.819-16.203c-12.914-11.849-30.032-18.376-48.199-18.376
	c-12.634,0-24.417,5.267-32.329,14.449c-0.306,0.355-0.572,0.731-0.801,1.121c-3.353-1.039-6.87-1.576-10.401-1.576h-23.679
	c-16.983,0-30.844,13.631-31.218,30.526H65.079c-4.096-8.306-12.655-14.034-22.528-14.034H25.099
	C11.259,233.853,0,245.108,0,258.943v108.242c0,13.84,11.259,25.098,25.098,25.098H42.55c7.388,0,14.041-3.209,18.638-8.306h107.48
	c0.697,0.536,1.412,1.053,2.147,1.548c7.079,4.748,15.446,7.258,24.197,7.258c26.558,0,49.634-14.091,60.991-34.634
	c11.357,20.541,34.431,34.631,60.987,34.631c9.847,0,19.086-3.24,26.34-8.798h27.725c4.141,0,7.497-3.355,7.497-7.497
	c0-4.141-3.355-7.497-7.497-7.497h-15.785c0.346-0.775,0.667-1.564,0.962-2.367c1.476-4.028,2.225-8.246,2.225-12.536v-23.299
	c9.328-3.461,15.993-12.451,15.993-22.969v-36.983c0-4.141-3.355-7.497-7.497-7.497c-4.141,0-7.497,3.355-7.497,7.497v36.983
	c0,5.236-4.26,9.496-9.496,9.496c-5.236,0-9.496-4.26-9.496-9.496v-55.405c0-11.061,9-20.061,20.061-20.061h23.677
	c8.951,0,16.234,7.283,16.234,16.234v6.803c0,4.141,3.355,7.497,7.497,7.497h36.423v15.446h-17.431
	c-21.22,0-38.483,17.263-38.483,38.483s17.263,38.483,38.483,38.483h17.431v13.692h-35.989c-4.141,0-7.497,3.355-7.497,7.497
	c0,4.141,3.355,7.497,7.497,7.497h42.454c4.596,5.093,11.244,8.298,18.628,8.298h17.459c13.836,0,25.093-11.257,25.093-25.093
	V258.943C512,245.107,500.744,233.85,486.908,233.85z M67.65,293.323h17.429c12.952,0,23.489,10.537,23.489,23.49
	s-10.537,23.49-23.489,23.49H67.65V293.323z M52.656,367.184c0,5.572-4.533,10.104-10.105,10.104H25.099
	c-5.572,0-10.104-4.533-10.104-10.104V258.943c0-5.566,4.533-10.096,10.104-10.096h17.452c5.573,0,10.105,4.529,10.105,10.096
	V367.184 M67.65,355.296h17.429c21.22,0,38.483-17.263,38.483-38.483s-17.263-38.483-38.483-38.483H67.65v-15.45h36.423
	c4.141,0,7.497-3.355,7.497-7.497v-6.797c0-8.951,7.282-16.233,16.233-16.233h23.679c3.265,0,6.366,0.754,9.229,2.246
	c6.681,3.469,10.831,10.295,10.831,17.815v55.405c0,2.536-0.988,4.921-2.782,6.714c-1.793,1.794-4.178,2.782-6.714,2.782
	c-0.184,0-0.373-0.005-0.571-0.017c-5.005-0.287-8.925-4.45-8.925-9.479v-36.983c0-4.141-3.355-7.497-7.497-7.497
	s-7.497,3.355-7.497,7.497v36.983c0,10.488,6.626,19.518,15.993,22.98v23.281c0,4.286,0.745,8.503,2.216,12.538
	c0.291,0.797,0.612,1.585,0.962,2.365H67.65V355.296z M195.013,377.789c-5.767,0-11.246-1.631-15.829-4.705
	c-1.368-0.924-2.643-1.963-3.781-3.088c-2.496-2.466-4.416-5.413-5.552-8.518c-0.868-2.379-1.307-4.868-1.307-7.398v-22.645
	c4.049-1.109,7.774-3.254,10.819-6.298c4.625-4.626,7.173-10.775,7.173-17.316v-55.405c0-10.053-4.243-19.396-11.458-25.94
	c5.036-5.175,12.214-8.114,19.935-8.114c14.404,0,27.922,5.125,38.06,14.428c9.88,9.075,15.352,21.066,15.433,33.794
	c0,0.097-0.001,0.195-0.001,0.293v62.396c0,0.123,0,0.246,0.001,0.369C248.288,356.222,224.375,377.789,195.013,377.789z
	 M343.462,331.43v22.654c0,2.525-0.44,5.008-1.309,7.379c-3.577,9.764-13.69,16.323-25.164,16.323
	c-29.36,0-53.271-21.565-53.49-48.148c0.001-0.122,0.001-0.245,0.001-0.367v-62.402c0-0.122,0-0.244-0.001-0.366
	c0.22-26.582,24.131-48.145,53.49-48.145c7.727,0,14.913,2.949,19.955,8.138c-7.046,6.416-11.475,15.659-11.475,25.916v55.405
	C325.47,319.072,333.102,328.578,343.462,331.43z M426.925,340.302c-12.952,0-23.49-10.537-23.49-23.49s10.537-23.49,23.49-23.49
	h17.431v46.979H426.925z M459.351,367.186V258.943c0-5.568,4.53-10.099,10.099-10.099h17.459c5.569,0,10.099,4.53,10.099,10.099
	v108.245c0,5.569-4.53,10.099-10.099,10.099H469.45C463.881,377.286,459.351,372.756,459.351,367.186"/>
<path d="M440.023,318.316l-0.956-0.887l0.974-0.867c3.093-2.754,3.367-7.492,0.614-10.584c-2.752-3.091-7.491-3.367-10.584-0.614
	l-2.04,1.817l-2.002-1.859c-3.035-2.817-7.779-2.641-10.595,0.393c-2.817,3.034-2.642,7.778,0.393,10.595l0.956,0.887l-0.974,0.867
	c-3.093,2.754-3.367,7.492-0.614,10.584c1.48,1.663,3.536,2.512,5.601,2.512c1.773,0,3.553-0.626,4.982-1.897l2.04-1.817
	l2.002,1.859c1.443,1.34,3.274,2.003,5.1,2.003c2.012,0,4.019-0.806,5.496-2.395C443.233,325.877,443.057,321.133,440.023,318.316z"
	/>
<path d="M33.545,293.266c-4.141,0-7.497,3.355-7.497,7.497v54.975c0,4.141,3.355,7.497,7.497,7.497s7.497-3.355,7.497-7.497v-54.975
	C41.042,296.623,37.685,293.266,33.545,293.266z"/>
<path d="M33.545,260.281c-4.141,0-7.497,3.355-7.497,7.497v11.995c0,4.141,3.355,7.497,7.497,7.497s7.497-3.355,7.497-7.497v-11.995
	C41.042,263.638,37.685,260.281,33.545,260.281z"/>
<path d="M478.346,293.266c-4.141,0-7.497,3.355-7.497,7.497v54.975c0,4.141,3.355,7.497,7.497,7.497s7.497-3.355,7.497-7.497
	v-54.975C485.843,296.623,482.486,293.266,478.346,293.266z"/>
<path d="M478.346,260.281c-4.141,0-7.497,3.355-7.497,7.497v11.995c0,4.141,3.355,7.497,7.497,7.497s7.497-3.355,7.497-7.497
	v-11.995C485.843,263.638,482.486,260.281,478.346,260.281z"/>
<path d="M249.124,181.069c0.974,3.092,3.822,5.207,7.063,5.245c0.029,0.001,0.059,0.001,0.089,0.001
	c3.204,0,6.059-2.039,7.095-5.078l16.013-46.979c1.113-3.265-0.146-6.867-3.048-8.728c-12.466-7.997-25.885-8.401-38.804-1.172
	c-3.1,1.734-4.557,5.405-3.49,8.793L249.124,181.069z M263.111,135.527l-6.553,19.222l-6.196-19.687
	C254.682,133.774,258.872,133.925,263.111,135.527z"/>
<path d="M268.945,192.649c1.424,2.065,3.751,3.242,6.171,3.242c0.707,0,1.42-0.101,2.122-0.308l47.609-14.055
	c3.31-0.978,5.524-4.085,5.367-7.531c-0.674-14.791-8.091-25.978-21.452-32.354c-3.202-1.525-7.044-0.6-9.194,2.228l-30.417,39.982
	C267.189,186.433,267.106,189.982,268.945,192.649z M307.427,158.303c3.549,2.782,5.844,6.29,6.985,10.674l-19.48,5.75
	L307.427,158.303z"/>
<path d="M187.692,181.529l47.609,14.055c0.702,0.207,1.415,0.308,2.122,0.308c2.42,0,4.747-1.176,6.171-3.242
	c1.84-2.668,1.757-6.216-0.205-8.795l-30.416-39.982c-2.149-2.827-5.99-3.753-9.194-2.228c-13.361,6.375-20.78,17.562-21.453,32.354
	C182.169,177.444,184.384,180.553,187.692,181.529z M205.112,158.303l12.495,16.426l-19.481-5.751
	C199.267,164.593,201.563,161.085,205.112,158.303z"/>
<g>
</g>
<g>
</g>
<g>
</g>
<g>
</g>
<g>
</g>
<g>
</g>
<g>
</g>
<g>
</g>
<g>
</g>
<g>
</g>
<g>
</g>
<g>
</g>
<g>
</g>
<g>
</g>
<g>
</g>
</svg>
