<?xml version="1.0" encoding="iso-8859-1"?>
<!-- Generator: Adobe Illustrator 19.0.0, SVG Export Plug-In . SVG Version: 6.00 Build 0)  -->
<svg version="1.1" id="Capa_1" xmlns="http://www.w3.org/2000/svg" xmlns:xlink="http://www.w3.org/1999/xlink" x="0px" y="0px"
	 viewBox="0 0 512 512" style="enable-background:new 0 0 512 512;" xml:space="preserve">
<g>
	<rect x="270.5" y="260.67" style="fill:#F9BDA0;" width="58" height="130.08"/>
	<rect x="173.5" y="260.67" style="fill:#F9BDA0;" width="58" height="129.14"/>
</g>
<g>
	<rect x="270.5" y="260.67" style="fill:#F2AB8F;" width="33.19" height="130.08"/>
	<rect x="173.5" y="260.67" style="fill:#F2AB8F;" width="33.19" height="129.14"/>
</g>
<path style="fill:#00AA95;" d="M376.5,204.79v18.15c0,24.61-19.95,44.56-44.56,44.56h-62.39c-6.65,0-12.05-5.4-12.05-12.05V220.5h2
	l32.91-28h71.8C371,192.5,376.5,198,376.5,204.79z"/>
<path style="fill:#DDDBC7;" d="M348.5,215.5c0,5.52-2.24,10.52-5.86,14.14s-8.62,5.86-14.14,5.86h-0.1v32h3.54
	c24.61,0,44.56-19.95,44.56-44.56v-7.44H348.5z"/>
<path style="fill:#C9C7B8;" d="M382.5,178.03v6.94c0,4.16-3.37,7.53-7.53,7.53H263.03c-4.16,0-7.53-3.37-7.53-7.53v-6.94
	c0-4.16,3.37-7.53,7.53-7.53h111.94C379.13,170.5,382.5,173.87,382.5,178.03z"/>
<path style="fill:#DDDBC7;" d="M292.41,192.5v13.45c0,8.04-6.52,14.55-14.55,14.55H259.5h-2v-15.95c0-6.65,5.4-12.05,12.05-12.05
	H292.41z"/>
<path style="fill:#128CA0;" d="M346.5,404.906v94.43c0,2.854-2.25,5.165-5.03,5.165H250.5v-99.594h96V404.906z"/>
<rect x="250.5" y="404.91" style="fill:#057771;" width="47.5" height="99.59"/>
<path style="fill:#DDDBC7;" d="M352.28,389.22c1.99,1.99,3.22,4.74,3.22,7.78c0,6.08-4.92,11-11,11h-90c-3.04,0-5.79-1.23-7.78-3.22
	s-3.22-4.74-3.22-7.78c0-6.08,4.92-11,11-11h90C347.54,386,350.29,387.23,352.28,389.22z"/>
<path style="fill:#00AA95;" d="M125.5,204.79v18.15c0,24.61,19.95,44.56,44.56,44.56h62.39c6.65,0,12.05-5.4,12.05-12.05V220.5h-2
	l-32.91-28h-71.8C131,192.5,125.5,198,125.5,204.79z"/>
<path style="fill:#DDDBC7;" d="M153.5,215.5c0,5.52,2.24,10.52,5.86,14.14s8.62,5.86,14.14,5.86h0.1v32h-3.54
	c-24.61,0-44.56-19.95-44.56-44.56v-7.44H153.5z"/>
<path style="fill:#C9C7B8;" d="M119.5,178.03v6.94c0,4.16,3.37,7.53,7.53,7.53h111.94c4.16,0,7.53-3.37,7.53-7.53v-6.94
	c0-4.16-3.37-7.53-7.53-7.53H127.03C122.87,170.5,119.5,173.87,119.5,178.03z"/>
<path style="fill:#DDDBC7;" d="M209.59,192.5v13.45c0,8.04,6.52,14.55,14.55,14.55h18.36h2v-15.95c0-6.65-5.4-12.05-12.05-12.05
	H209.59z"/>
<path style="fill:#128CA0;" d="M155.5,404.021v95.269c0,2.88,2.227,5.21,4.978,5.21H250.5V404.021H155.5z"/>
<path style="fill:#057771;" d="M203,499.29v-95.269h-47.5v95.269c0,2.88,2.227,5.21,4.978,5.21h47.5
	C205.227,504.5,203,502.169,203,499.29z"/>
<path style="fill:#DDDBC7;" d="M256.28,388.72c1.99,1.99,3.22,4.74,3.22,7.78c0,6.08-4.92,11-11,11h-90c-3.04,0-5.79-1.23-7.78-3.22
	s-3.22-4.74-3.22-7.78c0-6.08,4.92-11,11-11h90C251.54,385.5,254.29,386.73,256.28,388.72z"/>
<g>
	<path style="fill:#C4C0A5;" d="M294.705,397c0-6.08,4.92-11,11-11H254.5c-6.08,0-11,4.92-11,11c0,3.04,1.23,5.79,3.22,7.78
		s4.74,3.22,7.78,3.22h51.205c-3.04,0-5.79-1.23-7.78-3.22C295.935,402.79,294.705,400.04,294.705,397z"/>
	<path style="fill:#C4C0A5;" d="M198.705,396.5c0-6.08,4.92-11,11-11H158.5c-6.08,0-11,4.92-11,11c0,3.04,1.23,5.79,3.22,7.78
		s4.74,3.22,7.78,3.22h51.205c-3.04,0-5.79-1.23-7.78-3.22S198.705,399.54,198.705,396.5z"/>
</g>
<path d="M374.97,163H371v-48.5c0-15.163-12.336-27.5-27.5-27.5S316,99.337,316,114.5v2.5c0,7.168-5.832,13-13,13s-13-5.832-13-13
	V7.5c0-4.143-3.358-7.5-7.5-7.5S275,3.357,275,7.5V117c0,15.439,12.561,28,28,28s28-12.561,28-28v-2.5c0-6.893,5.607-12.5,12.5-12.5
	s12.5,5.607,12.5,12.5V163h-92.97c-4.626,0-8.771,2.101-11.53,5.399c-2.759-3.298-6.904-5.399-11.53-5.399H128.03
	c-8.288,0-15.03,6.742-15.03,15.029v6.941c0,5.447,2.913,10.226,7.262,12.862c-0.815,2.165-1.262,4.509-1.262,6.956v18.151
	c0,26.999,20.659,49.263,47,51.815V284h-4.5c-4.142,0-7.5,3.357-7.5,7.5s3.358,7.5,7.5,7.5h4.5v8h-4.5c-4.142,0-7.5,3.357-7.5,7.5
	s3.358,7.5,7.5,7.5h4.5v8h-4.5c-4.142,0-7.5,3.357-7.5,7.5s3.358,7.5,7.5,7.5h4.5v33h-7.5c-10.201,0-18.5,8.299-18.5,18.5
	c0,4.944,1.924,9.591,5.417,13.084c0.803,0.803,1.668,1.523,2.583,2.156v87.726c0,6.911,5.623,12.534,12.534,12.534H342.47
	c6.909,0,12.53-5.621,12.53-12.53v-31.509c0-4.143-3.358-7.5-7.5-7.5s-7.5,3.357-7.5,7.5V497h-81v-82h81v17.974
	c0,4.143,3.358,7.5,7.5,7.5s7.5-3.357,7.5-7.5v-21.25c4.83-3.341,8-8.919,8-15.224c0-10.201-8.299-18.5-18.5-18.5H336v-10.004
	c19.345-0.269,35-16.088,35-35.496v-75.178c8.088-9.177,13-21.216,13-34.382v-18.15c0-2.447-0.447-4.792-1.262-6.957
	c4.35-2.636,7.262-7.416,7.262-12.864v-6.939C390,169.742,383.258,163,374.97,163z M263.03,178h111.94l0.03,0.03l-0.03,6.97
	L263,184.97L263.03,178z M369,204.79V208h-20.5c-4.142,0-7.5,3.357-7.5,7.5c0,3.336-1.301,6.474-3.663,8.836
	c-2.363,2.363-5.501,3.664-8.837,3.664h-0.1c-4.142,0-7.5,3.357-7.5,7.5V260h-51.35c-2.509,0-4.55-2.041-4.55-4.55V228h12.86
	c12.159,0,22.05-9.892,22.05-22.05V200h64.3C366.851,200,369,202.148,369,204.79z M335.9,259.789v-17.792
	c4.509-1.252,8.643-3.653,12.044-7.055c3.375-3.376,5.765-7.473,7.025-11.942H369C368.969,242.07,354.461,257.809,335.9,259.789z
	 M321,349.143c-1.613-1.161-3.055-2.556-4.273-4.143H321V349.143z M278,330v-8h43v8H278z M254.5,378
	c-0.808,0-1.586,0.128-2.315,0.365c-1.2-0.241-2.433-0.365-3.685-0.365H239v-33h24v33H254.5z M239,330v-8h24v8H239z M174.5,228
	c-6.893,0-12.5-5.607-12.5-12.5c0-4.143-3.358-7.5-7.5-7.5H134v-3.211c0-2.641,2.148-4.789,4.789-4.789h64.303v5.949
	c0,12.159,9.892,22.051,22.051,22.051H238v27.447c0,2.511-2.042,4.553-4.552,4.553h-51.349v-24.5
	C182.099,231.357,178.642,228,174.5,228z M321,282.725V284h-43v-9h42.9v6.5C320.9,281.917,320.935,282.326,321,282.725z M269.55,200
	h15.36v5.95c0,3.888-3.163,7.05-7.05,7.05H265v-8.45C265,202.041,267.041,200,269.55,200z M218.092,200h15.355
	c2.51,0,4.552,2.042,4.552,4.553V213h-12.856c-3.888,0-7.051-3.163-7.051-7.051V200z M239,274.197
	c5.656-1.678,10.25-5.851,12.5-11.239c2.115,5.067,6.304,9.06,11.5,10.913V284h-24V274.197z M263,299v8h-24v-8H263z M278,307v-8h43
	v8H278z M128.016,178.001c0,0,0.004-0.001,0.014-0.001L240,178.029L239.97,185L128,184.971L128.016,178.001z M134,223h14.04
	c2.601,9.159,9.849,16.387,19.059,18.973v17.816C148.539,257.808,134.031,242.07,134,223z M181,275h43v9h-43V275z M181,299h43v8h-43
	V299z M181,322h43v8h-43V322z M181,345h43v33h-43V345z M158.5,393h90c1.264,0,2.095,0.642,2.477,1.023
	c0.382,0.382,1.023,1.212,1.023,2.477c0,1.93-1.57,3.5-3.5,3.5h-90c-1.264,0-2.095-0.642-2.477-1.023
	c-0.382-0.382-1.023-1.212-1.023-2.477C155,394.57,156.57,393,158.5,393z M163,415h81v82h-81V415z M348,396.5
	c0,1.93-1.57,3.5-3.5,3.5h-77.832c0.218-1.134,0.332-2.304,0.332-3.5c0-1.188-0.111-2.358-0.329-3.5H344.5
	C346.43,393,348,394.57,348,396.5z M278,378v-33h21.76c3.698,9.889,11.544,17.464,21.24,20.929V378H278z M336,352.994V345h5.5
	c4.142,0,7.5-3.357,7.5-7.5s-3.358-7.5-7.5-7.5H336v-8h5.5c4.142,0,7.5-3.357,7.5-7.5s-3.358-7.5-7.5-7.5H336v-8h5.5
	c4.142,0,7.5-3.357,7.5-7.5s-3.358-7.5-7.5-7.5H336v-9.157c7.168-0.555,13.934-2.569,20-5.744V332.5
	C356,343.637,347.074,352.728,336,352.994z"/>
<path d="M52.5,93c-4.142,0-7.5,3.357-7.5,7.5v70c0,4.143,3.358,7.5,7.5,7.5s7.5-3.357,7.5-7.5v-70C60,96.357,56.642,93,52.5,93z"/>
<path d="M52.5,193.5c-4.142,0-7.5,3.357-7.5,7.5v29c0,4.143,3.358,7.5,7.5,7.5s7.5-3.357,7.5-7.5v-29
	C60,196.857,56.642,193.5,52.5,193.5z"/>
<path d="M85.5,269.5c-4.142,0-7.5,3.357-7.5,7.5v52.5c0,4.143,3.358,7.5,7.5,7.5s7.5-3.357,7.5-7.5V277
	C93,272.857,89.642,269.5,85.5,269.5z"/>
<path d="M85.5,351.5c-4.142,0-7.5,3.357-7.5,7.5v26.5c0,4.143,3.358,7.5,7.5,7.5s7.5-3.357,7.5-7.5V359
	C93,354.857,89.642,351.5,85.5,351.5z"/>
<path d="M416.5,251.5c-4.142,0-7.5,3.357-7.5,7.5v52.5c0,4.143,3.358,7.5,7.5,7.5s7.5-3.357,7.5-7.5V259
	C424,254.857,420.642,251.5,416.5,251.5z"/>
<path d="M455.5,351.5c-4.142,0-7.5,3.357-7.5,7.5v52.5c0,4.143,3.358,7.5,7.5,7.5s7.5-3.357,7.5-7.5V359
	C463,354.857,459.642,351.5,455.5,351.5z"/>
<path d="M455.5,438c-4.142,0-7.5,3.357-7.5,7.5v26c0,4.143,3.358,7.5,7.5,7.5s7.5-3.357,7.5-7.5v-26
	C463,441.357,459.642,438,455.5,438z"/>
<path d="M47.5,385.5c-4.142,0-7.5,3.357-7.5,7.5v52.5c0,4.143,3.358,7.5,7.5,7.5s7.5-3.357,7.5-7.5V393
	C55,388.857,51.642,385.5,47.5,385.5z"/>
<path d="M464.5,121.5c-4.142,0-7.5,3.357-7.5,7.5v52.5c0,4.143,3.358,7.5,7.5,7.5s7.5-3.357,7.5-7.5V129
	C472,124.857,468.642,121.5,464.5,121.5z"/>
<path d="M464.5,207.5c-4.142,0-7.5,3.357-7.5,7.5v26c0,4.143,3.358,7.5,7.5,7.5s7.5-3.357,7.5-7.5v-26
	C472,210.857,468.642,207.5,464.5,207.5z"/>
<path d="M212.5,91c4.142,0,7.5-3.357,7.5-7.5V32c0-4.143-3.358-7.5-7.5-7.5S205,27.857,205,32v51.5C205,87.643,208.358,91,212.5,91z
	"/>
<path d="M212.5,143c4.142,0,7.5-3.357,7.5-7.5v-24c0-4.143-3.358-7.5-7.5-7.5s-7.5,3.357-7.5,7.5v24
	C205,139.643,208.358,143,212.5,143z"/>
<g>
</g>
<g>
</g>
<g>
</g>
<g>
</g>
<g>
</g>
<g>
</g>
<g>
</g>
<g>
</g>
<g>
</g>
<g>
</g>
<g>
</g>
<g>
</g>
<g>
</g>
<g>
</g>
<g>
</g>
</svg>
