<?xml version="1.0" encoding="iso-8859-1"?>
<!-- Generator: Adobe Illustrator 19.0.0, SVG Export Plug-In . SVG Version: 6.00 Build 0)  -->
<svg version="1.1" id="Capa_1" xmlns="http://www.w3.org/2000/svg" xmlns:xlink="http://www.w3.org/1999/xlink" x="0px" y="0px"
	 viewBox="0 0 512 512" style="enable-background:new 0 0 512 512;" xml:space="preserve">
<path style="fill:#85B52A;" d="M331.442,177.037v19.112c0,11.668-9.455,21.124-21.124,21.124h-9.053h-18.106v43.253h-52.306v-33.195
	h-17.1h-8.047h-6.035c-4.446,0-8.047-3.601-8.047-8.047v-19.112c0-6.176,5.07-11.175,11.276-11.065
	c6.086,0.111,10.854,5.341,10.854,11.427v4.667h17.1v-55.324c0-14.686,12.111-26.546,26.888-26.143
	c14.243,0.392,25.419,12.433,25.419,26.686v28.648c0,4.436,3.591,8.027,8.027,8.027h10.079v-9.636
	c0-8.118,6.247-15.109,14.364-15.491C324.29,161.556,331.442,168.466,331.442,177.037z"/>
<path style="fill:#759B0B;" d="M257.74,123.733c-14.777-0.402-26.888,11.457-26.888,26.143v40.626v36.829v33.195h22.887v-33.195
	v-22.13v-55.324c0-10.313,5.977-19.226,14.651-23.484C265.165,124.792,261.565,123.839,257.74,123.733z"/>
<path style="fill:#00C37A;" d="M71.418,203.693v78.46H23.136v-78.46c0-13.328,10.813-24.141,24.141-24.141
	c6.659,0,12.694,2.706,17.07,7.071C68.713,190.999,71.418,197.034,71.418,203.693z"/>
<path style="fill:#02AD67;" d="M58.271,182.207c-3.3-1.693-7.035-2.656-10.994-2.656c-13.328,0-24.141,10.813-24.141,24.141v78.46
	h21.994v-78.46C45.129,194.327,50.472,186.209,58.271,182.207z"/>
<path style="fill:#00C37A;" d="M141.831,223.811v54.837l-48.283,23.622v-78.46c0-13.328,10.813-24.141,24.141-24.141
	c6.659,0,12.694,2.706,17.07,7.071C139.125,211.116,141.831,217.152,141.831,223.811z"/>
<path style="fill:#02AD67;" d="M115.542,223.811c0-9.366,5.343-17.483,13.142-21.486c-3.3-1.693-7.035-2.656-10.994-2.656
	c-13.328,0-24.141,10.813-24.141,24.141v78.46l21.994-10.76V223.811z"/>
<path style="fill:#FF7400;" d="M137.636,250.467c5.643,0,9.958,5.029,9.103,10.602l-12.282,80.18
	c-1.127,7.373-7.474,12.825-14.938,12.825H45.446c-7.464,0-13.811-5.452-14.938-12.825l-12.282-80.18
	c-0.855-5.573,3.46-10.602,9.103-10.602H137.636z"/>
<path style="fill:#FF5500;" d="M84.031,341.249l-12.282-80.18c-0.855-5.573,3.46-10.602,9.103-10.602H27.33
	c-5.643,0-9.958,5.029-9.103,10.602l12.282,80.18c1.127,7.373,7.474,12.825,14.938,12.825h53.523
	C91.505,354.074,85.158,348.622,84.031,341.249z"/>
<path style="fill:#FF7400;" d="M495.403,277.224v50.094c0,14.777-11.98,26.757-26.757,26.757h-78.259
	c-14.777,0-26.757-11.98-26.757-26.757v-50.094c0-14.777,11.98-26.757,26.757-26.757h78.259
	C483.423,250.467,495.403,262.447,495.403,277.224z"/>
<path style="fill:#FF5500;" d="M423.481,327.316v-50.094c0-14.777,11.98-26.757,26.757-26.757h-59.851
	c-14.777,0-26.757,11.98-26.757,26.757v50.094c0,14.777,11.98,26.757,26.757,26.757h59.851
	C435.462,354.074,423.481,342.093,423.481,327.316z"/>
<path style="fill:#FF7400;" d="M271.591,250.467c28.608,0,51.804,23.196,51.804,51.804c0,14.304-5.794,27.26-15.169,36.635
	c-9.375,9.375-22.331,15.169-36.635,15.169h-28.165c-28.608,0-51.804-23.196-51.804-51.804c0-14.304,5.794-27.26,15.169-36.635
	c9.375-9.375,22.331-15.169,36.635-15.169H271.591z"/>
<path style="fill:#FF5500;" d="M245.438,302.271c0-14.304,5.794-27.26,15.169-36.635c6.473-6.473,14.654-11.236,23.806-13.566
	c-4.101-1.045-8.396-1.602-12.822-1.602h-28.165c-14.304,0-27.26,5.794-36.635,15.169s-15.169,22.331-15.169,36.635
	c0,28.608,23.196,51.804,51.804,51.804h28.165c4.428,0,8.725-0.558,12.828-1.602C262.013,346.764,245.438,326.452,245.438,302.271z"
	/>
<path style="fill:#00C37A;" d="M107.128,172.007v78.46H58.845v-78.46c0-13.328,10.813-24.141,24.141-24.141
	c6.659,0,12.694,2.706,17.07,7.071C104.422,159.313,107.128,165.348,107.128,172.007z"/>
<path style="fill:#02AD67;" d="M93.981,150.521c-3.3-1.693-7.035-2.656-10.994-2.656c-13.328,0-24.141,10.813-24.141,24.141v78.46
	h21.994v-78.46C80.839,162.641,86.181,154.524,93.981,150.521z"/>
<g>
	<path style="fill:#00C37A;" d="M484.841,216.92v16.798c0,9.526-7.725,17.251-17.251,17.251h-11.769
		c-9.526,0-17.251-7.725-17.251-17.251V216.92c0-9.526,7.725-17.251,17.251-17.251h11.769
		C477.116,199.669,484.841,207.395,484.841,216.92z"/>
	<path style="fill:#00C37A;" d="M423.481,216.92v16.798c0,9.526-7.725,17.251-17.251,17.251h-11.769
		c-9.526,0-17.251-7.725-17.251-17.251V216.92c0-9.526,7.725-17.251,17.251-17.251h11.769
		C415.756,199.669,423.481,207.395,423.481,216.92z"/>
</g>
<path style="fill:#059E5C;" d="M406.23,199.669h-6.142c-3.319,4.752-5.275,10.525-5.275,16.748v16.797
	c0,6.669,2.242,12.823,6.007,17.754h5.41c9.526,0,17.251-7.725,17.251-17.251v-16.798
	C423.481,207.395,415.756,199.669,406.23,199.669z"/>
<path style="fill:#02AD67;" d="M438.57,216.919v16.798c0,9.526,7.725,17.251,17.251,17.251h3.398
	c3.765-4.932,6.007-11.085,6.007-17.754v-16.797c0-6.223-1.955-11.996-5.275-16.748h-4.13
	C446.295,199.669,438.57,207.395,438.57,216.919z"/>
<path style="fill:#00C37A;" d="M453.155,216.417v16.798c0,9.526-7.725,17.251-17.251,17.251h-11.769
	c-9.526,0-17.251-7.725-17.251-17.251v-16.798c0-9.526,7.725-17.251,17.251-17.251h11.769
	C445.43,199.166,453.155,206.892,453.155,216.417z"/>
<path style="fill:#02AD67;" d="M424.99,233.216v-16.798c0-8.442,6.072-15.458,14.082-16.947c-1.028-0.191-2.085-0.304-3.169-0.304
	h-11.769c-9.526,0-17.251,7.725-17.251,17.251v16.798c0,9.526,7.725,17.251,17.251,17.251h11.769c1.084,0,2.141-0.113,3.169-0.304
	C431.062,248.672,424.99,241.657,424.99,233.216z"/>
<circle style="fill:#F9CB2A;" cx="430.02" cy="181.06" r="18.106"/>
<path style="fill:#EAA428;" d="M430.02,179.971c0-6.299,3.221-11.841,8.101-15.085c-2.44-1.225-5.185-1.931-8.101-1.931
	c-9.999,0-18.106,8.107-18.106,18.106c0,9.999,8.108,18.106,18.106,18.106c3.7,0,7.137-1.116,10.005-3.021
	C434.098,193.17,430.02,187.053,430.02,179.971z"/>
<path style="fill:#8E5F39;" d="M504.456,366.497v10.361c0,7.423-6.005,13.429-13.429,13.429H20.973
	c-7.423,0-13.429-6.005-13.429-13.429v-10.361c0-7.423,6.005-13.429,13.429-13.429h470.054
	C498.451,353.068,504.456,359.073,504.456,366.497z"/>
<path style="fill:#7C4825;" d="M491.027,367.266H20.973c-5.133,0-9.585-2.873-11.845-7.1c-1.008,1.886-1.583,4.039-1.583,6.329
	v10.361c0,7.424,6.005,13.429,13.429,13.429h470.054c7.423,0,13.429-6.005,13.429-13.429v-10.361c0-2.29-0.575-4.443-1.583-6.329
	C500.612,364.394,496.16,367.266,491.027,367.266z"/>
<path d="M495.91,346.097c4.413-5.773,7.037-12.982,7.037-20.792v-50.095c0-0.135-0.001-0.271-0.003-0.405
	c0.002-0.065,0.003-0.132,0.003-0.198c0-0.182-0.007-0.363-0.019-0.542c-0.387-11.753-6.715-22.027-16.071-27.912
	c3.154-4.159,5.026-9.34,5.026-14.949v-16.801c0-13.671-11.123-24.793-24.793-24.793h-11.772c-0.656,0-1.31,0.026-1.958,0.076
	c1.483-3.243,2.311-6.846,2.311-10.638c0-14.144-11.506-25.65-25.65-25.65c-14.144,0-25.65,11.506-25.65,25.65
	c0,3.793,0.828,7.396,2.312,10.638c-0.649-0.05-1.302-0.076-1.958-0.076H392.95c-13.671,0-24.793,11.123-24.793,24.793v16.801
	c0,5.421,1.749,10.44,4.712,14.525c-9.734,5.806-16.366,16.295-16.763,28.335c-0.012,0.18-0.019,0.36-0.019,0.543
	c0,0.066,0.001,0.132,0.003,0.198c-0.002,0.135-0.003,0.271-0.003,0.405v50.094c0,7.554,2.454,14.544,6.608,20.218h-52.705
	c1.227-1.045,2.419-2.144,3.572-3.295c11.206-11.208,17.378-26.113,17.378-41.97c0-26.041-16.859-48.219-40.236-56.19v-21.264
	h19.615c15.808,0,28.668-12.86,28.668-28.668v-19.112c0-6.158-2.557-12.129-7.017-16.381c-4.519-4.31-10.441-6.517-16.699-6.223
	c-12.084,0.57-21.549,10.686-21.549,23.026v2.092h-2.535c-0.272,0-0.483-0.212-0.483-0.483v-28.647
	c0-18.376-14.693-33.73-32.757-34.228c-9.195-0.238-17.864,3.137-24.44,9.536c-6.576,6.399-10.198,14.975-10.198,24.148v47.78
	h-2.228c-1.358-8.942-8.932-15.927-18.046-16.093c-5.07-0.082-9.791,1.805-13.385,5.334c-3.592,3.528-5.571,8.242-5.571,13.274
	v19.112c0,8.597,6.994,15.591,15.591,15.591h23.639v11.526c-8.124,2.917-15.568,7.618-21.851,13.899
	c-11.207,11.208-17.379,26.112-17.379,41.97c0,18.12,8.164,34.37,21.006,45.265h-64.576c0.655-1.621,1.132-3.343,1.407-5.144
	l2.228-14.546c0.631-4.119-2.197-7.969-6.315-8.599c-4.112-0.634-7.969,2.196-8.599,6.314L127,338.097
	c-0.568,3.72-3.714,6.421-7.48,6.421H45.446c-3.766,0-6.911-2.701-7.481-6.424l-8.8-57.451h80.979c4.166,0,7.544-3.377,7.544-7.544
	s-3.378-7.544-7.544-7.544H26.854l-1.171-7.643c-0.096-0.622,0.155-1.068,0.382-1.332c0.153-0.178,0.384-0.377,0.711-0.491
	c0.043-0.013,0.088-0.026,0.131-0.039c0.128-0.032,0.269-0.051,0.422-0.051h110.306c0.311,0,0.566,0.076,0.773,0.186
	c0.045,0.027,0.09,0.054,0.136,0.08c0.149,0.099,0.267,0.21,0.357,0.316c0.227,0.265,0.478,0.71,0.381,1.334l-4.953,32.335
	c-0.631,4.119,2.197,7.969,6.315,8.599c4.124,0.643,7.969-2.198,8.599-6.314l4.952-32.333c0.741-4.834-0.66-9.736-3.847-13.448
	c-0.154-0.179-0.312-0.355-0.472-0.527v-24.932c0-17.471-14.214-31.686-31.686-31.686c-1.182,0-2.357,0.065-3.521,0.194v-19.809
	c0-8.449-3.293-16.404-9.287-22.41c-5.995-5.981-13.95-9.275-22.398-9.275c-17.337,0-31.465,13.995-31.683,31.281
	c-0.834-0.065-1.673-0.099-2.518-0.099c-17.471,0-31.686,14.213-31.686,31.686v43.217c-0.898,0.693-1.731,1.482-2.484,2.358
	c-3.186,3.712-4.588,8.613-3.847,13.446l2.108,13.767c0.022,0.191,0.051,0.38,0.087,0.567l10.086,65.843
	c0.276,1.803,0.753,3.526,1.408,5.147h-3.486C9.409,345.524,0,354.932,0,366.496v10.362c0,11.564,9.409,20.973,20.973,20.973
	h470.054c11.564,0,20.973-9.409,20.973-20.973v-10.362C512,356.612,505.127,348.304,495.91,346.097z M114.672,205.071
	c1.149-0.247,2.327-0.373,3.521-0.373c9.152,0,16.597,7.446,16.597,16.597v19.615h-20.118V205.071z M66.389,169.995
	c0-9.152,7.446-16.597,16.597-16.597c4.425,0,8.595,1.729,11.73,4.855c3.138,3.146,4.868,7.316,4.868,11.742v70.916H66.389V169.995z
	 M32.189,201.178c0-9.152,7.446-16.597,16.597-16.597c0.849,0,1.689,0.063,2.515,0.188v56.142H32.189V201.178z M458.72,204.699
	h8.369c5.351,0,9.705,4.354,9.705,9.705v16.801c0,5.351-4.354,9.705-9.705,9.705h-8.369c1.273-2.982,1.98-6.265,1.98-9.707v-16.797
	C460.699,210.962,459.993,207.681,458.72,204.699z M430.02,168.487c5.824,0,10.562,4.738,10.562,10.562
	c0,5.824-4.738,10.562-10.562,10.562c-5.824,0-10.562-4.738-10.562-10.562C419.458,173.224,424.196,168.487,430.02,168.487z
	 M414.428,214.406c0-5.352,4.355-9.707,9.707-9.707h11.768c5.352,0,9.707,4.355,9.707,9.707v16.797c0,5.352-4.355,9.707-9.707,9.707
	h-11.768c-5.352,0-9.707-4.355-9.707-9.707V214.406z M383.246,214.404c0-5.351,4.353-9.705,9.705-9.705h8.369
	c-1.274,2.982-1.98,6.265-1.98,9.707v16.797c0,3.443,0.706,6.724,1.98,9.707h-8.369c-5.351,0-9.705-4.354-9.705-9.705V214.404z
	 M371.175,282.153h78.963c4.167,0,7.544-3.377,7.544-7.544s-3.377-7.544-7.544-7.544H372.99c3.071-6.531,9.715-11.065,17.398-11.065
	h78.259c7.682,0,14.326,4.534,17.398,11.065h-13.777c-4.167,0-7.544,3.377-7.544,7.544s3.377,7.544,7.544,7.544h15.591v43.153
	c0,10.593-8.618,19.213-19.213,19.213h-78.259c-10.593,0-19.213-8.618-19.213-19.213V282.153z M199.67,217.775
	c-0.278,0-0.503-0.226-0.503-0.503V198.16c0-1.282,0.661-2.122,1.055-2.51c0.395-0.388,1.24-1.067,2.539-1.012
	c1.868,0.033,3.447,1.813,3.447,3.884v4.667c0,4.167,3.378,7.544,7.544,7.544h17.1c4.166,0,7.544-3.377,7.544-7.544v-55.324
	c0-5.065,2.001-9.8,5.632-13.335c3.632-3.535,8.435-5.405,13.503-5.267c9.971,0.275,18.083,8.863,18.083,19.145v28.647
	c0,8.586,6.985,15.571,15.571,15.571h10.079c4.167,0,7.544-3.377,7.544-7.544v-9.636c0-4.2,3.219-7.769,7.176-7.956h0.003
	c2.082-0.108,4.064,0.636,5.569,2.072c1.51,1.439,2.341,3.379,2.341,5.462v19.112c0,7.488-6.092,13.58-13.58,13.58h-27.159
	c-4.167,0-7.544,3.377-7.544,7.544v25.65h-37.218V225.32c0-4.167-3.378-7.544-7.544-7.544H199.67z M243.426,255.999h28.165
	c7.678,0,14.904,1.966,21.205,5.42c-22.969,7.491-46.59,7.68-71.646,0.567C227.839,258.081,235.472,255.999,243.426,255.999z
	 M199.167,300.259c0-9.721,3.11-18.961,8.857-26.585c16.58,5.666,32.879,8.5,48.807,8.5c16.887,0,33.36-3.186,49.304-9.556
	c6.077,7.579,9.716,17.193,9.716,27.64c0,11.827-4.602,22.943-12.96,31.299c-8.356,8.358-19.472,12.961-31.299,12.961h-28.165
	C219.021,344.518,199.167,324.663,199.167,300.259z M496.912,376.858c0,3.245-2.639,5.884-5.884,5.884H20.973
	c-3.245,0-5.884-2.639-5.884-5.884v-10.362c0-3.245,2.64-5.884,5.884-5.884h470.054c3.245,0,5.884,2.639,5.884,5.884V376.858z"/>
<g>
</g>
<g>
</g>
<g>
</g>
<g>
</g>
<g>
</g>
<g>
</g>
<g>
</g>
<g>
</g>
<g>
</g>
<g>
</g>
<g>
</g>
<g>
</g>
<g>
</g>
<g>
</g>
<g>
</g>
</svg>
