<?xml version="1.0" encoding="iso-8859-1"?>
<!-- Generator: Adobe Illustrator 19.0.0, SVG Export Plug-In . SVG Version: 6.00 Build 0)  -->
<svg version="1.1" id="Capa_1" xmlns="http://www.w3.org/2000/svg" xmlns:xlink="http://www.w3.org/1999/xlink" x="0px" y="0px"
	 viewBox="0 0 512 512" style="enable-background:new 0 0 512 512;" xml:space="preserve">
<path style="fill:#595857;" d="M100.086,118.333v23.749H63.874v-23.749c0-3.551,2.877-6.428,6.428-6.428h23.357
	C97.21,111.906,100.086,114.783,100.086,118.333z"/>
<path style="fill:#494846;" d="M89.414,111.906H70.302c-3.551,0-6.428,2.877-6.428,6.428v23.749h19.112v-23.749
	C82.986,114.783,85.863,111.906,89.414,111.906z"/>
<path style="fill:#595857;" d="M109.139,139.457v31.796H54.821v-31.796c0-3.551,2.877-6.428,6.428-6.428h41.463
	C106.263,133.029,109.139,135.906,109.139,139.457z"/>
<path style="fill:#494846;" d="M80.361,133.029H61.249c-3.551,0-6.428,2.877-6.428,6.428v31.796h19.112v-31.796
	C73.933,135.906,76.81,133.029,80.361,133.029z"/>
<path style="fill:#595857;" d="M338.403,131.521h70.312c-0.181,0.292-11.256,32.39-11.256,32.39h-69.035v-22.411
	C328.424,135.987,332.891,131.521,338.403,131.521z"/>
<path style="fill:#898989;" d="M504.456,364.657v20.41c0,8.299-6.568,15.028-14.666,15.028H22.21
	c-8.097,0-14.666-6.729-14.666-15.028V172.903c0-8.299,6.568-15.028,14.666-15.028h362.172l10.773-25.419
	c1.016-2.404,3.319-3.953,5.874-3.953h93.015c5.754,0,10.411,4.778,10.411,10.662v18.71v37.107v7.212L504.456,364.657
	L504.456,364.657z"/>
<path style="fill:#6B7070;" d="M70.916,157.875H22.21c-8.097,0-14.666,6.729-14.666,15.028v212.163
	c0,8.299,6.568,15.028,14.666,15.028h48.705V157.875z"/>
<polygon style="fill:#EA4F26;" points="7.544,200.424 7.544,363.379 504.456,363.379 504.456,202.195 504.456,200.424 "/>
<rect x="7.544" y="200.424" style="fill:#ED3124;" width="63.371" height="162.955"/>
<path id="SVGCleanerId_0" style="fill:#2CD4E5;" d="M482.326,156.044v16.336c0,3.822-3.098,6.921-6.921,6.921h-51.542
	c-3.822,0-6.921-3.098-6.921-6.921v-16.336c0-3.822,3.098-6.921,6.921-6.921h51.542
	C479.228,149.124,482.326,152.222,482.326,156.044z"/>
<g>
	<path id="SVGCleanerId_0_1_" style="fill:#2CD4E5;" d="M482.326,156.044v16.336c0,3.822-3.098,6.921-6.921,6.921h-51.542
		c-3.822,0-6.921-3.098-6.921-6.921v-16.336c0-3.822,3.098-6.921,6.921-6.921h51.542
		C479.228,149.124,482.326,152.222,482.326,156.044z"/>
</g>
<path style="fill:#1FC4CC;" d="M475.406,149.124h-51.542c-3.822,0-6.921,3.098-6.921,6.921v2.132h48.058
	c3.822,0,6.921,3.098,6.921,6.921v14.203h3.484c3.822,0,6.921-3.098,6.921-6.921v-16.336
	C482.326,152.222,479.228,149.124,475.406,149.124z"/>
<path style="fill:#595857;" d="M141.328,319.12v8.047c0,7.222-5.854,13.077-13.077,13.077c-7.222,0-13.077-5.854-13.077-13.077
	v-8.047c0-7.222,5.854-13.077,13.077-13.077c3.611,0,6.88,1.469,9.244,3.832C139.859,312.24,141.328,315.509,141.328,319.12z"/>
<path style="fill:#494747;" d="M128.251,327.167v-8.047c0-4.836,2.632-9.049,6.535-11.311c-1.923-1.116-4.151-1.765-6.535-1.765
	c-7.222,0-13.077,5.854-13.077,13.077v8.047c0,7.222,5.854,13.077,13.077,13.077c2.385,0,4.613-0.649,6.538-1.763
	C130.885,336.218,128.251,332.004,128.251,327.167z"/>
<path style="fill:#595857;" d="M349.548,240.036v83.731c0,28.537-23.146,51.683-51.683,51.683h-83.731
	c-28.537,0-51.683-23.146-51.683-51.683v-83.731c0-28.537,23.146-51.683,51.683-51.683h83.731
	C326.403,188.354,349.548,211.499,349.548,240.036z"/>
<path style="fill:#494747;" d="M253.157,323.767v-83.731c0-27.364,21.286-49.757,48.195-51.552
	c-1.154-0.077-2.314-0.131-3.487-0.131h-83.731c-28.537,0-51.683,23.146-51.683,51.683v83.731c0,28.537,23.146,51.683,51.683,51.683
	h83.731c1.173,0,2.334-0.053,3.487-0.131C274.442,373.524,253.157,351.131,253.157,323.767z"/>
<path style="fill:#7C7874;" d="M323.395,240.036v83.731c0,14.072-11.457,25.53-25.53,25.53h-83.731
	c-14.072,0-25.53-11.457-25.53-25.53v-83.731c0-14.072,11.457-25.53,25.53-25.53h83.731
	C311.938,214.507,323.395,225.964,323.395,240.036z"/>
<path style="fill:#6B6764;" d="M297.865,214.507h-83.731c-8.682,0-16.365,4.365-20.979,11.011c0.944-0.107,1.901-0.166,2.873-0.166
	h83.731c14.072,0,25.53,11.457,25.53,25.53v83.731c0,5.391-1.686,10.394-4.551,14.519c12.726-1.433,22.657-12.263,22.657-25.364
	v-83.731C323.395,225.964,311.938,214.507,297.865,214.507z"/>
<circle style="fill:#2CD4E5;" cx="256" cy="281.902" r="49.289"/>
<path style="fill:#1FC4CC;" d="M256,232.613c-13.585,0-25.886,5.498-34.802,14.389c6.268-2.887,13.239-4.509,20.592-4.509
	c27.219,0,49.289,22.069,49.289,49.289c0,13.635-5.538,25.976-14.487,34.9c16.934-7.802,28.697-24.913,28.697-44.779
	C305.289,254.682,283.219,232.613,256,232.613z"/>
<circle style="fill:#00C4B1;" cx="256" cy="281.982" r="21.047"/>
<path style="fill:#00C185;" d="M254.563,276.796c0-5.991,2.515-11.384,6.532-15.217c-1.635-0.407-3.335-0.647-5.095-0.647
	c-11.624,0-21.047,9.423-21.047,21.047s9.423,21.047,21.047,21.047c5.633,0,10.737-2.226,14.515-5.83
	C261.357,294.914,254.563,286.659,254.563,276.796z"/>
<circle style="fill:#FFFFFF;" cx="265.053" cy="269.831" r="14.083"/>
<path style="fill:#595857;" d="M422.797,240.72v81.316c0,6.991-5.663,12.654-12.654,12.654c-6.991,0-12.664-5.663-12.664-12.654
	V240.72c0-6.981,5.673-12.654,12.664-12.654c3.501,0,6.659,1.418,8.952,3.712C421.379,234.061,422.797,237.23,422.797,240.72z"/>
<path style="fill:#494747;" d="M408.715,322.037V240.72c0-4.964,2.875-9.254,7.046-11.326c-1.693-0.842-3.595-1.328-5.618-1.328
	c-6.991,0-12.664,5.673-12.664,12.654v81.316c0,6.991,5.673,12.654,12.664,12.654c2.021,0,3.923-0.485,5.617-1.327
	C411.59,331.294,408.715,327.007,408.715,322.037z"/>
<path d="M475.406,141.58h-51.542c-7.976,0-14.465,6.489-14.465,14.465v16.336c0,7.976,6.489,14.465,14.465,14.465h51.542
	c7.976,0,14.465-6.489,14.465-14.465v-16.336C489.87,148.069,483.381,141.58,475.406,141.58z M474.782,171.756h-50.295v-15.088
	h50.295V171.756z"/>
<path d="M494.045,120.959H401.03c-3.196,0-6.214,1.084-8.636,3.018h-53.991c-9.662,0-17.523,7.86-17.523,17.523v8.832H116.684
	v-10.874c0-5.974-3.768-11.084-9.053-13.078v-8.046c0-7.704-6.268-13.972-13.972-13.972H70.302c-7.704,0-13.972,6.268-13.972,13.972
	v8.046c-5.285,1.994-9.053,7.105-9.053,13.078v10.874H22.21C9.963,150.331,0,160.457,0,172.903v212.163
	c0,12.447,9.963,22.572,22.21,22.572h467.58c12.247,0,22.21-10.125,22.21-22.572V139.165
	C512,129.127,503.946,120.959,494.045,120.959z M335.969,141.499c0-1.342,1.091-2.434,2.434-2.434h45.758l-4.775,11.266h-43.417
	V141.499z M71.418,119.45h21.124v6.035H71.418V119.45z M62.365,140.574h39.23v9.053h-39.23V140.574z M15.088,172.903
	c0-4.127,3.195-7.484,7.122-7.484h41.161v27.461H15.088V172.903z M63.371,392.55H22.21c-3.927,0-7.122-3.357-7.122-7.484v-14.143
	h48.283V392.55z M70.916,322.588c-4.166,0-7.544,3.378-7.544,7.544v25.703H15.088V207.969h48.283v81.338
	c0,4.166,3.378,7.544,7.544,7.544c4.166,0,7.544-3.378,7.544-7.544v-81.338h85.9c-5.979,9.248-9.452,20.26-9.452,32.068v83.731
	c0,11.808,3.473,22.82,9.452,32.068h-85.9v-25.703C78.46,325.966,75.082,322.588,70.916,322.588z M452.934,392.55H78.46v-21.627
	h99.081c0.252,0,0.503-0.013,0.749-0.037c9.958,7.594,22.384,12.108,35.845,12.108h83.731c13.439,0,25.846-4.499,35.797-12.071
	h119.272V392.55z M169.996,323.767v-83.731c0-24.338,19.801-44.139,44.139-44.139h83.731c24.338,0,44.139,19.801,44.139,44.139
	v83.731c0,24.338-19.801,44.139-44.139,44.139h-83.731C189.797,367.906,169.996,348.105,169.996,323.767z M452.934,355.835H347.64
	c5.979-9.248,9.452-20.26,9.452-32.068v-83.731c0-11.808-3.473-22.82-9.452-32.068h105.294V355.835z M496.912,385.066
	c0,4.127-3.195,7.484-7.122,7.484h-21.768v-21.627h28.889V385.066z M496.912,355.835h-28.889V207.969h28.889V355.835z
	 M496.912,192.88h-163.25c-9.949-7.571-22.358-12.071-35.797-12.071h-83.731c-13.439,0-25.846,4.499-35.797,12.071H78.46v-27.461
	h305.923c3.029,0,5.764-1.812,6.946-4.6l10.5-24.772h92.217c1.58,0,2.867,1.399,2.867,3.118V192.88z"/>
<path d="M140.322,171.756h-35.206c-4.166,0-7.544,3.378-7.544,7.544s3.378,7.544,7.544,7.544h35.206
	c4.166,0,7.544-3.378,7.544-7.544S144.489,171.756,140.322,171.756z"/>
<path d="M128.251,347.788c11.371,0,20.621-9.25,20.621-20.621v-8.047c0-5.505-2.146-10.683-6.042-14.578s-9.074-6.042-14.578-6.042
	c-11.371,0-20.621,9.25-20.621,20.621v8.047C107.631,338.538,116.881,347.788,128.251,347.788z M122.719,319.12
	c0-3.051,2.482-5.532,5.532-5.532c1.475,0,2.863,0.576,3.91,1.622s1.623,2.435,1.623,3.91v8.047c0,3.051-2.482,5.532-5.532,5.532
	c-3.051,0-5.532-2.482-5.532-5.532V319.12z"/>
<path d="M371.678,171.756h-7.041c-4.166,0-7.544,3.378-7.544,7.544s3.378,7.544,7.544,7.544h7.041c4.166,0,7.544-3.378,7.544-7.544
	S375.844,171.756,371.678,171.756z"/>
<path d="M214.135,356.841h83.731c18.237,0,33.074-14.837,33.074-33.074v-83.731c0-18.237-14.837-33.074-33.074-33.074h-83.731
	c-18.237,0-33.074,14.837-33.074,33.074v83.731C181.061,342.004,195.898,356.841,214.135,356.841z M196.149,240.036
	c0-9.917,8.068-17.985,17.985-17.985h83.731c9.917,0,17.985,8.068,17.985,17.985v83.731c0,9.917-8.068,17.985-17.985,17.985h-83.731
	c-9.917,0-17.985-8.068-17.985-17.985V240.036z"/>
<path d="M256,338.735c31.338,0,56.833-25.495,56.833-56.833S287.338,225.069,256,225.069s-56.833,25.495-56.833,56.833
	S224.662,338.735,256,338.735z M256,240.157c23.018,0,41.745,18.727,41.745,41.745S279.018,323.646,256,323.646
	c-23.018,0-41.745-18.727-41.745-41.745S232.982,240.157,256,240.157z"/>
<path d="M256,310.57c13.339,0,24.808-9.053,27.89-22.017c0.516-2.17,0.778-4.407,0.778-6.651c0-0.899-0.042-1.802-0.127-2.698
	c1.37-2.837,2.139-6.017,2.139-9.373c0-11.925-9.702-21.627-21.627-21.627c-5.542,0-10.604,2.096-14.435,5.536
	c-0.483,0.092-0.964,0.195-1.438,0.312c-12.864,3.141-21.848,14.594-21.848,27.849C227.332,297.709,240.192,310.57,256,310.57z
	 M265.053,263.293c3.605,0,6.538,2.933,6.538,6.538c0,3.605-2.933,6.538-6.538,6.538c-3.605,0-6.538-2.933-6.538-6.538
	C258.515,266.226,261.448,263.293,265.053,263.293z M244.124,275.292c2.425,9.289,10.889,16.166,20.929,16.166
	c0.211,0,0.421-0.003,0.631-0.009c-2.482,2.518-5.926,4.033-9.684,4.033c-7.488,0-13.58-6.092-13.58-13.58
	C242.42,279.519,243.033,277.26,244.124,275.292z"/>
<path d="M410.143,342.235c11.137,0,20.198-9.061,20.198-20.198V240.72c0-5.395-2.099-10.465-5.912-14.278
	c-3.818-3.818-8.892-5.921-14.287-5.921c-11.143,0-20.208,9.061-20.208,20.198v81.316
	C389.935,333.174,399.001,342.235,410.143,342.235z M405.023,240.72c0-2.818,2.297-5.11,5.12-5.11c1.364,0,2.65,0.533,3.618,1.502
	c0.962,0.963,1.492,2.243,1.492,3.608v81.316c0,2.818-2.292,5.11-5.11,5.11c-2.824,0-5.12-2.292-5.12-5.11V240.72z"/>
<g>
</g>
<g>
</g>
<g>
</g>
<g>
</g>
<g>
</g>
<g>
</g>
<g>
</g>
<g>
</g>
<g>
</g>
<g>
</g>
<g>
</g>
<g>
</g>
<g>
</g>
<g>
</g>
<g>
</g>
</svg>
