<?xml version="1.0" encoding="iso-8859-1"?>
<!-- Generator: Adobe Illustrator 19.0.0, SVG Export Plug-In . SVG Version: 6.00 Build 0)  -->
<svg version="1.1" id="Capa_1" xmlns="http://www.w3.org/2000/svg" xmlns:xlink="http://www.w3.org/1999/xlink" x="0px" y="0px"
	 viewBox="0 0 512 512" style="enable-background:new 0 0 512 512;" xml:space="preserve">
<g>
	<path style="fill:#AFAFAF;" d="M122,408.5v56H97.61c-4.2,0-7.61-3.41-7.61-7.61v-40.78c0-4.2,3.41-7.61,7.61-7.61L122,408.5
		L122,408.5z"/>
	<path style="fill:#AFAFAF;" d="M95,416.5v40H75.61c-4.2,0-7.61-3.41-7.61-7.61v-24.78c0-4.2,3.41-7.61,7.61-7.61L95,416.5L95,416.5
		z"/>
</g>
<g>
	<path style="fill:#9E9E9E;" d="M90,434.861v22.029c0,4.2,3.41,7.61,7.61,7.61H122v-22.029H97.61
		C93.41,442.471,90,439.061,90,434.861z"/>
	<path style="fill:#9E9E9E;" d="M68,428.89v20c0,4.2,3.41,7.61,7.61,7.61H95v-20H75.61C71.41,436.5,68,433.09,68,428.89z"/>
</g>
<path style="fill:#868989;" d="M444,201.98v283.04c0,7.45-6.03,13.48-13.48,13.48h-11.78H136.26h-10.78
	c-7.45,0-13.48-6.03-13.48-13.48V201.98c0-7.45,6.03-13.48,13.48-13.48h10.78h282.48h11.78C437.97,188.5,444,194.53,444,201.98z"/>
<path style="fill:#00AA95;" d="M420,195.98v295.04c0,7.45-6.03,13.48-13.48,13.48H149.48c-7.45,0-13.48-6.03-13.48-13.48V195.98
	c0-7.45,6.03-13.48,13.48-13.48h257.04C413.97,182.5,420,188.53,420,195.98z"/>
<path style="fill:#079B6D;" d="M420,431.56c-72.195,0-130.72-58.525-130.72-130.72V182.5h-139.8c-7.445,0-13.48,6.035-13.48,13.48
	v295.04c0,7.445,6.035,13.48,13.48,13.48h257.04c7.445,0,13.48-6.035,13.48-13.48L420,431.56L420,431.56z"/>
<path style="fill:#AFAFAF;" d="M205,182.5h-55.52c-7.45,0-13.48,6.03-13.48,13.48v295.04c0,7.45,6.03,13.48,13.48,13.48H205V182.5z"
	/>
<circle style="fill:#595857;" cx="295" cy="365.5" r="106"/>
<path style="fill:#494746;" d="M286.47,344.5c0-32.467,14.604-61.521,37.594-80.965c-9.236-2.628-18.986-4.035-29.064-4.035
	c-58.54,0-106,47.46-106,106s47.46,106,106,106c26.073,0,49.943-9.42,68.406-25.035C318.995,433.829,286.47,392.961,286.47,344.5z"
	/>
<path style="fill:#757574;" d="M295,284.5c44.74,0,81,36.26,81,81s-36.26,81-81,81s-81-36.26-81-81S250.26,284.5,295,284.5z"/>
<path style="fill:#686867;" d="M295,284.5c-21.182,0-40.455,8.136-54.887,21.444c10.312-4.757,21.784-7.43,33.887-7.43
	c44.74,0,81,36.26,81,81c0,23.558-10.062,44.756-26.113,59.556C356.694,426.242,376,398.137,376,365.5
	C376,320.76,339.74,284.5,295,284.5z"/>
<path style="fill:#2CD4E5;" d="M223,216.32v38.36c0,4.32-3.5,7.82-7.82,7.82h-20.36c-4.32,0-7.82-3.5-7.82-7.82v-38.36
	c0-4.32,3.5-7.82,7.82-7.82h20.36C219.5,208.5,223,212,223,216.32z"/>
<path style="fill:#10BDC6;" d="M215.18,208.5h-20.36c-4.32,0-7.82,3.5-7.82,7.82V220h19.18c4.32,0,7.82,3.5,7.82,7.82v34.68h1.18
	c4.32,0,7.82-3.5,7.82-7.82v-38.36C223,212,219.5,208.5,215.18,208.5z"/>
<path style="fill:#868989;" d="M169,290.5c8.84,0,16,7.16,16,16s-7.16,16-16,16s-16-7.16-16-16S160.16,290.5,169,290.5z"/>
<path style="fill:#2CD4E5;" d="M178,440.06v32.88c0,3.62-2.94,6.56-6.56,6.56h-8.82c-3.63,0-6.56-2.94-6.56-6.56v-32.88
	c0-3.62,2.93-6.56,6.56-6.56h8.82C175.06,433.5,178,436.44,178,440.06z"/>
<path style="fill:#10BDC6;" d="M171.44,433.5h-8.82c-3.63,0-6.56,2.94-6.56,6.56v3.128h5.35c3.62,0,6.56,2.94,6.56,6.56V479.5h3.47
	c3.62,0,6.56-2.94,6.56-6.56v-32.88C178,436.44,175.06,433.5,171.44,433.5z"/>
<path style="fill:#038471;" d="M399,216.25v28.5c0,4.28-3.47,7.75-7.75,7.75h-10.5c-4.28,0-7.75-3.47-7.75-7.75v-28.5
	c0-4.28,3.47-7.75,7.75-7.75h10.5C395.53,208.5,399,211.97,399,216.25z"/>
<path style="fill:#595857;" d="M324,333.28v64.44c0,5.4-4.38,9.78-9.78,9.78h-38.44c-5.4,0-9.78-4.38-9.78-9.78v-64.44
	c0-5.4,4.38-9.78,9.78-9.78h38.44C319.62,323.5,324,327.88,324,333.28z"/>
<circle style="fill:#2CD4E5;" cx="295" cy="365.5" r="21"/>
<path style="fill:#10BDC6;" d="M295,344.5c-7.571,0-14.186,4.018-17.88,10.025c1.692-0.44,3.458-0.698,5.288-0.698
	c11.6,0,21,9.4,21,21c0,4.029-1.154,7.778-3.12,10.975C309.323,383.455,316,375.27,316,365.5C316,353.9,306.6,344.5,295,344.5z"/>
<path style="fill:#DDDDDD;" d="M401,17.47V182.5H155V17.47c0-5.51,4.46-9.97,9.97-9.97h226.06C396.54,7.5,401,11.96,401,17.47z"/>
<path style="fill:#CECDCA;" d="M253,115.154V7.5h-88.03c-5.506,0-9.97,4.464-9.97,9.97V182.5h246v-29H291.346
	C270.168,153.5,253,136.332,253,115.154z"/>
<path style="fill:#2CD4E5;" d="M366,48.85V182.5H190V48.85c0-3.51,2.84-6.35,6.35-6.35h163.3C363.16,42.5,366,45.34,366,48.85z"/>
<path style="fill:#10BDC6;" d="M291.346,153.5c-21.178,0-38.346-17.168-38.346-38.346V42.5h-56.65c-3.51,0-6.35,2.84-6.35,6.35
	V182.5h176v-29H291.346z"/>
<path d="M406.52,512c5.707,0,10.888-2.291,14.674-6h9.326c11.568,0,20.98-9.412,20.98-20.98V201.98
	c0-11.568-9.412-20.98-20.98-20.98h-9.326c-3.343-3.275-7.774-5.444-12.694-5.907V17.47C408.5,7.837,400.663,0,391.03,0H164.97
	c-9.633,0-17.47,7.837-17.47,17.47v157.623c-4.92,0.463-9.351,2.631-12.694,5.907h-9.326c-11.568,0-20.98,9.412-20.98,20.98V401
	h-6.89c-5.763,0-10.782,3.243-13.33,8h-8.67c-8.332,0-15.11,6.778-15.11,15.11v24.779c0,8.332,6.778,15.11,15.11,15.11h8.67
	c2.548,4.757,7.567,8,13.33,8h6.89v13.02c0,11.568,9.412,20.98,20.98,20.98h9.326c3.786,3.709,8.968,6,14.674,6h257.04 M162.5,17.47
	c0-1.362,1.108-2.47,2.47-2.47h226.06c1.362,0,2.47,1.107,2.47,2.47V175h-20v-39.92c0-4.143-3.357-7.5-7.5-7.5s-7.5,3.357-7.5,7.5
	V175h-161V50h161v32.521c0,4.143,3.357,7.5,7.5,7.5s7.5-3.357,7.5-7.5V48.85c0-7.637-6.213-13.85-13.85-13.85h-163.3
	c-7.637,0-13.85,6.213-13.85,13.85V175h-20L162.5,17.47L162.5,17.47z M75.5,448.89v-24.78c0-0.058,0.052-0.11,0.11-0.11h6.89v25
	h-6.89C75.552,449,75.5,448.947,75.5,448.89z M97.61,457c-0.058,0-0.11-0.053-0.11-0.11v-40.78c0-0.058,0.052-0.11,0.11-0.11h6.89
	v41H97.61z M119.5,485.02V201.98c0-3.298,2.683-5.98,5.98-5.98h3.02v295h-3.02C122.183,491,119.5,488.317,119.5,485.02z
	 M143.5,491.02V195.98c0-3.298,2.683-5.98,5.98-5.98h48.02v11h-2.68c-8.447,0-15.32,6.873-15.32,15.32v38.359
	c0,8.447,6.873,15.32,15.32,15.32h2.68v36.797c0,0.205,0.009,0.407,0.025,0.608C187.351,324.41,181.5,344.284,181.5,365.5
	c0,21.198,5.842,41.058,16,58.054V497h-48.02C146.183,497,143.5,494.317,143.5,491.02z M194.82,255c-0.176,0-0.32-0.144-0.32-0.32
	v-38.36c0-0.177,0.144-0.32,0.32-0.32h20.36c0.176,0,0.32,0.144,0.32,0.32v38.359c0,0.177-0.144,0.32-0.32,0.32L194.82,255
	L194.82,255z M196.5,365.5c0-54.313,44.187-98.5,98.5-98.5s98.5,44.187,98.5,98.5S349.313,464,295,464S196.5,419.813,196.5,365.5z
	 M406.52,497H212.5v-53.629C233.207,465.297,262.533,479,295,479c62.584,0,113.5-50.916,113.5-113.5S357.584,252,295,252
	c-32.467,0-61.793,13.703-82.5,35.629V270h2.68c8.447,0,15.32-6.873,15.32-15.32v-38.36c0-8.447-6.873-15.32-15.32-15.32h-2.68v-11
	h194.02c3.298,0,5.98,2.683,5.98,5.98v295.04C412.5,494.317,409.817,497,406.52,497z M436.5,485.02c0,3.298-2.683,5.98-5.98,5.98
	h-3.02V196h3.02c3.298,0,5.98,2.683,5.98,5.98V485.02z"/>
<path d="M295,454c48.799,0,88.5-39.701,88.5-88.5S343.799,277,295,277s-88.5,39.701-88.5,88.5S246.201,454,295,454z M295,292
	c40.528,0,73.5,32.972,73.5,73.5S335.528,439,295,439s-73.5-32.972-73.5-73.5S254.472,292,295,292z"/>
<path d="M169,330c12.958,0,23.5-10.542,23.5-23.5S181.958,283,169,283s-23.5,10.542-23.5,23.5S156.042,330,169,330z M169,298
	c4.687,0,8.5,3.813,8.5,8.5s-3.813,8.5-8.5,8.5s-8.5-3.813-8.5-8.5S164.313,298,169,298z"/>
<path d="M171.44,426h-8.82c-7.753,0-14.06,6.307-14.06,14.06v32.881c0,7.753,6.307,14.06,14.06,14.06h8.82
	c7.753,0,14.06-6.307,14.06-14.06V440.06C185.5,432.307,179.193,426,171.44,426z M170.5,472h-6.94v-31h6.94V472z"/>
<path d="M157,231c4.142,0,7.5-3.357,7.5-7.5v-15c0-4.143-3.358-7.5-7.5-7.5s-7.5,3.357-7.5,7.5v15
	C149.5,227.643,152.858,231,157,231z"/>
<path d="M391.25,201h-10.5c-8.409,0-15.25,6.841-15.25,15.25v28.5c0,8.409,6.841,15.25,15.25,15.25h10.5
	c8.409,0,15.25-6.841,15.25-15.25v-28.5C406.5,207.841,399.659,201,391.25,201z M391.5,244.75c0,0.138-0.112,0.25-0.25,0.25h-10.5
	c-0.138,0-0.25-0.112-0.25-0.25v-28.5c0-0.138,0.112-0.25,0.25-0.25h10.5c0.138,0,0.25,0.112,0.25,0.25V244.75z"/>
<path d="M275.78,415h38.44c9.528,0,17.28-7.752,17.28-17.28v-64.44c0-9.528-7.752-17.28-17.28-17.28h-38.44
	c-9.528,0-17.28,7.752-17.28,17.28v64.439C258.5,407.248,266.251,415,275.78,415z M314.22,400h-38.44c-1.257,0-2.28-1.022-2.28-2.28
	v-13.531c5.229,6.008,12.929,9.812,21.5,9.812s16.271-3.804,21.5-9.812v13.531C316.5,398.978,315.478,400,314.22,400z M281.5,365.5
	c0-7.444,6.056-13.5,13.5-13.5s13.5,6.056,13.5,13.5S302.444,379,295,379S281.5,372.944,281.5,365.5z M275.78,331h38.44
	c1.258,0,2.28,1.022,2.28,2.28v13.531C311.271,340.804,303.571,337,295,337s-16.271,3.804-21.5,9.812V333.28
	C273.5,332.022,274.523,331,275.78,331z"/>
<g>
</g>
<g>
</g>
<g>
</g>
<g>
</g>
<g>
</g>
<g>
</g>
<g>
</g>
<g>
</g>
<g>
</g>
<g>
</g>
<g>
</g>
<g>
</g>
<g>
</g>
<g>
</g>
<g>
</g>
</svg>
