<?xml version="1.0" encoding="iso-8859-1"?>
<!-- Generator: Adobe Illustrator 19.0.0, SVG Export Plug-In . SVG Version: 6.00 Build 0)  -->
<svg version="1.1" id="Capa_1" xmlns="http://www.w3.org/2000/svg" xmlns:xlink="http://www.w3.org/1999/xlink" x="0px" y="0px"
	 viewBox="0 0 512 512" style="enable-background:new 0 0 512 512;" xml:space="preserve">
<path style="fill:#EA3939;" d="M303.937,156.633l-47.497,17.396v-41.623c0-2.72,2.842-4.505,5.293-3.324l42.551,20.516
	C307.327,151.066,307.11,155.471,303.937,156.633z"/>
<path style="fill:#E8B62A;" d="M87.517,273.818l61.188,199.629H14.949c-3.637,0-6.182-3.596-4.972-7.025l68.005-192.802
	C79.593,269.052,86.098,269.188,87.517,273.818z"/>
<path style="fill:#E58E10;" d="M82.372,270.293v203.154h66.334L87.517,273.818C86.755,271.33,84.523,270.152,82.372,270.293z"/>
<path style="fill:#ED3124;" d="M443.311,273.818L502.41,466.63c1.039,3.389-1.496,6.816-5.041,6.816H363.294l70.483-199.828
	C435.387,269.052,441.892,269.188,443.311,273.818z"/>
<path style="fill:#00AA95;" d="M260.988,206.909l138.968,256.486c2.457,4.536-0.827,10.052-5.986,10.052H116.263
	c-3.966,0-6.491-4.24-4.602-7.727l140.228-258.81C253.847,203.297,259.032,203.297,260.988,206.909z"/>
<path style="fill:#079B6D;" d="M399.958,463.395l-24.071-44.426l-114.898-212.06c-0.136-0.25-0.29-0.479-0.454-0.695
	c-0.05-0.066-0.107-0.124-0.159-0.187c-0.121-0.144-0.246-0.283-0.379-0.41c-0.063-0.06-0.13-0.116-0.195-0.173
	c-0.138-0.118-0.28-0.229-0.428-0.331c-0.062-0.043-0.124-0.085-0.188-0.125c-0.176-0.109-0.357-0.207-0.543-0.293
	c-0.039-0.018-0.076-0.039-0.115-0.055c-0.973-0.421-2.055-0.533-3.087-0.334l0,0v269.14h138.531
	C399.131,473.447,402.415,467.932,399.958,463.395z"/>
<polygon style="fill:#036D5E;" points="228.145,473.447 285.501,473.447 255.44,348.672 "/>
<polygon style="fill:#047F56;" points="255.44,348.672 312.426,423.459 285.501,473.447 "/>
<polygon style="fill:#009983;" points="255.44,348.672 228.145,473.447 202.453,422.459 "/>
<path style="fill:#E8B62A;" d="M455.421,85.761c2.379-0.88,4.819,1.13,4.419,3.639c-3.389,21.655-22.555,38.071-45.379,37.091
	c-22.704-0.98-41.14-19.505-42.02-42.21c-0.96-25.094,19.085-45.729,43.959-45.729c0.46,0,0.91,0.01,1.36,0.02
	c2.589,0.08,4.079,2.869,2.749,5.089c-2.879,4.799-4.409,10.507-4.059,16.596c0.83,14.456,12.517,26.264,26.973,27.213
	C447.663,87.76,451.722,87.12,455.421,85.761z"/>
<path style="fill:#EA4F26;" d="M443.311,273.818c-0.724-2.36-2.768-3.545-4.813-3.542v203.171h58.872
	c3.545,0,6.08-3.428,5.041-6.816L443.311,273.818z"/>
<path d="M414.139,133.982c0.754,0.032,1.501,0.048,2.248,0.048c25.27-0.002,46.926-18.334,50.858-43.452
	c0.602-3.783-0.862-7.641-3.821-10.07c-2.999-2.461-6.964-3.127-10.589-1.786c-2.855,1.049-5.851,1.476-8.899,1.267
	c-0.007,0-0.014-0.001-0.02-0.001c-10.595-0.696-19.371-9.552-19.98-20.161c-0.25-4.36,0.789-8.617,3.006-12.312
	c2.012-3.357,2.099-7.399,0.233-10.814c-1.858-3.4-5.291-5.503-9.244-5.625c-0.507-0.012-1.014-0.022-1.531-0.022
	c-14.128,0-27.303,5.606-37.1,15.785c-9.797,10.178-14.892,23.577-14.351,37.733C365.978,111.132,387.585,132.836,414.139,133.982z
	 M390.105,57.239c5.668-5.889,12.93-9.618,20.851-10.789c-1.591,4.526-2.272,9.348-1.992,14.238
	c1.052,18.325,15.644,33.052,33.948,34.265c2.666,0.183,5.313,0.078,7.918-0.313c-5.21,14.923-19.692,25.064-36.047,24.361
	c-18.812-0.812-34.121-16.189-34.85-35.005C379.551,73.953,383.163,64.452,390.105,57.239z"/>
<path d="M511.669,471.249l-65.654-214.198c-0.949-3.095-3.776-5.232-7.013-5.3c-3.215-0.048-6.151,1.95-7.227,5.003l-53.33,151.195
	l-39.527-72.953c-1.974-3.641-6.522-4.995-10.166-3.02c-3.641,1.973-4.993,6.523-3.02,10.165l67.083,123.808h-94.506l20.739-38.968
	c1.355-2.547,1.129-5.647-0.583-7.971l-54.525-73.998v-116.92l31.273,57.72c1.973,3.641,6.52,4.995,10.166,3.02
	c3.641-1.973,4.993-6.523,3.02-10.165l-44.46-82.056v-17.344l51.067-18.703c2.828-1.036,4.763-3.664,4.911-6.672
	c0.147-3.009-1.52-5.814-4.233-7.122l-55.986-26.993c-2.322-1.12-5.059-0.968-7.244,0.404c-2.184,1.373-3.51,3.77-3.51,6.35v70.081
	L135.737,405.547L90.221,257.051c-0.949-3.095-3.776-5.232-7.013-5.3c-3.213-0.048-6.151,1.95-7.227,5.003L0.475,470.819
	c-0.127,0.339-0.23,0.689-0.307,1.05c-0.001,0.003-0.001,0.006-0.002,0.009c-0.01,0.044-0.019,0.089-0.027,0.134
	c-0.006,0.028-0.011,0.055-0.016,0.083c-0.004,0.019-0.007,0.039-0.01,0.058c-0.165,0.934-0.147,1.87,0.033,2.764
	c0.003,0.018,0.007,0.035,0.01,0.052c0.004,0.019,0.008,0.037,0.012,0.056c0.199,0.931,0.572,1.797,1.081,2.564
	c0.008,0.013,0.017,0.026,0.025,0.038c0.013,0.019,0.025,0.037,0.038,0.056c0.617,0.902,1.434,1.675,2.415,2.244
	c0.017,0.01,0.034,0.02,0.052,0.03c0.018,0.01,0.035,0.02,0.052,0.029c0.691,0.388,1.449,0.67,2.252,0.824
	c0.007,0.001,0.014,0.003,0.021,0.004c0.038,0.007,0.075,0.014,0.113,0.02c0.038,0.007,0.077,0.013,0.115,0.019
	c0.011,0.002,0.022,0.004,0.032,0.005c0.379,0.058,0.758,0.087,1.134,0.087c0.055,0,0.109-0.001,0.164-0.002h496.669
	c0.019,0-0.019,0,0,0c0.011,0-0.011,0,0,0l0,0c0.01,0-0.01,0,0,0c0.019,0,2.346-0.329,2.365-0.329l-2.365,0.329
	c0.055,0.001,0.11,0.002,0.165,0.002c0.729,0,1.469-0.107,2.2-0.331C510.656,479.402,512.882,475.208,511.669,471.249z
	 M256.528,380.868l19.845,85.08h-39.211L256.528,380.868z M225.126,451.265l-13.948-28.092l29.746-41.313L225.126,451.265z
	 M303.588,424.106l-15.001,28.186l-16.568-71.03L303.588,424.106z M263.938,138.471l29.264,14.11l-29.264,10.718V138.471z
	 M125.718,424.037l-22.708,41.912H89.924V307.255L125.718,424.037z M74.927,465.949H18.096l56.832-161.124L74.927,465.949
	L74.927,465.949z M140.414,428.395c0.007-0.013,0.014-0.026,0.021-0.039l108.507-200.263v116.966l-52.574,73.019
	c-1.624,2.256-1.867,5.226-0.631,7.715l19.936,40.155h-95.606L140.414,428.395z M494.359,465.949h-48.642V307.252L494.359,465.949z
	 M388.077,425.727l42.644-120.901v161.122h-20.851L388.077,425.727z"/>
<g>
</g>
<g>
</g>
<g>
</g>
<g>
</g>
<g>
</g>
<g>
</g>
<g>
</g>
<g>
</g>
<g>
</g>
<g>
</g>
<g>
</g>
<g>
</g>
<g>
</g>
<g>
</g>
<g>
</g>
</svg>
