<?xml version="1.0" encoding="iso-8859-1"?>
<!-- Generator: Adobe Illustrator 19.0.0, SVG Export Plug-In . SVG Version: 6.00 Build 0)  -->
<svg version="1.1" id="Capa_1" xmlns="http://www.w3.org/2000/svg" xmlns:xlink="http://www.w3.org/1999/xlink" x="0px" y="0px"
	 viewBox="0 0 512 512" style="enable-background:new 0 0 512 512;" xml:space="preserve">
<g>
	<path style="fill:#E8B62A;" d="M156.642,115.012c4.198-0.549,7.387,3.649,6.201,8.172l-10.598,41.04l-49.376,0.79l14.666-40.974
		c0.897-2.487,3.103-4.275,5.738-4.626L156.642,115.012z"/>
	<path style="fill:#E8B62A;" d="M91.5,120.199v47.47h-51v-56.19c0-5.48,5.17-9.49,10.48-8.14l34.19,8.72
		C88.89,113.009,91.5,116.359,91.5,120.199z"/>
</g>
<g>
	<path style="fill:#EAA428;" d="M142.354,124.04c0.896-2.487,3.103-4.275,5.738-4.626l13.925-1.837
		c-1.149-1.77-3.112-2.86-5.375-2.565l-33.368,4.401c-2.635,0.351-4.842,2.139-5.739,4.626l-14.666,40.974l24.961-0.399
		L142.354,124.04z"/>
	<path style="fill:#EAA428;" d="M66.452,107.285l-15.472-3.946c-5.31-1.35-10.48,2.66-10.48,8.14v56.19h24.818v-56.19
		C65.318,109.932,65.741,108.51,66.452,107.285z"/>
</g>
<path style="fill:#00AA95;" d="M218.84,44.789c14.28,2.8,23.04,17,19.41,30.87c-2.16,8.26-8.21,14.47-15.67,17.18
	c-1.53,0.56-2.73,1.78-3.14,3.36l-18.524,71.47l-25.567,1.837l20.871-79.377c0.4-1.52,0.07-3.15-0.96-4.33
	c-5.73-6.55-7.93-15.96-4.71-24.97C194.67,49.329,206.84,42.439,218.84,44.789z"/>
<path style="fill:#FDDB87;" d="M231.21,229.359c18.89,22.17,30.29,50.91,30.29,82.31c0,70.44-57.35,127.49-127.9,127
	c-70.51-0.49-127.49-59.11-126.07-129.6c0.61-30.38,11.89-58.13,30.24-79.68c2.45-2.88,2.97-6.93,1.38-10.36L24.512,186.02
	l221.214-1.412l-15.876,34.42C228.26,222.439,228.77,226.489,231.21,229.359z"/>
<path style="fill:#F4C951;" d="M94.598,309.069c0.61-30.38,11.89-58.13,30.24-79.68c2.45-2.88,2.97-6.93,1.38-10.36L111.58,186.02
	l133.889-0.854l0.257-0.557L24.512,186.02l14.638,33.009c1.59,3.43,1.07,7.48-1.38,10.36c-18.35,21.55-29.63,49.3-30.24,79.68
	c-1.42,70.49,55.56,129.11,126.07,129.6c15.656,0.109,30.659-2.622,44.533-7.698C128.652,412.816,93.479,364.635,94.598,309.069z"/>
<path style="fill:#E8B62A;" d="M245.726,184.608L24.512,186.02l12.261,27.649h41.406c2.386,0,4.321,1.935,4.321,4.321v65.221
	c0,10.3,8.006,19.074,18.299,19.445c10.809,0.389,19.701-8.265,19.701-18.987v48.633c0,7,5.38,13.023,12.372,13.352
	c7.465,0.351,13.628-5.597,13.628-12.985V217.99c0-2.386,1.935-4.321,4.321-4.321h81.501L245.726,184.608z"/>
<g>
	<path style="fill:#EAA428;" d="M98.488,283.211v-65.222c0-2.386-1.935-4.321-4.321-4.321H78.179c2.386,0,4.321,1.935,4.321,4.321
		v65.222c0,10.3,8.006,19.074,18.299,19.445c3.126,0.113,6.082-0.551,8.719-1.782C102.961,297.751,98.488,290.909,98.488,283.211z"
		/>
	<path style="fill:#EAA428;" d="M136.488,332.302v-37.075c0-5.373-4.356-9.728-9.728-9.728h-6.26v46.792
		c0,6.925,5.258,12.923,12.17,13.352c3.363,0.209,6.471-0.864,8.886-2.774C138.46,340.393,136.488,336.531,136.488,332.302z"/>
</g>
<path style="fill:#C6830C;" d="M239,158.669c8.56,0,15.5,6.94,15.5,15.5c0,4.28-1.74,8.16-4.54,10.96c-2.8,2.8-6.68,4.54-10.96,4.54
	H30c-8.56,0-15.5-6.94-15.5-15.5c0-4.28,1.74-8.16,4.54-10.96s6.68-4.54,10.96-4.54H239z"/>
<path style="fill:#B77408;" d="M249.96,169.629c-2.8,2.8-6.68,4.54-10.96,4.54H30c-5.733,0-10.728-3.121-13.409-7.749
	c-1.321,2.281-2.091,4.924-2.091,7.749c0,8.56,6.94,15.5,15.5,15.5h209c4.28,0,8.16-1.74,10.96-4.54s4.54-6.68,4.54-10.96
	c0-2.827-0.769-5.469-2.091-7.751C251.729,167.592,250.912,168.677,249.96,169.629z"/>
<circle style="fill:#FFFFFF;" cx="214.07" cy="69.33" r="7.5"/>
<path style="fill:#E8B62A;" d="M378.5,321.779v121.89h-72v-132.73c0-6.33,5.82-11.06,12.01-9.77l52.05,10.85
	C375.18,312.979,378.5,317.059,378.5,321.779z"/>
<path style="fill:#EAA428;" d="M344.048,306.492l-25.538-5.323c-6.19-1.29-12.01,3.44-12.01,9.77v132.73h36.504v-132.73
	C343.004,309.328,343.384,307.823,344.048,306.492z"/>
<path style="fill:#E2900E;" d="M370.56,312.019l-52.05-10.85c-6.19-1.29-12.01,3.44-12.01,9.77v34.73h13c4.97,0,9-4.03,9-9
	c0-2.21,0.9-4.21,2.34-5.66c1.45-1.44,3.45-2.34,5.66-2.34s4.21,0.9,5.66,2.34c1.44,1.45,2.34,3.45,2.34,5.66v5.51
	c0,11.32,9.17,20.49,20.49,20.49h13.51v-40.89C378.5,317.059,375.18,312.979,370.56,312.019z"/>
<path style="fill:#E8B62A;" d="M470.49,352.299l-52.05,6.81c-4.63,0.61-7.94,3.17-7.94,6.14v20.08v58.34h72v-67v-18.23
	C482.5,354.459,476.68,351.489,470.49,352.299z"/>
<path style="fill:#EAA428;" d="M447.004,365.249c0-2.97,3.31-5.53,7.94-6.14l26.509-3.468c-1.947-2.448-6.35-3.945-10.963-3.342
	l-52.05,6.81c-4.63,0.61-7.94,3.17-7.94,6.14v20.08v58.34h36.504v-58.34V365.249z"/>
<path style="fill:#E2900E;" d="M482.5,358.439v18.23h-16.12c-4.91,0-8.88,3.97-8.88,8.88v12.62c0,3.45-1.4,6.58-3.66,8.84
	s-5.39,3.66-8.84,3.66c-6.9,0-12.5-5.6-12.5-12.5v-3.96c0-4.91-3.97-8.88-8.88-8.88H410.5v-20.08c0-2.97,3.31-5.53,7.94-6.14
	l52.05-6.81C476.68,351.489,482.5,354.459,482.5,358.439z"/>
<g>
	<path style="fill:#EA3B18;" d="M370.5,255.669c0,13.25-10.75,24-24,24s-24-10.75-24-24c0-9.18,11.522-22.922,18.599-30.496
		c2.926-3.131,7.877-3.131,10.802,0C358.978,232.747,370.5,246.488,370.5,255.669z"/>
	<path style="fill:#EA3B18;" d="M470.5,303.669c0,13.25-10.75,24-24,24s-24-10.75-24-24c0-9.18,11.522-22.922,18.599-30.496
		c2.926-3.131,7.877-3.131,10.802,0C458.978,280.747,470.5,294.488,470.5,303.669z"/>
</g>
<g>
	<path style="fill:#E51717;" d="M348.5,244.996c0-4.652,2.96-10.474,6.799-16.072c-1.195-1.363-2.346-2.626-3.398-3.752
		c-2.926-3.131-7.877-3.131-10.802,0c-7.077,7.575-18.599,21.316-18.599,30.496c0,13.25,10.75,24,24,24
		c8.603,0,16.148-4.535,20.385-11.34C356.343,265.798,348.5,256.312,348.5,244.996z"/>
	<path style="fill:#E51717;" d="M448.5,292.996c0-4.652,2.96-10.474,6.799-16.072c-1.195-1.363-2.346-2.626-3.398-3.752
		c-2.926-3.131-7.877-3.131-10.802,0c-7.077,7.575-18.599,21.316-18.599,30.496c0,13.25,10.75,24,24,24
		c8.603,0,16.148-4.535,20.385-11.34C456.343,313.798,448.5,304.312,448.5,292.996z"/>
</g>
<path style="fill:#8E5F39;" d="M504.5,445.169v16c0,3.59-2.91,6.5-6.5,6.5H14c-3.59,0-6.5-2.91-6.5-6.5v-16c0-3.59,2.91-6.5,6.5-6.5
	h484C501.59,438.669,504.5,441.579,504.5,445.169z"/>
<path style="fill:#7C4825;" d="M498,453.172H14c-3.59,0-6.5-2.91-6.5-6.5v14.497c0,3.59,2.91,6.5,6.5,6.5h484
	c3.59,0,6.5-2.91,6.5-6.5v-14.497C504.5,450.262,501.59,453.172,498,453.172z"/>
<circle cx="214.07" cy="69.33" r="7.5"/>
<path d="M498,431.169h-8v-72.73c0-3.49-1.564-6.786-4.405-9.279c-3.973-3.487-9.987-5.096-16.077-4.297L454,346.893v-12.626
	c13.76-3.373,24-15.812,24-30.598c0-15.681-21.941-37.273-26.341-41.443c-2.893-2.742-7.426-2.742-10.318,0
	c-4.399,4.17-26.341,25.763-26.341,41.443c0,14.786,10.24,27.224,24,30.598v14.589l-21.538,2.818
	c-8.515,1.12-14.462,6.702-14.462,13.575v65.92h-17v-109.39c0-8.235-5.852-15.429-13.91-17.103l-18.428-3.841v-14.488
	c13.93-3.251,24.338-15.772,24.338-30.678c0-15.681-21.941-37.273-26.341-41.443c-2.893-2.742-7.426-2.742-10.318,0
	c-4.399,4.17-26.341,25.763-26.341,41.443c0,14.664,10.072,27.02,23.662,30.513v11.527l-18.622-3.882
	c-5.17-1.079-10.486,0.215-14.587,3.55c-4.101,3.334-6.453,8.277-6.453,13.562v120.23H196.317
	c35.73-18.473,62.425-52.587,70.331-94.331c0.771-4.07-1.904-7.994-5.974-8.765c-4.063-0.763-7.993,1.904-8.765,5.974
	c-10.631,56.143-59.523,96.747-116.615,97.122h-1.643c-32.056-0.223-62.119-13.095-84.651-36.246
	c-22.553-23.173-34.618-53.609-33.972-85.703c0.551-27.444,10.655-54.068,28.453-74.971c3.113-3.659,4.488-8.425,3.958-13.08H75
	v62.5c0,14.612,11.888,26.5,26.5,26.5c4.118,0,8.021-0.944,11.5-2.628v25.128c0,11.304,9.196,20.5,20.5,20.5s20.5-9.196,20.5-20.5
	v-111.5h67.554c-0.531,4.642,0.837,9.397,3.947,13.055c11.651,13.674,20.183,30.04,24.672,47.329
	c1.042,4.009,5.131,6.417,9.145,5.374c4.01-1.041,6.416-5.135,5.374-9.144c-5.056-19.472-14.659-37.898-27.768-53.282
	c-0.53-0.623-0.639-1.526-0.273-2.31l0,0c0.044-0.09-0.04,0.092,0,0l12.794-27.518c2.123-1.084,4.085-2.507,5.819-4.24
	c4.344-4.345,6.736-10.12,6.736-16.264c0-12.683-10.317-23-23-23h-26.193l13.543-51.747c9.45-3.863,16.563-11.951,19.156-21.864
	c2.262-8.645,0.834-17.944-3.919-25.516c-4.818-7.674-12.385-12.864-21.306-14.613c-15.617-3.062-31.434,5.914-36.794,20.877
	c-3.805,10.646-1.825,22.473,5.133,31.238l-16.135,61.625h-9.245l6.857-26.082c1.24-4.727,0.123-9.657-2.986-13.189
	c-2.877-3.267-7.158-4.882-11.449-4.321l-8.038,1.06l1.101-3.956c1.11-3.99-1.224-8.126-5.214-9.237
	c-3.989-1.105-8.126,1.224-9.237,5.214l-2.815,10.111l-9.176,1.21c-5.425,0.724-9.947,4.371-11.808,9.531l-10.631,29.659H99v-30.97
	c0-7.271-4.924-13.606-11.977-15.408L73.5,101.342v-8.673c0-4.143-3.357-7.5-7.5-7.5s-7.5,3.357-7.5,7.5v4.848l-5.672-1.447
	c-4.794-1.22-9.784-0.176-13.689,2.861C35.237,101.966,33,106.539,33,111.478v39.69h-3c-6.144,0-11.919,2.393-16.264,6.736
	C9.393,162.25,7,168.025,7,174.169c0,8.921,5.105,16.671,12.546,20.484l12.758,27.446c0.038,0.086,0,0,0.041,0.084l0,0
	c0.366,0.789,0.253,1.709-0.286,2.343c-20.034,23.527-31.408,53.499-32.027,84.392c-0.729,36.137,12.845,70.396,38.219,96.467
	c10.269,10.551,21.932,19.205,34.573,25.784H14c-7.72,0-14,6.28-14,14v16c0,7.72,6.28,14,14,14h484c7.72,0,14-6.28,14-14v-16
	C512,437.449,505.72,431.169,498,431.169z M227.558,206.169H146.5c-4.143,0-7.5,3.357-7.5,7.5v119c0,3.033-2.467,5.5-5.5,5.5
	s-5.5-2.467-5.5-5.5v-66c0-4.143-3.357-7.5-7.5-7.5s-7.5,3.357-7.5,7.5v17c0,6.341-5.159,11.5-11.5,11.5S90,290.01,90,283.669v-70
	c0-4.143-3.357-7.5-7.5-7.5H41.442l-4.184-9h194.484L227.558,206.169z M203.473,92.04c1.044-3.964,0.086-8.141-2.568-11.18
	c-4.244-4.853-5.476-11.397-3.294-17.502c2.879-8.037,11.393-12.855,19.786-11.209c4.813,0.943,8.893,3.738,11.486,7.868
	c2.598,4.139,3.348,9.02,2.111,13.744c-1.455,5.563-5.558,10.06-10.994,12.035c-3.883,1.422-6.807,4.608-7.815,8.504l-14.884,56.868
	h-9.309L203.473,92.04z M124.509,126.815l30.688-4.048l-7.467,28.401h-31.951L124.509,126.815z M48,111.478
	c0-0.107,0-0.436,0.348-0.706c0.233-0.183,0.499-0.238,0.779-0.166l14.917,3.804c0.065,0.018,0.131,0.034,0.196,0.05l19.073,4.864
	c0.404,0.104,0.687,0.463,0.687,0.874v30.97H48V111.478z M30,182.169c-4.411,0-8-3.589-8-8c0-2.137,0.832-4.146,2.344-5.656
	c1.511-1.512,3.52-2.344,5.656-2.344h209c4.411,0,8,3.589,8,8c0,2.137-0.832,4.146-2.344,5.656c-1.511,1.512-3.52,2.344-5.656,2.344
	H30z M430,303.669c0-5.154,7.841-16.112,16.492-25.346c7.91,8.47,16.508,19.768,16.508,25.346c0,9.098-7.402,16.5-16.5,16.5
	S430,312.766,430,303.669z M418,366.885c0.347-0.13,0.818-0.262,1.413-0.34l51.888-6.784c0.165-0.016,0,0,0.161-0.026l0,0
	c1.541-0.201,2.789,0.06,3.537,0.338v9.096h-8.62c-9.032,0-16.38,7.348-16.38,16.38v12.62c0,1.337-0.52,2.593-1.464,3.536
	c-0.943,0.944-2.199,1.464-3.536,1.464c-2.757,0-5-2.243-5-5v-3.96c0-9.032-7.348-16.38-16.38-16.38H418V366.885z M418,392.829h5.62
	c0.773,0,1.38,0.606,1.38,1.38v3.96c0,11.028,8.972,20,20,20c5.344,0,10.366-2.08,14.144-5.856c3.776-3.777,5.856-8.8,5.856-14.144
	v-12.62c0-0.773,0.606-1.38,1.38-1.38H475v47h-57V392.829z M330,255.669c0-5.154,7.841-16.112,16.492-25.346
	c7.91,8.47,16.508,19.768,16.508,25.346c0,9.098-7.402,16.5-16.5,16.5S330,264.766,330,255.669z M314,310.938
	c0-1.025,0.574-1.646,0.916-1.924c0.342-0.277,1.061-0.714,2.063-0.504l52.055,10.851c0.037,0.008-0.037-0.007,0,0l0,0
	c1.139,0.237,1.966,1.254,1.966,2.418v33.39h-6.01c-7.163,0-12.99-5.827-12.99-12.99v-5.51c0-4.123-1.604-8.009-4.557-10.983
	c-2.935-2.912-6.82-4.517-10.943-4.517s-8.009,1.604-10.983,4.557c-2.912,2.935-4.517,6.82-4.517,10.943c0,0.827-0.673,1.5-1.5,1.5
	H314V310.938z M314,353.169h5.5c9.098,0,16.5-7.402,16.5-16.5c0-0.141,0.055-0.268,0.123-0.337c0.219-0.217,0.575-0.177,0.714-0.04
	c0.108,0.109,0.163,0.236,0.163,0.377v5.51c0,15.434,12.557,27.99,27.99,27.99H371v61h-57V353.169z M497,460.169H15v-14h118.548
	c0.317,0.002,0.633,0.003,0.95,0.003c0.284,0,0.568-0.001,0.853-0.003H497V460.169z"/>
<path d="M120.5,254.169c4.143,0,7.5-3.357,7.5-7.5v-15c0-4.143-3.357-7.5-7.5-7.5s-7.5,3.357-7.5,7.5v15
	C113,250.811,116.357,254.169,120.5,254.169z"/>
<g>
</g>
<g>
</g>
<g>
</g>
<g>
</g>
<g>
</g>
<g>
</g>
<g>
</g>
<g>
</g>
<g>
</g>
<g>
</g>
<g>
</g>
<g>
</g>
<g>
</g>
<g>
</g>
<g>
</g>
</svg>
