<?xml version="1.0" encoding="iso-8859-1"?>
<!-- Generator: Adobe Illustrator 19.0.0, SVG Export Plug-In . SVG Version: 6.00 Build 0)  -->
<svg version="1.1" id="Capa_1" xmlns="http://www.w3.org/2000/svg" xmlns:xlink="http://www.w3.org/1999/xlink" x="0px" y="0px"
	 viewBox="0 0 511.999 511.999" style="enable-background:new 0 0 511.999 511.999;" xml:space="preserve">
<path style="fill:#F5DCB4;" d="M472.935,422.725c-0.768-18.235-13.341-33.05-28.995-35.64
	c-15.686-46.472-18.061-91.359-3.46-134.237l-0.071-3.551h-78.111v3.551c13.976,46.257,13.085,91.031-3.46,134.237
	c-9.297,1.536-17.498,7.382-22.791,15.696l-5.893,9.808v41.974h143.796v-7.911L472.935,422.725z"/>
<path style="fill:#E5BF89;" d="M371.955,402.779c5.294-8.314,13.495-14.16,22.791-15.696c16.546-43.207,17.436-87.979,3.46-134.237
	v-3.551h-35.909v3.551c13.976,46.257,13.085,91.031-3.46,134.237c-9.297,1.536-17.498,7.382-22.791,15.696l-5.893,9.808v41.974
	h35.909V424.03C366.062,416.543,368.099,409.197,371.955,402.779L371.955,402.779z"/>
<path style="fill:#F5DCB4;" d="M336.046,402.779l-0.297-6.86c-0.86-20.323-14.867-36.838-32.313-39.726
	c-17.487-51.807-20.139-101.843-3.859-149.636l-0.105-2.091h-87.045v2.091c15.583,51.561,14.58,101.464-3.859,149.636
	c-17.446,2.887-31.453,19.402-32.313,39.726l-0.184,4.228l-0.952,22.443v10.125h161.769v-10.125L336.046,402.779z"/>
<path style="fill:#E5BF89;" d="M271.783,340.888H251.18c13.212-43.416,12.555-88.208-1.383-134.329v-2.091h-37.37v2.091
	c15.583,51.561,14.58,101.464-3.859,149.636c-17.446,2.887-31.453,19.402-32.313,39.726l-0.184,4.228l-0.952,22.443v10.125h37.37
	v-10.125l0.952-22.443l0.184-4.228c0.816-19.289,13.479-35.139,29.681-39.172h28.478c4.38,0,7.93-3.55,7.93-7.93
	C279.714,344.44,276.163,340.888,271.783,340.888z"/>
<path style="fill:#F5DCB4;" d="M175.117,400.107c-5.263-6.881-12.665-11.651-20.927-13.023
	c-15.686-46.472-18.061-91.359-3.46-134.237l-0.073-5.015H72.547v5.015c13.976,46.257,13.085,91.03-3.46,134.237
	c-15.655,2.59-28.227,17.405-28.995,35.64l-1.014,23.928v0.512v15.97h136.992v-62.985L175.117,400.107z"/>
<path style="fill:#E5BF89;" d="M77.728,446.651l1.013-23.928c0.768-18.235,13.341-33.05,28.995-35.64
	c16.546-43.207,17.436-87.979,3.46-134.237v-5.015H72.547v5.015c13.976,46.257,13.085,91.03-3.46,134.237
	c-15.655,2.59-28.227,17.405-28.995,35.64l-1.014,23.928v0.512v15.97h38.65v-15.97V446.651z"/>
<g>
	<path style="fill:#E2B17D;" d="M163.967,447.164H36.764c-7.914,0-14.334,6.42-14.334,14.334c0,0.694,0.066,1.371,0.162,2.039
		c-0.055,0-0.107,0.008-0.162,0.008h0.163c0.451,3.132,1.901,5.947,4.034,8.089c2.59,2.59,6.174,4.197,10.136,4.197h127.204
		c3.962,0,7.546-1.607,10.136-4.197c2.59-2.6,4.197-6.184,4.197-10.136C178.302,453.583,171.882,447.164,163.967,447.164z"/>
	<path style="fill:#E2B17D;" d="M163.967,475.832H36.764c-7.914,0-14.334,6.42-14.334,14.334c0,0.694,0.066,1.371,0.162,2.039
		c-0.055,0-0.107,0.008-0.162,0.008h0.163c0.451,3.132,1.901,5.947,4.034,8.089c2.59,2.59,6.174,4.197,10.136,4.197h127.204
		c3.962,0,7.546-1.607,10.136-4.197c2.59-2.6,4.197-6.184,4.197-10.136C178.302,482.251,171.882,475.832,163.967,475.832z"/>
	<path style="fill:#E2B17D;" d="M475.239,447.164H348.035c-7.914,0-14.334,6.42-14.334,14.334c0,0.694,0.066,1.371,0.162,2.039
		c-0.055,0-0.107,0.008-0.162,0.008h0.163c0.451,3.132,1.901,5.947,4.034,8.089c2.59,2.59,6.174,4.197,10.136,4.197h127.204
		c3.962,0,7.546-1.607,10.136-4.197c2.59-2.6,4.197-6.184,4.197-10.136C489.572,453.583,483.153,447.164,475.239,447.164z"/>
	<path style="fill:#E2B17D;" d="M288.764,32.524v11.385c0,3.644-2.948,6.594-6.594,6.594h-14.908v53.718H242.69V50.503H229.83
		c-3.644,0-6.594-2.948-6.594-6.594V32.524c0-3.644,2.948-6.594,6.594-6.594h12.859V14.095c0-3.644,2.948-6.594,6.594-6.594h11.385
		c3.645,0,6.594,2.948,6.594,6.594V25.93h14.908C285.816,25.93,288.764,28.879,288.764,32.524z"/>
</g>
<path style="fill:#D89E68;" d="M256.001,104.221V7.501h-6.717c-3.644,0-6.594,2.948-6.594,6.594V25.93h-12.859
	c-3.644,0-6.594,2.948-6.594,6.594v11.385c0,3.644,2.948,6.594,6.594,6.594h12.859v53.718H256.001z"/>
<path style="fill:#F5DCB4;" d="M195.594,126.663c0-6.051,4.915-10.965,10.965-10.965h6.44v-0.686
	c0-10.924,8.867-19.791,19.791-19.791h46.421c10.924,0,19.791,8.867,19.791,19.791v0.686h6.44c6.051,0,10.965,4.915,10.965,10.965
	v4.69c0,6.051-4.915,10.965-10.965,10.965h-6.44v37.455h-86.004v-37.455h-6.44c-6.051,0-10.965-4.915-10.965-10.965V126.663z"/>
<path style="fill:#E5BF89;" d="M258.251,115.697v-0.686c0-10.924,8.866-19.791,19.791-19.791h-45.251
	c-10.924,0-19.791,8.867-19.791,19.791v0.686h-6.44c-6.051,0-10.965,4.915-10.965,10.965v4.69c0,6.051,4.915,10.965,10.965,10.965
	H213v37.455h45.251V115.697z"/>
<path style="fill:#E2B17D;" d="M300.027,173.795c9.051,0,16.382,7.331,16.382,16.382c0,4.526-1.832,8.621-4.792,11.59
	c-2.969,2.959-7.065,4.792-11.59,4.792h-88.051c-9.051,0-16.382-7.331-16.382-16.382c0-4.526,1.832-8.621,4.792-11.59
	c2.969-2.959,7.065-4.792,11.59-4.792H300.027z"/>
<path style="fill:#F5DCB4;" d="M445.413,194.272c0-24.317-19.709-44.026-44.026-44.026c-24.317,0-44.026,19.709-44.026,44.026
	c0,10.699,3.819,20.507,10.167,28.135v10.177h68.141l-0.424-10.177C441.595,214.78,445.413,204.972,445.413,194.272z"/>
<path style="fill:#E5BF89;" d="M398.935,194.272c0-16.798,9.408-31.393,23.24-38.814c-6.192-3.322-13.268-5.211-20.786-5.211
	c-24.317,0-44.026,19.709-44.026,44.026c0,10.699,3.819,20.507,10.167,28.135v10.177h41.572v-10.177
	C402.753,214.78,398.935,204.972,398.935,194.272z"/>
<path style="fill:#F5DCB4;" d="M111.638,150.246c-24.317,0-44.026,19.709-44.026,44.026c0,10.699,3.819,20.507,10.167,28.135v5.752
	h67.417v-5.752h0.301c6.348-7.628,10.167-17.436,10.167-28.135C155.664,169.956,135.955,150.246,111.638,150.246z"/>
<path style="fill:#E5BF89;" d="M113.798,194.272c0-15.846,8.373-29.729,20.932-37.483c-6.714-4.145-14.622-6.542-23.093-6.542
	c-24.317,0-44.026,19.709-44.026,44.026c0,10.699,3.819,20.507,10.167,28.135v5.752h46.186v-5.752
	C117.618,214.78,113.798,204.972,113.798,194.272z"/>
<path style="fill:#E2B17D;" d="M151.138,223.452c8.109,0,14.693,6.584,14.693,14.693c0,4.064-1.648,7.73-4.311,10.392
	c-2.651,2.662-6.328,4.311-10.382,4.311h-0.41H72.547h-0.409c-8.109,0-14.693-6.584-14.693-14.703c0-4.054,1.648-7.73,4.31-10.392
	c2.651-2.651,6.328-4.3,10.382-4.3L151.138,223.452L151.138,223.452z"/>
<g>
	<path style="fill:#D89E68;" d="M176.331,454.271c-0.622,1.063-1.364,2.047-2.227,2.914c-2.59,2.59-6.174,4.197-10.136,4.197H81.844
		c-2.364,0-4.103-2.318-3.333-4.554c1.936-5.624,7.271-9.666,13.552-9.666H36.764c-5.277,0-9.876,2.861-12.364,7.108l0,0l0,0
		c-0.152,0.26-0.296,0.524-0.432,0.794c-0.013,0.026-0.025,0.053-0.038,0.079c-0.222,0.447-0.419,0.906-0.594,1.378
		c-0.048,0.128-0.097,0.256-0.141,0.385c-0.07,0.207-0.136,0.414-0.196,0.625c-0.074,0.253-0.138,0.51-0.198,0.768
		c-0.04,0.175-0.079,0.35-0.113,0.528c-0.064,0.333-0.114,0.67-0.154,1.01c-0.014,0.124-0.027,0.248-0.038,0.373
		c-0.038,0.423-0.065,0.85-0.065,1.284c0,0.694,0.066,1.371,0.162,2.039c-0.055,0-0.107,0.008-0.162,0.008h0.163
		c0.451,3.132,1.901,5.947,4.034,8.089c2.59,2.59,6.174,4.197,10.136,4.197h55.298h71.905c3.962,0,7.546-1.607,10.136-4.197
		c2.59-2.6,4.197-6.184,4.197-10.136C178.302,458.859,177.575,456.396,176.331,454.271z"/>
	<path style="fill:#D89E68;" d="M176.331,482.94c-0.622,1.063-1.364,2.047-2.227,2.914c-2.59,2.59-6.174,4.197-10.136,4.197H83.404
		c-3.429,0-5.587-3.667-3.958-6.686c2.421-4.486,7.163-7.535,12.616-7.535H36.764c-5.277,0-9.876,2.861-12.364,7.108l0,0l0,0
		c-0.152,0.26-0.296,0.524-0.432,0.794c-0.013,0.026-0.025,0.053-0.038,0.079c-0.222,0.447-0.419,0.906-0.594,1.378
		c-0.048,0.128-0.097,0.256-0.141,0.385c-0.07,0.207-0.136,0.414-0.196,0.625c-0.074,0.253-0.138,0.51-0.198,0.768
		c-0.04,0.175-0.079,0.35-0.113,0.528c-0.064,0.333-0.114,0.67-0.154,1.01c-0.014,0.124-0.027,0.248-0.038,0.373
		c-0.038,0.423-0.065,0.85-0.065,1.284c0,0.694,0.066,1.371,0.162,2.039c-0.055,0-0.107,0.008-0.162,0.008h0.163
		c0.451,3.132,1.901,5.947,4.034,8.089c2.59,2.59,6.174,4.197,10.136,4.197h55.298h71.905c3.962,0,7.546-1.607,10.136-4.197
		c2.59-2.6,4.197-6.184,4.197-10.136C178.302,487.527,177.575,485.063,176.331,482.94z"/>
</g>
<path style="fill:#E2B17D;" d="M440.888,223.452c8.109,0,14.693,6.584,14.693,14.693c0,4.064-1.648,7.73-4.31,10.392
	c-2.651,2.662-6.328,4.311-10.382,4.311h-0.409h-78.181h-0.409c-8.109,0-14.693-6.584-14.693-14.703c0-4.054,1.648-7.73,4.31-10.392
	c2.651-2.651,6.328-4.3,10.382-4.3L440.888,223.452L440.888,223.452z"/>
<path style="fill:#D89E68;" d="M163.349,229.98c-0.537,0.801-1.149,1.548-1.829,2.228c-2.651,2.662-6.328,4.311-10.382,4.311h-0.409
	H117.34c-2.565,0-4.172-2.71-3.015-5c0.707-1.398,1.631-2.669,2.729-3.767c2.651-2.651,6.328-4.3,10.382-4.3H72.138
	c-4.054,0-7.73,1.648-10.382,4.3c-0.681,0.681-1.293,1.43-1.831,2.233l0,0c-0.22,0.329-0.424,0.669-0.617,1.015
	c-0.078,0.14-0.149,0.283-0.223,0.425c-0.126,0.244-0.245,0.49-0.358,0.742c-0.065,0.146-0.13,0.291-0.191,0.439
	c-0.133,0.326-0.255,0.658-0.365,0.995c-0.023,0.069-0.05,0.136-0.072,0.205c-0.125,0.403-0.227,0.816-0.318,1.233
	c-0.029,0.132-0.051,0.265-0.076,0.398c-0.059,0.316-0.108,0.635-0.147,0.958c-0.016,0.133-0.033,0.265-0.045,0.399
	c-0.041,0.445-0.068,0.894-0.068,1.349c0,8.119,6.584,14.703,14.693,14.703h0.409h54.888h23.293h0.409
	c4.054,0,7.73-1.648,10.382-4.311c2.662-2.662,4.311-6.328,4.311-10.392C165.83,235.124,164.915,232.316,163.349,229.98z"/>
<path style="fill:#E2B17D;" d="M475.239,475.832H348.035c-7.914,0-14.334,6.42-14.334,14.334c0,0.694,0.066,1.371,0.162,2.039
	c-0.055,0-0.107,0.008-0.162,0.008h0.163c0.451,3.132,1.901,5.947,4.034,8.089c2.59,2.59,6.174,4.197,10.136,4.197h127.204
	c3.962,0,7.546-1.607,10.136-4.197c2.59-2.6,4.197-6.184,4.197-10.136C489.572,482.251,483.153,475.832,475.239,475.832z"/>
<path style="fill:#CC905E;" d="M487.637,454.328c-0.628,1.085-1.383,2.088-2.262,2.971c-2.59,2.59-6.174,4.197-10.136,4.197h-78.423
	c-2.146,0-3.665-2.077-3.047-4.132c1.775-5.901,7.251-10.201,13.729-10.201h-59.463c-5.604,0-10.444,3.225-12.801,7.914
	c-0.033,0.066-0.064,0.133-0.096,0.199c-0.193,0.398-0.367,0.806-0.522,1.224c-0.055,0.147-0.111,0.293-0.162,0.442
	c-0.066,0.196-0.127,0.394-0.185,0.594c-0.074,0.256-0.14,0.515-0.2,0.776c-0.036,0.158-0.073,0.315-0.104,0.476
	c-0.068,0.349-0.12,0.703-0.162,1.061c-0.014,0.121-0.026,0.241-0.037,0.363c-0.038,0.424-0.065,0.851-0.065,1.285
	c0,0.694,0.066,1.371,0.162,2.039c-0.055,0-0.107,0.008-0.162,0.008h0.163c0.451,3.132,1.901,5.947,4.034,8.089
	c2.59,2.59,6.174,4.197,10.136,4.197h59.463h67.741c3.962,0,7.546-1.607,10.136-4.197c2.59-2.6,4.197-6.184,4.197-10.136
	C489.572,458.883,488.86,456.44,487.637,454.328z"/>
<path style="fill:#D89E68;" d="M453.099,229.98c-0.537,0.801-1.149,1.548-1.829,2.228c-2.651,2.662-6.328,4.311-10.382,4.311h-0.409
	h-43.831c-1.86,0-3.182-1.862-2.52-3.601c0.744-1.955,1.893-3.711,3.347-5.166c2.651-2.651,6.328-4.3,10.382-4.3h-45.968
	c-4.054,0-7.73,1.648-10.382,4.3c-0.681,0.681-1.293,1.43-1.831,2.233l0,0c-0.22,0.329-0.424,0.669-0.617,1.015
	c-0.078,0.14-0.149,0.283-0.223,0.425c-0.126,0.244-0.245,0.49-0.358,0.742c-0.065,0.146-0.13,0.291-0.191,0.439
	c-0.133,0.326-0.255,0.658-0.365,0.995c-0.023,0.069-0.05,0.136-0.072,0.205c-0.125,0.403-0.227,0.816-0.318,1.233
	c-0.029,0.132-0.051,0.265-0.076,0.398c-0.059,0.316-0.108,0.635-0.147,0.958c-0.016,0.133-0.033,0.265-0.045,0.399
	c-0.041,0.445-0.068,0.894-0.068,1.349c0,8.119,6.584,14.703,14.693,14.703h0.409h45.558h32.623h0.409
	c4.054,0,7.73-1.648,10.382-4.311c2.662-2.662,4.31-6.328,4.31-10.392C455.581,235.124,454.664,232.316,453.099,229.98z"/>
<path style="fill:#CC905E;" d="M487.637,482.997c-0.628,1.085-1.383,2.088-2.262,2.971c-2.59,2.59-6.174,4.197-10.136,4.197h-77.58
	c-2.658,0-4.498-2.67-3.541-5.151c2.07-5.371,7.281-9.183,13.38-9.183h-59.463c-5.604,0-10.444,3.225-12.801,7.914
	c-0.033,0.066-0.064,0.133-0.096,0.199c-0.193,0.398-0.367,0.806-0.522,1.224c-0.055,0.147-0.111,0.293-0.162,0.442
	c-0.066,0.196-0.127,0.394-0.185,0.594c-0.074,0.256-0.14,0.515-0.2,0.776c-0.036,0.158-0.073,0.315-0.104,0.476
	c-0.068,0.349-0.12,0.703-0.162,1.061c-0.014,0.121-0.026,0.241-0.037,0.363c-0.038,0.424-0.065,0.851-0.065,1.285
	c0,0.694,0.066,1.371,0.162,2.039c-0.055,0-0.107,0.008-0.162,0.008h0.163c0.451,3.132,1.901,5.947,4.034,8.089
	c2.59,2.59,6.174,4.197,10.136,4.197h59.463h67.741c3.962,0,7.546-1.607,10.136-4.197c2.59-2.6,4.197-6.184,4.197-10.136
	C489.572,487.551,488.86,485.107,487.637,482.997z"/>
<g>
	<path style="fill:#E2B17D;" d="M372.649,476.057c1.034,2.447,1.607,5.14,1.607,7.966c0,5.652-2.293,10.771-6,14.478
		c-3.706,3.706-8.826,6-14.478,6h-1.177H162.299h-4.074c-11.313,0-20.477-9.163-20.477-20.477c0-2.826,0.573-5.519,1.607-7.966
		c1.034-2.457,2.539-4.659,4.393-6.512c3.706-3.706,8.826-6,14.478-6h20.077h155.4h20.077
		C362.267,463.545,369.536,468.695,372.649,476.057z"/>
	<path style="fill:#E2B17D;" d="M354.179,443.068c0,1.331-0.123,2.641-0.379,3.9c-0.778,4.085-2.785,7.74-5.621,10.576
		c-3.706,3.706-8.826,6-14.478,6h-155.4c-9.941,0-18.235-7.085-20.088-16.494c-0.256-1.29-0.389-2.621-0.389-3.982
		c0-5.652,2.293-10.771,6-14.478s8.826-6,14.478-6h155.4C345.005,422.592,354.179,431.755,354.179,443.068z"/>
</g>
<g>
	<path style="fill:#D89E68;" d="M314.218,182.015c-0.72,1.252-1.589,2.408-2.601,3.424c-2.969,2.959-7.065,4.792-11.59,4.792
		h-51.864c-4.482,0-7.21-4.933-4.837-8.734c0.659-1.056,1.435-2.032,2.31-2.909c2.969-2.959,7.065-4.792,11.59-4.792h-45.251
		c-4.526,0-8.621,1.833-11.59,4.792c-1.231,1.236-2.253,2.675-3.043,4.251c-0.045,0.09-0.088,0.181-0.131,0.272
		c-0.213,0.448-0.405,0.905-0.58,1.369c-0.064,0.169-0.128,0.337-0.185,0.509c-0.073,0.217-0.14,0.436-0.203,0.658
		c-0.086,0.297-0.162,0.598-0.231,0.901c-0.037,0.165-0.077,0.328-0.109,0.494c-0.081,0.413-0.142,0.832-0.191,1.255
		c-0.016,0.136-0.029,0.272-0.041,0.409c-0.044,0.485-0.074,0.974-0.074,1.471c0,9.051,7.331,16.382,16.382,16.382h45.251h42.8
		c4.526,0,8.621-1.832,11.59-4.792c2.959-2.969,4.792-7.065,4.792-11.59C316.408,187.202,315.603,184.419,314.218,182.015z"/>
	<path style="fill:#D89E68;" d="M372.649,476.057c-0.334-0.79-0.725-1.548-1.151-2.283c-0.899,1.553-1.98,2.988-3.241,4.249
		c-3.706,3.706-8.826,6-14.478,6h-1.177H189.969c-4.073,0-6.966-4.133-5.395-7.892c0.01-0.025,0.021-0.049,0.031-0.073
		c1.034-2.457,2.539-4.659,4.393-6.512c3.706-3.706,8.826-6,14.478-6h-25.174h-20.077c-5.652,0-10.771,2.293-14.478,6
		c-1.499,1.499-2.755,3.235-3.734,5.143c-0.236,0.447-0.461,0.9-0.658,1.369c-1.153,2.728-1.733,5.763-1.584,8.945
		c0.514,11.006,9.948,19.497,20.966,19.497h3.562h41.177h149.127h1.177c5.652,0,10.771-2.293,14.478-6c3.706-3.706,6-8.826,6-14.478
		C374.256,481.196,373.683,478.504,372.649,476.057z"/>
	<path style="fill:#D89E68;" d="M351.419,432.834c-0.897,1.548-1.981,2.975-3.24,4.234c-3.706,3.706-8.826,6-14.478,6H210.128
		c-4.248,0-7.033-4.378-5.315-8.263c1.03-2.331,2.483-4.436,4.262-6.214c3.706-3.706,8.826-6,14.478-6h-45.252
		c-5.652,0-10.771,2.293-14.478,6c-1.542,1.542-2.822,3.34-3.811,5.31c-0.039,0.078-0.076,0.157-0.114,0.236
		c-0.286,0.601-0.549,1.212-0.784,1.835c-0.075,0.199-0.151,0.397-0.219,0.599c-0.093,0.278-0.18,0.557-0.261,0.84
		c-0.106,0.367-0.2,0.738-0.286,1.113c-0.05,0.22-0.102,0.438-0.145,0.66c-0.098,0.504-0.174,1.015-0.234,1.532
		c-0.02,0.172-0.037,0.343-0.053,0.516c-0.055,0.606-0.093,1.216-0.093,1.836c0,1.362,0.133,2.692,0.389,3.982
		c1.853,9.409,10.146,16.494,20.088,16.494h45.251H333.7c5.652,0,10.771-2.293,14.478-6c2.836-2.836,4.843-6.491,5.621-10.576
		c0.256-1.259,0.379-2.57,0.379-3.9C354.178,439.335,353.164,435.846,351.419,432.834z"/>
</g>
<path d="M497.073,461.497c0-9.975-6.725-18.41-15.879-21.008l-0.766-18.08c-0.834-19.808-13.46-36.605-30.686-41.676
	c-14.11-43.847-15.299-83.523-3.619-121.003c3.929-0.947,7.531-2.959,10.45-5.89c4.197-4.196,6.507-9.77,6.507-15.696
	c0-9.889-6.501-18.287-15.454-21.147c3.449-7.025,5.287-14.806,5.287-22.726c0-28.412-23.115-51.527-51.527-51.527
	c-28.412,0-51.527,23.115-51.527,51.527c0,7.917,1.835,15.694,5.283,22.718c-3.337,1.06-6.395,2.911-8.942,5.459
	c-4.197,4.196-6.507,9.77-6.507,15.696c0,10.375,7.15,19.11,16.779,21.535c11.709,41.82,10.615,82.484-3.261,121.008
	c-3.972,1.159-7.762,2.968-11.241,5.34c-3.97-17.554-16.534-31.626-32.742-36.211c-4.439-13.752-7.775-27.338-9.928-40.448
	c-0.671-4.087-4.526-6.858-8.617-6.187c-4.087,0.671-6.858,4.53-6.187,8.617c2.491,15.173,6.473,30.918,11.832,46.795
	c0.886,2.625,3.147,4.549,5.882,5.001c14.159,2.343,25.355,16.377,26.044,32.65l0.805,18.846H182.942l0.804-18.853
	c0.688-16.266,11.885-30.299,26.044-32.643c0.095-0.016,0.189-0.034,0.282-0.053h38.761c4.142,0,7.501-3.358,7.501-7.501
	c0-4.142-3.358-7.501-7.501-7.501h-29.577c14.238-43.071,15.275-88.214,3.085-134.48h67.029c-5.158,18.04-7.888,36.777-8.127,55.841
	c-0.052,4.142,3.264,7.543,7.406,7.595c0.032,0,0.064,0,0.096,0c4.098,0,7.447-3.296,7.499-7.407
	c0.243-19.387,3.253-38.4,8.954-56.589c4.402-0.967,8.449-3.168,11.732-6.44c4.501-4.517,6.98-10.512,6.98-16.884
	c0-10.925-7.374-20.16-17.406-22.99v-17.399c9.69-0.551,17.406-8.61,17.406-18.436v-4.689c0-10.116-8.176-18.358-18.267-18.465
	c-3.034-11.763-13.734-20.478-26.431-20.478h-4.448V58.004h7.406c7.772,0,14.095-6.323,14.095-14.095V32.524
	c0-7.772-6.323-14.095-14.095-14.095h-7.406v-4.335C274.765,6.323,268.442,0,260.67,0h-11.385c-7.772,0-14.095,6.323-14.095,14.095
	v4.335h-5.359c-7.772,0-14.095,6.323-14.095,14.095v11.385c0,7.772,6.323,14.095,14.095,14.095h5.359v29.715h-2.399
	c-12.697,0-23.397,8.715-26.431,20.478c-10.091,0.107-18.267,8.35-18.267,18.465v4.689c0,9.826,7.715,17.885,17.406,18.436v17.391
	c-3.895,1.091-7.471,3.168-10.426,6.114c-4.501,4.517-6.98,10.512-6.98,16.885c0,11.33,7.931,20.843,18.533,23.278
	c13.288,47.092,12.055,92.906-3.669,136.308c-16.114,4.48-28.655,18.325-32.788,35.663c-3.18-2.048-6.6-3.628-10.175-4.688
	c-14.113-43.85-15.302-83.528-3.621-121.01c3.93-0.947,7.531-2.959,10.45-5.89c4.196-4.196,6.508-9.771,6.508-15.696
	c0-9.889-6.501-18.287-15.454-21.147c3.45-7.026,5.287-14.806,5.287-22.725c0-28.412-23.115-51.527-51.527-51.527
	s-51.527,23.115-51.527,51.527c0,7.916,1.835,15.694,5.283,22.718c-3.337,1.06-6.395,2.911-8.942,5.459
	c-4.196,4.196-6.508,9.771-6.508,15.696c0,10.375,7.15,19.11,16.779,21.535c11.709,41.818,10.615,82.479-3.258,121.001
	c-17.319,5.007-30.03,21.85-30.868,41.727l-0.755,17.81c-3.953,0.906-7.584,2.905-10.53,5.851c-4.116,4.133-6.384,9.613-6.384,15.43
	c0,5.477,2.027,10.489,5.371,14.327c-3.473,3.983-5.371,9.022-5.371,14.342c0,12.04,9.795,21.836,21.836,21.836h438.475
	c5.833,0,11.315-2.271,15.452-6.406c4.116-4.133,6.384-9.613,6.384-15.43c0-5.477-2.027-10.489-5.371-14.326
	C495.176,471.855,497.073,466.817,497.073,461.497z M242.691,43.002h-11.952v-9.571h11.952c4.142,0,7.501-3.358,7.501-7.501V15.002
	h9.571V25.93c0,4.142,3.358,7.501,7.501,7.501h14v9.571h-14c-4.142,0-7.501,3.358-7.501,7.501v37.216h-9.571V50.503
	C250.192,46.36,246.833,43.002,242.691,43.002z M203.094,131.351v-4.689c0-1.91,1.554-3.464,3.464-3.464h6.44
	c4.142,0,7.501-3.358,7.501-7.501v-0.686c0-6.777,5.514-12.29,12.29-12.29h46.421c6.777,0,12.29,5.514,12.29,12.29v0.686
	c0,4.142,3.358,7.501,7.501,7.501h6.44c1.91,0,3.464,1.554,3.464,3.464v4.689c0,1.91-1.554,3.464-3.464,3.464h-6.44
	c-4.142,0-7.501,3.358-7.501,7.501v22.954H220.5v-22.954c0-4.142-3.358-7.501-7.501-7.501h-6.44
	C204.65,134.817,203.094,133.262,203.094,131.351z M205.68,183.9c1.686-1.679,3.921-2.604,6.296-2.604h88.051
	c4.897,0,8.881,3.983,8.881,8.881c0,2.374-0.925,4.61-2.584,6.276c-1.686,1.679-3.921,2.604-6.296,2.604h-88.052
	c-4.897,0-8.881-3.983-8.881-8.88C203.094,187.803,204.02,185.566,205.68,183.9z M480.071,466.33
	c-1.291,1.291-3.007,2.001-4.834,2.001H376.95c-4.301-6.363-11.04-10.683-18.647-11.921c0.311-0.572,0.602-1.154,0.871-1.745
	h116.063c3.768,0,6.834,3.065,6.834,6.833C482.072,463.318,481.357,465.039,480.071,466.33z M158.223,496.998
	c-7.155,0-12.977-5.821-12.977-12.977c0-1.753,0.342-3.45,1.021-5.058c0.643-1.528,1.579-2.913,2.782-4.116
	c2.452-2.452,5.711-3.803,9.173-3.803h195.556c5.229,0,9.923,3.113,11.96,7.931c0.674,1.595,1.016,3.292,1.016,5.046
	c0,3.463-1.351,6.721-3.802,9.173c-2.453,2.452-5.711,3.803-9.174,3.803H158.223V496.998z M165.571,445.592
	c-0.164-0.823-0.246-1.671-0.246-2.523c0-3.462,1.351-6.721,3.803-9.173c2.452-2.452,5.71-3.802,9.173-3.802h155.4
	c7.155,0,12.977,5.821,12.977,12.977c0,0.851-0.077,1.66-0.247,2.497c-0.48,2.521-1.71,4.831-3.557,6.677
	c-2.451,2.452-5.709,3.802-9.173,3.802H178.302C172.118,456.045,166.764,451.653,165.571,445.592z M401.388,157.747
	c20.14,0,36.525,16.385,36.525,36.525c0,7.381-2.249,14.591-6.389,20.634h-60.273c-4.139-6.044-6.389-13.254-6.389-20.634
	C364.863,174.132,381.248,157.747,401.388,157.747z M356.809,233.057c1.357-1.356,3.16-2.104,5.079-2.104h79
	c3.965,0,7.191,3.226,7.191,7.192c0,1.918-0.75,3.725-2.123,5.098c-1.352,1.356-3.151,2.104-5.069,2.104h-79
	c-3.965,0-7.191-3.23-7.191-7.202C354.697,236.226,355.447,234.419,356.809,233.057z M360.059,394.484
	c0.061-0.01,0.122-0.022,0.182-0.033h34.716c4.142,0,7.501-3.358,7.501-7.501c0-4.142-3.358-7.501-7.501-7.501h-25.467
	c12.405-38.163,13.313-78.136,2.7-119.102h58.114c-11.145,39.867-8.96,83.251,6.527,129.135c0.886,2.625,3.148,4.55,5.883,5.002
	c12.355,2.044,22.127,14.321,22.726,28.557l0.682,16.109H361.406c-1.41-10.019-8.147-18.352-17.246-22.033l-0.518-12.151
	C347.853,399.308,353.734,395.53,360.059,394.484z M111.639,157.747c20.14,0,36.525,16.385,36.525,36.525
	c0,7.381-2.249,14.59-6.389,20.634H81.502c-4.139-6.045-6.389-13.254-6.389-20.634C75.114,174.132,91.499,157.747,111.639,157.747z
	 M67.06,233.056c1.356-1.356,3.159-2.103,5.078-2.103h79.001c3.965,0,7.191,3.226,7.191,7.192c0,1.918-0.75,3.725-2.124,5.099
	c-1.351,1.356-3.15,2.103-5.068,2.103h-79c-3.965,0-7.191-3.23-7.191-7.202C64.946,236.226,65.697,234.419,67.06,233.056z
	 M47.585,423.04c0.6-14.235,10.369-26.511,22.726-28.555c0.06-0.01,0.12-0.021,0.179-0.033h34.718c4.142,0,7.501-3.358,7.501-7.501
	c0-4.142-3.358-7.501-7.501-7.501H79.742c12.405-38.163,13.313-78.136,2.7-119.102h58.114c-11.145,39.867-8.96,83.25,6.527,129.135
	c0.886,2.624,3.146,4.548,5.878,5.001c5.856,0.972,11.301,4.24,15.453,9.245l-0.57,13.376c-3.448,1.389-6.614,3.474-9.323,6.183
	c-4.35,4.35-7.092,9.879-7.926,15.864H46.903L47.585,423.04z M31.932,456.666c1.29-1.29,3.006-2,4.833-2h116.071
	c0.27,0.592,0.56,1.173,0.869,1.741c-5.754,0.93-11.058,3.631-15.262,7.835c-1.267,1.267-2.399,2.634-3.388,4.09h-98.29
	c-3.768,0-6.834-3.065-6.834-6.834C29.93,459.677,30.646,457.957,31.932,456.666z M29.93,490.165c0-1.82,0.714-3.54,2-4.833
	c1.29-1.29,3.006-2,4.833-2h93.49c-0.006,0.23-0.008,0.46-0.008,0.69c0,4.681,1.155,9.095,3.195,12.977H36.764
	C32.996,496.998,29.93,493.933,29.93,490.165z M480.071,494.997c-1.291,1.291-3.007,2.001-4.834,2.001h-96.66
	c2.077-3.956,3.178-8.382,3.178-12.977c0-0.23-0.003-0.46-0.008-0.69h93.49c3.768,0,6.834,3.065,6.834,6.833
	C482.072,491.986,481.357,493.706,480.071,494.997z"/>
<g>
</g>
<g>
</g>
<g>
</g>
<g>
</g>
<g>
</g>
<g>
</g>
<g>
</g>
<g>
</g>
<g>
</g>
<g>
</g>
<g>
</g>
<g>
</g>
<g>
</g>
<g>
</g>
<g>
</g>
</svg>
