<?xml version="1.0" encoding="iso-8859-1"?>
<!-- Generator: Adobe Illustrator 19.0.0, SVG Export Plug-In . SVG Version: 6.00 Build 0)  -->
<svg version="1.1" id="Capa_1" xmlns="http://www.w3.org/2000/svg" xmlns:xlink="http://www.w3.org/1999/xlink" x="0px" y="0px"
	 viewBox="0 0 512 512" style="enable-background:new 0 0 512 512;" xml:space="preserve">
<path style="fill:#757574;" d="M419.746,342.577v24.557h-30.66v-24.557c0-5.291,3.88-9.577,8.66-9.577h13.33
	C415.866,333,419.746,337.286,419.746,342.577z"/>
<path style="fill:#5B5B59;" d="M406.084,345.868V333h-8.338c-4.78,0-8.66,4.286-8.66,9.578v24.557h30.66v-11.602h-3.998
	C410.411,355.532,406.084,351.205,406.084,345.868z"/>
<path id="SVGCleanerId_0" style="fill:#DDDBC7;" d="M440.756,372.04v16.72h-75.59v-16.72c0-4.5,3.65-8.14,8.14-8.14h59.31
	C437.116,363.9,440.756,367.54,440.756,372.04z"/>
<g>
	<path id="SVGCleanerId_0_1_" style="fill:#DDDBC7;" d="M440.756,372.04v16.72h-75.59v-16.72c0-4.5,3.65-8.14,8.14-8.14h59.31
		C437.116,363.9,440.756,367.54,440.756,372.04z"/>
</g>
<path style="fill:#C4C1AE;" d="M408.672,363.9h-35.366c-4.49,0-8.14,3.64-8.14,8.14v16.72h35.365v-16.72
	C400.531,367.54,404.182,363.9,408.672,363.9z"/>
<path style="fill:#ED3124;" d="M298.076,143.21v81.29l-230-2v-79.29c0-6.19,4.61-11.21,10.3-11.21h209.4
	C293.466,132,298.076,137.02,298.076,143.21z"/>
<path style="fill:#CECBB6;" d="M151.076,16.2v196.3h-32V16.2c0-4.81,3.89-8.7,8.7-8.7h14.6C147.186,7.5,151.076,11.39,151.076,16.2z
	"/>
<g>
	<path style="fill:#D8A013;" d="M247.076,163.2v49.3h-32v-49.3c0-4.81,3.89-8.7,8.7-8.7h14.6
		C243.186,154.5,247.076,158.39,247.076,163.2z"/>
	<path style="fill:#D8A013;" d="M279.076,163.2v49.3h-32v-49.3c0-4.81,3.89-8.7,8.7-8.7h14.6
		C275.186,154.5,279.076,158.39,279.076,163.2z"/>
</g>
<path style="fill:#C68E10;" d="M271.076,154.535c-0.231-0.019-0.464-0.035-0.7-0.035h-14.6c-4.81,0-8.7,3.89-8.7,8.7v49.3h16v-49.3
	C263.076,158.626,266.595,154.892,271.076,154.535z"/>
<path style="fill:#D8A013;" d="M119.076,212.5h-32v-49.3c0-4.802,3.89-8.7,8.7-8.7h14.6c4.81,0,8.7,3.898,8.7,8.7
	C119.076,163.2,119.076,212.5,119.076,212.5z"/>
<path style="fill:#C68E10;" d="M111.076,154.535c-0.231-0.019-0.464-0.035-0.7-0.035h-14.6c-4.81,0-8.7,3.898-8.7,8.7v49.3h16v-49.3
	C103.076,158.634,106.595,154.893,111.076,154.535z"/>
<path style="fill:#DDDBC7;" d="M298.076,187.8v306.4c0,5.69-4.61,10.3-10.3,10.3h-209.4c-5.69,0-10.3-4.61-10.3-10.3V187.8
	c0-5.69,4.61-10.3,10.3-10.3h25.34c4.27,0,7.94,3.02,8.77,7.21l3.25,16.48c1.3,6.57,7.06,11.31,13.76,11.31h107.16
	c6.7,0,12.46-4.74,13.76-11.31l3.25-16.48c0.83-4.19,4.5-7.21,8.77-7.21h25.34C293.466,177.5,298.076,182.11,298.076,187.8z"/>
<path style="fill:#C4C1AE;" d="M175.576,494.2V212.5h-46.08c-6.7,0-12.46-4.74-13.76-11.31l-3.25-16.48
	c-0.83-4.19-4.5-7.21-8.77-7.21h-25.34c-5.69,0-10.3,4.61-10.3,10.3v306.4c0,5.69,4.61,10.3,10.3,10.3h107.5
	C180.186,504.5,175.576,499.89,175.576,494.2z"/>
<path style="fill:#ED3124;" d="M298.076,361.92V494.2c0,5.69-4.61,10.3-10.3,10.3h-209.4c-5.69,0-10.3-4.61-10.3-10.3V361.92
	l105.25-53.7c5.81-2.97,12.69-2.98,18.51-0.04L298.076,361.92z"/>
<path style="fill:#E00E0E;" d="M175.576,494.2V307.236c-0.764,0.281-1.516,0.608-2.25,0.983l-105.25,53.7V494.2
	c0,5.334,4.052,9.719,9.247,10.247c0.346,0.035,0.698,0.053,1.053,0.053h107.5C180.186,504.5,175.576,499.89,175.576,494.2z"/>
<path style="fill:#DDDBC7;" d="M268.076,428.23v21.54c0,7.58-6.15,13.73-13.73,13.73h-142.54c-7.58,0-13.73-6.15-13.73-13.73v-21.54
	c0-7.58,6.15-13.73,13.73-13.73h142.54C261.926,414.5,268.076,420.65,268.076,428.23z"/>
<path style="fill:#C4C1AE;" d="M254.346,414.5h-142.54c-7.502,0-13.594,6.027-13.718,13.5h140.258c7.58,0,13.73,6.15,13.73,13.73
	v21.54c0,0.078-0.01,0.153-0.012,0.23h2.282c7.58,0,13.73-6.15,13.73-13.73v-21.54C268.076,420.65,261.926,414.5,254.346,414.5z"/>
<g>
	<path style="fill:#D8A013;" d="M215.076,163.2v49.3h-32v-49.3c0-4.81,3.89-8.7,8.7-8.7h14.6
		C211.186,154.5,215.076,158.39,215.076,163.2z"/>
	<path style="fill:#D8A013;" d="M183.076,163.2v49.3h-32v-49.3c0-4.81,3.89-8.7,8.7-8.7h14.6
		C179.186,154.5,183.076,158.39,183.076,163.2z"/>
</g>
<path style="fill:#B7B4A1;" d="M143.076,7.535c-0.231-0.019-0.464-0.035-0.7-0.035h-14.6c-4.81,0-8.7,3.89-8.7,8.7v196.3h16V16.2
	C135.076,11.626,138.595,7.892,143.076,7.535z"/>
<g>
	<path style="fill:#C68E10;" d="M239.076,154.535c-0.231-0.019-0.464-0.035-0.7-0.035h-14.6c-4.81,0-8.7,3.89-8.7,8.7v49.3h16v-49.3
		C231.076,158.626,234.595,154.892,239.076,154.535z"/>
	<path style="fill:#C68E10;" d="M207.076,154.535c-0.231-0.019-0.464-0.035-0.7-0.035h-14.6c-4.81,0-8.7,3.89-8.7,8.7v49.3h16v-49.3
		C199.076,158.626,202.595,154.892,207.076,154.535z"/>
	<path style="fill:#C68E10;" d="M175.076,154.535c-0.231-0.019-0.464-0.035-0.7-0.035h-14.6c-4.81,0-8.7,3.89-8.7,8.7v49.3h16v-49.3
		C167.076,158.626,170.595,154.892,175.076,154.535z"/>
</g>
<path style="fill:#D8A013;" d="M142.376,7.5h-14.6c-4.81,0-8.7,3.89-8.7,8.7v48.594h32V16.2C151.076,11.39,147.186,7.5,142.376,7.5z
	"/>
<path style="fill:#C68E10;" d="M135.076,16.2c0-4.573,3.519-8.308,8-8.665c-0.231-0.019-0.463-0.035-0.699-0.035h-14.6
	c-4.81,0-8.7,3.89-8.7,8.7v48.594h16L135.076,16.2L135.076,16.2z"/>
<path style="fill:#DDDDDD;" d="M443.926,391.707v97.283c0,8.29-6.72,15.01-15.01,15.01h-49.27c-8.29,0-15.01-6.72-15.01-15.01
	V388.76h76.343C442.607,388.76,443.926,390.079,443.926,391.707z"/>
<path style="fill:#C9C0BD;" d="M400.528,488.99V388.76h-35.892v100.23c0,8.29,6.72,15.01,15.01,15.01h35.892
	C407.249,504,400.528,497.28,400.528,488.99z"/>
<path style="fill:#757574;" d="M365.166,314.421v74.869h-17.18c-10.361,0-18.76-8.399-18.76-18.76v-41.77
	c0-10.361,8.399-18.76,18.76-18.76h12.759C363.187,310,365.166,311.979,365.166,314.421z"/>
<path style="fill:#EA3B18;" d="M442.276,268.1c0.81,17.84-8.9,25.9-17.65,29.54c-7,2.9-14.9,2.75-21.86-0.25
	c-2.37-1.02-4.47-2.04-6.34-3.04c-9.9-5.3-16.14-15.62-16.04-26.85c0.04-4.75,0.88-8.52,1.99-11.45c1.68-4.38,4.98-7.98,9.17-10.09
	c17.408-8.751,19.28-21.08,18.637-28.224c-0.175-1.945,2.283-2.931,3.537-1.433c7.121,8.503,11.95,24.465,2.747,35.037
	c-5.89,6.78-5.48,11.26-3.77,13.97c1.93,3.08,5.92,4.27,9.26,2.84c4.34-1.86,5.01-7.12,4.64-11.81c-0.36-4.39,4.71-7.09,8.1-4.27
	c1.55,1.3,2.79,2.75,3.77,4.2C440.826,259.76,442.086,263.89,442.276,268.1z"/>
<path style="fill:#DD2C10;" d="M421.632,281.073c-2.37-1.02-4.47-2.04-6.34-3.04c-9.9-5.3-16.14-15.62-16.04-26.85
	c0.04-4.75,0.88-8.52,1.99-11.45c0.06-0.156,0.137-0.304,0.201-0.458c-2.55,2.351-5.786,4.618-9.897,6.685
	c-4.19,2.11-7.49,5.71-9.17,10.09c-1.11,2.93-1.95,6.7-1.99,11.45c-0.1,11.23,6.14,21.55,16.04,26.85c1.87,1,3.97,2.02,6.34,3.04
	c6.96,3,14.86,3.15,21.86,0.25c5.937-2.47,12.313-6.98,15.547-15.195C434.061,284.1,427.512,283.608,421.632,281.073z"/>
<path style="fill:#5B5B59;" d="M360.745,310h-12.76c-0.267,0-0.526,0.029-0.79,0.04v79.21c0.264,0.011,0.523,0.04,0.79,0.04h17.18
	v-74.869C365.166,311.979,363.187,310,360.745,310z"/>
<path d="M305.576,296.514c0-4.143-3.357-7.5-7.5-7.5s-7.5,3.357-7.5,7.5v53.208l-95.358-48.236
	c-7.936-4.009-17.396-3.987-25.3,0.054l-94.342,48.135V187.8c0-1.544,1.256-2.8,2.8-2.8h25.34c0.685,0,1.279,0.491,1.412,1.161
	l3.251,16.485C110.368,212.701,119.25,220,129.496,220h107.16c10.246,0,19.128-7.299,21.118-17.358l3.249-16.475
	c0.134-0.676,0.729-1.167,1.413-1.167h25.34c1.544,0,2.8,1.256,2.8,2.8v60.443c0,4.143,3.357,7.5,7.5,7.5s7.5-3.357,7.5-7.5V143.21
	c0-10.316-7.985-18.71-17.8-18.71h-129.2V16.2c0-8.933-7.268-16.2-16.2-16.2h-14.6c-8.933,0-16.2,7.268-16.2,16.2v108.3h-33.2
	c-9.814,0-17.8,8.394-17.8,18.71V494.2c-0.002,0.098-0.002-0.098,0,0l0,0c0,9.814,7.985,17.8,17.8,17.8h209.4
	c9.814,0,17.8-7.985,17.8-17.8l0,0c0.002-0.093,0.003,0,0.002-0.093L305.576,296.514z M207.576,205h-17v-41.8
	c0-0.673,0.527-1.2,1.2-1.2h14.6c0.673,0,1.2,0.527,1.2,1.2V205z M239.576,204.306c-0.885,0.445-1.879,0.694-2.92,0.694h-14.08
	v-41.8c0-0.673,0.527-1.2,1.2-1.2h14.6c0.673,0,1.2,0.527,1.2,1.2V204.306z M271.576,170h-9.14c-2.822,0-5.508,0.725-7.86,2.012
	V163.2c0-0.673,0.527-1.2,1.2-1.2h14.6c0.673,0,1.2,0.527,1.2,1.2V170z M158.576,139.5h129.2c1.518,0,2.8,1.699,2.8,3.71v27.01
	c-0.912-0.145-1.847-0.22-2.8-0.22h-1.2v-6.8c0-8.933-7.268-16.2-16.2-16.2h-14.6c-3.199,0-6.185,0.933-8.7,2.54
	c-2.515-1.607-5.501-2.54-8.7-2.54h-14.6c-3.199,0-6.185,0.933-8.7,2.54c-2.515-1.607-5.501-2.54-8.7-2.54h-14.6
	c-3.199,0-6.185,0.933-8.7,2.54c-2.515-1.607-5.501-2.54-8.7-2.54h-14.6c-0.404,0-0.804,0.015-1.2,0.044L158.576,139.5
	L158.576,139.5z M158.576,163.2c0-0.673,0.527-1.2,1.2-1.2h14.6c0.673,0,1.2,0.527,1.2,1.2V205h-17V163.2z M126.576,16.2
	c0-0.673,0.527-1.2,1.2-1.2h14.6c0.673,0,1.2,0.527,1.2,1.2v41.094h-17C126.576,57.294,126.576,16.2,126.576,16.2z M126.576,72.294
	h17V205h-14.08c-1.041,0-2.035-0.249-2.92-0.694C126.576,204.306,126.576,72.294,126.576,72.294z M111.576,172.012
	c-2.353-1.287-5.039-2.012-7.86-2.012h-9.14v-6.8c0-0.662,0.538-1.2,1.2-1.2h14.6c0.662,0,1.2,0.538,1.2,1.2
	C111.576,163.2,111.576,172.012,111.576,172.012z M75.576,143.21c0-2.011,1.282-3.71,2.8-3.71h33.2v7.544
	c-0.396-0.029-0.796-0.044-1.2-0.044h-14.6c-8.933,0-16.2,7.268-16.2,16.2v6.8h-1.2c-0.952,0-1.887,0.076-2.8,0.22
	C75.576,170.22,75.576,143.21,75.576,143.21z M290.576,494.2c0,1.544-1.256,2.8-2.8,2.8h-209.4c-1.544,0-2.8-1.256-2.8-2.8V366.513
	l101.164-51.615c3.66-1.869,8.042-1.879,11.71-0.025l102.126,51.659L290.576,494.2L290.576,494.2z"/>
<path d="M90.576,428.23v21.539c0,11.706,9.524,21.23,21.23,21.23h142.539c11.706,0,21.23-9.524,21.23-21.23V428.23
	c0-11.706-9.524-21.23-21.23-21.23H111.806C100.1,407,90.576,416.524,90.576,428.23z M260.576,428.23v21.539
	c0,3.436-2.795,6.23-6.23,6.23h-142.54c-3.436,0-6.23-2.795-6.23-6.23V428.23c0-3.436,2.795-6.23,6.23-6.23h142.539
	C257.781,422,260.576,424.795,260.576,428.23z"/>
<path d="M448.256,382.635V372.04c0-8.624-7.016-15.64-15.64-15.64h-5.37v-14.73c0-8.916-7.254-16.17-16.17-16.17h-13.33
	c-8.911,0-16.16,7.254-16.16,16.17v14.73h-8.279c-0.215,0-0.428,0.004-0.641,0.013V310c0-4.143-3.357-7.5-7.5-7.5h-17.18
	c-14.479,0-26.26,11.78-26.26,26.26v41.771c0,14.479,11.78,26.26,26.26,26.26h9.149v92.2c0,12.412,10.099,22.51,22.511,22.51h49.279
	c12.406,0,22.5-10.098,22.5-22.51V388.76C451.426,386.23,450.174,383.994,448.256,382.635z M357.666,381.79h-9.68
	c-6.209,0-11.26-5.051-11.26-11.26v-41.77c0-6.209,5.051-11.26,11.26-11.26h9.68V381.79z M396.586,341.67
	c0-0.646,0.521-1.17,1.16-1.17h13.33c0.646,0,1.17,0.524,1.17,1.17v14.73h-15.66V341.67z M372.666,372.04
	c0-0.353,0.287-0.64,0.641-0.64h59.31c0.358,0,0.64,0.281,0.64,0.64v9.22h-60.59v-9.22H372.666z M436.426,488.99
	c0,4.141-3.364,7.51-7.5,7.51h-49.279c-4.142,0-7.511-3.369-7.511-7.51v-92.73h64.29L436.426,488.99L436.426,488.99z"/>
<path d="M392.889,300.964c2.169,1.159,4.495,2.275,6.908,3.313c4.542,1.957,9.412,2.938,14.262,2.938
	c4.598,0,9.176-0.881,13.438-2.646c0.003-0.001,0.006-0.003,0.01-0.004c15.146-6.301,23.053-19.371,22.262-36.804
	c-0.259-5.725-2.019-11.151-5.089-15.691c-1.465-2.167-3.202-4.101-5.187-5.765c-3.16-2.629-7.336-3.491-11.186-2.449
	c0.821-3.752,0.941-7.773,0.323-11.924c-1.593-10.696-8.048-21.507-15.698-26.291c-2.789-1.742-6.439-1.599-8.928,0.546
	c-2.49,2.146-3.347,5.531-2.033,8.545c0.014,0.038,1.438,3.919,0.486,8.736c-1.254,6.345-6.059,11.658-14.286,15.794
	c-5.905,2.975-10.45,7.982-12.811,14.133c-1.6,4.227-2.433,8.951-2.476,14.039C372.761,281.443,380.425,294.291,392.889,300.964z
	 M387.885,267.563c0.027-3.314,0.534-6.295,1.492-8.827c1.009-2.627,2.977-4.786,5.536-6.075
	c9.729-4.891,15.647-11.032,19.031-17.278c0.415,4.456-0.638,8.163-3.142,11.039c-9.522,10.962-6.875,19.047-4.463,22.869
	c3.859,6.159,11.84,8.634,18.57,5.753c2.982-1.278,7.435-4.379,8.833-11.698c0.605,1.577,0.959,3.298,1.04,5.094
	c0.505,11.128-3.758,18.413-13.033,22.273c-5.033,2.084-10.869,2.008-16.021-0.213c-2.031-0.873-3.972-1.804-5.765-2.763
	C392.439,283.708,387.81,275.979,387.885,267.563z"/>
<g>
</g>
<g>
</g>
<g>
</g>
<g>
</g>
<g>
</g>
<g>
</g>
<g>
</g>
<g>
</g>
<g>
</g>
<g>
</g>
<g>
</g>
<g>
</g>
<g>
</g>
<g>
</g>
<g>
</g>
</svg>
