<?xml version="1.0" encoding="iso-8859-1"?>
<!-- Generator: Adobe Illustrator 19.0.0, SVG Export Plug-In . SVG Version: 6.00 Build 0)  -->
<svg version="1.1" id="Capa_1" xmlns="http://www.w3.org/2000/svg" xmlns:xlink="http://www.w3.org/1999/xlink" x="0px" y="0px"
	 viewBox="0 0 512 512" style="enable-background:new 0 0 512 512;" xml:space="preserve">
<path style="fill:#757574;" d="M412.967,329.235v11.983c0,2.773-2.09,5.09-4.803,5.328l-32.334,2.545v-27.729l32.334,2.545
	C410.878,324.145,412.967,326.462,412.967,329.235z"/>
<path style="fill:#FFE477;" d="M308.995,499.621l158.996-0.028c3.071-0.001,4.849-3.481,3.048-5.969l-93.487-129.183L296.841,252.89
	L123.96,9.03c-0.728-1.006-1.895-1.602-3.137-1.602H90.202c-2.818,0-4.693,2.916-3.523,5.48l73.338,165.619L305.572,497.42
	C306.184,498.76,307.522,499.621,308.995,499.621z"/>
<path style="fill:#ED3124;" d="M182.208,499.621l-158.996-0.028c-3.071-0.001-4.849-3.481-3.048-5.969l93.487-129.183
	l80.712-111.551L367.243,9.03c0.728-1.006,1.895-1.602,3.137-1.602h30.621c2.818,0,4.693,2.916,3.523,5.48l-73.338,165.619
	L185.631,497.42C185.019,498.76,183.681,499.621,182.208,499.621z"/>
<polygon style="fill:#E8762A;" points="297.088,253.231 296.841,252.89 245.602,182.081 194.362,252.89 194.115,253.231 
	245.602,366.032 "/>
<path style="fill:#F9BDA0;" d="M349.586,312.449v22.778h-51.497V202.522c0-7.111,2.882-13.548,7.546-18.202
	c4.655-4.664,11.092-7.546,18.202-7.546c14.221,0,25.749,11.527,25.749,25.749V312.449z"/>
<path style="fill:#F2AB8F;" d="M331.344,184.32c1.589-1.592,3.39-2.971,5.35-4.104c-3.784-2.186-8.172-3.442-12.856-3.442
	c-7.111,0-13.548,2.882-18.202,7.546c-4.664,4.655-7.546,11.092-7.546,18.202v132.704h25.709V202.522
	C323.798,195.412,326.68,188.975,331.344,184.32z"/>
<rect x="182.666" y="358.727" style="fill:#F9BDA0;" width="164.444" height="49.041"/>
<path style="fill:#128CA0;" d="M379.791,320.449v33.517c0,3.756-2.953,6.848-6.706,7.021l-23.628,1.087l-55.973,2.367v-10.894
	v-43.574l79.602,3.454C376.838,313.6,379.791,316.692,379.791,320.449z"/>
<path style="fill:#F9BDA0;" d="M195.095,202.522l-0.097,106.951l-51.42-0.558l0.02-5.379V202.522c0-7.111,2.882-13.548,7.546-18.202
	c4.655-4.664,11.092-7.546,18.202-7.546C183.567,176.774,195.095,188.301,195.095,202.522z"/>
<path style="fill:#F2AB8F;" d="M169.287,308.915l0.02-5.379V202.522c0-7.111,2.882-13.548,7.546-18.202
	c1.588-1.592,3.39-2.971,5.35-4.104c-3.784-2.186-8.172-3.442-12.856-3.442c-7.111,0-13.548,2.882-18.202,7.546
	c-4.664,4.655-7.546,11.092-7.546,18.202v101.014l-0.02,5.379l51.42,0.558v-0.278L169.287,308.915z"/>
<polygon style="fill:#128CA0;" points="143.578,303.882 97.629,301.519 99.719,366.846 141.993,364.669 143.598,364.619 
	199.551,360.638 199.551,323.768 199.949,306.502 "/>
<path style="fill:#057771;" d="M141.993,338.425l-3.268,0.168c-21.419,1.103-39.57-15.594-40.256-37.03l0,0l-0.841-0.044
	l2.091,65.325l42.274-2.177l1.604-0.05l55.954-3.981v-26.244l-55.954,3.981L141.993,338.425z"/>
<path style="fill:#F9CB2A;" d="M107.738,306.897v56.659c0,4.416-2.18,8.555-5.834,11.034c-8.427,5.717-18.785,8.805-29.892,8.063
	c-24.095-1.608-43.357-21.492-44.249-45.623c-1.001-27.076,20.65-49.339,47.502-49.339c9.828,0,18.959,2.991,26.537,8.103
	C105.499,298.288,107.738,302.438,107.738,306.897z"/>
<g>
	<path style="fill:#057771;" d="M373.086,334.743l-23.628,1.087l-55.973,2.367v15.35v10.894l55.973-2.367l23.628-1.087
		c3.752-0.172,6.706-3.265,6.706-7.021v-26.244C379.791,331.478,376.838,334.57,373.086,334.743z"/>
	<polygon style="fill:#057771;" points="199.551,323.768 199.949,306.502 199.551,306.483 	"/>
</g>
<path style="fill:#EAA428;" d="M101.904,348.346c-8.427,5.717-18.785,8.805-29.892,8.063c-20.206-1.349-37.007-15.553-42.432-34.334
	c-1.358,4.725-2.009,9.749-1.817,14.954c0.892,24.131,20.155,44.015,44.249,45.623c11.108,0.742,21.465-2.347,29.892-8.063
	c3.654-2.48,5.834-6.618,5.834-11.034v-26.244C107.738,341.728,105.558,345.866,101.904,348.346z"/>
<path style="fill:#F9BDA0;" d="M220.796,379.163L220.796,379.163c-14.248,0-25.798-11.55-25.798-25.798v-58.198
	c0-14.248,11.55-25.798,25.798-25.798l0,0c14.248,0,25.798,11.55,25.798,25.798v58.198
	C246.594,367.613,235.044,379.163,220.796,379.163z"/>
<path style="fill:#F2AB8F;" d="M217.882,353.365v-58.198c0-10.137,5.85-18.904,14.356-23.122c-3.448-1.71-7.332-2.676-11.442-2.676
	l0,0c-14.248,0-25.798,11.55-25.798,25.798v58.198c0,14.248,11.55,25.798,25.798,25.798l0,0c4.111,0,7.994-0.967,11.442-2.676
	C223.733,372.27,217.882,363.502,217.882,353.365z"/>
<path style="fill:#F9BDA0;" d="M272.291,379.163L272.291,379.163c-14.248,0-25.798-11.55-25.798-25.798v-58.198
	c0-14.248,11.55-25.798,25.798-25.798l0,0c14.248,0,25.798,11.55,25.798,25.798v58.198
	C298.089,367.613,286.539,379.163,272.291,379.163z"/>
<path style="fill:#F2AB8F;" d="M269.377,353.365v-58.198c0-10.137,5.85-18.904,14.356-23.122c-3.448-1.71-7.332-2.676-11.442-2.676
	c-14.248,0-25.798,11.55-25.798,25.798v58.198c0,14.248,11.55,25.798,25.798,25.798c4.111,0,7.994-0.967,11.442-2.676
	C275.227,372.27,269.377,363.502,269.377,353.365z"/>
<g>
	<rect x="207.028" y="387.793" style="fill:#F9BDA0;" width="81.613" height="67.045"/>
	<path style="fill:#F9BDA0;" d="M297.316,366.954l-1.388,2.098c-1.058,1.599-2.282,3.096-3.644,4.456
		c-3.087,3.094-6.772,5.374-10.795,6.747v39.385h-39.354v13.627c0,1.366-1.111,2.476-2.476,2.476c-1.365,0-2.476-1.11-2.476-2.476
		v-13.865c0-17.835-7.112-31.045-20.565-38.199c-10.504-5.587-21.241-5.871-23.287-5.871h-0.218c-1.365,0-2.476-1.11-2.476-2.476
		s1.111-2.476,2.476-2.476h47.942c3.327,0,6.516-0.723,9.485-2.153c2.221-1.071,4.235-2.502,5.985-4.252
		c4.131-4.131,6.406-9.626,6.406-15.471c0-10.281-6.986-19.049-16.981-21.322c-1.568-0.358-3.159-0.546-4.715-0.555l-62.693-0.518
		c-8.567,0-16.671,3.356-22.818,9.45c-6.224,6.17-9.652,14.397-9.652,23.166v42.852c0,55.426,45.093,100.518,100.518,100.518
		c26.851,0,52.094-10.456,71.078-29.44c18.985-18.986,29.44-44.228,29.44-71.078v-36.915L297.316,366.954z"/>
</g>
<path style="fill:#F2AB8F;" d="M177.013,401.578v-42.852c0-8.768,3.428-16.995,9.652-23.166c5.242-5.197,11.909-8.394,19.072-9.225
	l-27.193-0.225c-8.567,0-16.671,3.356-22.818,9.45c-6.224,6.17-9.652,14.397-9.652,23.166v42.852
	c0,55.426,45.093,100.518,100.518,100.518c5.24,0,10.417-0.404,15.5-1.185C213.969,493.461,177.013,451.755,177.013,401.578z"/>
<path d="M476.843,449.609h-5.447c-4.102,0-7.427,3.325-7.427,7.427s3.326,7.427,7.427,7.427h5.447
	c13.652,0,24.758-11.107,24.758-24.758c0-13.652-11.107-24.758-24.758-24.758H451.59c-5.734,0-10.398-4.664-10.398-10.398
	c0-5.734,4.664-10.398,10.398-10.398h14.855c18.293,0,33.176-14.883,33.176-33.176c0-18.293-14.883-33.176-33.176-33.176h-46.129
	c-0.654-6.001-5.376-10.746-11.494-11.294l-21.604-1.935v-0.829c0-3.969-3.121-7.237-7.085-7.42l-23.12-1.067v-32.419
	c0-4.103-3.326-7.427-7.427-7.427c-4.102,0-7.427,3.325-7.427,7.427v31.734l-36.642-1.689V202.522
	c0-10.102,8.219-18.321,18.321-18.321c2.306,0,4.515,0.429,6.55,1.21c0.06,0.025,0.121,0.049,0.182,0.071
	c6.781,2.689,11.589,9.313,11.589,17.04v33.666c0,4.103,3.326,7.427,7.427,7.427c4.102,0,7.427-3.325,7.427-7.427v-33.666
	c0-11.276-5.655-21.255-14.277-27.253l73.06-164.832c1.018-2.297,0.806-4.954-0.564-7.06C413.861,1.271,411.519,0,409.006,0h-38.623
	c-2.407,0-4.665,1.168-6.059,3.131L246.584,169.17L128.86,3.131C127.467,1.168,125.208,0,122.801,0H84.178
	c-2.513,0-4.856,1.271-6.226,3.377c-1.371,2.106-1.583,4.763-0.564,7.06l73.06,164.832c-8.623,5.997-14.277,15.978-14.277,27.253
	v93.542l-23.633-1.215c-10.186-9.408-23.406-14.586-37.272-14.586c-30.307,0-54.963,24.656-54.963,54.963
	s24.656,54.963,54.963,54.963c4.718,0,9.361-0.6,13.836-1.762L11.809,495.242c-1.635,2.26-1.867,5.247-0.598,7.733
	c1.269,2.485,3.824,4.049,6.614,4.049l168.78,0.025c0,0,0,0,0.001,0c2.909,0,5.55-1.697,6.757-4.344l1.611-3.53
	C210.386,507.359,227.958,512,246.592,512c18.634,0,36.204-4.641,51.618-12.825l1.611,3.53c1.208,2.646,3.849,4.344,6.758,4.344
	l168.78-0.025c2.791,0,5.345-1.565,6.614-4.049c1.269-2.486,1.038-5.472-0.598-7.733l-94.954-131.221
	c0.51-1.008,0.796-2.146,0.796-3.348v-4.79l21.604-1.935l0,0c6.117-0.548,10.839-5.293,11.494-11.294h46.13
	c10.102,0,18.321,8.219,18.321,18.321c0,10.102-8.219,18.321-18.321,18.321H451.59c-13.925,0-25.253,11.328-25.253,25.253
	s11.328,25.253,25.253,25.253h25.253c5.461,0,9.903,4.443,9.903,9.903C486.747,445.167,482.304,449.609,476.843,449.609z
	 M372.364,320.834C372.393,320.836,372.334,320.832,372.364,320.834L372.364,320.834v32.746l0,0c-0.03,0.001,0.03-0.002,0,0
	l-66.847,3.083V317.75L372.364,320.834z M374.221,14.855h23.368l-68.65,154.883c-1.664-0.257-3.367-0.392-5.102-0.392
	c-18.293,0-33.176,14.883-33.176,33.176v28.815l-34.973-49.326L374.221,14.855z M290.661,257.02v10.452
	c-5.253-3.493-11.553-5.53-18.321-5.53c-10.38,0-19.661,4.791-25.749,12.278c-6.088-7.487-15.369-12.278-25.749-12.278
	c-6.768,0-13.068,2.037-18.321,5.53v-10.488l44.06-62.133L290.661,257.02z M254.019,319.502v-24.384
	c0-10.102,8.219-18.321,18.321-18.321s18.321,8.219,18.321,18.321v58.429c0,10.102-8.219,18.321-18.321,18.321
	c-2.805,0-5.508-0.623-7.955-1.804c5.243-5.67,8.45-13.247,8.45-21.559C272.836,335.637,265.09,324.486,254.019,319.502z
	 M239.164,295.118v21.589l-36.642-0.304v-21.285c0-10.102,8.219-18.321,18.321-18.321
	C230.946,276.797,239.164,285.016,239.164,295.118z M95.594,14.855h23.368l118.517,167.156l-34.957,49.295v-28.783
	c0-18.293-14.883-33.176-33.176-33.176c-1.735,0-3.438,0.134-5.102,0.392L95.594,14.855z M187.667,298.71L187.667,298.71
	l-36.642-1.884v-94.304c0-7.724,4.804-14.345,11.58-17.037c0.068-0.026,0.137-0.052,0.205-0.08c2.031-0.778,4.235-1.205,6.536-1.205
	c10.102,0,18.321,8.219,18.321,18.321V298.71C187.645,299.036,187.646,298.386,187.667,298.71z M115.373,309.87l72.294,3.716v2.695
	l-8.626-0.071c-0.122-0.001-0.242-0.001-0.362-0.001c-11.288,0-21.905,4.37-29.931,12.329c-7.829,7.764-12.261,18.022-12.561,28.998
	l-20.814,1.07L115.373,309.87L115.373,309.87z M75.265,375.335c-22.116,0-40.108-17.992-40.108-40.108s17.992-40.108,40.108-40.108
	c9.165,0,17.947,3.102,25.044,8.792v62.632C93.212,372.233,84.43,375.335,75.265,375.335z M181.831,492.192l-149.464-0.022
	l85.999-118.846l17.804-0.915v29.169c0,36.901,18.194,69.631,46.082,89.692L181.831,492.192z M246.592,497.145
	c-52.695,0-95.567-42.871-95.567-95.567v-42.853c0-7.433,2.907-14.409,8.184-19.643c5.221-5.178,12.129-8.022,19.474-8.022
	c0.078,0,0.157,0,0.236,0.001l62.262,0.516c9.264,0.069,16.8,7.662,16.8,16.926c0,9.334-7.593,16.927-16.926,16.927h-47.424
	c-0.367-0.005-0.596,0-0.675,0.002c-4.07,0.086-7.313,3.433-7.269,7.505c0.043,4.07,3.356,7.348,7.427,7.348h0.373
	c2.157,0.028,18.131,0.6,28.7,11.024c6.664,6.573,10.044,16.026,10.044,28.094v13.865c0,4.103,3.326,7.427,7.427,7.427
	c4.102,0,7.427-3.325,7.427-7.427v-13.865c0-16.262-4.908-29.312-14.588-38.788c-0.113-0.11-0.227-0.221-0.341-0.33h8.896
	c3.39,0,6.657-0.534,9.723-1.521c6.001,5.152,13.553,7.958,21.562,7.958c11.561,0,21.76-5.944,27.701-14.937l42.118-1.942v31.735
	C342.159,454.274,299.287,497.145,246.592,497.145z M460.817,492.171l-149.464,0.022l-0.421-0.922
	c27.889-20.062,46.082-52.792,46.082-89.692v-32.419l14.312-0.661L460.817,492.171z M405.54,339.328l-18.321,1.64v-11.484
	l18.321,1.64V339.328z"/>
<g>
</g>
<g>
</g>
<g>
</g>
<g>
</g>
<g>
</g>
<g>
</g>
<g>
</g>
<g>
</g>
<g>
</g>
<g>
</g>
<g>
</g>
<g>
</g>
<g>
</g>
<g>
</g>
<g>
</g>
</svg>
