<?xml version="1.0" encoding="iso-8859-1"?>
<!-- Generator: Adobe Illustrator 19.0.0, SVG Export Plug-In . SVG Version: 6.00 Build 0)  -->
<svg version="1.1" id="Capa_1" xmlns="http://www.w3.org/2000/svg" xmlns:xlink="http://www.w3.org/1999/xlink" x="0px" y="0px"
	 viewBox="0 0 512 512" style="enable-background:new 0 0 512 512;" xml:space="preserve">
<path style="fill:#898989;" d="M497.541,350.85h-13.815h-2.483H297.159h-2.473h-13.235c-3.617,0-6.535,2.928-6.535,6.535v15.249
	c0,3.607,2.918,6.535,6.535,6.535h13.235h2.473h184.083h2.483h13.815c3.847,0,6.965-3.118,6.965-6.975v-14.369
	C504.506,353.967,501.388,350.85,497.541,350.85z"/>
<path style="fill:#666666;" d="M497.541,365.009h-13.815h-2.483H297.159h-2.473h-13.235c-3.617,0-6.535-2.928-6.535-6.535v14.16
	c0,3.607,2.918,6.535,6.535,6.535h13.235h2.473h184.083h2.483h13.815c3.847,0,6.965-3.118,6.965-6.975v-14.16
	C504.506,361.891,501.388,365.009,497.541,365.009z"/>
<path style="fill:#898989;" d="M274.796,115.374v99.82c0,3.197-1.541,6.196-4.138,8.059l-21.643,15.519l-18.167,12.99
	l-18.157-28.789l20.405-9.683l11.721-8.404v-89.514c0-16.01-12.978-28.988-28.988-28.988H66.96
	c-16.01,0-28.988,12.978-28.988,28.988v89.514l11.721,8.404l19.935,8.993l-18.876,25.481l-16.977-8.993l-21.643-15.519
	c-2.597-1.863-4.138-4.862-4.138-8.059v-99.82c0-32.566,26.4-58.966,58.966-58.966h148.87
	C248.396,56.408,274.796,82.809,274.796,115.374z"/>
<path style="fill:#666666;" d="M207.889,66.828H74.901c-29.092,0-52.676,23.583-52.676,52.676v89.172c0,2.855,1.376,5.535,3.696,7.2
	l19.334,13.864l13.539,7.172l10.834-14.626l-19.935-8.993l-11.721-8.404v-89.514c0-16.01,12.978-28.988,28.988-28.988h148.87
	c16.01,0,28.988,12.978,28.988,28.988v89.514l-11.721,8.404l-20.405,9.683l10.661,16.904l14.18-10.14l19.334-13.864
	c2.32-1.664,3.696-4.344,3.696-7.2v-89.172C260.565,90.412,236.981,66.828,207.889,66.828z"/>
<path style="fill:#128CA0;" d="M141.395,176.319c68.429,0,123.908,55.479,123.908,123.908s-55.479,123.908-123.908,123.908
	S17.487,368.656,17.487,300.227S72.966,176.319,141.395,176.319z"/>
<path style="fill:#089992;" d="M115.729,257.259c0-30.898,11.314-59.153,30.021-80.856c-1.446-0.05-2.896-0.084-4.354-0.084
	c-68.429,0-123.908,55.479-123.908,123.908s55.479,123.908,123.908,123.908c37.531,0,71.164-16.692,93.887-43.052
	C168.871,378.788,115.729,324.23,115.729,257.259z"/>
<circle style="fill:#DBDDDD;" cx="141.395" cy="300.227" r="77.942"/>
<path style="fill:#BFC1C1;" d="M126.385,245.84c43.048,0,77.942,34.894,77.942,77.942c0,10.402-2.053,20.32-5.752,29.392
	c12.879-13.903,20.762-32.5,20.762-52.947c0-43.048-34.894-77.942-77.942-77.942c-32.646,0-60.586,20.076-72.19,48.55
	C83.44,255.467,103.784,245.84,126.385,245.84z"/>
<path style="fill:#8E5F39;" d="M504.126,430.331v19.066c0,3.417-2.778,6.195-6.195,6.195H13.69c-3.417,0-6.195-2.778-6.195-6.195
	v-19.066c0-3.417,2.778-6.195,6.195-6.195H497.93C501.348,424.135,504.126,426.913,504.126,430.331z"/>
<path style="fill:#7C4825;" d="M497.93,439.864H13.69c-3.417,0-6.195-2.778-6.195-6.195v15.728c0,3.417,2.778,6.195,6.195,6.195
	H497.93c3.417,0,6.195-2.778,6.195-6.195v-15.728C504.126,437.086,501.348,439.864,497.93,439.864z"/>
<g>
	<path style="fill:#128CA0;" d="M353.807,320.222v89.573c0,7.684-6.235,13.92-13.93,13.92h-28.789c-7.694,0-13.93-6.235-13.93-13.92
		v-89.574c0-7.684,6.235-13.92,13.93-13.92h28.789C347.572,306.303,353.807,312.538,353.807,320.222z"/>
	<path style="fill:#128CA0;" d="M481.243,320.222v89.573c0,7.684-6.225,13.92-13.92,13.92h-28.799c-7.684,0-13.92-6.235-13.92-13.92
		v-89.574c0-7.684,6.235-13.92,13.92-13.92h28.799C475.017,306.303,481.243,312.538,481.243,320.222z"/>
</g>
<g>
	<path style="fill:#089992;" d="M326.148,409.796v-89.573c0-7.65,6.182-13.861,13.83-13.915c-0.034,0-0.066-0.005-0.1-0.005h-28.789
		c-7.694,0-13.93,6.235-13.93,13.92v89.574c0,7.684,6.235,13.92,13.93,13.92h28.789c0.034,0,0.066-0.005,0.1-0.005
		C332.33,423.656,326.148,417.446,326.148,409.796z"/>
	<path style="fill:#089992;" d="M453.593,409.796v-89.573c0-7.652,6.184-13.864,13.825-13.915c-0.032,0-0.063-0.005-0.095-0.005
		h-28.799c-7.684,0-13.92,6.235-13.92,13.92v89.574c0,7.684,6.235,13.92,13.92,13.92h28.799c0.032,0,0.063-0.005,0.095-0.005
		C459.778,423.659,453.593,417.448,453.593,409.796z"/>
</g>
<path d="M219.331,265.173c-1.699-3.774-6.136-5.455-9.911-3.756c-3.774,1.699-5.456,6.137-3.756,9.911
	c4.1,9.103,6.178,18.826,6.178,28.899c0,38.845-31.603,70.448-70.448,70.448s-70.448-31.602-70.448-70.447
	s31.603-70.448,70.448-70.448c11.884,0,23.627,3.012,33.962,8.71c3.626,2,8.183,0.68,10.181-2.945
	c1.999-3.624,0.68-8.183-2.945-10.181c-12.545-6.916-26.791-10.572-41.198-10.572c-47.11,0-85.437,38.327-85.437,85.437
	s38.327,85.437,85.437,85.437s85.437-38.327,85.437-85.437C226.832,288.018,224.309,276.224,219.331,265.173z"/>
<path d="M488.737,386.663h8.803c7.973,0,14.459-6.491,14.459-14.469v-14.369c0-7.978-6.486-14.469-14.459-14.469h-8.803v-23.133
	c0-11.807-9.607-21.414-21.414-21.414h-28.799c-11.807,0-21.414,9.606-21.414,21.414v23.133h-55.809v-23.133
	c0-11.807-9.611-21.414-21.424-21.414h-28.789c-11.813,0-21.424,9.606-21.424,21.414v23.133h-8.214
	c-7.736,0-14.03,6.293-14.03,14.03v15.249c0,7.736,6.293,14.03,14.03,14.03h8.214v23.133c0,2.392,0.395,4.695,1.122,6.845h-88.483
	c41.871-21.996,70.494-65.925,70.494-116.414c0-21.274-5.082-41.383-14.096-59.178l20.462-14.672
	c1.963-1.408,3.127-3.675,3.127-6.09V115.374c0-36.647-29.814-66.461-66.461-66.461H66.96C30.314,48.914,0.5,78.728,0.5,115.374
	v104.912c0,2.415,1.164,4.684,3.127,6.09l20.462,14.672c-9.013,17.795-14.096,37.904-14.096,59.178
	c0,50.489,28.623,94.418,70.494,116.414H13.69c-7.548,0-13.69,6.141-13.69,13.69v19.066c0,7.548,6.141,13.69,13.69,13.69H497.93
	c7.548,0,13.69-6.141,13.69-13.69v-19.066c0-7.548-6.141-13.69-13.69-13.69h-10.314c0.727-2.15,1.122-4.453,1.122-6.845
	L488.737,386.663L488.737,386.663z M497.011,358.344v13.33h-8.274v-13.33H497.011z M432.099,320.222
	c0-3.542,2.883-6.425,6.425-6.425h28.799c3.542,0,6.425,2.882,6.425,6.425v89.573c0,3.542-2.883,6.425-6.425,6.425h-28.799
	c-3.542,0-6.425-2.883-6.425-6.425V320.222z M417.11,358.344v13.33h-55.809v-13.33H417.11z M304.654,320.222
	c0-3.542,2.887-6.425,6.435-6.425h28.789c3.548,0,6.435,2.882,6.435,6.425v89.573c0,3.542-2.887,6.425-6.435,6.425h-28.789
	c-3.548,0-6.435-2.883-6.435-6.425V320.222z M282.41,371.674v-13.33h7.255v13.33H282.41z M50.961,204.979l-5.495-3.94v-85.664
	c0-11.851,9.642-21.494,21.494-21.494h148.87c11.851,0,21.494,9.642,21.494,21.494v85.665l-5.495,3.94
	c-23.576-22.394-55.428-36.154-90.434-36.154S74.537,182.584,50.961,204.979z M15.489,216.438V115.374
	c0-28.381,23.09-51.472,51.472-51.472h148.87c28.381,0,51.472,23.09,51.472,51.472v101.064l-16.163,11.589
	c-2.76-4.181-5.753-8.197-8.959-12.027l7.005-5.022c1.964-1.408,3.128-3.675,3.128-6.09v-89.514
	c0-20.116-16.366-36.483-36.483-36.483H66.96c-20.116,0-36.483,16.366-36.483,36.483v89.514c0,2.415,1.164,4.684,3.128,6.09
	l7.005,5.022c-3.207,3.83-6.198,7.845-8.959,12.027L15.489,216.438z M24.981,300.227c0-64.19,52.223-116.414,116.414-116.414
	s116.414,52.223,116.414,116.414s-52.223,116.414-116.414,116.414S24.981,364.418,24.981,300.227z M496.631,448.097H14.989V431.63
	h481.643V448.097z M360.18,416.641c0.727-2.15,1.122-4.453,1.122-6.845v-23.133h55.809v23.133c0,2.392,0.395,4.695,1.122,6.845
	H360.18z"/>
<g>
</g>
<g>
</g>
<g>
</g>
<g>
</g>
<g>
</g>
<g>
</g>
<g>
</g>
<g>
</g>
<g>
</g>
<g>
</g>
<g>
</g>
<g>
</g>
<g>
</g>
<g>
</g>
<g>
</g>
</svg>
