<?xml version="1.0" encoding="iso-8859-1"?>
<!-- Generator: Adobe Illustrator 19.0.0, SVG Export Plug-In . SVG Version: 6.00 Build 0)  -->
<svg version="1.1" id="Capa_1" xmlns="http://www.w3.org/2000/svg" xmlns:xlink="http://www.w3.org/1999/xlink" x="0px" y="0px"
	 viewBox="0 0 512 512" style="enable-background:new 0 0 512 512;" xml:space="preserve">
<circle style="fill:#C9C0BD;" cx="216.211" cy="256" r="208.704"/>
<path style="fill:#AFA3A0;" d="M157.934,256c0-88.465,55.048-164.071,132.755-194.447c-23.538-9.2-49.152-14.257-75.949-14.257
	C99.477,47.296,6.036,140.737,6.036,256S99.477,464.704,214.74,464.704c26.797,0,52.411-5.057,75.949-14.257
	C212.982,420.071,157.934,344.465,157.934,256z"/>
<circle style="fill:#E0D5D3;" cx="216.211" cy="256" r="169.155"/>
<path style="fill:#C9B5B1;" d="M201.597,338.861c-36.24,0-65.724-29.479-65.724-65.714v-30.92c0-36.24,29.484-65.724,65.724-65.724
	h30.91c36.24,0,65.724,29.484,65.724,65.724v30.92c0,36.235-29.484,65.714-65.724,65.714H201.597z"/>
<path style="fill:#85B52A;" d="M337.309,226.531c0,6.847-2.522,13.103-6.687,17.897c4.164,4.795,6.687,11.051,6.687,17.897
	c0,6.847-2.522,13.103-6.687,17.897c4.164,4.795,6.687,11.041,6.687,17.887c0,15.085-12.232,27.317-27.317,27.317
	c-15.085,0-27.307-12.232-27.307-27.317h-35.755l-2.863-108.596v-18.548c0-15.085,12.232-27.317,27.317-27.317
	c12.752,0,23.463,8.749,26.466,20.56c2.082-0.5,4.254-0.781,6.496-0.781c15.085,0,27.307,12.232,27.307,27.317
	c0,5.415-1.582,10.46-4.294,14.704C333.436,210.456,337.309,218.043,337.309,226.531z"/>
<g>
	<path style="fill:#CC2E19;" d="M291.104,266.1c9.77,0,17.677,7.908,17.677,17.667c0,9.76-7.908,17.677-17.677,17.677
		c-9.76,0-17.667-7.918-17.667-17.677C273.437,274.008,281.345,266.1,291.104,266.1z"/>
	<path style="fill:#CC2E19;" d="M291.104,230.755c9.77,0,17.677,7.908,17.677,17.667s-7.908,17.677-17.677,17.677
		c-9.76,0-17.667-7.918-17.667-17.677S281.345,230.755,291.104,230.755z"/>
	<path style="fill:#CC2E19;" d="M279.323,187.833c12.092,0,21.881,9.8,21.881,21.881c0,12.082-9.79,21.881-21.881,21.881
		c-12.082,0-21.871-9.8-21.871-21.881C257.451,197.633,267.241,187.833,279.323,187.833z"/>
</g>
<path style="fill:#E23B3B;" d="M227.152,184.24v123.09H108.236c-9.149,0-16.576-7.417-16.576-16.576v-91.139l35.345-33.663h81.86
	C218.964,165.952,227.152,174.14,227.152,184.24z"/>
<g>
	<path style="fill:#CC2323;" d="M127.007,165.952h-0.003L91.66,199.615v0.001h22.62c7.03,0,12.727-5.699,12.727-12.728
		C127.007,186.888,127.007,165.952,127.007,165.952z"/>
	<path style="fill:#CC2323;" d="M135.873,242.227v30.92c0,12.512,3.518,24.218,9.614,34.183h81.665V184.24
		c0-2.77-0.634-5.385-1.736-7.738h-23.819C165.356,176.502,135.873,205.986,135.873,242.227z"/>
</g>
<path style="fill:#FFFFFF;" d="M285.219,242.227v30.92c0,29.108-23.593,52.701-52.711,52.701h-30.91
	c-29.108,0-52.711-23.593-52.711-52.701v-30.92c0-29.108,23.603-52.711,52.711-52.711h30.91
	C261.625,189.515,285.219,213.118,285.219,242.227z"/>
<path style="fill:#EAE1D3;" d="M257.982,316.594c-29.108,0-52.711-23.593-52.711-52.701v-30.92c0-18.038,9.069-33.954,22.888-43.457
	h-26.562c-29.108,0-52.711,23.603-52.711,52.711v30.92c0,29.108,23.603,52.701,52.711,52.701h30.91
	c11.077,0,21.349-3.421,29.832-9.254H257.982z"/>
<path style="fill:#F76626;" d="M217.162,227.853c16.436,0,29.769,13.333,29.769,29.779s-13.333,29.769-29.769,29.769
	c-16.446,0-29.779-13.323-29.779-29.769S200.716,227.853,217.162,227.853z"/>
<path style="fill:#FF3C00;" d="M214.294,257.632c0-11.601,6.638-21.645,16.32-26.561c-4.042-2.053-8.61-3.218-13.452-3.218
	c-16.446,0-29.779,13.333-29.779,29.779s13.333,29.769,29.779,29.769c4.842,0,9.41-1.164,13.452-3.215
	C220.933,279.273,214.294,269.233,214.294,257.632z"/>
<path style="fill:#ED3124;" d="M296.159,365.087v0.06c0,6.626-4.645,12.352-11.131,13.703c-44.574,9.299-89.848,9.489-135.903-0.02
	c-6.506-1.341-11.181-7.077-11.181-13.713c0-7.888,6.446-13.994,14.004-13.994c0.891,0,1.792,0.08,2.703,0.26
	c41.721,8.028,83.331,7.908,124.822-0.04C288.121,349.691,296.159,356.268,296.159,365.087z"/>
<path style="fill:#D81D19;" d="M289.983,363.71c-44.574,9.299-89.848,9.489-135.903-0.02c-5.146-1.061-9.135-4.875-10.583-9.706
	c-3.34,2.529-5.552,6.52-5.552,11.132c0,6.636,4.675,12.372,11.181,13.713c46.055,9.509,91.329,9.319,135.903,0.02
	c6.486-1.351,11.131-7.077,11.131-13.703v-0.06c0-1.376-0.216-2.689-0.58-3.933C293.967,362.381,292.072,363.275,289.983,363.71z"/>
<path style="fill:#9B9A9A;" d="M494.483,370.882v35.895c0,7.667-5.575,13.884-12.442,13.884H470.89
	c-6.867,0-12.442-6.216-12.442-13.884v-35.895c0-3.634,1.261-6.927,3.303-9.399l2.703-167.293h24.023l2.703,167.293
	C493.222,363.955,494.483,367.249,494.483,370.882z"/>
<path style="fill:#848181;" d="M471.652,406.777v-35.895c0-3.634,1.261-6.927,3.303-9.399l2.703-167.293h-13.204l-2.703,167.293
	c-2.042,2.472-3.303,5.766-3.303,9.399v35.895c0,7.667,5.575,13.884,12.442,13.884h11.151c0.346,0,0.687-0.027,1.026-0.058
	C476.681,420.019,471.652,414.058,471.652,406.777z"/>
<path style="fill:#AFAFAF;" d="M504.493,144.391v34.434c0,15.485-12.552,28.027-28.027,28.027s-28.027-12.542-28.027-28.027v-34.434
	c0-15.475,12.552-28.027,28.027-28.027c7.738,0,14.744,3.143,19.819,8.208C501.35,129.647,504.493,136.653,504.493,144.391z"/>
<path style="fill:#A09F9F;" d="M496.285,124.572c-5.075-5.065-12.082-8.208-19.819-8.208c-11.345,0-21.112,6.75-25.521,16.448
	c4.442-2.959,9.775-4.687,15.511-4.687c7.738,0,14.744,3.143,19.819,8.208c5.065,5.075,8.208,12.082,8.208,19.819v34.434
	c0,4.132-0.901,8.051-2.505,11.581c7.542-5.022,12.515-13.598,12.515-23.343v-34.434
	C504.493,136.653,501.35,129.647,496.285,124.572z"/>
<path d="M217.162,220.345c-20.56,0-37.286,16.726-37.286,37.286c0,20.554,16.726,37.276,37.286,37.276
	c20.554,0,37.276-16.722,37.276-37.276C254.438,237.072,237.716,220.345,217.162,220.345z M217.162,279.893
	c-12.281,0-22.272-9.987-22.272-22.262c0-12.281,9.991-22.272,22.272-22.272c12.275,0,22.262,9.991,22.262,22.272
	C239.424,269.907,229.437,279.893,217.162,279.893z"/>
<path d="M216.211,39.789c-57.751,0-112.046,22.49-152.883,63.328S0,198.249,0,256s22.49,112.046,63.328,152.883
	s95.132,63.328,152.883,63.328s112.046-22.49,152.883-63.328S432.422,313.751,432.422,256s-22.49-112.046-63.328-152.883
	S273.963,39.789,216.211,39.789z M216.211,457.196c-110.94,0-201.196-90.256-201.196-201.196S105.271,54.804,216.211,54.804
	S417.408,145.06,417.408,256S327.151,457.196,216.211,457.196z"/>
<path d="M348.108,149.816c-3.339,2.457-4.056,7.156-1.599,10.496c20.51,27.879,31.351,60.967,31.351,95.687
	c0,89.133-72.515,161.648-161.648,161.648S54.563,345.133,54.563,256S127.078,94.352,216.211,94.352
	c20.546,0,40.561,3.801,59.489,11.296c3.853,1.526,8.217-0.36,9.744-4.216c1.526-3.855-0.36-8.217-4.216-9.744
	c-20.695-8.196-42.57-12.351-65.016-12.351c-97.412,0-176.663,79.25-176.663,176.663s79.25,176.663,176.663,176.663
	S392.874,353.412,392.874,256c0-37.944-11.851-74.109-34.27-104.584C356.146,148.076,351.447,147.36,348.108,149.816z"/>
<path d="M278.061,343.97c-40.636,7.785-81.68,7.799-121.952,0.049c-1.352-0.267-2.753-0.403-4.161-0.403
	c-11.862,0-21.511,9.645-21.511,21.501c0,10.156,7.222,19.016,17.17,21.066c23.198,4.79,46.49,7.184,69.717,7.184
	c23.199,0,46.333-2.389,69.235-7.167c9.913-2.065,17.107-10.92,17.107-21.113c0-6.427-2.839-12.461-7.789-16.555
	C290.906,344.419,284.412,342.757,278.061,343.97z M283.497,371.501c0,0-0.001,0-0.002,0c-43.812,9.141-88.509,9.133-132.854-0.024
	c-3.007-0.62-5.189-3.295-5.189-6.36c0-3.577,2.914-6.486,6.496-6.486c0.438,0,0.845,0.039,1.284,0.125
	c42.189,8.118,85.138,8.106,127.649-0.038c1.941-0.369,3.916,0.135,5.427,1.384c0.876,0.724,2.343,2.334,2.343,5.045
	C288.652,368.206,286.484,370.878,283.497,371.501z"/>
<path d="M268.705,136.244c-18.025,1.358-32.144,16.861-32.144,35.294v10.605c-0.662-0.044-1.327-0.078-1.995-0.1
	c-1.118-13.199-12.219-23.598-25.702-23.598h-81.86c-1.928,0-3.782,0.742-5.177,2.071L86.482,194.18
	c-1.487,1.417-2.33,3.381-2.33,5.436v91.139c0,13.28,10.804,24.084,24.084,24.084h49.954c10.965,11.408,26.371,18.518,43.407,18.518
	h30.91c18.264,0,34.655-8.172,45.708-21.051c1.875,4.201,4.575,8.036,7.985,11.229c6.523,6.111,14.884,9.403,23.756,9.403
	c0.783,0,1.572-0.026,2.362-0.078c17.393-1.137,31.334-15.115,32.428-32.512c0.45-7.154-1.263-14.121-4.88-20.13
	c3.22-5.373,4.951-11.552,4.951-17.891c0-6.341-1.732-12.523-4.955-17.897c3.222-5.374,4.955-11.555,4.955-17.897
	c0-8.353-2.96-16.294-8.272-22.536c1.621-3.939,2.51-8.159,2.608-12.453c0.409-18.148-13.434-33.724-31.517-35.463
	c-1.601-0.154-3.209-0.195-4.818-0.123C296.741,143.18,283.326,135.149,268.705,136.244z M119.5,183.466v8.642h-9.074L119.5,183.466
	z M108.236,299.823c-5.001,0-9.069-4.068-9.069-9.069v-83.631h20.44c8.22,0,14.909-6.688,14.909-14.908v-18.756h74.35
	c5.179,0,9.516,3.672,10.547,8.548h-17.815c-33.204,0-60.219,27.014-60.219,60.219v30.92c0,9.573,2.246,18.631,6.239,26.676H108.236
	z M232.507,318.341h-30.91c-24.925,0-45.204-20.274-45.204-45.194v-30.92c0-24.925,20.278-45.204,45.204-45.204h30.91
	c24.925,0,45.204,20.279,45.204,45.204v30.92C277.711,298.066,257.432,318.341,232.507,318.341z M289.098,293.738
	c2.282-6.252,3.556-12.985,3.625-20.002c4.842,0.777,8.551,4.979,8.551,10.031c0,5.607-4.562,10.17-10.17,10.17
	C290.428,293.937,289.755,293.87,289.098,293.738z M292.726,258.462v-16.236c0-1.294-0.041-2.58-0.122-3.854
	c4.9,0.727,8.67,4.956,8.67,10.05C301.274,253.479,297.566,257.684,292.726,258.462z M288.709,220.595
	c-3.509-9.089-9.164-17.119-16.338-23.468c2.096-1.161,4.474-1.787,6.952-1.787c7.926,0,14.374,6.448,14.374,14.374
	C293.697,213.975,291.794,217.92,288.709,220.595z M290.576,166.06c1.012,3.981,5.033,6.411,9.03,5.449
	c2.206-0.53,4.423-0.692,6.593-0.483c10.294,0.989,18.176,9.852,17.943,20.178c-0.082,3.624-1.156,7.152-3.107,10.204
	c-2.045,3.199-1.378,7.423,1.553,9.838c4.585,3.777,7.215,9.348,7.215,15.286c0,4.768-1.722,9.375-4.848,12.975
	c-2.452,2.824-2.452,7.022,0,9.846c3.126,3.6,4.848,8.207,4.848,12.975c0,4.768-1.722,9.376-4.848,12.975
	c-2.452,2.824-2.452,7.022,0,9.846c3.429,3.949,5.136,9.012,4.806,14.258c-0.612,9.723-8.703,17.836-18.422,18.472
	c-5.562,0.36-10.839-1.52-14.875-5.3c-1.205-1.129-2.249-2.378-3.121-3.723c12.843-1.136,22.945-11.954,22.945-25.085
	c0-6.879-2.774-13.121-7.262-17.669c4.488-4.55,7.262-10.795,7.262-17.675c0-9.407-5.189-17.626-12.857-21.946
	c3.347-4.814,5.279-10.628,5.279-16.761c0-16.205-13.184-29.389-29.389-29.389c-7.568,0-14.683,2.851-20.093,7.942
	c-2.461-1.223-5.017-2.283-7.653-3.166V171.54c0-10.624,8.02-19.55,18.258-20.322C279.485,150.486,288.202,156.732,290.576,166.06z"
	/>
<path d="M512,178.825v-34.434c0-9.48-3.694-18.402-10.412-25.133c-6.721-6.708-15.642-10.402-25.123-10.402
	c-19.594,0-35.535,15.941-35.535,35.535v34.434c0,12.372,6.356,23.288,15.975,29.654l-2.621,150.56
	c-2.171,3.495-3.344,7.608-3.344,11.845v35.895c0,11.796,8.949,21.391,19.949,21.391h11.151c11.001,0,19.949-9.595,19.949-21.391
	v-35.895c0-4.236-1.173-8.349-3.344-11.845l-2.621-150.56C505.644,202.112,512,191.197,512,178.825z M483.673,361.613
	c0.03,1.7,0.636,3.339,1.718,4.651c1.022,1.237,1.585,2.878,1.585,4.619v35.895c0,3.456-2.26,6.376-4.935,6.376H470.89
	c-2.675,0-4.935-2.92-4.935-6.376v-35.895c0-1.742,0.563-3.381,1.585-4.619c1.083-1.311,1.689-2.95,1.718-4.651l2.569-147.556
	c1.518,0.199,3.068,0.302,4.64,0.302s3.121-0.103,4.64-0.302L483.673,361.613z M496.985,178.825c0,9.542-6.547,17.584-15.385,19.869
	h-10.27c-8.838-2.285-15.385-10.327-15.385-19.869v-34.434c0-11.315,9.205-20.52,20.52-20.52c5.474,0,10.63,2.136,14.505,6.005
	c3.879,3.886,6.015,9.041,6.015,14.515V178.825z"/>
<g>
</g>
<g>
</g>
<g>
</g>
<g>
</g>
<g>
</g>
<g>
</g>
<g>
</g>
<g>
</g>
<g>
</g>
<g>
</g>
<g>
</g>
<g>
</g>
<g>
</g>
<g>
</g>
<g>
</g>
</svg>
