<?xml version="1.0" encoding="iso-8859-1"?>
<!-- Generator: Adobe Illustrator 19.0.0, SVG Export Plug-In . SVG Version: 6.00 Build 0)  -->
<svg version="1.1" id="Capa_1" xmlns="http://www.w3.org/2000/svg" xmlns:xlink="http://www.w3.org/1999/xlink" x="0px" y="0px"
	 viewBox="0 0 512 512" style="enable-background:new 0 0 512 512;" xml:space="preserve">
<path style="fill:#666666;" d="M372.79,45.5H341.5v74l31.124-0.004c0.056,0,0.11,0.004,0.166,0.004c20.43,0,37-16.57,37-37
	S393.22,45.5,372.79,45.5z"/>
<path style="fill:#F46F2C;" d="M328.92,324.5v22H196.51l-3.01-6l-6.97-14.39c-2.78-5.73-0.31-12.66,5.51-15.27
	c19.08-8.57,40.22-13.34,62.46-13.34h47.42C316.83,297.5,328.92,309.59,328.92,324.5z"/>
<path style="fill:#E25D23;" d="M271.5,450.5v4c0,17.12-13.88,31-31,31h-41.42c-3.27,0-5.93-2.65-5.93-5.92V450.5v-9.45h78.35V450.5z
	"/>
<path style="fill:#EA863B;" d="M456.5,404.85v16.32c0,16.2-13.13,29.33-29.33,29.33H128.5c0-34.8,14.1-66.3,36.9-89.1
	c22.8-22.8,54.3-36.9,89.1-36.9h121.65C420.52,324.5,456.5,360.48,456.5,404.85z"/>
<path style="fill:#F46F2C;" d="M128.5,450.5h298.67c16.2,0,29.33-13.13,29.33-29.33v-16.32c0-4.027-0.305-7.982-0.877-11.85H142.352
	C133.498,410.238,128.5,429.784,128.5,450.5z"/>
<path style="fill:#E25D23;" d="M325.5,393v9.65c0,12.62-10.23,22.85-22.85,22.85h-9.7c-1.91,0-3.45-1.54-3.45-3.45V393H325.5z"/>
<path style="fill:#F46F2C;" d="M376.15,324.5h-13.127v126h64.147c16.2,0,29.33-13.13,29.33-29.33v-16.32
	C456.5,360.48,420.52,324.5,376.15,324.5z"/>
<circle style="fill:#ED612F;" cx="396.5" cy="377.5" r="11.5"/>
<path style="fill:#E25D23;" d="M64.37,450.5h73.13c0,29.82-24.18,54-54,54H64.37c-4.35,0-7.87-3.52-7.87-7.87v-38.26
	C56.5,454.02,60.02,450.5,64.37,450.5z"/>
<g>
	<path style="fill:#F46F2C;" d="M315.5,342.5c8.28,0,15,6.72,15,15s-6.72,15-15,15s-15-6.72-15-15S307.22,342.5,315.5,342.5z"/>
	<path style="fill:#F46F2C;" d="M271.5,346.5c6.08,0,11,4.92,11,11s-4.92,11-11,11s-11-4.92-11-11S265.42,346.5,271.5,346.5z"/>
	<circle style="fill:#F46F2C;" cx="227.5" cy="357.5" r="9"/>
</g>
<path style="fill:#F9CB2A;" d="M116,191.64c0,1.28-0.08,2.59-0.24,3.9l-4.98,40.51c-1.63,13.27-12.91,23.25-26.28,23.25
	s-24.65-9.98-26.28-23.25l-4.98-40.51c-2.31-18.78,12.34-35.34,31.26-35.34C102.1,160.2,116,174.52,116,191.64z"/>
<path style="fill:#F2A41C;" d="M89.47,236.05l-4.98-40.51c-1.612-13.107,5.042-25.124,15.637-31.193
	c-4.587-2.628-9.909-4.147-15.627-4.147c-18.92,0-33.57,16.56-31.26,35.34l4.98,40.51c1.63,13.27,12.91,23.25,26.28,23.25
	c5.81,0,11.225-1.887,15.625-5.107C94.4,250.003,90.392,243.553,89.47,236.05z"/>
<path style="fill:#EA3B18;" d="M53.083,193.891c0.039,0.548,0.089,1.097,0.157,1.649l4.667,37.96h53.187l4.667-37.96
	c0.067-0.551,0.112-1.101,0.151-1.649H53.083z"/>
<path style="fill:#ED3124;" d="M89.157,233.5l-4.667-37.96c-0.068-0.553-0.1-1.101-0.139-1.649H53.083
	c0.039,0.548,0.089,1.097,0.157,1.649l4.667,37.96H89.157z"/>
<path style="fill:#EA3B18;" d="M271.5,156.5c18.23,0,33,14.77,33,33c0,9.12-3.69,17.36-9.66,23.34c-5.98,5.97-14.22,9.66-23.34,9.66
	h-30c-18.23,0-33-14.77-33-33c0-9.12,3.69-17.36,9.66-23.34c5.98-5.97,14.22-9.66,23.34-9.66H271.5z"/>
<path style="fill:#ED3124;" d="M256.475,189.5c0-9.12,3.69-17.36,9.66-23.34c3.935-3.928,8.852-6.86,14.351-8.412
	c-2.858-0.807-5.869-1.248-8.985-1.248h-30c-9.12,0-17.36,3.69-23.34,9.66c-5.97,5.98-9.66,14.22-9.66,23.34c0,18.23,14.77,33,33,33
	h30c3.119,0,6.131-0.441,8.989-1.248C266.63,217.34,256.475,204.614,256.475,189.5z"/>
<path style="fill:#F9CB2A;" d="M208.525,190.5c0.53,17.766,15.08,32,32.975,32h30c9.12,0,17.36-3.69,23.34-9.66
	c5.75-5.76,9.375-13.619,9.635-22.34H208.525z"/>
<path style="fill:#F2A41C;" d="M274.104,222.388c0.617-0.049,1.23-0.111,1.836-0.194c0.073-0.01,0.146-0.018,0.219-0.028
	c1.477-0.211,2.922-0.517,4.33-0.915c-13.552-3.826-23.556-16.08-23.994-30.752h-47.97c0.066,2.221,0.351,4.386,0.835,6.476l0,0
	c0.12,0.52,0.253,1.036,0.398,1.546c0.001,0.004,0.002,0.008,0.003,0.012c0.144,0.506,0.299,1.007,0.466,1.502
	c0.003,0.01,0.007,0.019,0.01,0.029c0.165,0.49,0.342,0.975,0.529,1.454c0.006,0.015,0.012,0.03,0.017,0.044
	c0.186,0.473,0.382,0.94,0.589,1.402c0.01,0.022,0.02,0.043,0.03,0.065c0.204,0.454,0.418,0.902,0.642,1.345
	c0.015,0.029,0.03,0.058,0.045,0.087c0.221,0.434,0.452,0.863,0.691,1.286c0.021,0.036,0.042,0.073,0.063,0.109
	c0.237,0.414,0.482,0.823,0.735,1.225c0.028,0.044,0.056,0.087,0.084,0.13c0.25,0.393,0.508,0.78,0.774,1.161
	c0.036,0.052,0.073,0.103,0.11,0.155c0.261,0.37,0.529,0.735,0.805,1.093c0.046,0.06,0.094,0.12,0.141,0.18
	c0.271,0.347,0.547,0.689,0.832,1.024c0.057,0.067,0.116,0.134,0.174,0.201c0.279,0.324,0.562,0.643,0.853,0.955
	c0.07,0.075,0.142,0.149,0.213,0.223c0.284,0.3,0.573,0.596,0.868,0.885c0.083,0.081,0.169,0.16,0.253,0.241
	c0.288,0.276,0.58,0.55,0.878,0.816c0.098,0.087,0.199,0.172,0.299,0.259c0.291,0.253,0.584,0.504,0.884,0.747
	c0.113,0.091,0.228,0.179,0.342,0.269c0.293,0.231,0.588,0.46,0.889,0.682c0.128,0.094,0.259,0.184,0.388,0.276
	c0.293,0.209,0.588,0.417,0.888,0.617c0.145,0.096,0.293,0.188,0.44,0.282c0.291,0.187,0.583,0.374,0.88,0.552
	c0.162,0.097,0.328,0.189,0.492,0.283c0.289,0.167,0.578,0.333,0.873,0.491c0.178,0.095,0.36,0.184,0.54,0.276
	c0.287,0.147,0.573,0.295,0.864,0.434c0.197,0.094,0.397,0.18,0.596,0.27c0.281,0.127,0.562,0.256,0.848,0.375
	c0.214,0.089,0.432,0.17,0.648,0.255c0.277,0.109,0.553,0.22,0.834,0.322c0.23,0.083,0.464,0.157,0.697,0.236
	c0.273,0.092,0.544,0.187,0.82,0.272c0.247,0.076,0.499,0.142,0.748,0.212c0.266,0.075,0.531,0.154,0.8,0.223
	c0.266,0.068,0.537,0.125,0.805,0.186c0.258,0.059,0.515,0.123,0.775,0.176c0.286,0.058,0.576,0.104,0.865,0.155
	c0.248,0.043,0.494,0.093,0.744,0.13c0.315,0.048,0.635,0.082,0.953,0.121c0.228,0.028,0.453,0.062,0.682,0.085
	c0.359,0.036,0.722,0.058,1.085,0.083c0.193,0.013,0.383,0.033,0.577,0.043c0.557,0.028,1.118,0.042,1.682,0.042h30
	c0.71,0,1.413-0.029,2.112-0.074C273.776,222.416,273.94,222.401,274.104,222.388z"/>
<path style="fill:#F9CB2A;" d="M493.35,183.36c4.87,5.38,4.87,12.9,0,18.28c-11.04,12.22-33.1,32.36-58.51,32.36
	c-25.23,0-47.15-19.84-58.27-32.08c-5.04-5.55-5.04-13.29,0-18.84c11.12-12.24,33.04-32.08,58.27-32.08
	C460.25,151,482.31,171.14,493.35,183.36z"/>
<path style="fill:#F2A41C;" d="M458.55,209.5c-25.23,0-47.15-19.84-58.27-32.08c-3.325-3.661-4.442-8.273-3.38-12.583
	c-8.443,5.993-15.434,12.854-20.33,18.243c-5.04,5.55-5.04,13.29,0,18.84c11.12,12.24,33.04,32.08,58.27,32.08
	c25.41,0,47.47-20.14,58.51-32.36c1.659-1.833,2.739-3.916,3.267-6.076C485.858,203.229,472.727,209.5,458.55,209.5z"/>
<path style="fill:#EA3B18;" d="M493.35,183.36c-7.158-7.922-18.95-19.168-33.282-26.102c-4.274,10.199-6.758,22.279-6.758,35.242
	s2.484,25.043,6.758,35.242c14.332-6.934,26.124-18.18,33.282-26.102C498.22,196.26,498.22,188.74,493.35,183.36z"/>
<path style="fill:#ED3124;" d="M494.603,200.031c0.268-0.393,0.517-0.792,0.739-1.2c0.029-0.052,0.061-0.104,0.089-0.157
	c0.53-1.004,0.926-2.047,1.186-3.109l0,0c-10.759,7.665-23.891,13.936-38.067,13.936c-1.275,0-2.539-0.063-3.796-0.161
	c1.152,6.594,2.959,12.785,5.314,18.404c0.001,0,0.001-0.001,0.002-0.001c0.867-0.419,1.724-0.856,2.572-1.306
	c0.052-0.027,0.103-0.055,0.155-0.082c2.584-1.376,5.076-2.883,7.465-4.471c0.034-0.023,0.068-0.046,0.103-0.068
	c2.392-1.596,4.679-3.273,6.848-4.984c0.03-0.024,0.06-0.048,0.09-0.072c0.68-0.538,1.347-1.078,2.003-1.621
	c0.053-0.044,0.107-0.088,0.16-0.132c1.373-1.14,2.694-2.286,3.957-3.426c0.038-0.034,0.075-0.069,0.113-0.103
	c0.563-0.51,1.114-1.018,1.654-1.524c0.105-0.099,0.21-0.197,0.314-0.295c0.51-0.481,1.01-0.959,1.499-1.434
	c0.065-0.063,0.132-0.127,0.197-0.19c0.555-0.542,1.097-1.079,1.622-1.609c0.049-0.05,0.096-0.098,0.145-0.148
	c0.451-0.456,0.89-0.906,1.318-1.352c0.137-0.142,0.271-0.282,0.405-0.423c0.349-0.366,0.69-0.727,1.023-1.083
	c0.124-0.133,0.25-0.267,0.372-0.398c0.435-0.469,0.86-0.931,1.265-1.38c0.378-0.418,0.718-0.852,1.036-1.294
	C494.461,200.242,494.531,200.136,494.603,200.031z"/>
<path style="fill:#757574;" d="M341.5,45.5c-20.43,0-37,16.57-37,37s16.57,37,37,37s37-16.57,37-37S361.93,45.5,341.5,45.5z"/>
<path style="fill:#128CA0;" d="M486.5,7.5c9.94,0,18,8.06,18,18c0,4.97-2.02,9.47-5.27,12.73c-3.26,3.25-7.76,5.27-12.73,5.27
	H361.48c-5.51,0-9.98-4.47-9.98-9.98V17.48c0-5.51,4.47-9.98,9.98-9.98H486.5z"/>
<path style="fill:#757574;" d="M351.5,13.5v24L11.78,33.67c-2.37-0.03-4.28-1.96-4.28-4.33v-7.68c0-2.37,1.91-4.3,4.28-4.33
	L351.5,13.5z"/>
<circle style="fill:#FFFFFF;" cx="341.5" cy="82.5" r="12.706"/>
<circle cx="396.5" cy="377.5" r="11.5"/>
<path d="M376.15,317h-40.554c-3.434-15.429-17.23-27-33.678-27H254.5c-22.805,0-44.855,4.709-65.537,13.995
	c-4.657,2.091-8.184,5.892-9.934,10.701c-1.759,4.836-1.493,10.05,0.75,14.682l3.84,7.929c-8.425,5.297-16.314,11.58-23.523,18.789
	c-2.929,2.93-2.929,7.678,0,10.607c2.929,2.928,7.678,2.928,10.606,0c7.45-7.45,15.718-13.786,24.602-18.924
	c0.496-0.124,0.986-0.299,1.464-0.531c0.746-0.361,1.405-0.831,1.968-1.379C215.693,336.808,234.726,332,254.5,332h101.023v53.79
	H271.5c-4.143,0-7.5,3.357-7.5,7.5s3.357,7.5,7.5,7.5H282v21.26c0,6.038,4.912,10.95,10.95,10.95h9.7
	c16.734,0,30.35-13.615,30.35-30.35v-1.86h22.523V443H136.238c1.074-16.919,5.765-33.502,13.726-48.369
	c1.955-3.652,0.58-8.197-3.071-10.152c-3.65-1.955-8.197-0.582-10.152,3.07c-9.123,17.037-14.435,36.066-15.528,55.451H64.37
	C55.895,443,49,449.895,49,458.37v38.26c0,8.476,6.895,15.37,15.37,15.37H83.5c31.373,0,57.334-23.613,61.045-54h41.105v21.58
	c0,7.399,6.025,13.42,13.43,13.42h41.42c20.049,0,36.568-15.405,38.342-35H427.17c20.108,0,36.502-16.196,36.825-36.229
	c0.003-0.09,0.005-0.18,0.005-0.271c0-0.037-0.001-0.073-0.001-0.11c0-0.073,0.001-0.147,0.001-0.22v-16.32
	C464,356.409,424.591,317,376.15,317z M254.5,317c-20.318,0-39.942,4.506-57.73,13.046l-3.49-7.207
	c-0.622-1.283-0.363-2.44-0.154-3.016c0.204-0.561,0.732-1.583,1.981-2.145C213.844,309.266,233.827,305,254.5,305h47.418
	c8.096,0,15.055,4.96,18,12H254.5z M318,402.65c0,8.464-6.886,15.35-15.35,15.35H297v-17h21V402.65z M76,497H64.37
	c-0.208,0-0.37-0.162-0.37-0.37v-38.26c0-0.208,0.163-0.37,0.37-0.37H76V497z M91,496.396V458h38.396
	C126.197,477.645,110.645,493.196,91,496.396z M240.5,478h-39.85v-20h63.09C262.044,469.304,252.269,478,240.5,478z M449,414h-29.5
	c-4.143,0-7.5,3.357-7.5,7.5s3.357,7.5,7.5,7.5h28.048c-3.154,8.181-11.099,14-20.378,14h-56.646V332h5.627
	c40.169,0,72.85,32.681,72.85,72.85V414H449z"/>
<path d="M186,393.5c0,4.143,3.358,7.5,7.5,7.5h49c4.142,0,7.5-3.357,7.5-7.5s-3.358-7.5-7.5-7.5h-49
	C189.358,386,186,389.357,186,393.5z"/>
<path d="M338,357.5c0-12.406-10.094-22.5-22.5-22.5S293,345.094,293,357.5s10.094,22.5,22.5,22.5S338,369.906,338,357.5z M308,357.5
	c0-4.136,3.364-7.5,7.5-7.5s7.5,3.364,7.5,7.5s-3.364,7.5-7.5,7.5S308,361.636,308,357.5z"/>
<path d="M290,357.5c0-10.201-8.299-18.5-18.5-18.5s-18.5,8.299-18.5,18.5s8.299,18.5,18.5,18.5S290,367.701,290,357.5z M268,357.5
	c0-1.93,1.57-3.5,3.5-3.5s3.5,1.57,3.5,3.5s-1.57,3.5-3.5,3.5S268,359.43,268,357.5z"/>
<path d="M244,357.5c0-9.098-7.402-16.5-16.5-16.5s-16.5,7.402-16.5,16.5s7.402,16.5,16.5,16.5S244,366.598,244,357.5z M226,357.5
	c0-0.827,0.673-1.5,1.5-1.5s1.5,0.673,1.5,1.5s-0.673,1.5-1.5,1.5S226,358.327,226,357.5z"/>
<path d="M84.5,311.545c4.616,4.604,10.981,7.455,18,7.455c14.061,0,25.5-11.439,25.5-25.5v-0.986l0.34,0.227
	c1.279,0.853,2.724,1.261,4.153,1.261c2.423,0,4.802-1.173,6.247-3.341c2.298-3.446,1.367-8.103-2.08-10.4l-12-8
	c-0.028-0.019-0.056-0.036-0.084-0.054c-0.011-0.007-0.022-0.015-0.033-0.022c-1.127-0.722-2.377-1.105-3.629-1.173
	c-0.006,0-0.012-0.001-0.018-0.001c-0.072-0.004-0.143-0.007-0.215-0.008l-0.021-0.001c-0.072-0.001-0.144-0.002-0.216-0.001
	c-0.026,0-0.052,0.001-0.077,0.001c-0.042,0.001-0.085,0.002-0.127,0.003c-0.036,0.001-0.072,0.003-0.108,0.005
	c-0.03,0.001-0.061,0.003-0.091,0.005c-0.153,0.01-0.306,0.023-0.458,0.042c-0.01,0.001-0.021,0.002-0.031,0.004
	c-0.054,0.007-0.109,0.014-0.163,0.022c-0.005,0.001-0.01,0.001-0.015,0.002c-0.169,0.026-0.338,0.057-0.505,0.095
	c-0.008,0.002-0.015,0.003-0.023,0.005c-0.053,0.012-0.107,0.025-0.16,0.038c-0.009,0.002-0.018,0.004-0.026,0.007
	c-0.098,0.025-0.195,0.052-0.292,0.08c-0.013,0.004-0.025,0.007-0.038,0.011c-0.036,0.011-0.071,0.022-0.106,0.033
	c-0.036,0.011-0.073,0.023-0.109,0.035c-0.028,0.009-0.056,0.019-0.084,0.029c-0.064,0.022-0.129,0.045-0.193,0.07h-0.001
	c-0.352,0.133-0.694,0.293-1.024,0.479l-12.868,6.929c-3.647,1.964-5.012,6.513-3.048,10.159c1.963,3.646,6.512,5.011,10.159,3.048
	l1.944-1.047v2.443c0,5.79-4.71,10.5-10.5,10.5S92,299.29,92,293.5v-27.537c13.707-3.105,24.448-14.541,26.224-28.998l4.98-40.515
	c0.196-1.604,0.296-3.223,0.296-4.811c0-18.911-13.571-34.715-31.5-38.216V139.5c0-4.143-3.358-7.5-7.5-7.5s-7.5,3.357-7.5,7.5
	v13.93c-8.337,1.635-15.994,5.967-21.709,12.43c-7.397,8.362-10.857,19.515-9.494,30.596l4.98,40.509
	c1.776,14.458,12.517,25.894,26.224,28.999V293.5c0,5.79-4.71,10.5-10.5,10.5S56,299.29,56,293.5v-0.986l0.34,0.227
	c1.279,0.853,2.724,1.261,4.153,1.261c2.423,0,4.802-1.173,6.247-3.341c2.298-3.446,1.367-8.103-2.08-10.4l-11.868-7.912
	c-0.306-0.213-0.625-0.402-0.956-0.566c-1.104-0.55-2.294-0.803-3.47-0.781c-0.006,0-0.011,0-0.017,0
	c-0.046,0.001-0.092,0.002-0.137,0.004c-0.023,0.001-0.046,0.002-0.069,0.003c-0.029,0.001-0.057,0.003-0.086,0.004
	c-0.041,0.002-0.081,0.005-0.122,0.008c-0.01,0.001-0.021,0.001-0.032,0.002c-0.76,0.06-1.518,0.236-2.246,0.535
	c-0.032,0.013-0.064,0.027-0.096,0.041c-0.019,0.008-0.038,0.016-0.057,0.024c-0.458,0.199-0.898,0.444-1.312,0.735L32.34,280.26
	c-3.447,2.298-4.378,6.954-2.08,10.4c1.445,2.168,3.823,3.341,6.247,3.341c1.43,0,2.875-0.408,4.153-1.261l0.34-0.227v0.986
	c0,14.061,11.439,25.5,25.5,25.5C73.519,319,79.884,316.149,84.5,311.545z M66.526,175.797c4.552-5.146,11.103-8.097,17.974-8.097
	c11.31,0,20.817,7.844,23.343,18.364c-15.914,2.617-30.709,2.592-46.648-0.078C62.111,182.247,63.922,178.741,66.526,175.797z
	 M61.496,201.225c7.908,1.198,15.584,1.797,23.261,1.797c7.507,0,15.014-0.573,22.739-1.719l-2.818,22.921
	c-13.43,2.378-26.97,2.348-40.365-0.09L61.496,201.225z M66.825,239.731c5.955,0.838,11.929,1.257,17.907,1.257
	c5.808,0,11.62-0.396,17.417-1.188c-2.806,7.086-9.722,12-17.649,12C76.547,251.8,69.613,246.854,66.825,239.731z"/>
<path d="M256.5,134c-4.142,0-7.5,3.357-7.5,7.5v7.5h-7.5c-10.812,0-20.982,4.209-28.647,11.861
	C205.209,168.517,201,178.688,201,189.5c0,22.332,18.168,40.5,40.5,40.5h7.5v6.5c0,4.143,3.358,7.5,7.5,7.5
	c4.143,0,7.5-3.357,7.5-7.5V230h7.5c10.813,0,20.983-4.209,28.647-11.861C307.791,210.483,312,200.313,312,189.5
	c0-22.332-18.168-40.5-40.5-40.5H264v-7.5C264,137.357,260.643,134,256.5,134z M289.541,207.532
	c-4.823,4.815-11.23,7.468-18.041,7.468h-30c-11.17,0-20.685-7.219-24.125-17.237c12.546,1.634,25.613,2.451,39.134,2.451
	c12.631,0,25.658-0.713,39.021-2.139C294.279,201.592,292.253,204.816,289.541,207.532z M271.5,164
	c11.786,0,21.73,8.038,24.639,18.919c-28.218,3.173-54.808,3.056-79.192-0.349c1.165-4.157,3.381-7.968,6.512-11.103
	C228.283,166.652,234.69,164,241.5,164H271.5z"/>
<path d="M498.91,206.673c7.432-8.21,7.434-20.128,0.005-28.34c-10.749-11.899-31.706-31.173-56.915-34.375V137.5
	c0-4.143-3.357-7.5-7.5-7.5s-7.5,3.357-7.5,7.5v6.549c-24.771,3.443-45.365,22.303-55.981,33.99
	c-7.61,8.38-7.61,20.544,0.001,28.925c10.616,11.686,31.209,30.545,55.98,33.989V276.5c0,7.444-6.056,13.5-13.5,13.5
	s-13.5-6.056-13.5-13.5v-7.627l6.589,4.027c1.222,0.746,2.57,1.102,3.904,1.102c2.526,0,4.993-1.276,6.406-3.59
	c2.16-3.534,1.046-8.15-2.488-10.311l-18-11c-2.46-1.502-5.563-1.463-7.985,0.103l-17,11c-3.478,2.25-4.473,6.894-2.223,10.371
	c2.251,3.479,6.896,4.472,10.371,2.223l5.426-3.511v7.214c0,15.715,12.785,28.5,28.5,28.5c8.302,0,15.786-3.569,21-9.252
	c5.214,5.684,12.698,9.252,21,9.252c15.715,0,28.5-12.785,28.5-28.5v-7.214l5.426,3.511c3.476,2.25,8.121,1.256,10.371-2.223
	c2.25-3.478,1.255-8.121-2.223-10.371l-17-11c-2.42-1.566-5.522-1.605-7.985-0.103l-18,11c-3.534,2.16-4.648,6.776-2.488,10.311
	c1.414,2.313,3.88,3.59,6.406,3.59c1.333,0,2.684-0.355,3.904-1.102l6.589-4.027v7.627c0,7.444-6.056,13.5-13.5,13.5
	s-13.5-6.056-13.5-13.5v-35.458C467.209,237.84,488.165,218.566,498.91,206.673z M464.059,168.009
	c10.02,6.275,18.332,14.408,23.725,20.378c0.002,0.002,0.004,0.004,0.005,0.006c2.293,2.533,2.293,5.68-0.005,8.219
	c-5.47,6.055-13.942,14.334-24.152,20.644C458.375,200.039,458.517,183.842,464.059,168.009z M434.84,226.5
	c-22.453,0-42.667-18.56-52.718-29.622c-2.452-2.7-2.452-6.056-0.001-8.755c10.052-11.063,30.266-29.623,52.719-29.623
	c5.392,0,10.654,1.069,15.677,2.848c-7.384,19.937-7.561,40.925-0.531,62.49C445.123,225.505,440.042,226.5,434.84,226.5z"/>
<path d="M341.5,63c-10.752,0-19.5,8.748-19.5,19.5s8.748,19.5,19.5,19.5S361,93.252,361,82.5S352.252,63,341.5,63z M341.5,87
	c-2.481,0-4.5-2.019-4.5-4.5s2.019-4.5,4.5-4.5s4.5,2.019,4.5,4.5S343.981,87,341.5,87z"/>
<path d="M486.5,0H361.48c-5.266,0-9.996,2.341-13.203,6.036L11.684,9.831C5.241,9.913,0,15.22,0,21.66v7.68
	c0,6.44,5.241,11.747,11.695,11.83L21,41.275V53.5C21,64.804,30.196,74,41.5,74S62,64.804,62,53.5V41.737l22,0.248V53.5
	C84,64.804,93.196,74,104.5,74S125,64.804,125,53.5V42.447l22,0.248V53.5c0,11.304,9.196,20.5,20.5,20.5S188,64.804,188,53.5V43.157
	l22,0.248V53.5c0,11.304,9.196,20.5,20.5,20.5S251,64.804,251,53.5v-9.633l67.163,0.757C305.473,52.472,297,66.515,297,82.5
	c0,24.537,19.963,44.5,44.5,44.5h31c24.537,0,44.5-19.963,44.5-44.5c0-12.293-5.011-23.438-13.098-31.5H486.5
	c6.799,0,13.2-2.648,18.043-7.475C509.352,38.7,512,32.299,512,25.5C512,11.439,500.561,0,486.5,0z M47,53.5
	c0,3.032-2.467,5.5-5.5,5.5S36,56.532,36,53.5V41.444l11,0.124V53.5z M110,53.5c0,3.032-2.467,5.5-5.5,5.5S99,56.532,99,53.5V42.154
	l11,0.124V53.5z M173,53.5c0,3.033-2.467,5.5-5.5,5.5s-5.5-2.467-5.5-5.5V42.864l11,0.124V53.5z M236,53.5
	c0,3.033-2.467,5.5-5.5,5.5s-5.5-2.467-5.5-5.5v-9.926l11,0.124V53.5z M15,26.206v-1.412l329-3.709v8.83L15,26.206z M341.5,112
	c-16.267,0-29.5-13.233-29.5-29.5S325.233,53,341.5,53S371,66.233,371,82.5S357.767,112,341.5,112z M374.873,111.905
	C381.795,104.058,386,93.761,386,82.5s-4.205-21.558-11.127-29.405C390.034,54.307,402,67.032,402,82.5
	S390.034,110.693,374.873,111.905z M493.936,32.918C491.942,34.905,489.302,36,486.5,36H361.48c-1.368,0-2.48-1.112-2.48-2.48V17.48
	c0-1.368,1.112-2.48,2.48-2.48H486.5c5.79,0,10.5,4.71,10.5,10.5C497,28.302,495.905,30.942,493.936,32.918z"/>
<g>
</g>
<g>
</g>
<g>
</g>
<g>
</g>
<g>
</g>
<g>
</g>
<g>
</g>
<g>
</g>
<g>
</g>
<g>
</g>
<g>
</g>
<g>
</g>
<g>
</g>
<g>
</g>
<g>
</g>
</svg>
