<?xml version="1.0" encoding="iso-8859-1"?>
<!-- Generator: Adobe Illustrator 19.0.0, SVG Export Plug-In . SVG Version: 6.00 Build 0)  -->
<svg version="1.1" id="Capa_1" xmlns="http://www.w3.org/2000/svg" xmlns:xlink="http://www.w3.org/1999/xlink" x="0px" y="0px"
	 viewBox="0 0 512 512" style="enable-background:new 0 0 512 512;" xml:space="preserve">
<g>
	<path style="fill:#5B5B59;" d="M172.5,357.302v26.13c0,2.52-2.05,4.57-4.57,4.57h-22.01c-2.53,0-4.58-2.05-4.58-4.57v-26.13H172.5z
		"/>
	<path style="fill:#5B5B59;" d="M236.5,357.302v26.13c0,2.52-2.05,4.57-4.57,4.57h-22.01c-2.53,0-4.58-2.05-4.58-4.57v-26.13H236.5z
		"/>
	<path style="fill:#5B5B59;" d="M300.5,357.302v26.13c0,2.52-2.05,4.57-4.57,4.57h-22.01c-2.53,0-4.58-2.05-4.58-4.57v-26.13H300.5z
		"/>
	<path style="fill:#5B5B59;" d="M364.5,357.302v26.13c0,2.52-2.05,4.57-4.57,4.57h-22.01c-2.53,0-4.58-2.05-4.58-4.57v-26.13H364.5z
		"/>
</g>
<g>
	<path style="fill:#545454;" d="M157.76,383.432v-26.13h-16.42v26.13c0,2.52,2.05,4.57,4.58,4.57h16.42
		C159.81,388.002,157.76,385.952,157.76,383.432z"/>
	<path style="fill:#545454;" d="M221.76,383.432v-26.13h-16.42v26.13c0,2.52,2.05,4.57,4.58,4.57h16.42
		C223.81,388.002,221.76,385.952,221.76,383.432z"/>
	<path style="fill:#545454;" d="M285.76,383.432v-26.13h-16.42v26.13c0,2.52,2.05,4.57,4.58,4.57h16.42
		C287.81,388.002,285.76,385.952,285.76,383.432z"/>
	<path style="fill:#545454;" d="M349.76,383.432v-26.13h-16.42v26.13c0,2.52,2.05,4.57,4.58,4.57h16.42
		C351.81,388.002,349.76,385.952,349.76,383.432z"/>
</g>
<path style="fill:#DDDBC7;" d="M395.16,331.892v15.69c0,8.68-7.04,15.72-15.73,15.72H124.11c-7.13,0-12.9-5.77-12.9-12.9v-18.51
	H395.16z"/>
<path style="fill:#ED3124;" d="M403.86,322.852c1.31,10.03-6.5,18.93-16.62,18.93h-270.2c-5.41,0-9.79-4.38-9.79-9.79v-15.42
	c0-20.36,15.53-37.36,35.81-39.2l106.36-11.84l25.03-45.87c2.87-3.17,7.36-4.36,11.41-2.97c25.76,8.82,64.59,9.5,93.7,2.04
	c6.27-1.61,12.53,2.62,13.36,9.03L403.86,322.852z"/>
<path style="fill:#E21E1A;" d="M160,337.807v-15.42c0-20.36,15.53-37.36,35.81-39.2l106.36-11.84l25.03-45.87
	c0.603-0.666,1.28-1.238,2.006-1.724c-15.774-0.5-31.05-2.851-43.346-7.062c-4.05-1.39-8.54-0.2-11.41,2.97l-25.03,45.87
	l-106.36,11.84c-20.28,1.84-35.81,18.84-35.81,39.2v15.42c0,5.41,4.38,9.79,9.79,9.79h43.807
	C160.307,340.565,160,339.224,160,337.807z"/>
<path style="fill:#DDDBC7;" d="M351.4,273.002c12.34,0,22.34,10,22.34,22.34c0,12.34-10,22.35-22.34,22.35s-22.34-10.01-22.34-22.35
	C329.06,283.002,339.06,273.002,351.4,273.002z"/>
<path style="fill:#C6C3AC;" d="M351.4,285.01c0-4.315,1.227-8.343,3.345-11.758c-1.091-0.164-2.208-0.25-3.345-0.25
	c-12.34,0-22.34,10-22.34,22.34c0,12.34,10,22.35,22.34,22.35c8.022,0,15.051-4.232,18.991-10.582
	C359.64,305.492,351.4,296.211,351.4,285.01z"/>
<path style="fill:#DDDBC7;" d="M152.5,47.002c41.97,0,76,34.03,76,76s-34.03,76-76,76s-76-34.03-76-76S110.53,47.002,152.5,47.002z"
	/>
<path style="fill:#00C37A;" d="M504.5,400.142v94.41c0,5.219-4.231,9.451-9.451,9.451H16.951c-5.219,0-9.451-4.231-9.451-9.451
	v-95.41c0-6.705,5.435-12.14,12.14-12.14H32.5c-3.4-6.79-4.05-13.8-3.05-20.95c0.63-4.48,5.61-6.88,9.48-4.53l15.57,9.48l11.91-5.1
	c1.4-0.6,2.99-0.7,4.43-0.2c9.42,3.25,16.14,10.96,20.66,22.3h331c-0.21-6.61,2.66-14.44,7.16-22.92c1.41-2.66,4.93-3.31,7.23-1.37
	l8.61,7.29l10.72-7.86c2.34-1.72,5.65-0.94,7,1.62c4.1,7.75,6.52,15.49,7.28,23.24h21.86
	C499.065,388.002,504.5,393.437,504.5,400.142z"/>
<path style="fill:#079B6D;" d="M495.049,446.716H16.951c-5.219,0-9.451-4.231-9.451-9.451v57.285c0,5.219,4.231,9.451,9.451,9.451
	H495.05c5.219,0,9.451-4.231,9.451-9.451v-57.285C504.5,442.484,500.269,446.716,495.049,446.716z"/>
<path style="fill:#5B5B59;" d="M184.287,116.015l-10.174,31.323c-0.723,2.227-2.798,3.734-5.139,3.734h-32.948
	c-2.341,0-4.416-1.508-5.139-3.734l-10.174-31.323c-0.723-2.226,0.069-4.665,1.963-6.041l26.648-19.364
	c1.894-1.376,4.459-1.376,6.353,0l26.648,19.364C184.218,111.351,185.01,113.789,184.287,116.015z"/>
<path d="M321.56,290.341c0,16.46,13.387,29.851,29.841,29.851s29.84-13.391,29.84-29.851c0-16.454-13.386-29.84-29.84-29.84
	S321.56,273.888,321.56,290.341z M366.24,290.341c0,8.188-6.657,14.851-14.84,14.851c-8.184,0-14.841-6.662-14.841-14.851
	c0-8.183,6.657-14.84,14.841-14.84C359.583,275.502,366.24,282.159,366.24,290.341z"/>
<path d="M106.559,192.698c0.256,0.202,0.528,0.389,0.815,0.56c0.113,0.067,0.227,0.131,0.342,0.192
	c12.949,8.261,28.318,13.052,44.784,13.052c46.042,0,83.5-37.458,83.5-83.5c0-9.729-1.673-19.074-4.745-27.764
	c-0.054-0.182-0.115-0.364-0.184-0.545c-0.035-0.091-0.072-0.181-0.109-0.27c-11.696-32.01-42.454-54.921-78.462-54.921
	c-46.042,0-83.5,37.458-83.5,83.5C69,152.085,83.945,177.742,106.559,192.698z M152.5,191.502c-11.132,0-21.653-2.669-30.955-7.402
	l15.179-25.528h32.735l15.841,24.554C175.553,188.465,164.375,191.502,152.5,191.502z M221,123.002
	c0,20.516-9.066,38.954-23.401,51.519l-16.249-25.185l10.276-31.637l27.543-10.461C220.366,112.3,221,117.578,221,123.002z
	 M160,54.91c23.843,2.608,44.046,17.501,54.126,38.196l-27.751,10.54L160,84.481V54.91z M176.684,115.147l-9.232,28.426H137.55
	l-9.232-28.426L152.5,97.573L176.684,115.147z M145,54.91v29.571l-26.606,19.334l-28.436-8.749
	C99.693,73.355,120.411,57.6,145,54.91z M85.367,109.346l28.102,8.647l10.574,32.556l-15.056,25.321
	C93.738,163.296,84,144.265,84,123.002C84,118.327,84.471,113.761,85.367,109.346z"/>
<path d="M255,127.002v20c0,4.143,3.357,7.5,7.5,7.5s7.5-3.357,7.5-7.5v-20c0-4.143-3.357-7.5-7.5-7.5S255,122.859,255,127.002z"/>
<path d="M253.5,90.502c4.143,0,7.5-3.357,7.5-7.5v-29c0-4.143-3.357-7.5-7.5-7.5s-7.5,3.357-7.5,7.5v29
	C246,87.145,249.357,90.502,253.5,90.502z"/>
<path d="M48,169.002v25c0,4.143,3.357,7.5,7.5,7.5s7.5-3.357,7.5-7.5v-25c0-4.143-3.357-7.5-7.5-7.5S48,164.859,48,169.002z"/>
<path d="M31.5,154.502c4.143,0,7.5-3.357,7.5-7.5v-50c0-4.143-3.357-7.5-7.5-7.5s-7.5,3.357-7.5,7.5v50
	C24,151.145,27.357,154.502,31.5,154.502z"/>
<path d="M48.5,69.502c4.143,0,7.5-3.357,7.5-7.5v-15c0-4.143-3.357-7.5-7.5-7.5s-7.5,3.357-7.5,7.5v15
	C41,66.145,44.357,69.502,48.5,69.502z"/>
<path d="M149,219.002v11c0,4.143,3.357,7.5,7.5,7.5s7.5-3.357,7.5-7.5v-11c0-4.143-3.357-7.5-7.5-7.5S149,214.859,149,219.002z"/>
<path d="M152.5,28.502c4.143,0,7.5-3.357,7.5-7.5v-13c0-4.143-3.357-7.5-7.5-7.5s-7.5,3.357-7.5,7.5v13
	C145,25.145,148.357,28.502,152.5,28.502z"/>
<path d="M504.5,380.502h-27.575c-1.349-6.452-3.717-12.899-7.071-19.238c-1.665-3.159-4.616-5.43-8.096-6.229
	c-3.477-0.8-7.111-0.045-9.973,2.06l-5.952,4.363l-4.106-3.478c-2.848-2.402-6.577-3.373-10.236-2.666
	c-3.641,0.705-6.723,2.985-8.455,6.253c-3.83,7.217-6.239,13.403-7.341,18.936h-43.873c0.117-0.673,0.178-1.364,0.178-2.07v-12.631
	h7.43c12.81,0,23.23-10.416,23.23-23.22v-3.831c1.002-0.825,1.943-1.734,2.812-2.724c4.593-5.231,6.717-12.185,5.833-19.087
	l-2.463-21.414c-0.475-4.114-4.193-7.06-8.309-6.594c-4.114,0.474-7.066,4.193-6.594,8.309l2.47,21.468
	c0.005,0.038,0.01,0.075,0.015,0.113c0.35,2.681-0.44,5.276-2.225,7.309c-1.785,2.033-4.255,3.151-6.959,3.151H264.723
	l-21.752-60.486l7.279-0.81c2.433-0.271,4.581-1.713,5.754-3.861l12.981-23.79c22.066,7.39,43.56,11.085,64.348,11.085
	c18.709,0,36.846-2.994,54.301-8.981l2.869,24.934c0.474,4.115,4.195,7.058,8.309,6.594c4.115-0.474,7.066-4.193,6.594-8.309
	l-5.034-43.754c-0.005-0.035-0.009-0.07-0.014-0.105c-0.671-5.182-3.536-9.833-7.862-12.763c-4.334-2.935-9.726-3.87-14.798-2.569
	c-27.817,7.13-65.421,6.343-89.401-1.868c-6.881-2.363-14.499-0.389-19.405,5.029c-0.397,0.438-0.741,0.923-1.024,1.441
	L244.71,253.51l-102.407,11.399c-24.265,2.242-42.551,22.288-42.551,46.662v15.42c0,4.175,1.487,8.009,3.96,11v7.41
	c0,11.248,9.151,20.399,20.4,20.399h9.729v12.63c0,0.706,0.062,1.397,0.178,2.07H96.376c-5.463-11.129-13.212-18.481-23.075-21.885
	c-3.185-1.105-6.681-0.965-9.843,0.391l-8.358,3.578l-12.277-7.476c-3.97-2.409-8.843-2.662-13.036-0.673
	c-4.211,1.996-7.113,5.947-7.764,10.575c-0.717,5.128-0.673,9.931,0.146,14.489H7.5c-4.143,0-7.5,3.357-7.5,7.5v117
	c0,4.143,3.357,7.5,7.5,7.5h497c4.143,0,7.5-3.357,7.5-7.5V388.002C512,383.859,508.643,380.502,504.5,380.502z M280.482,219.266
	c0.844-0.633,1.946-0.82,2.948-0.478c26.872,9.199,67.167,10.108,97.994,2.209c1.252-0.322,2.203,0.149,2.658,0.458
	c0.448,0.304,1.22,0.995,1.394,2.231l0.398,3.461c-34.208,12.595-70.117,12.531-109.584-0.201L280.482,219.266z M227.644,270.503
	l21.139,58.779h-15.165l-20.62-57.149L227.644,270.503z M197.667,273.84l20.004,55.442h-15.145l-19.338-53.831L197.667,273.84z
	 M114.75,326.992v-15.42c0-16.59,12.462-30.231,28.987-31.73c0.051-0.005,0.102-0.01,0.152-0.016l23.973-2.669l18.725,52.125H117.04
	C115.777,329.281,114.75,328.255,114.75,326.992z M124.11,350.802c-2.978,0-5.4-2.422-5.4-5.399v-1.011h268.749
	c-0.827,3.665-4.113,6.41-8.029,6.41H124.11L124.11,350.802z M357,365.802v9.7h-16.16v-9.7H357z M326.018,380.502h-18.197
	c0.117-0.673,0.178-1.364,0.178-2.07v-12.63h17.84v12.63C325.84,379.138,325.901,379.828,326.018,380.502z M293,365.802v9.7h-16.16
	v-9.7H293z M262.018,380.502h-18.197c0.117-0.673,0.178-1.364,0.178-2.07v-12.63h17.84v12.63
	C261.84,379.138,261.901,379.828,262.018,380.502z M229,365.802v9.7h-16.16v-9.7H229z M198.018,380.502h-18.197
	c0.117-0.673,0.178-1.364,0.178-2.07v-12.63h17.84v12.63C197.84,379.138,197.901,379.828,198.018,380.502z M165,365.802v9.7h-16.16
	v-9.7H165z M497,496.502H15v-102h17.5c2.601,0,5.015-1.347,6.381-3.559c1.366-2.213,1.489-4.975,0.325-7.3
	c-2.234-4.462-3.055-9.181-2.542-14.721l13.936,8.485c2.072,1.262,4.625,1.443,6.853,0.488l11.474-4.913
	c6.735,2.526,11.845,8.354,15.607,17.795c1.137,2.853,3.896,4.724,6.967,4.724h331c2.03,0,3.974-0.823,5.387-2.281
	c1.413-1.459,2.174-3.428,2.109-5.457c-0.126-3.982,1.457-9.379,4.713-16.071l5.944,5.033c2.646,2.241,6.484,2.375,9.281,0.324
	l8.081-5.925c2.765,5.892,4.451,11.802,5.021,17.608c0.376,3.841,3.605,6.769,7.464,6.769H497V496.502z"/>
<g>
</g>
<g>
</g>
<g>
</g>
<g>
</g>
<g>
</g>
<g>
</g>
<g>
</g>
<g>
</g>
<g>
</g>
<g>
</g>
<g>
</g>
<g>
</g>
<g>
</g>
<g>
</g>
<g>
</g>
</svg>
