<?xml version="1.0" encoding="iso-8859-1"?>
<!-- Generator: Adobe Illustrator 19.0.0, SVG Export Plug-In . SVG Version: 6.00 Build 0)  -->
<svg version="1.1" id="Capa_1" xmlns="http://www.w3.org/2000/svg" xmlns:xlink="http://www.w3.org/1999/xlink" x="0px" y="0px"
	 viewBox="0 0 512 512" style="enable-background:new 0 0 512 512;" xml:space="preserve">
<path style="fill:#514F4F;" d="M450,217.53v188.94c0,8.58-6,15.53-13.39,15.53H203.39C196,422,190,415.05,190,406.47V217.53
	c0-8.58,6-15.53,13.39-15.53h233.22C444,202,450,208.95,450,217.53z"/>
<path style="fill:#3D3838;" d="M416.997,397h-17.994c-3.315,0-6.003-2.688-6.003-6.003V293h30v97.997
	C423,394.312,420.312,397,416.997,397z"/>
<path style="fill:#2D2828;" d="M412.125,293v85.997c0,3.315-2.688,6.003-6.003,6.003H393v5.997c0,3.315,2.688,6.003,6.003,6.003
	h17.995c3.315,0,6.003-2.688,6.003-6.003V293H412.125z"/>
<path style="fill:#036D5E;" d="M506.5,126.59V274.4c0,19.94-16.16,36.1-36.1,36.1h-46.49c-8.53,0-15.44-6.91-15.44-15.44V105.94
	c0-8.53,6.91-15.44,15.44-15.44h46.5C490.34,90.5,506.5,106.66,506.5,126.59z"/>
<path style="fill:#E8B62A;" d="M176.221,220.069H105.53v-3.129c0-8.53-6.91-15.44-15.44-15.44h-46.5
	c-19.93,0-36.09,16.16-36.09,36.09V385.4c0,19.94,16.16,36.1,36.1,36.1h46.49c8.53,0,15.44-6.91,15.44-15.44v-21.129h70.691
	L176.221,220.069L176.221,220.069z"/>
<path style="fill:#E59E2C;" d="M99.24,396.25c-19.94,0-36.1-16.16-36.1-36.1V212.34c0-3.777,0.583-7.418,1.66-10.84H43.59
	c-19.93,0-36.09,16.16-36.09,36.09V385.4c0,19.94,16.16,36.1,36.1,36.1h46.49c8.53,0,15.44-6.91,15.44-15.44v-9.81H99.24z"/>
<path style="fill:#00AA95;" d="M464.5,126.59V274.4c0,19.94-16.16,36.1-36.1,36.1h-46.49c-8.53,0-15.44-6.91-15.44-15.44V105.94
	c0-8.53,6.91-15.44,15.44-15.44h46.5C448.34,90.5,464.5,106.66,464.5,126.59z"/>
<path style="fill:#079B6D;" d="M463.887,281c-25.605,0-46.361-20.757-46.361-46.361V90.5H381.91c-8.527,0-15.44,6.913-15.44,15.44
	v189.12c0,8.527,6.913,15.44,15.44,15.44h46.49C446.084,310.5,460.786,297.786,463.887,281L463.887,281z"/>
<path style="fill:#666666;" d="M366,217.03v188.94c0,8.58-6,15.53-13.39,15.53H119.39c-7.39,0-13.39-6.95-13.39-15.53V217.03
	c0-8.58,6-15.53,13.39-15.53h233.22C360,201.5,366,208.45,366,217.03z"/>
<path style="fill:#514F4F;" d="M219.75,405.97V217.03c0-8.58,6-15.53,13.39-15.53H119.39c-7.39,0-13.39,6.95-13.39,15.53v188.94
	c0,8.58,6,15.53,13.39,15.53h113.75C225.75,421.5,219.75,414.55,219.75,405.97z"/>
<rect x="128" y="223.5" style="fill:#2CD4E5;" width="216" height="176"/>
<path style="fill:#3D3838;" d="M56.5,245.5c13.25,0,24,10.75,24,24s-10.75,24-24,24s-24-10.75-24-24S43.25,245.5,56.5,245.5z"/>
<path style="fill:#302C2C;" d="M53.034,266.023c0-8.082,4.004-15.228,10.13-19.578c-2.117-0.611-4.351-0.946-6.664-0.946
	c-13.25,0-24,10.75-24,24s10.75,24,24,24c5.168,0,9.952-1.641,13.87-4.422C60.361,286.187,53.034,276.96,53.034,266.023z"/>
<g>
	<circle style="fill:#3D3838;" cx="57" cy="327" r="11"/>
	<circle style="fill:#3D3838;" cx="57" cy="377" r="11"/>
	<circle style="fill:#3D3838;" cx="81" cy="352" r="11"/>
	<circle style="fill:#3D3838;" cx="394" cy="281" r="8"/>
	<circle style="fill:#3D3838;" cx="33" cy="352" r="11"/>
</g>
<g>
	<path style="fill:#302C2C;" d="M56.5,328.446c0-4.685,2.934-8.675,7.061-10.261C61.728,316.819,59.462,316,57,316
		c-6.075,0-11,4.925-11,11s4.925,11,11,11c1.39,0,2.715-0.269,3.939-0.739C58.25,335.255,56.5,332.059,56.5,328.446z"/>
	<path style="fill:#302C2C;" d="M56.5,378.446c0-4.685,2.934-8.675,7.061-10.261C61.728,366.819,59.462,366,57,366
		c-6.075,0-11,4.925-11,11s4.925,11,11,11c1.39,0,2.715-0.269,3.939-0.739C58.25,385.255,56.5,382.059,56.5,378.446z"/>
	<path style="fill:#302C2C;" d="M80.5,353.446c0-4.685,2.934-8.675,7.061-10.261C85.728,341.819,83.462,341,81,341
		c-6.075,0-11,4.925-11,11s4.925,11,11,11c1.39,0,2.715-0.269,3.939-0.739C82.25,360.255,80.5,357.059,80.5,353.446z"/>
	<path style="fill:#302C2C;" d="M32.5,353.446c0-4.685,2.934-8.675,7.061-10.261C37.728,341.819,35.462,341,33,341
		c-6.075,0-11,4.925-11,11s4.925,11,11,11c1.39,0,2.715-0.269,3.939-0.739C34.25,360.255,32.5,357.059,32.5,353.446z"/>
</g>
<path style="fill:#3D3838;" d="M415.5,212.5c13.25,0,24,10.75,24,24s-10.75,24-24,24s-24-10.75-24-24S402.25,212.5,415.5,212.5z"/>
<path style="fill:#2D2828;" d="M415.5,212.5c-5.529,0-10.619,1.877-14.678,5.021c0.39-0.019,0.783-0.03,1.178-0.03
	c13.25,0,24,10.75,24,24c0,7.721-3.654,14.588-9.322,18.979c12.703-0.615,22.822-11.115,22.822-23.97
	C439.5,223.25,428.75,212.5,415.5,212.5z"/>
<path style="fill:#3D3838;" d="M444.5,152.82v9.37c0,4.59-3.72,8.31-8.31,8.31h-3.64c-2.24,0-4.05,1.81-4.05,4.05v4.9
	c0,2.24-1.81,4.05-4.05,4.05h-17.9c-2.24,0-4.05-1.81-4.05-4.05v-4.9c0-2.24-1.81-4.05-4.05-4.05h-3.63c-4.6,0-8.32-3.72-8.32-8.32
	v-9.37c0-4.59,3.72-8.31,8.31-8.31h3.64c2.24,0,4.05-1.81,4.05-4.05v-4.9c0-2.24,1.81-4.05,4.05-4.05h17.9
	c2.24,0,4.05,1.81,4.05,4.05v4.9c0,2.24,1.81,4.05,4.05,4.05h3.63C440.78,144.5,444.5,148.22,444.5,152.82z"/>
<g>
	<polygon style="fill:#54E3EA;" points="332.797,223.5 236.065,223.5 128,331.565 128,399.5 156.797,399.5 	"/>
	<polygon style="fill:#54E3EA;" points="344,254.681 199.181,399.5 223.505,399.5 344,274.678 	"/>
</g>
<path d="M344,216h-35.778c-4.143,0-7.5,3.358-7.5,7.5s3.357,7.5,7.5,7.5H336.5v161h-201V231h114.386c4.142,0,7.5-3.358,7.5-7.5
	s-3.357-7.5-7.5-7.5H128c-4.142,0-7.5,3.358-7.5,7.5v176c0,4.142,3.358,7.5,7.5,7.5h216c4.143,0,7.5-3.358,7.5-7.5v-176
	C351.5,219.358,348.143,216,344,216z"/>
<path d="M56.5,301c17.369,0,31.5-14.131,31.5-31.5S73.869,238,56.5,238S25,252.131,25,269.5S39.131,301,56.5,301z M56.5,253
	c9.098,0,16.5,7.402,16.5,16.5S65.598,286,56.5,286S40,278.598,40,269.5S47.402,253,56.5,253z"/>
<circle cx="57" cy="327" r="11"/>
<circle cx="57" cy="377" r="11"/>
<circle cx="81" cy="352" r="11"/>
<circle cx="394" cy="281" r="8"/>
<circle cx="33" cy="352" r="11"/>
<path d="M415.5,205c-17.369,0-31.5,14.131-31.5,31.5s14.131,31.5,31.5,31.5s31.5-14.131,31.5-31.5S432.869,205,415.5,205z
	 M415.5,253c-9.098,0-16.5-7.402-16.5-16.5s7.402-16.5,16.5-16.5s16.5,7.402,16.5,16.5S424.598,253,415.5,253z"/>
<path d="M436.18,137H436v-1.45c0-6.369-5.182-11.55-11.55-11.55h-17.9c-6.368,0-11.55,5.181-11.55,11.55V137h-0.19
	c-8.718,0-15.81,7.092-15.81,15.81v9.37c0,8.723,7.097,15.82,15.82,15.82H395v1.45c0,6.369,5.182,11.55,11.55,11.55h17.9
	c6.368,0,11.55-5.181,11.55-11.55V178h0.19c8.718,0,15.81-7.092,15.81-15.81v-9.37C452,144.097,444.903,137,436.18,137z M437,162.19
	c0,0.447-0.363,0.81-0.81,0.81h-3.641c-6.368,0-11.55,5.181-11.55,11.55V176h-11v-1.45c0-6.369-5.182-11.55-11.55-11.55h-3.63
	c-0.46,0-0.82-0.36-0.82-0.82v-9.37c0-0.447,0.363-0.81,0.81-0.81h3.641c6.368,0,11.55-5.181,11.55-11.55V139h11v1.45
	c0,6.369,5.182,11.55,11.55,11.55h3.63c0.46,0,0.82,0.36,0.82,0.82V162.19z"/>
<path d="M468.405,83H381.91c-12.649,0-22.94,10.291-22.94,22.94v89.151c-2.006-0.708-4.143-1.091-6.359-1.091H119.39
	c-5.358,0-10.251,2.236-13.953,5.905C101.369,196.236,95.986,194,90.09,194h-46.5C19.554,194,0,213.554,0,237.59V385.4
	C0,409.441,19.559,429,43.6,429h46.49c5.896,0,11.28-2.236,15.347-5.905c3.702,3.669,8.595,5.905,13.953,5.905h316.715
	C447.627,429,457,418.668,457,405.968V318h11.405C492.443,318,512,298.443,512,274.405v-147.81C512,102.557,492.443,83,468.405,83z
	 M98.03,406.06c0,4.378-3.562,7.94-7.94,7.94H43.6C27.83,414,15,401.17,15,385.4V237.59C15,221.825,27.825,209,43.59,209h46.5
	c4.378,0,7.94,3.562,7.94,7.94V406.06z M358.5,405.97c0,4.353-2.697,8.03-5.89,8.03H119.39c-3.193,0-5.89-3.677-5.89-8.03V217.03
	c0-4.353,2.697-8.03,5.89-8.03h233.22c3.192,0,5.89,3.677,5.89,8.03V405.97z M442,405.968c0,4.354-2.699,8.032-5.895,8.032H372.19
	c0.847-2.501,1.31-5.207,1.31-8.03v-89.567c2.605,1.03,5.443,1.596,8.41,1.596h4.59v71.316c0,7.545,6.139,13.684,13.685,13.684
	h15.631c7.546,0,13.685-6.139,13.685-13.684V318H442V405.968z M401.5,388v-69h13v69H401.5z M457,274.4c0,15.77-12.83,28.6-28.6,28.6
	h-46.49c-4.378,0-7.94-3.562-7.94-7.94V105.94c0-4.378,3.563-7.94,7.94-7.94h46.5c15.765,0,28.59,12.825,28.59,28.59V274.4z
	 M497,274.405C497,290.172,484.173,303,468.405,303h-7.123c6.672-7.661,10.717-17.667,10.717-28.6V126.59
	c0-10.929-4.043-20.931-10.712-28.59h7.117C484.173,98,497,110.828,497,126.595V274.405z"/>
<g>
</g>
<g>
</g>
<g>
</g>
<g>
</g>
<g>
</g>
<g>
</g>
<g>
</g>
<g>
</g>
<g>
</g>
<g>
</g>
<g>
</g>
<g>
</g>
<g>
</g>
<g>
</g>
<g>
</g>
</svg>
