<?xml version="1.0" encoding="iso-8859-1"?>
<!-- Generator: Adobe Illustrator 19.0.0, SVG Export Plug-In . SVG Version: 6.00 Build 0)  -->
<svg version="1.1" id="Capa_1" xmlns="http://www.w3.org/2000/svg" xmlns:xlink="http://www.w3.org/1999/xlink" x="0px" y="0px"
	 viewBox="0 0 512 512" style="enable-background:new 0 0 512 512;" xml:space="preserve">
<path style="fill:#7C4513;" d="M285.209,315.22c-1.523-4.905-4.324-9.32-7.994-12.913l-30.599-29.953
	c-25.732-11.076-56.711-5.698-77.185,15.755c-9.017,9.447-14.825,20.793-17.454,32.679c-26.381-1.769-53.323,7.737-73.006,28.361
	c-27.132,28.42-32.506,69.645-16.655,103.167l-6.288,1.299l25.992,25.992c36.858,35.189,95.269,33.829,130.457-3.039
	c19.684-20.623,27.931-47.984,24.922-74.246c11.756-3.179,22.813-9.507,31.84-18.964C287.147,364.59,292.389,338.352,285.209,315.22
	z"/>
<path style="fill:#8E5F39;" d="M252.571,277.636c2.579,2.525,4.576,5.594,5.782,8.996c8.421,23.744,3.475,51.261-15.108,70.734
	c-9.027,9.457-20.083,15.785-31.84,18.964c3.009,26.261-5.238,53.622-24.922,74.246c-35.189,36.868-93.599,38.228-130.457,3.039
	c-36.868-35.189-38.238-93.599-3.049-130.457c19.684-20.623,46.625-30.13,73.006-28.361c2.629-11.886,8.437-23.232,17.454-32.679
	c18.864-19.767,46.648-25.887,71.027-18.062c3.813,1.224,7.259,3.385,10.12,6.186L252.571,277.636z"/>
<path style="fill:#845331;" d="M126.462,424.211c-36.578-34.912-38.194-92.67-3.853-129.572
	c-25.29-0.775-50.787,8.773-69.632,28.518c-35.189,36.858-33.819,95.269,3.049,130.457c36.858,35.189,95.269,33.829,130.457-3.039
	c0.281-0.295,0.552-0.596,0.829-0.894C165.371,449.01,143.59,440.561,126.462,424.211z"/>
<path style="fill:#535454;" d="M413.995,104.543L215.296,323.486c-2.417,2.664-6.555,2.812-9.157,0.328l-26.155-24.967
	c-2.602-2.483-2.646-6.623-0.098-9.162L388.261,82.058L413.995,104.543z"/>
<path style="fill:#444747;" d="M194.226,304.026l198.521-197.807c5.549-5.529,14.431-5.82,20.331-0.666l0,0l0.917-1.01
	l-25.734-22.485L179.886,289.685c-2.548,2.539-2.503,6.679,0.098,9.162l12.93,12.342
	C191.852,308.834,192.281,305.964,194.226,304.026z"/>
<path style="fill:#7C4513;" d="M472.102,20.459l9.867,18.737c0.887,1.684,0.74,3.727-0.381,5.266l-41.239,56.677
	c-0.66,0.907-1.604,1.564-2.683,1.868l-20.513,5.785c-1.7,0.48-3.527,0.025-4.804-1.195l-26.716-25.502
	c-1.24-1.184-1.786-2.92-1.448-4.6l4.306-21.356c0.232-1.148,0.859-2.178,1.772-2.91L444.87,9.462
	c1.497-1.201,3.55-1.437,5.281-0.608l19.689,9.426C470.808,18.746,471.601,19.51,472.102,20.459z"/>
<path style="fill:#703A0D;" d="M422.33,85.861c-1.24-1.184-1.786-2.92-1.448-4.6l4.306-21.356c0.232-1.148,0.859-2.178,1.772-2.91
	l45.272-36.286l-0.131-0.25c-0.501-0.951-1.294-1.714-2.262-2.178l-19.689-9.426c-1.73-0.829-3.784-0.593-5.281,0.608L390.262,53.23
	c-0.914,0.733-1.541,1.762-1.772,2.91l-4.306,21.356c-0.339,1.68,0.208,3.417,1.448,4.6l26.716,25.502
	c1.278,1.22,3.105,1.673,4.804,1.195l20.513-5.785c0.627-0.177,1.2-0.485,1.706-0.88L422.33,85.861z"/>
<path style="fill:#603008;" d="M159.972,345.999c15.385,14.695,15.955,39.077,1.27,54.472c-14.695,15.385-39.077,15.955-54.472,1.27
	c-15.385-14.695-15.955-39.077-1.27-54.462C120.195,331.884,144.577,331.314,159.972,345.999z"/>
<path style="fill:#4F2505;" d="M159.972,345.999c-11.362-10.838-27.616-13.357-41.261-7.749c8.721,0.557,17.303,4.062,24.121,10.566
	c15.385,14.695,15.955,39.077,1.27,54.472c-3.848,4.029-8.363,7.031-13.205,9.02c10.968,0.699,22.159-3.268,30.344-11.837
	C175.927,385.076,175.357,360.694,159.972,345.999z"/>
<path d="M489.723,58.893l-5.526-5.274l5.281-7.258c1.681-2.31,1.902-5.375,0.572-7.903l-12.082-22.954
	c-0.751-1.427-1.942-2.573-3.397-3.27L450.556,0.735c-2.598-1.244-5.679-0.889-7.926,0.913l-7.004,5.614l-4.231-4.038
	c-2.995-2.86-7.741-2.748-10.601,0.247c-2.859,2.996-2.749,7.741,0.247,10.601l2.779,2.652l-7.239,5.801l-5.128-4.894
	c-2.995-2.859-7.741-2.748-10.601,0.247c-2.859,2.996-2.749,7.741,0.247,10.601l3.677,3.509l-7.943,6.367l-5.292-5.05
	c-2.996-2.858-7.741-2.748-10.601,0.248c-2.858,2.996-2.748,7.741,0.248,10.601l3.84,3.665l-0.869,0.697
	c-1.372,1.1-2.313,2.645-2.661,4.369l-5.209,25.837c-0.295,1.461-0.142,2.95,0.399,4.29l-155.894,155.33
	c-28.589-10.978-61.507-3.691-82.78,18.601c-8.193,8.584-14.253,18.91-17.738,30.15c-27.432-0.167-53.658,10.915-72.722,30.889
	c-18.402,19.275-28.193,44.563-27.569,71.208c0.621,26.549,11.508,51.275,30.662,69.657c0.065,0.066,0.13,0.132,0.198,0.197
	l26.572,25.361C96.118,502.251,120.478,512,146.243,512c0.795,0,1.59-0.009,2.387-0.028c26.643-0.622,51.451-11.581,69.852-30.861
	c19.067-19.977,28.895-46.685,27.459-74.082c11.066-4.002,21.102-10.537,29.297-19.124c14.104-14.778,21.611-34.165,21.134-54.588
	c-0.477-20.423-8.877-39.439-23.656-53.544l-4.087-3.901l27.298-30.079c2.783-3.066,2.553-7.808-0.513-10.591
	c-3.067-2.783-7.808-2.553-10.591,0.513l-74.324,81.896l-24.526-23.411L386.749,94.148l14.226,13.584l-84.618,93.24
	c-2.783,3.066-2.553,7.808,0.513,10.591c3.067,2.783,7.808,2.553,10.591-0.513l85.436-94.14c0.496,0.102,1.002,0.154,1.51,0.154
	c0.679,0,1.363-0.092,2.033-0.281l24.921-7.025c1.619-0.457,3.039-1.445,4.029-2.805l0.656-0.901l5.136,4.901
	c1.453,1.386,3.315,2.073,5.175,2.073c1.977,0,3.952-0.778,5.425-2.321c2.858-2.996,2.748-7.741-0.248-10.601l-6.588-6.288
	l5.989-8.231l4.973,4.746c1.453,1.386,3.315,2.073,5.175,2.073c1.977,0,3.952-0.778,5.425-2.321
	c2.858-2.996,2.748-7.741-0.248-10.601l-6.425-6.132l5.457-7.501l4.075,3.889c1.453,1.386,3.315,2.073,5.175,2.073
	c1.977,0,3.952-0.778,5.425-2.321C492.829,66.497,492.719,61.752,489.723,58.893z M281.383,333.667
	c0.383,16.42-5.651,32.005-16.99,43.886c-7.764,8.135-17.575,13.977-28.372,16.896c-3.58,0.968-5.914,4.407-5.492,8.09
	c2.872,25.102-5.472,49.967-22.893,68.22c-15.636,16.382-36.714,25.695-59.354,26.222c-16.052,0.369-31.532-3.705-45.021-11.683
	c5.377,0.889,10.861,1.341,16.412,1.341c0.793,0,1.588-0.009,2.384-0.028c26.643-0.621,51.45-11.58,69.851-30.86
	c19.073-19.983,28.903-46.688,27.465-74.08c11.061-4.002,21.097-10.539,29.297-19.13c16.783-17.587,23.94-41.409,20.301-64.531
	C276.73,308.23,281.078,320.59,281.383,333.667z M174.806,284.162l-4.744-4.529c-2.996-2.859-7.741-2.748-10.601,0.247
	c-2.859,2.996-2.749,7.741,0.247,10.601l55.736,53.196c1.453,1.387,3.315,2.074,5.175,2.074c1.977,0,3.952-0.778,5.424-2.321
	c2.859-2.996,2.749-7.741-0.247-10.601l-4.745-4.53l31.613-34.834c5.707,20.63,0.315,42.839-14.842,58.722
	c-7.769,8.14-17.581,13.985-28.373,16.904c-3.58,0.968-5.914,4.407-5.492,8.09c2.875,25.094-5.471,49.958-22.897,68.216
	c-15.636,16.383-36.715,25.695-59.354,26.221c-22.636,0.526-44.126-7.793-60.503-23.43c-16.383-15.637-25.698-36.716-26.226-59.355
	c-0.53-22.639,7.789-44.126,23.425-60.503c17.419-18.249,41.866-27.747,67.081-26.055c3.697,0.238,7.022-2.243,7.822-5.861
	c2.416-10.92,7.795-20.991,15.558-29.123c15.498-16.24,38.68-22.574,59.993-17.057L174.806,284.162z M416.49,101.189l-24.685-23.56
	l3.855-19.118l44.179-35.408c0.03-0.023,0.059-0.047,0.089-0.071l8.403-6.736l17.524,8.391l8.752,16.626l-39.812,54.716
	L416.49,101.189z"/>
<path d="M100.077,342.102c-17.514,18.348-16.835,47.534,1.519,65.064c8.898,8.488,20.337,12.701,31.764,12.701
	c12.146,0,24.276-4.763,33.304-14.216c0.001-0.001,0.002-0.002,0.003-0.003c17.509-18.356,16.83-47.547-1.52-65.073
	C146.788,323.061,117.597,323.746,100.077,342.102z M155.817,395.297c-11.816,12.367-31.496,12.825-43.869,1.023
	c-12.372-11.817-12.832-31.495-1.025-43.864c6.09-6.38,14.269-9.594,22.463-9.594c7.7,0,15.412,2.84,21.408,8.559
	C167.164,363.237,167.623,382.919,155.817,395.297z"/>
<g>
</g>
<g>
</g>
<g>
</g>
<g>
</g>
<g>
</g>
<g>
</g>
<g>
</g>
<g>
</g>
<g>
</g>
<g>
</g>
<g>
</g>
<g>
</g>
<g>
</g>
<g>
</g>
<g>
</g>
</svg>
