<?xml version="1.0" encoding="iso-8859-1"?>
<!-- Generator: Adobe Illustrator 19.0.0, SVG Export Plug-In . SVG Version: 6.00 Build 0)  -->
<svg version="1.1" id="Capa_1" xmlns="http://www.w3.org/2000/svg" xmlns:xlink="http://www.w3.org/1999/xlink" x="0px" y="0px"
	 viewBox="0 0 512 512" style="enable-background:new 0 0 512 512;" xml:space="preserve">
<path style="fill:#EFEFEF;" d="M340.915,135.5v56.57c0,4.65,3.78,8.43,8.43,8.43h11.14c4.65,0,8.43-3.78,8.43-8.43v-49.11
	L340.915,135.5z"/>
<path style="fill:#D7DDDD;" d="M340.915,158.96c6.559,4.127,14.476,6.54,23,6.54c1.693,0,3.361-0.095,5-0.28v-22.26l-28-7.46V158.96
	z"/>
<path style="fill:#898989;" d="M233.915,106.85v28.65h-28v-28.65c0-5.16,4.19-9.35,9.35-9.35h9.3
	C229.725,97.5,233.915,101.69,233.915,106.85z"/>
<path style="fill:#7C7C7C;" d="M226.915,97.81c-0.752-0.195-1.537-0.31-2.35-0.31h-9.3c-5.16,0-9.35,4.19-9.35,9.35v28.65h14v-28.65
	C219.915,102.503,222.893,98.855,226.915,97.81z"/>
<path style="fill:#EFEFEF;" d="M439.415,247.938v50.132c0,4.65-3.848,8.43-8.581,8.43h-11.339c-4.733,0-8.581-3.78-8.581-8.43
	v-49.11L439.415,247.938z"/>
<g>
	<path style="fill:#D7DDDD;" d="M410.915,264.96c6.559,4.127,14.476,6.54,23,6.54c1.866,0,3.7-0.122,5.5-0.346v-19.663l-28.5-2.531
		V264.96z"/>
	<path style="fill:#D7DDDD;" d="M354.915,192.07v-52.84l-14-3.73v56.57c0,4.65,3.78,8.43,8.43,8.43h11.14
		c0.488,0,0.964-0.051,1.43-0.131C357.946,199.688,354.915,196.232,354.915,192.07z"/>
	<path style="fill:#D7DDDD;" d="M424.915,298.07v-45.18l-14-3.93v49.11c0,4.65,3.847,8.43,8.581,8.43h11.339
		c0.454,0,0.896-0.045,1.331-0.112C428.064,305.757,424.915,302.274,424.915,298.07z"/>
</g>
<path style="fill:#898989;" d="M254.915,154.91v236.18c0,17.9-14.51,32.41-32.41,32.41H71.325c-17.9,0-32.41-14.51-32.41-32.41
	V154.91c0-17.9,14.51-32.41,32.41-32.41h151.18C240.405,122.5,254.915,137.01,254.915,154.91z"/>
<path style="fill:#7C7C7C;" d="M248.026,368c-67.44,0-122.111-54.671-122.111-122.111V122.5h-54.59c-17.9,0-32.41,14.51-32.41,32.41
	v236.18c0,17.9,14.51,32.41,32.41,32.41h151.18c17.9,0,32.41-14.51,32.41-32.41V368H248.026z"/>
<path style="fill:#EFEFEF;" d="M229.915,156.18v122.64c0,5.9-4.78,10.68-10.68,10.68H74.595c-5.9,0-10.68-4.78-10.68-10.68V156.18
	c0-5.9,4.78-10.68,10.68-10.68h144.64C225.135,145.5,229.915,150.28,229.915,156.18z"/>
<path style="fill:#CDD3D3;" d="M168.048,247.25c-22.993,0-41.633-18.64-41.633-41.633V145.5h-51.82
	c-5.898,0-10.68,4.782-10.68,10.68v122.64c0,5.898,4.782,10.68,10.68,10.68h144.64c5.898,0,10.68-4.782,10.68-10.68v-31.57H168.048z
	"/>
<path style="fill:#2CD4E5;" d="M219.235,145.5h-51.82v144h51.82c5.9,0,10.68-4.78,10.68-10.68V156.18
	C229.915,150.28,225.135,145.5,219.235,145.5z"/>
<path style="fill:#1FC4CC;" d="M167.415,247.234V289.5h51.82c5.806,0,10.52-4.636,10.666-10.407
	c0.002-0.092,0.014-0.181,0.014-0.273v-31.57h-61.867C167.836,247.25,167.626,247.237,167.415,247.234z"/>
<circle style="fill:#666666;" cx="146.91" cy="355.5" r="47"/>
<path style="fill:#5D5E5E;" d="M136.915,342.925c0-13.476,5.678-25.616,14.762-34.186c-1.566-0.158-3.155-0.239-4.762-0.239
	c-25.96,0-47,21.04-47,47s21.04,47,47,47c12.484,0,23.822-4.875,32.238-12.814C155.43,387.299,136.915,367.277,136.915,342.925z"/>
<path style="fill:#898989;" d="M146.915,336.5c10.49,0,19,8.51,19,19s-8.51,19-19,19s-19-8.51-19-19S136.425,336.5,146.915,336.5z"
	/>
<path style="fill:#797A7A;" d="M146.915,336.5c-5.422,0-10.302,2.285-13.764,5.93c1.964-0.687,4.066-1.08,6.264-1.08
	c10.49,0,19,8.51,19,19c0,5.068-1.999,9.663-5.236,13.07c7.409-2.592,12.736-9.628,12.736-17.92
	C165.915,345.01,157.405,336.5,146.915,336.5z"/>
<path style="fill:#EFEFEF;" d="M403.085,100.32v20.36c0,0.71-0.11,1.43-0.36,2.11c-5.51,14.95-20.81,25.71-38.81,25.71
	c-22.64,0-41-17.01-41-38s18.36-38,41-38c18,0,33.3,10.76,38.81,25.71C402.975,98.89,403.085,99.61,403.085,100.32z"/>
<path style="fill:#D2D6D6;" d="M354.915,103.234c0-12.295,6.305-23.219,16.075-30.164c-2.299-0.371-4.662-0.57-7.075-0.57
	c-22.64,0-41,17.01-41,38s18.36,38,41,38c9.38,0,18.022-2.926,24.932-7.84C369.576,137.554,354.915,121.988,354.915,103.234z"/>
<circle style="fill:#666666;" cx="355.42" cy="111" r="10"/>
<path style="fill:#EFEFEF;" d="M473.085,206.32v20.36c0,0.71-0.11,1.43-0.36,2.11c-5.51,14.95-20.81,25.71-38.81,25.71
	c-22.64,0-41-17.01-41-38s18.36-38,41-38c18,0,33.3,10.76,38.81,25.71C472.975,204.89,473.085,205.61,473.085,206.32z"/>
<path style="fill:#D2D6D6;" d="M424.915,209.234c0-12.295,6.305-23.219,16.075-30.164c-2.299-0.371-4.662-0.57-7.075-0.57
	c-22.64,0-41,17.01-41,38s18.36,38,41,38c9.38,0,18.022-2.926,24.932-7.84C439.576,243.554,424.915,227.988,424.915,209.234z"/>
<circle style="fill:#666666;" cx="425.42" cy="217" r="10"/>
<g>
	<path style="fill:#595B5B;" d="M355.415,101c-3.423,0-6.441,1.722-8.244,4.344c0.145-0.006,0.288-0.022,0.434-0.022
		c5.523,0,10,4.477,10,10c0,2.1-0.65,4.047-1.756,5.656c5.32-0.229,9.566-4.602,9.566-9.978
		C365.415,105.477,360.938,101,355.415,101z"/>
	<path style="fill:#595B5B;" d="M425.415,207c-3.423,0-6.441,1.722-8.244,4.344c0.145-0.006,0.288-0.022,0.434-0.022
		c5.523,0,10,4.477,10,10c0,2.1-0.65,4.047-1.756,5.656c5.32-0.229,9.566-4.602,9.566-9.978
		C435.415,211.477,430.938,207,425.415,207z"/>
</g>
<path d="M219.235,138H74.595c-10.024,0-18.18,8.156-18.18,18.18v122.64c0,10.024,8.156,18.18,18.18,18.18h144.64
	c10.024,0,18.18-8.156,18.18-18.18V156.18C237.415,146.156,229.259,138,219.235,138z M222.415,278.82c0,1.753-1.427,3.18-3.18,3.18
	h-43.964v-58.865c0-4.142-3.358-7.5-7.5-7.5s-7.5,3.358-7.5,7.5V282H74.595c-1.753,0-3.18-1.427-3.18-3.18V156.18
	c0-1.753,1.427-3.18,3.18-3.18h85.675v33.155c0,4.142,3.358,7.5,7.5,7.5s7.5-3.358,7.5-7.5V153h43.964c1.753,0,3.18,1.427,3.18,3.18
	L222.415,278.82L222.415,278.82z"/>
<path d="M146.915,301c-30.051,0-54.5,24.449-54.5,54.5s24.449,54.5,54.5,54.5s54.5-24.449,54.5-54.5S176.966,301,146.915,301z
	 M146.915,395c-21.78,0-39.5-17.72-39.5-39.5s17.72-39.5,39.5-39.5s39.5,17.72,39.5,39.5S168.695,395,146.915,395z"/>
<path d="M146.915,329c-14.612,0-26.5,11.888-26.5,26.5s11.888,26.5,26.5,26.5s26.5-11.888,26.5-26.5S161.527,329,146.915,329z
	 M146.915,367c-6.341,0-11.5-5.159-11.5-11.5s5.159-11.5,11.5-11.5s11.5,5.159,11.5,11.5S153.256,367,146.915,367z"/>
<circle cx="355.42" cy="111" r="10"/>
<path d="M479.762,201.616C473.013,183.304,454.589,171,433.915,171c-26.743,0-48.5,20.411-48.5,45.5
	c0,14.257,7.026,27.003,18,35.352v46.218c0,8.086,6.113,14.784,14,15.797v3.726c0,16.766-13.641,30.407-30.406,30.407h-24.594
	V207.883c7.877-0.956,14-7.683,14-15.814v-37.605c15.32-3.833,27.999-14.572,33.35-29.088c0.544-1.482,0.82-3.062,0.82-4.697v-20.36
	c0-1.635-0.276-3.215-0.823-4.704C403.013,77.304,384.589,65,363.915,65c-26.743,0-48.5,20.411-48.5,45.5
	c0,14.257,7.026,27.003,18,35.352v46.218c0,8.131,6.123,14.858,14,15.814V470.5c0,14.612-11.888,26.5-26.5,26.5
	s-26.5-11.888-26.5-26.5v-429c0-22.883-18.617-41.5-41.5-41.5s-41.5,18.617-41.5,41.5v48.944c-7.442,1.746-13,8.439-13,16.406V115
	H71.325c-22.006,0-39.91,17.904-39.91,39.91v236.18c0,22.006,17.904,39.91,39.91,39.91h151.18c22.006,0,39.91-17.904,39.91-39.91
	V154.91c0-15.169-8.507-28.388-21-35.138V106.85c0-8.666-6.576-15.825-15-16.749V41.5c0-14.612,11.888-26.5,26.5-26.5
	s26.5,11.888,26.5,26.5v429c0,22.883,18.617,41.5,41.5,41.5s41.5-18.617,41.5-41.5V363h24.594c25.037,0,45.406-20.37,45.406-45.407
	v-3.67c8.127-0.789,14.5-7.598,14.5-15.854v-37.733c15.096-3.94,27.558-14.602,32.85-28.96c0.544-1.482,0.82-3.062,0.82-4.697
	v-20.36C480.585,204.685,480.309,203.104,479.762,201.616z M247.415,391.09c0,13.735-11.175,24.91-24.91,24.91H71.325
	c-13.735,0-24.91-11.175-24.91-24.91V154.91c0-13.735,11.175-24.91,24.91-24.91h151.18c13.735,0,24.91,11.175,24.91,24.91V391.09z
	 M213.415,115v-8.15c0-1.02,0.83-1.85,1.85-1.85h9.3c1.02,0,1.85,0.83,1.85,1.85V115H213.415z M363.915,80
	c14.314,0,27.003,8.241,31.67,20.53v19.94c-4.671,12.292-17.357,20.53-31.67,20.53c-18.472,0-33.5-13.682-33.5-30.5
	S345.443,80,363.915,80z M361.415,155.94v36.13c0,0.504-0.426,0.93-0.93,0.93h-11.141c-0.504,0-0.93-0.426-0.93-0.93v-38.452
	C352.531,154.923,356.892,155.724,361.415,155.94z M431.915,261.961v36.109c0,0.504-0.494,0.93-1.08,0.93h-11.34
	c-0.586,0-1.08-0.426-1.08-0.93v-38.452C422.682,260.971,427.213,261.781,431.915,261.961z M465.585,226.47
	c-4.671,12.292-17.357,20.53-31.67,20.53c-18.472,0-33.5-13.682-33.5-30.5s15.028-30.5,33.5-30.5c14.314,0,27.003,8.241,31.67,20.53
	V226.47z"/>
<circle cx="425.42" cy="217" r="10"/>
<path d="M85.915,186h20c4.142,0,7.5-3.358,7.5-7.5s-3.358-7.5-7.5-7.5h-20c-4.142,0-7.5,3.358-7.5,7.5S81.773,186,85.915,186z"/>
<path d="M145.915,171h-18c-4.142,0-7.5,3.358-7.5,7.5s3.358,7.5,7.5,7.5h18c4.142,0,7.5-3.358,7.5-7.5S150.057,171,145.915,171z"/>
<path d="M85.915,243h20c4.142,0,7.5-3.358,7.5-7.5s-3.358-7.5-7.5-7.5h-20c-4.142,0-7.5,3.358-7.5,7.5S81.773,243,85.915,243z"/>
<path d="M145.915,228h-18c-4.142,0-7.5,3.358-7.5,7.5s3.358,7.5,7.5,7.5h18c4.142,0,7.5-3.358,7.5-7.5S150.057,228,145.915,228z"/>
<path d="M145.915,200h-60c-4.142,0-7.5,3.358-7.5,7.5s3.358,7.5,7.5,7.5h60c4.142,0,7.5-3.358,7.5-7.5S150.057,200,145.915,200z"/>
<path d="M145.915,254h-60c-4.142,0-7.5,3.358-7.5,7.5s3.358,7.5,7.5,7.5h60c4.142,0,7.5-3.358,7.5-7.5S150.057,254,145.915,254z"/>
<g>
</g>
<g>
</g>
<g>
</g>
<g>
</g>
<g>
</g>
<g>
</g>
<g>
</g>
<g>
</g>
<g>
</g>
<g>
</g>
<g>
</g>
<g>
</g>
<g>
</g>
<g>
</g>
<g>
</g>
</svg>
