<?xml version="1.0" encoding="iso-8859-1"?>
<!-- Generator: Adobe Illustrator 19.0.0, SVG Export Plug-In . SVG Version: 6.00 Build 0)  -->
<svg version="1.1" id="Capa_1" xmlns="http://www.w3.org/2000/svg" xmlns:xlink="http://www.w3.org/1999/xlink" x="0px" y="0px"
	 viewBox="0 0 512 512" style="enable-background:new 0 0 512 512;" xml:space="preserve">
<path style="fill:#F5DCB4;" d="M504.485,170.503v170.994c0,11.432-9.278,20.71-20.71,20.71H28.225
	c-11.432,0-20.71-9.278-20.71-20.71V170.503c0-11.432,9.278-20.71,20.71-20.71h455.55
	C495.207,149.793,504.485,159.071,504.485,170.503z"/>
<path style="fill:#F2D09E;" d="M486.245,149.954c0.295,1.39,0.456,2.829,0.456,4.306v170.994c0,11.438-9.272,20.71-20.71,20.71
	H170.838c-2.463,0-4.547-1.958-4.552-4.421c0-0.015,0-0.031,0-0.046V170.503c0-11.432,9.278-20.71,20.71-20.71H28.225
	c-11.438,0-20.71,9.272-20.71,20.71v170.994c0,2.466,0.454,4.82,1.245,7.015c0.096,0.268,0.186,0.538,0.293,0.8
	c0.128,0.315,0.275,0.618,0.418,0.925c0.123,0.263,0.244,0.527,0.378,0.785c0.153,0.295,0.317,0.581,0.484,0.868
	c0.149,0.256,0.301,0.509,0.46,0.758c0.175,0.273,0.355,0.541,0.542,0.805c0.176,0.249,0.361,0.492,0.548,0.732
	c0.192,0.247,0.384,0.494,0.587,0.731c0.21,0.246,0.432,0.482,0.653,0.718c0.2,0.214,0.397,0.433,0.606,0.639
	c0.279,0.274,0.572,0.529,0.866,0.787c0.172,0.151,0.335,0.312,0.512,0.457c0.466,0.383,0.951,0.743,1.45,1.085
	c0.192,0.131,0.396,0.247,0.592,0.373c0.334,0.212,0.667,0.423,1.013,0.615c0.225,0.125,0.458,0.238,0.688,0.356
	c0.334,0.17,0.67,0.337,1.015,0.489c0.241,0.107,0.487,0.205,0.732,0.304c0.35,0.139,0.703,0.269,1.063,0.389
	c0.249,0.083,0.5,0.164,0.753,0.238c0.376,0.11,0.756,0.204,1.14,0.294c0.246,0.057,0.491,0.117,0.739,0.165
	c0.427,0.082,0.861,0.142,1.296,0.198c0.215,0.027,0.427,0.065,0.644,0.085c0.656,0.063,1.32,0.1,1.992,0.1h158.771h296.779
	c11.438,0,20.71-9.272,20.71-20.71V170.503C504.485,159.908,496.512,151.178,486.245,149.954z"/>
<path style="fill:#898989;" d="M476.431,206.864v120.315c0,3.858-3.116,6.974-6.974,6.974H42.543c-3.858,0-6.974-3.116-6.974-6.974
	V184.821c0-3.858,3.116-6.974,6.974-6.974h71.5c2.305,0,4.469,1.142,5.761,3.046l10.881,15.951c1.293,1.904,3.457,3.046,5.761,3.046
	h333.01C473.314,199.89,476.431,203.007,476.431,206.864z"/>
<path style="fill:#727575;" d="M171.66,294.575c-30.855,0-55.869-25.014-55.869-55.869v-60.632
	c-0.565-0.146-1.151-0.226-1.748-0.226h-71.5c-3.852,0-6.974,3.122-6.974,6.974v142.358c0,3.852,3.122,6.974,6.974,6.974h426.914
	c3.852,0,6.974-3.122,6.974-6.974v-32.604H171.66z"/>
<path style="fill:#5B5B59;" d="M149.793,252.633v22.764c0,3.126-2.525,5.651-5.651,5.651h-11.743c-3.126,0-5.651,2.525-5.651,5.651
	v11.743c0,3.126-2.525,5.651-5.651,5.651H98.332c-3.126,0-5.651-2.525-5.651-5.651V286.7c0-3.126-2.525-5.651-5.651-5.651H75.287
	c-3.126,0-5.651-2.525-5.651-5.651v-22.764c0-3.126,2.525-5.651,5.651-5.651H87.03c3.126,0,5.651-2.525,5.651-5.651v-11.743
	c0-3.126,2.525-5.651,5.651-5.651h22.764c3.126,0,5.651,2.525,5.651,5.651v11.743c0,3.126,2.525,5.651,5.651,5.651h11.743
	C147.268,246.982,149.793,249.507,149.793,252.633z"/>
<path style="fill:#EFEFEF;" d="M293.072,264.016c11.623,0,21.041,9.418,21.041,21.041c0,5.811-2.355,11.072-6.162,14.879
	c-3.807,3.807-9.068,6.162-14.879,6.162h-74.145c-11.623,0-21.041-9.418-21.041-21.041c0-5.811,2.355-11.072,6.162-14.879
	c3.807-3.807,9.068-6.162,14.879-6.162H293.072z"/>
<path style="fill:#BFC1C1;" d="M293.072,264.016h-74.145c-5.811,0-11.072,2.355-14.879,6.162c-0.661,0.661-1.26,1.381-1.83,2.125
	c2.586-1.134,5.438-1.774,8.442-1.774h74.145c11.623,0,21.041,9.418,21.041,21.041c0,4.802-1.626,9.213-4.332,12.754
	c2.415-1.059,4.598-2.549,6.437-4.388c3.807-3.807,6.162-9.068,6.162-14.879C314.113,273.434,304.695,264.016,293.072,264.016z"/>
<g>
	<path style="fill:#EA4F26;" d="M381.245,270.027c11.072,0,20.039,8.968,20.039,20.039c0,11.072-8.968,20.039-20.039,20.039
		c-11.072,0-20.039-8.968-20.039-20.039C361.205,278.995,370.173,270.027,381.245,270.027z"/>
	<path style="fill:#EA4F26;" d="M426.333,223.937c11.072,0,20.039,8.968,20.039,20.039s-8.968,20.039-20.039,20.039
		c-11.072,0-20.039-8.967-20.039-20.039S415.261,223.937,426.333,223.937z"/>
</g>
<g>
	<path style="fill:#ED3124;" d="M381.746,283.613c0-4.909,1.768-9.398,4.695-12.881c-1.659-0.445-3.396-0.704-5.196-0.704
		c-11.072,0-20.039,8.968-20.039,20.039c0,11.072,8.968,20.039,20.039,20.039c6.163,0,11.669-2.784,15.344-7.158
		C388.043,300.657,381.746,292.884,381.746,283.613z"/>
	<path style="fill:#ED3124;" d="M426.834,237.523c0-4.909,1.768-9.398,4.695-12.881c-1.659-0.445-3.396-0.704-5.196-0.704
		c-11.072,0-20.039,8.968-20.039,20.039s8.968,20.039,20.039,20.039c6.163,0,11.669-2.784,15.344-7.158
		C433.131,254.567,426.834,246.794,426.834,237.523z"/>
</g>
<path d="M483.775,142.278H28.225C12.662,142.278,0,154.94,0,170.503v170.994c0,15.563,12.662,28.225,28.225,28.225h455.55
	c15.563,0,28.225-12.662,28.225-28.225V170.503C512,154.94,499.338,142.278,483.775,142.278z M496.971,341.497
	c0,7.276-5.92,13.196-13.196,13.196H28.225c-7.276,0-13.196-5.92-13.196-13.196V170.503c0-7.276,5.92-13.196,13.196-13.196h455.55
	c7.276,0,13.196,5.92,13.196,13.196L496.971,341.497L496.971,341.497z"/>
<path d="M469.457,192.376h-93.271c-4.151,0-7.515,3.365-7.515,7.515s3.364,7.515,7.515,7.515h92.73v119.233H43.084V185.362h70.672
	l10.711,15.704c2.695,3.97,7.173,6.339,11.978,6.339h177.668c4.151,0,7.515-3.365,7.515-7.515s-3.364-7.515-7.515-7.515h-177.38
	l-10.711-15.704c-2.695-3.97-7.173-6.339-11.978-6.339H42.543c-7.99,0-14.488,6.5-14.488,14.488v142.358
	c0,7.989,6.499,14.488,14.488,14.488h426.914c7.99,0,14.488-6.5,14.488-14.488V206.864
	C483.945,198.875,477.447,192.376,469.457,192.376z"/>
<path d="M98.332,311.609h22.765c7.259,0,13.166-5.907,13.166-13.166v-9.879h9.879c7.259,0,13.166-5.907,13.166-13.166v-22.764
	c0-7.26-5.907-13.166-13.166-13.166h-9.88v-9.879c0-7.26-5.907-13.166-13.166-13.166H98.332c-7.259,0-13.166,5.907-13.166,13.166
	v9.879h-9.879c-7.259,0-13.166,5.907-13.166,13.166v22.764c0,7.26,5.907,13.166,13.166,13.166h9.879v9.879
	C85.166,305.702,91.073,311.609,98.332,311.609z M77.151,273.534v-19.037h9.879c7.259,0,13.166-5.907,13.166-13.166v-9.879h19.037
	v9.879c0,7.26,5.907,13.166,13.166,13.166h9.879v19.037h-9.879c-7.259,0-13.166,5.907-13.166,13.166v9.879h-19.037V286.7
	c0-7.26-5.907-13.166-13.166-13.166H77.151z"/>
<path d="M198.736,264.863c-5.394,5.393-8.364,12.565-8.364,20.193c0,15.746,12.81,28.556,28.556,28.556h74.145
	c7.628,0,14.8-2.97,20.191-8.362c5.394-5.393,8.364-12.565,8.364-20.193c0-15.746-12.81-28.556-28.556-28.556h-74.145
	C211.3,256.501,204.128,259.471,198.736,264.863z M306.599,285.057c0,3.614-1.407,7.012-3.962,9.566
	c-2.554,2.554-5.951,3.961-9.565,3.961h-74.145c-7.459,0-13.526-6.068-13.526-13.526c0-3.614,1.407-7.012,3.962-9.566
	c2.554-2.554,5.951-3.961,9.565-3.961h74.145C300.531,271.53,306.599,277.598,306.599,285.057z"/>
<path d="M381.245,317.62c15.193,0,27.554-12.36,27.554-27.554c0-15.194-12.361-27.554-27.554-27.554
	c-15.193,0-27.554,12.36-27.554,27.554C353.691,305.26,366.052,317.62,381.245,317.62z M381.245,277.542
	c6.906,0,12.524,5.618,12.524,12.524s-5.618,12.524-12.524,12.524s-12.524-5.618-12.524-12.524S374.338,277.542,381.245,277.542z"/>
<path d="M426.333,271.53c15.193,0,27.554-12.36,27.554-27.554c0-15.194-12.361-27.554-27.554-27.554
	c-15.193,0-27.554,12.36-27.554,27.554C398.779,259.17,411.14,271.53,426.333,271.53z M426.333,231.452
	c6.906,0,12.524,5.618,12.524,12.524s-5.618,12.524-12.524,12.524s-12.524-5.618-12.524-12.524S419.426,231.452,426.333,231.452z"/>
<path d="M213.417,284.055c0,4.15,3.364,7.515,7.515,7.515h12.023c4.151,0,7.515-3.365,7.515-7.515s-3.364-7.515-7.515-7.515h-12.023
	C216.78,276.54,213.417,279.905,213.417,284.055z"/>
<path d="M279.045,291.569h12.023c4.151,0,7.515-3.365,7.515-7.515s-3.364-7.515-7.515-7.515h-12.023
	c-4.151,0-7.515,3.365-7.515,7.515S274.894,291.569,279.045,291.569z"/>
<path d="M241.472,232.513c4.151,0,7.515-3.365,7.515-7.515c0-4.15-3.364-7.515-7.515-7.515h-6.513c-4.151,0-7.515,3.365-7.515,7.515
	c0,4.15,3.364,7.515,7.515,7.515H241.472z"/>
<path d="M278.043,232.513c4.151,0,7.515-3.365,7.515-7.515c0-4.15-3.364-7.515-7.515-7.515h-6.513c-4.151,0-7.515,3.365-7.515,7.515
	c0,4.15,3.364,7.515,7.515,7.515H278.043z"/>
<path d="M401.284,187.366c4.151,0,7.515-3.365,7.515-7.515v-10.521c0-4.15-3.364-7.515-7.515-7.515s-7.515,3.365-7.515,7.515v10.521
	C393.769,184.001,397.133,187.366,401.284,187.366z"/>
<path d="M424.329,187.366c4.151,0,7.515-3.365,7.515-7.515v-10.521c0-4.15-3.364-7.515-7.515-7.515s-7.515,3.365-7.515,7.515v10.521
	C416.814,184.001,420.178,187.366,424.329,187.366z"/>
<path d="M447.374,187.366c4.151,0,7.515-3.365,7.515-7.515v-10.521c0-4.15-3.364-7.515-7.515-7.515
	c-4.151,0-7.515,3.365-7.515,7.515v10.521C439.859,184.001,443.223,187.366,447.374,187.366z"/>
<path d="M67.131,208.908v-8.016c0-4.15-3.364-7.515-7.515-7.515s-7.515,3.365-7.515,7.515v8.016c0,4.15,3.364,7.515,7.515,7.515
	S67.131,213.058,67.131,208.908z"/>
<g>
</g>
<g>
</g>
<g>
</g>
<g>
</g>
<g>
</g>
<g>
</g>
<g>
</g>
<g>
</g>
<g>
</g>
<g>
</g>
<g>
</g>
<g>
</g>
<g>
</g>
<g>
</g>
<g>
</g>
</svg>
