<?xml version="1.0" encoding="iso-8859-1"?>
<!-- Generator: Adobe Illustrator 19.0.0, SVG Export Plug-In . SVG Version: 6.00 Build 0)  -->
<svg version="1.1" id="Capa_1" xmlns="http://www.w3.org/2000/svg" xmlns:xlink="http://www.w3.org/1999/xlink" x="0px" y="0px"
	 viewBox="0 0 512 512" style="enable-background:new 0 0 512 512;" xml:space="preserve">
<path style="fill:#535454;" d="M269.28,193.74c-0.7-3.48-3.76-5.99-7.32-5.99h-13.92c-3.56,0-6.62,2.51-7.32,5.99L236,217.25v4.483
	h38v-4.483L269.28,193.74z"/>
<path style="fill:#3D3838;" d="M256.22,193.74c0.647-3.219,3.316-5.604,6.53-5.944c-0.26-0.028-0.523-0.046-0.79-0.046h-13.92
	c-3.56,0-6.62,2.51-7.32,5.99L236,217.25v4.483h15.5v-4.483L256.22,193.74z"/>
<path style="fill:#898989;" d="M394,170.75c61.03,0,110.5,49.47,110.5,110.5s-49.47,110.5-110.5,110.5
	c-37.17,0-70.06-18.36-90.09-46.5h-95.82c-20.03,28.14-52.92,46.5-90.09,46.5c-61.03,0-110.5-49.47-110.5-110.5
	s49.47-110.5,110.5-110.5c37.17,0,70.06,18.36,90.09,46.5h95.82C323.94,189.11,356.83,170.75,394,170.75z"/>
<g>
	<path style="fill:#6B7070;" d="M461.947,194.106c17.893,19.635,28.803,45.744,28.803,74.404c0,61.03-49.47,110.5-110.5,110.5
		c-25.608,0-49.184-8.716-67.923-23.34c20.21,22.164,49.318,36.08,81.673,36.08c61.03,0,110.5-49.47,110.5-110.5
		C504.5,245.842,487.846,214.329,461.947,194.106z"/>
	<path style="fill:#6B7070;" d="M280.363,332.51h-80.399c-3.406,0-6.659,1.518-8.763,4.196
		c-11.843,15.074-27.526,26.986-45.57,34.28c-27.878-20.058-46.042-52.768-46.042-89.737c0-44.595,26.416-83.012,64.453-100.472
		c-14.309-6.568-30.258-10.176-47.066-10.023C56.946,171.3,7.945,220.389,7.503,280.418c-0.213,28.986,10.734,55.411,28.8,75.236
		l0,0c0.004,0.004,0.008,0.009,0.012,0.013c0.61,0.67,1.229,1.331,1.856,1.986c0.129,0.134,0.261,0.266,0.39,0.399
		c0.506,0.523,1.015,1.044,1.531,1.557c0.18,0.179,0.363,0.353,0.544,0.531c0.472,0.463,0.945,0.923,1.425,1.377
		c0.211,0.199,0.425,0.395,0.637,0.593c0.456,0.425,0.914,0.849,1.378,1.266c0.233,0.21,0.469,0.417,0.704,0.625
		c0.449,0.398,0.9,0.793,1.355,1.184c0.25,0.215,0.503,0.427,0.756,0.639c0.448,0.377,0.899,0.753,1.353,1.123
		c0.261,0.213,0.525,0.424,0.788,0.635c0.452,0.362,0.906,0.72,1.364,1.075c0.272,0.211,0.546,0.42,0.82,0.629
		c0.456,0.347,0.915,0.69,1.377,1.03c0.28,0.206,0.56,0.41,0.841,0.613c0.465,0.336,0.934,0.667,1.405,0.995
		c0.284,0.198,0.568,0.396,0.853,0.592c0.475,0.325,0.954,0.645,1.434,0.963c0.287,0.19,0.574,0.381,0.863,0.568
		c0.49,0.317,0.983,0.628,1.478,0.938c0.285,0.178,0.568,0.358,0.854,0.533c0.511,0.313,1.027,0.62,1.543,0.925
		c0.276,0.163,0.55,0.329,0.828,0.489c0.543,0.314,1.091,0.621,1.64,0.926c0.256,0.143,0.51,0.288,0.768,0.429
		c0.604,0.33,1.214,0.651,1.824,0.97c0.207,0.108,0.411,0.219,0.618,0.326c0.777,0.399,1.559,0.789,2.346,1.17
		c0.044,0.021,0.087,0.044,0.13,0.065c0.85,0.41,1.706,0.81,2.568,1.199c0.022,0.01,0.045,0.019,0.067,0.029
		c0.819,0.369,1.643,0.728,2.472,1.077c0.238,0.1,0.48,0.195,0.719,0.294c0.617,0.255,1.235,0.509,1.857,0.753
		c0.304,0.119,0.612,0.232,0.917,0.349c0.561,0.214,1.121,0.428,1.686,0.633c0.344,0.125,0.691,0.244,1.037,0.365
		c0.532,0.187,1.064,0.374,1.6,0.553c0.367,0.123,0.736,0.24,1.104,0.358c0.521,0.168,1.041,0.335,1.565,0.495
		c0.381,0.117,0.765,0.229,1.148,0.341c0.515,0.152,1.031,0.302,1.55,0.446c0.394,0.11,0.789,0.215,1.185,0.321
		c0.512,0.136,1.025,0.27,1.54,0.399c0.404,0.101,0.81,0.2,1.216,0.297c0.511,0.122,1.023,0.241,1.536,0.355
		c0.413,0.092,0.827,0.182,1.241,0.27c0.512,0.108,1.026,0.212,1.541,0.314c0.418,0.082,0.836,0.163,1.256,0.241
		c0.518,0.096,1.038,0.186,1.559,0.274c0.419,0.071,0.837,0.142,1.257,0.208c0.527,0.083,1.055,0.16,1.584,0.235
		c0.42,0.06,0.839,0.121,1.26,0.176c0.535,0.07,1.072,0.133,1.609,0.195c0.418,0.049,0.835,0.099,1.255,0.143
		c0.551,0.058,1.104,0.107,1.657,0.156c0.409,0.037,0.817,0.077,1.227,0.109c0.581,0.046,1.165,0.081,1.748,0.117
		c0.385,0.024,0.769,0.053,1.155,0.073c0.648,0.034,1.3,0.056,1.951,0.079c0.324,0.011,0.647,0.028,0.972,0.037
		c0.977,0.026,1.958,0.039,2.942,0.039c1.098,0,2.192-0.019,3.283-0.051c0.367-0.011,0.731-0.031,1.097-0.045
		c0.722-0.028,1.443-0.058,2.161-0.1c0.439-0.026,0.875-0.059,1.312-0.09c0.64-0.045,1.279-0.092,1.915-0.148
		c0.47-0.041,0.938-0.088,1.407-0.135c0.599-0.06,1.196-0.124,1.791-0.194c0.487-0.057,0.973-0.117,1.458-0.18
		c0.571-0.075,1.141-0.155,1.709-0.238c0.498-0.073,0.995-0.146,1.491-0.225c0.546-0.088,1.088-0.183,1.631-0.279
		c0.511-0.09,1.022-0.177,1.531-0.274s1.015-0.204,1.522-0.308c0.533-0.109,1.068-0.214,1.599-0.331
		c0.284-0.063,0.565-0.135,0.849-0.199c1.43-0.322,2.849-0.695,4.267-1.068c0.245-0.064,0.489-0.128,0.732-0.196
		c0.632-0.176,1.259-0.365,1.887-0.552c0.358-0.107,0.718-0.211,1.074-0.322c0.626-0.194,1.248-0.397,1.87-0.602
		c0.348-0.115,0.696-0.229,1.042-0.347c0.629-0.214,1.254-0.435,1.878-0.66c0.327-0.118,0.653-0.237,0.978-0.358
		c0.638-0.237,1.275-0.479,1.907-0.728c0.292-0.115,0.583-0.233,0.874-0.35c0.66-0.266,1.318-0.534,1.971-0.812
		c0.226-0.096,0.45-0.197,0.676-0.295c18.602-8.067,34.557-21.09,46.178-37.416h92.662c-1.776-1.839-3.489-3.739-5.136-5.696
		C291.837,335.061,286.234,332.51,280.363,332.51z"/>
</g>
<g>
	<circle style="fill:#727575;" cx="118.5" cy="280.75" r="78"/>
	<circle style="fill:#727575;" cx="394.5" cy="280.75" r="78"/>
</g>
<g>
	<path style="fill:#666666;" d="M117.563,268.51c0-24.46,11.267-46.281,28.885-60.582c-8.679-3.333-18.095-5.178-27.948-5.178
		c-43.078,0-78,34.922-78,78s34.922,78,78,78c18.618,0,35.704-6.533,49.115-17.418C138.346,330.091,117.563,301.736,117.563,268.51z
		"/>
	<path style="fill:#666666;" d="M393.563,268.51c0-24.46,11.267-46.281,28.885-60.582c-8.679-3.333-18.095-5.178-27.948-5.178
		c-43.078,0-78,34.922-78,78s34.922,78,78,78c18.618,0,35.704-6.533,49.115-17.418C414.346,330.091,393.563,301.736,393.563,268.51z
		"/>
</g>
<path style="fill:#9D9E9E;" d="M469.546,259.501c-6.778-23.983-24.722-43.275-47.878-51.881l-62.434,61.842
	c-13.842,13.71-13.842,35.942,0,49.653c6.916,6.85,15.99,10.285,25.064,10.285s18.148-3.435,25.064-10.285L469.546,259.501z"/>
<g>
	<circle style="fill:#5B5B59;" cx="387" cy="291.25" r="14"/>
	<circle style="fill:#5B5B59;" cx="422" cy="256.25" r="14"/>
</g>
<g>
	<path style="fill:#494747;" d="M385,286.01c0-3.293,1.146-6.316,3.05-8.707c-0.348-0.026-0.696-0.053-1.05-0.053
		c-7.73,0-14,6.27-14,14s6.27,14,14,14c4.437,0,8.385-2.071,10.95-5.293C390.712,299.418,385,293.386,385,286.01z"/>
	<path style="fill:#494747;" d="M420,251.01c0-3.293,1.146-6.316,3.05-8.707c-0.348-0.026-0.696-0.053-1.05-0.053
		c-7.73,0-14,6.27-14,14c0,7.73,6.27,14,14,14c4.437,0,8.385-2.071,10.95-5.293C425.712,264.418,420,258.386,420,251.01z"/>
</g>
<path style="fill:#727575;" d="M294,252.15v2.2c0,5.47-4.43,9.9-9.9,9.9h-56.2c-5.47,0-9.9-4.43-9.9-9.9v-2.2
	c0-5.47,4.43-9.9,9.9-9.9h56.2C289.57,242.25,294,246.68,294,252.15z"/>
<path style="fill:#5B5B59;" d="M161,272.94v16.62c0,4.25-3.44,7.69-7.69,7.69H134v19.31c0,4.25-3.44,7.69-7.69,7.69h-16.62
	c-4.25,0-7.69-3.44-7.69-7.69v-19.31H82.69c-4.25,0-7.69-3.44-7.69-7.69v-16.62c0-4.25,3.44-7.69,7.69-7.69H102v-19.31
	c0-4.25,3.44-7.69,7.69-7.69h16.62c4.25,0,7.69,3.44,7.69,7.69v19.31h19.31C157.56,265.25,161,268.69,161,272.94z"/>
<path d="M394,163.25c-36.803,0-71.604,17.31-93.878,46.5h-19.978l-3.511-17.489c-1.298-6.451-6.695-11.262-13.133-11.931v-30.08
	c0-12.407,10.094-22.5,22.5-22.5s22.5,10.093,22.5,22.5v10c0,4.142,3.357,7.5,7.5,7.5s7.5-3.358,7.5-7.5v-10
	c0-20.678-16.822-37.5-37.5-37.5s-37.5,16.822-37.5,37.5v30h-0.46c-7.102,0-13.272,5.051-14.674,12.014l-3.51,17.486h-17.978
	c-22.274-29.19-57.075-46.5-93.878-46.5c-65.065,0-118,52.935-118,118s52.935,118,118,118c36.803,0,71.604-17.31,93.878-46.5h88.244
	c22.274,29.19,57.075,46.5,93.878,46.5c17.952,0,35.195-3.93,51.248-11.681c3.73-1.801,5.294-6.285,3.493-10.015
	c-1.799-3.729-6.281-5.294-10.015-3.493c-14.003,6.761-29.051,10.188-44.727,10.188c-33.265,0-64.658-16.206-83.979-43.349
	c-1.407-1.977-3.684-3.151-6.11-3.151h-95.82c-2.427,0-4.703,1.174-6.11,3.151c-19.322,27.144-50.715,43.35-83.98,43.35
	c-56.794,0-103-46.206-103-103s46.206-103,103-103c33.265,0,64.658,16.206,83.979,43.349c1.407,1.977,3.684,3.151,6.11,3.151h95.82
	c2.427,0,4.703-1.174,6.11-3.151c19.321-27.144,50.715-43.349,83.979-43.349c56.794,0,103,46.206,103,103
	c0,23.771-8.288,46.96-23.338,65.298c-2.628,3.202-2.162,7.928,1.04,10.555c3.202,2.627,7.927,2.163,10.556-1.04
	C502.503,335.051,512,308.481,512,281.25C512,216.185,459.065,163.25,394,163.25z M245.146,209.75l2.895-14.5l7.443-0.018
	c0.171,0.012,0.343,0.018,0.517,0.018c0.188,0,0.374-0.007,0.558-0.021l5.368-0.013l2.918,14.534H245.146z"/>
<path d="M126.31,230.75h-16.62c-8.376,0-15.19,6.814-15.19,15.19v11.81H82.69c-8.376,0-15.19,6.814-15.19,15.19v16.62
	c0,8.376,6.814,15.19,15.19,15.19H94.5v11.81c0,8.376,6.814,15.19,15.19,15.19h16.619c8.376,0,15.19-6.814,15.19-15.19v-11.81h11.81
	c8.376,0,15.19-6.814,15.19-15.19v-16.62c0-8.376-6.814-15.19-15.19-15.19H141.5v-11.81C141.5,237.564,134.686,230.75,126.31,230.75
	z M153.31,272.75c0.108,0,0.19,0.082,0.19,0.19v16.62c0,0.108-0.082,0.19-0.19,0.19H134c-4.143,0-7.5,3.358-7.5,7.5v19.31
	c0,0.108-0.082,0.19-0.19,0.19h-16.62c-0.108,0-0.19-0.082-0.19-0.19v-19.31c0-4.142-3.357-7.5-7.5-7.5H82.69
	c-0.108,0-0.19-0.082-0.19-0.19v-16.62c0-0.108,0.082-0.19,0.19-0.19H102c4.143,0,7.5-3.358,7.5-7.5v-19.31
	c0-0.108,0.082-0.19,0.19-0.19h16.619c0.108,0,0.19,0.082,0.19,0.19v19.31c0,4.142,3.357,7.5,7.5,7.5H153.31z"/>
<path d="M387,269.75c-11.855,0-21.5,9.645-21.5,21.5s9.645,21.5,21.5,21.5s21.5-9.645,21.5-21.5S398.855,269.75,387,269.75z
	 M387,297.75c-3.584,0-6.5-2.916-6.5-6.5s2.916-6.5,6.5-6.5s6.5,2.916,6.5,6.5S390.584,297.75,387,297.75z"/>
<path d="M422,234.75c-11.855,0-21.5,9.645-21.5,21.5s9.645,21.5,21.5,21.5s21.5-9.645,21.5-21.5
	C443.5,244.395,433.855,234.75,422,234.75z M422,262.75c-3.584,0-6.5-2.916-6.5-6.5c0-3.584,2.916-6.5,6.5-6.5s6.5,2.916,6.5,6.5
	S425.584,262.75,422,262.75z"/>
<path d="M301.5,254.35v-2.2c0-9.594-7.806-17.4-17.4-17.4h-56.2c-9.595,0-17.4,7.806-17.4,17.4v2.2c0,9.594,7.806,17.4,17.4,17.4
	h56.2C293.694,271.75,301.5,263.944,301.5,254.35z M286.5,254.35c0,1.323-1.077,2.4-2.4,2.4h-56.2c-1.323,0-2.4-1.077-2.4-2.4v-2.2
	c0-1.323,1.077-2.4,2.4-2.4h56.2c1.323,0,2.4,1.077,2.4,2.4V254.35z"/>
<path d="M118,196.13c-46.935,0-85.119,38.185-85.119,85.12S71.065,366.37,118,366.37s85.119-38.185,85.119-85.12
	c0-4.142-3.357-7.5-7.5-7.5s-7.5,3.358-7.5,7.5c0,38.664-31.455,70.12-70.119,70.12s-70.119-31.456-70.119-70.12
	S79.336,211.13,118,211.13c4.143,0,7.5-3.358,7.5-7.5S122.143,196.13,118,196.13z"/>
<path d="M394,351.37c-38.664,0-70.119-31.456-70.119-70.12c0-4.142-3.357-7.5-7.5-7.5s-7.5,3.358-7.5,7.5
	c0,46.935,38.185,85.12,85.119,85.12s85.119-38.185,85.119-85.12c0-11.775-2.404-22.998-6.745-33.207
	c-0.016-0.038-0.033-0.076-0.049-0.115c-0.061-0.142-0.122-0.284-0.183-0.426c-0.02-0.046-0.04-0.092-0.06-0.138
	c-0.056-0.129-0.113-0.258-0.17-0.387c-0.024-0.055-0.048-0.109-0.072-0.164c-0.06-0.136-0.121-0.271-0.182-0.407
	c-0.018-0.041-0.036-0.081-0.055-0.121c-0.078-0.173-0.157-0.346-0.236-0.518c-0.021-0.047-0.043-0.093-0.065-0.14
	c-0.059-0.128-0.119-0.256-0.179-0.384c-0.029-0.061-0.057-0.121-0.086-0.182c-0.053-0.113-0.107-0.227-0.161-0.34
	c-0.031-0.065-0.062-0.129-0.093-0.194c-0.055-0.114-0.11-0.228-0.165-0.342c-0.028-0.058-0.056-0.116-0.085-0.174
	c-0.06-0.124-0.121-0.247-0.182-0.37c-0.025-0.05-0.05-0.101-0.075-0.151c-0.086-0.173-0.172-0.345-0.259-0.517
	c-0.003-0.006-0.007-0.013-0.01-0.019c-0.083-0.165-0.168-0.33-0.252-0.494c-0.022-0.042-0.043-0.084-0.065-0.126
	c-0.069-0.134-0.139-0.268-0.209-0.402c-0.022-0.041-0.043-0.082-0.065-0.124c-0.071-0.135-0.143-0.271-0.214-0.405
	c-0.021-0.039-0.041-0.077-0.062-0.116c-0.079-0.148-0.158-0.295-0.238-0.443c-0.013-0.023-0.025-0.047-0.038-0.07
	c-0.192-0.353-0.386-0.705-0.583-1.055c-0.004-0.006-0.007-0.012-0.01-0.019c-0.093-0.165-0.186-0.329-0.279-0.493
	c-0.013-0.023-0.026-0.046-0.039-0.068c-0.087-0.153-0.175-0.305-0.263-0.457c-0.012-0.02-0.023-0.04-0.035-0.06
	c-0.406-0.698-0.821-1.39-1.245-2.075c-0.004-0.006-0.008-0.012-0.011-0.018c-0.101-0.162-0.202-0.325-0.304-0.486l-0.027-0.042
	c-0.105-0.166-0.21-0.332-0.315-0.497c-0.001-0.001-0.001-0.002-0.002-0.003c-0.324-0.506-0.653-1.009-0.987-1.507
	c-0.018-0.027-0.036-0.053-0.053-0.08c-0.091-0.135-0.182-0.27-0.273-0.405c-0.023-0.034-0.046-0.067-0.069-0.101
	c-0.09-0.132-0.18-0.263-0.271-0.394c-0.021-0.031-0.042-0.061-0.063-0.092c-0.108-0.156-0.216-0.311-0.325-0.466
	c-0.003-0.004-0.005-0.007-0.008-0.011c-0.109-0.155-0.219-0.31-0.328-0.464c-0.04-0.056-0.08-0.112-0.121-0.168
	c-0.069-0.096-0.138-0.193-0.207-0.289c-0.051-0.07-0.101-0.139-0.152-0.209c-0.057-0.078-0.114-0.156-0.17-0.234
	c-0.06-0.082-0.12-0.164-0.181-0.246c-0.044-0.06-0.089-0.121-0.134-0.181c-0.069-0.094-0.139-0.187-0.208-0.28
	c-0.022-0.03-0.045-0.059-0.067-0.089c-9.754-13.011-23.158-23.192-38.688-28.919c-0.16-0.059-0.322-0.112-0.484-0.16
	c-9.044-3.282-18.797-5.073-28.96-5.073c-4.143,0-7.5,3.358-7.5,7.5s3.357,7.5,7.5,7.5c4.235,0,8.383,0.377,12.412,1.1
	l-52.715,52.716c-7.961,7.96-12.345,18.544-12.345,29.803s4.384,21.843,12.344,29.803c7.962,7.962,18.547,12.347,29.804,12.347
	s21.842-4.385,29.804-12.347l50.454-50.454c0.239,2.351,0.362,4.737,0.362,7.15C464.119,319.914,432.664,351.37,394,351.37z
	 M402.696,313.947c-5.128,5.128-11.946,7.953-19.196,7.953s-14.068-2.825-19.197-7.953c-5.127-5.127-7.95-11.945-7.95-19.197
	s2.823-14.069,7.951-19.197l58.314-58.314c16.657,7.476,29.888,21.27,36.625,38.313c0.002,0.006,0.005,0.012,0.007,0.018
	c0.04,0.102,0.08,0.204,0.12,0.306c0.016,0.041,0.032,0.082,0.048,0.124c0.028,0.073,0.057,0.147,0.085,0.221
	c0.027,0.07,0.054,0.14,0.08,0.21c0.018,0.047,0.036,0.094,0.053,0.142c0.037,0.098,0.074,0.197,0.111,0.295
	c0.003,0.007,0.005,0.015,0.008,0.022L402.696,313.947z"/>
<path d="M239.696,292.947l-19.5,19.5c-2.929,2.929-2.929,7.678,0,10.606c1.465,1.464,3.385,2.197,5.304,2.197
	s3.839-0.732,5.304-2.197l19.5-19.5c2.929-2.929,2.929-7.678,0-10.606C247.374,290.018,242.626,290.018,239.696,292.947z"/>
<path d="M280.696,292.947l-19.5,19.5c-2.929,2.929-2.929,7.678,0,10.606c1.465,1.464,3.385,2.197,5.304,2.197
	s3.839-0.732,5.304-2.197l19.5-19.5c2.929-2.929,2.929-7.678,0-10.606C288.374,290.018,283.626,290.018,280.696,292.947z"/>
<g>
</g>
<g>
</g>
<g>
</g>
<g>
</g>
<g>
</g>
<g>
</g>
<g>
</g>
<g>
</g>
<g>
</g>
<g>
</g>
<g>
</g>
<g>
</g>
<g>
</g>
<g>
</g>
<g>
</g>
</svg>
