<?xml version="1.0" encoding="iso-8859-1"?>
<!-- Generator: Adobe Illustrator 19.0.0, SVG Export Plug-In . SVG Version: 6.00 Build 0)  -->
<svg version="1.1" id="Capa_1" xmlns="http://www.w3.org/2000/svg" xmlns:xlink="http://www.w3.org/1999/xlink" x="0px" y="0px"
	 viewBox="0 0 512 512" style="enable-background:new 0 0 512 512;" xml:space="preserve">
<g>
	<path style="fill:#ED3124;" d="M392.379,438.166c1.016,2.005,0.132,4.452-1.944,5.311l-30.378,12.566
		c-4.283,1.771-8.687-2.272-7.286-6.695l9.924-31.342c0.679-2.143,3.041-3.231,5.126-2.391
		C378.829,420.056,387.013,427.577,392.379,438.166z"/>
	<path style="fill:#ED3124;" d="M346.676,455.441c4.423-1.401,8.466,3.002,6.695,7.286l-12.566,30.378
		c-0.859,2.077-3.307,2.96-5.311,1.944c-10.588-5.366-18.109-13.548-22.552-24.558c-0.841-2.084,0.248-4.447,2.391-5.126
		L346.676,455.441z"/>
</g>
<path style="fill:#DDDBC7;" d="M208.963,215.757l17.013,43.033l-10.008,14.511H54.996c-8.066,0-14.601-6.535-14.601-14.601
	c0-4.033,1.631-7.686,4.273-10.328c2.642-2.642,6.295-4.273,10.328-4.273H74.23c-0.64-2.012-0.991-4.153-0.991-6.385
	c0-8.687,5.284-16.142,12.8-19.325c0.18-6.385,1.871-12.389,4.744-17.664l14.101-18.995L208.963,215.757z"/>
<path style="fill:#CEC9A7;" d="M102.709,265.081c2.642-2.642,6.295-4.273,10.328-4.273h11.936c3.475,0,6.314-2.843,6.308-6.318
	v-0.067c0-5.954,2.482-11.329,6.464-15.147c3.795-3.639,6.319-8.352,7.698-13.426c0.805-2.958,1.945-5.778,3.382-8.415
	l12.747-17.171l-56.687-18.532l-14.101,18.995c-2.872,5.274-4.563,11.279-4.744,17.664c-7.516,3.182-12.8,10.638-12.8,19.325
	c0,2.232,0.35,4.373,0.991,6.385H54.996c-4.033,0-7.686,1.631-10.328,4.273c-2.658,2.658-4.293,6.339-4.273,10.401
	c0.04,8.107,6.925,14.528,15.032,14.528h43.178C99.065,270.113,100.536,267.252,102.709,265.081z"/>
<path style="fill:#DDDBC7;" d="M317.507,59.838c-32.485,85.095-49.148,170.631-47.877,256.656
	c-63.409-63.168-139.447-106.512-226.834-132.041c37.038-59.536,65.35-118.541,83.594-176.945
	C181.412,33.247,246.012,49.83,317.507,59.838z"/>
<path style="fill:#CECDCA;" d="M42.796,184.453c87.387,25.53,163.425,68.873,226.834,132.041c-0.013-0.898-0.013-1.794-0.022-2.692
	L126.335,7.681C108.089,66.028,79.798,124.976,42.796,184.453z"/>
<path style="fill:#ED3124;" d="M317.507,59.838C246.012,49.83,181.412,33.247,126.39,7.508c0,0-0.088,0.225,0,0l51.155,112.321
	L317.507,59.838C317.601,59.591,317.413,60.083,317.507,59.838z"/>
<path style="fill:#E2231E;" d="M42.796,184.453c87.387,25.53,163.425,68.873,226.834,132.041c-0.015-1.032-0.016-2.063-0.026-3.093
	l-92.058-193.573L42.796,184.453C41.931,185.86,43.672,183.045,42.796,184.453z"/>
<path style="fill:#DDDBC7;" d="M485.345,157.302c2.642,2.642,4.273,6.295,4.273,10.328c0,8.066-6.535,14.601-14.601,14.601H327.204
	c-4.033,0-7.686-1.631-10.328-4.273c-2.642-2.642-4.273-6.295-4.273-10.328c0-8.066,6.535-14.601,14.601-14.601h19.235
	c-0.641-2.012-0.991-4.153-0.991-6.385c0-8.687,5.284-16.142,12.8-19.325c0.58-21.176,17.904-38.159,39.21-38.159
	c16.633,0,30.844,10.358,36.548,24.959c2.582-0.801,5.324-1.231,8.166-1.231c15.122,0,27.371,12.249,27.371,27.371
	c0,4.614-1.141,8.957-3.162,12.77h8.637C479.05,153.029,482.703,154.66,485.345,157.302z"/>
<path style="fill:#CEC9A7;" d="M365.521,171.798h11.936c3.475,0,6.314-2.843,6.308-6.318v-0.067c0-5.646,2.233-10.772,5.859-14.543
	c4.144-4.308,6.924-9.717,8.709-15.423c4.536-14.508,17.26-25.386,32.763-27.231c-6.856-11.411-19.352-19.057-33.639-19.057
	c-21.306,0-38.63,16.983-39.21,38.159c-7.516,3.182-12.8,10.638-12.8,19.325c0,2.232,0.35,4.373,0.991,6.385h-18.804
	c-8.107,0-14.991,6.421-15.031,14.528c-0.02,4.062,1.615,7.743,4.273,10.401c2.642,2.642,6.295,4.273,10.328,4.273h24.328
	C353.326,176.199,358.905,171.798,365.521,171.798z"/>
<path style="fill:#DDDBC7;" d="M147.256,422.916c1.951,1.952,3.162,4.654,3.162,7.636c0,5.975-4.844,10.818-10.808,10.818H30.126
	c-2.982,0-5.684-1.211-7.646-3.172c-1.951-1.952-3.162-4.654-3.162-7.646c0-5.965,4.844-10.808,10.808-10.808h14.251
	c-0.47-1.491-0.731-3.082-0.731-4.734c0-6.435,3.913-11.949,9.477-14.311c0.43-15.682,13.26-28.262,29.042-28.262
	c12.319,0,22.837,7.666,27.061,18.494c1.911-0.6,3.943-0.921,6.055-0.921c11.189,0,20.266,9.077,20.266,20.276
	c0,3.413-0.841,6.635-2.342,9.457h6.405C142.593,419.743,145.295,420.954,147.256,422.916z"/>
<path style="fill:#CEC9A7;" d="M44.032,440.432c0-5.965,4.844-10.808,10.808-10.808h8.982c2.564,0,4.546-2.12,4.538-4.685
	c0-0.016,0-0.033,0-0.049c0-5.662,3.03-10.613,7.55-13.328c1.202-0.723,1.939-2.004,2.094-3.398
	c1.503-13.62,12.402-24.403,26.077-25.711c-5.323-6.13-13.156-10.017-21.914-10.017c-15.782,0-28.612,12.58-29.042,28.262
	c-5.564,2.362-9.477,7.876-9.477,14.311c0,1.651,0.26,3.242,0.731,4.734H30.451c-5.738,0-10.725,4.337-11.108,10.064
	c-0.219,3.288,1.026,6.279,3.137,8.39c1.962,1.961,4.664,3.172,7.646,3.172h13.953C44.053,441.059,44.032,440.748,44.032,440.432z"
	/>
<path style="fill:#DDDBC7;" d="M489.999,353.412c1.661,1.661,2.682,3.953,2.682,6.485c0,5.054-4.103,9.157-9.157,9.157h-92.771
	c-2.532,0-4.814-1.021-6.475-2.682c-1.661-1.661-2.682-3.943-2.682-6.475c0-5.064,4.103-9.167,9.157-9.167h12.079
	c-0.4-1.261-0.62-2.612-0.62-4.003c0-5.454,3.313-10.138,8.036-12.139c0.36-13.28,11.229-23.938,24.599-23.938
	c10.438,0,19.355,6.495,22.938,15.662c1.611-0.5,3.333-0.771,5.124-0.771c9.487,0,17.173,7.686,17.173,17.173
	c0,2.892-0.721,5.624-1.982,8.016h5.424C486.056,350.73,488.337,351.761,489.999,353.412z"/>
<path style="fill:#CEC9A7;" d="M412.122,362.847h7.621c2.169,0,3.845-1.792,3.838-3.961c0-0.014,0-0.028,0-0.042
	c0-4.803,2.569-9.008,6.407-11.311c1.013-0.607,1.638-1.685,1.767-2.859c1.343-12.265,11.689-21.821,24.295-21.904
	c-4.283-7.252-12.17-12.121-21.204-12.121c-13.37,0-24.239,10.658-24.599,23.938c-4.724,2.002-8.036,6.685-8.036,12.139
	c0,1.391,0.22,2.742,0.62,4.003h-12.079c-5.054,0-9.157,4.103-9.157,9.167c0,2.532,1.021,4.814,2.682,6.475
	c1.661,1.661,3.943,2.682,6.475,2.682h12.71C404.694,365.446,408.104,362.847,412.122,362.847z"/>
<path d="M395.911,492.812c-0.021-0.045-0.042-0.09-0.064-0.135c-6.17-12.634-14.865-23.521-25.355-32.141l25.433-10.52
	c1.843-0.763,3.308-2.229,4.069-4.071c0.762-1.844,0.757-3.916-0.012-5.756c-6.668-15.969-18.397-26.738-34.862-32.008
	c-1.899-0.61-3.963-0.436-5.735,0.48c-1.772,0.916-3.106,2.5-3.708,4.401l-10.321,32.595c-7.549-3.026-15.548-5.118-23.843-6.165
	l-36.925-4.661c-6.883-0.868-12.074-6.755-12.074-13.694v-3.936c0-7.13,5.351-13.035,12.447-13.737l42.634-4.21
	c14.812-1.463,25.982-13.791,25.982-28.675c0-10.606-5.798-20.325-15.134-25.36l-61.353-33.098
	c-0.292-37.956,2.991-76.651,9.769-115.085c0.72-4.082-2.006-7.976-6.088-8.695c-4.081-0.724-7.976,2.006-8.696,6.088
	c-5.431,30.798-8.669,61.766-9.675,92.415l-74.805-163.115l118.607-55.063c-9.004,24.688-16.701,49.485-22.925,73.874
	c-1.025,4.017,1.4,8.104,5.417,9.129c4.015,1.021,8.104-1.4,9.129-5.417c7.05-27.626,16.033-55.801,26.698-83.739
	c0.815-2.136,0.612-4.525-0.549-6.494s-3.158-3.3-5.422-3.616C243.202,41.856,181.387,24.946,129.573,0.708
	c-1.963-0.921-4.226-0.944-6.208-0.069c-1.983,0.874-3.491,2.562-4.136,4.63C101.692,61.408,73.833,120.36,36.425,180.487
	c-1.24,1.993-1.476,4.451-0.638,6.644c0.838,2.193,2.653,3.867,4.907,4.525c13.675,3.995,27.054,8.439,40.13,13.326
	c-0.92,2.832-1.571,5.755-1.941,8.719c-7.802,4.975-12.758,13.482-13.123,22.891H54.996c-5.909,0-11.461,2.298-15.636,6.472
	c-4.173,4.174-6.471,9.726-6.471,15.635c0,12.19,9.918,22.107,22.107,22.107h160.973c0.533,0,1.054-0.056,1.555-0.162
	c16.413,12.712,32.025,26.439,46.809,41.167c0.149,0.148,0.303,0.289,0.462,0.423c0.481,0.464,1.033,0.872,1.651,1.205
	l64.866,34.994c4.472,2.413,7.251,7.068,7.251,12.149c0,7.13-5.351,13.035-12.447,13.737l-42.634,4.21
	c-14.812,1.463-25.982,13.791-25.982,28.675v3.936c0,14.485,10.837,26.775,25.206,28.588l36.925,4.661
	c1.79,0.226,3.564,0.51,5.319,0.85l-16.756,5.305c-1.901,0.602-3.485,1.938-4.401,3.709c-0.917,1.771-1.089,3.835-0.481,5.734
	c5.27,16.465,16.039,28.194,32.008,34.862c0.925,0.386,1.908,0.579,2.892,0.579c0.974,0,1.946-0.189,2.864-0.567
	c1.844-0.762,3.31-2.226,4.072-4.069l12.819-30.991c10.177,7.588,18.576,17.586,24.358,29.399l3.921,8.452
	c1.271,2.738,3.982,4.349,6.814,4.349c1.057,0,2.132-0.225,3.153-0.699c3.76-1.744,5.395-6.207,3.65-9.968L395.911,492.812z
	 M367.535,425.338c6.35,3.247,11.365,7.855,15.146,13.912l-22.496,9.305L367.535,425.338z M244.021,282.787
	c-44.121-37.338-94.311-67.06-149.962-88.813c-0.371-0.18-0.75-0.327-1.134-0.442c-10.326-4.011-20.84-7.748-31.537-11.21
	l112.588-52.269L244.021,282.787z M181.335,110.086L141.03,22.201c41.447,17.378,88.722,30.593,143.331,40.055L181.335,110.086z
	 M127.377,28.442l40.342,87.966L63.388,164.843C90.535,118.368,111.983,72.651,127.377,28.442z M54.996,265.795
	c-3.912,0-7.095-3.183-7.095-7.095c0-1.899,0.737-3.683,2.075-5.021c1.338-1.338,3.121-2.075,5.021-2.075H74.23
	c2.395,0,4.646-1.143,6.06-3.075c1.413-1.933,1.819-4.425,1.093-6.707c-0.422-1.328-0.637-2.71-0.637-4.107
	c0-5.427,3.226-10.299,8.22-12.414c2.705-1.146,4.493-3.764,4.576-6.699c0.079-2.81,0.511-5.538,1.288-8.162
	c36.733,14.878,70.96,33.368,102.494,55.356H54.996V265.795z M334.38,487.549c-6.057-3.78-10.663-8.795-13.911-15.146l23.216-7.352
	L334.38,487.549z"/>
<path d="M305.097,167.63c0,5.909,2.298,11.461,6.472,15.636c4.173,4.173,9.725,6.471,15.635,6.471h147.813
	c12.189,0,22.107-9.917,22.107-22.107c0-5.909-2.298-11.461-6.472-15.636c-3.789-3.789-8.716-6.032-14.013-6.413
	c0.271-1.757,0.409-3.538,0.409-5.322c0-19.231-15.646-34.877-34.877-34.877c-1.306,0-2.606,0.072-3.896,0.215
	c-8.172-14.727-23.586-23.943-40.818-23.943c-23.984,0-43.564,17.67-46.383,40.986c-7.796,4.976-12.746,13.479-13.111,22.883h-10.76
	C315.015,145.523,305.097,155.44,305.097,167.63z M327.204,160.535h19.235c2.395,0,4.646-1.143,6.06-3.075
	c1.413-1.933,1.819-4.425,1.093-6.707c-0.422-1.328-0.637-2.71-0.637-4.107c0-5.427,3.226-10.299,8.22-12.413
	c2.707-1.147,4.495-3.768,4.576-6.706c0.474-17.303,14.402-30.859,31.707-30.859c13.165,0,24.767,7.923,29.557,20.185
	c1.433,3.667,5.456,5.606,9.216,4.437c1.911-0.593,3.91-0.895,5.942-0.895c10.953,0,19.865,8.911,19.865,19.865
	c0,3.277-0.77,6.392-2.288,9.255c-1.233,2.326-1.157,5.129,0.2,7.386c1.357,2.256,3.798,3.636,6.431,3.636h8.637
	c1.899,0,3.683,0.737,5.02,2.074c1.338,1.339,2.076,3.121,2.076,5.022c0,3.912-3.183,7.095-7.095,7.095H327.204
	c-1.899,0-3.683-0.737-5.02-2.074c-1.338-1.339-2.076-3.121-2.076-5.022C320.108,163.718,323.292,160.535,327.204,160.535z"/>
<path d="M142.961,412.542c0.061-0.75,0.092-1.503,0.092-2.257c0-15.319-12.459-27.781-27.771-27.781c-0.611,0-1.221,0.02-1.827,0.06
	c-6.532-10.88-18.242-17.633-31.288-17.633c-18.457,0-33.582,13.376-36.169,31.175c-5.357,3.733-8.903,9.587-9.69,16.131h-6.181
	c-10.098,0-18.314,8.215-18.314,18.314c0,4.898,1.904,9.498,5.359,12.951c3.463,3.466,8.064,5.373,12.954,5.373h109.484
	c10.098,0,18.314-8.22,18.314-18.325c0-4.89-1.903-9.486-5.361-12.944C149.904,414.949,146.577,413.207,142.961,412.542z
	 M139.61,433.864H30.126c-1.187,0-1.974-0.609-2.34-0.977c-0.359-0.359-0.963-1.141-0.963-2.337c0-1.82,1.481-3.303,3.303-3.303
	h14.251c2.392,0,4.64-1.14,6.054-3.067c1.414-1.929,1.824-4.415,1.105-6.696c-0.254-0.805-0.382-1.638-0.382-2.476
	c0-3.231,1.925-6.137,4.905-7.402c2.703-1.147,4.488-3.767,4.569-6.702c0.323-11.755,9.783-20.962,21.539-20.962
	c8.942,0,16.819,5.384,20.068,13.715c1.435,3.68,5.475,5.618,9.24,4.434c1.218-0.382,2.499-0.575,3.807-0.575
	c7.035,0,12.76,5.728,12.76,12.77c0,2.111-0.492,4.107-1.463,5.934c-1.237,2.326-1.164,5.131,0.192,7.39
	c1.357,2.259,3.799,3.641,6.434,3.641h6.405c1.187,0,1.975,0.609,2.338,0.975c0.36,0.359,0.964,1.142,0.964,2.328
	C142.913,432.378,141.432,433.864,139.61,433.864z"/>
<path d="M495.29,348.088c-2.173-2.16-4.832-3.652-7.723-4.371c0.014-0.333,0.021-0.668,0.021-1.003
	c0-13.608-11.071-24.679-24.679-24.679c-0.307,0-0.613,0.006-0.92,0.017c-5.806-9.215-15.913-14.907-27.142-14.907
	c-16.049,0-29.226,11.508-31.697,26.901c-4.311,3.157-7.243,7.877-8.147,13.18h-4.249c-9.188,0-16.663,7.48-16.663,16.673
	c0,4.45,1.733,8.635,4.88,11.781c3.147,3.147,7.332,4.881,11.783,4.881h92.771c9.188,0,16.663-7.475,16.663-16.662
	C500.186,355.44,498.453,351.252,495.29,348.088z M483.524,361.548h-92.771c-0.454,0-0.847-0.162-1.168-0.483
	c-0.321-0.32-0.483-0.714-0.483-1.167c0-0.916,0.741-1.661,1.651-1.661h12.079c2.394,0,4.645-1.143,6.058-3.074
	c1.414-1.932,1.82-4.423,1.095-6.704c-0.177-0.56-0.268-1.142-0.268-1.73c0-2.286,1.357-4.338,3.459-5.229
	c2.707-1.147,4.494-3.769,4.575-6.707c0.253-9.328,7.763-16.636,17.096-16.636c7.102,0,13.362,4.274,15.947,10.888
	c1.433,3.667,5.456,5.599,9.216,4.436c0.924-0.287,1.899-0.433,2.898-0.433c5.331,0,9.667,4.337,9.667,9.667
	c0,1.57-0.385,3.131-1.116,4.515c-1.227,2.327-1.146,5.126,0.213,7.378c1.359,2.252,3.797,3.629,6.427,3.629h5.424
	c0.563,0,0.955,0.271,1.168,0.483c0.221,0.22,0.483,0.604,0.483,1.178C485.175,360.807,484.434,361.548,483.524,361.548z"/>
<g>
</g>
<g>
</g>
<g>
</g>
<g>
</g>
<g>
</g>
<g>
</g>
<g>
</g>
<g>
</g>
<g>
</g>
<g>
</g>
<g>
</g>
<g>
</g>
<g>
</g>
<g>
</g>
<g>
</g>
</svg>
