<?xml version="1.0" encoding="iso-8859-1"?>
<!-- Generator: Adobe Illustrator 19.0.0, SVG Export Plug-In . SVG Version: 6.00 Build 0)  -->
<svg version="1.1" id="Capa_1" xmlns="http://www.w3.org/2000/svg" xmlns:xlink="http://www.w3.org/1999/xlink" x="0px" y="0px"
	 viewBox="0 0 512 512" style="enable-background:new 0 0 512 512;" xml:space="preserve">
<path style="fill:#E2B17D;" d="M306.625,386.569h-7.757c-15.212,0-27.595-12.383-27.595-27.595l-0.25-8.529h-22.829v8.529
	c0,27.946,22.728,50.674,50.674,50.674h8.529c10.195,0,18.433,8.479,18.052,18.754c-0.371,9.784-8.71,17.37-18.494,17.37h-41.202
	c-27.394,0-50.463,18.865-56.916,44.282c-1.846,7.315,3.643,14.42,11.178,14.42c5.228,0,9.894-3.482,11.148-8.549
	c3.843-15.523,17.891-27.073,34.589-27.073h41.643c23.019,0,41.673-18.995,41.131-42.135
	C347.997,404.26,329.092,386.569,306.625,386.569z"/>
<path style="fill:#EA985C;" d="M306.625,386.569h-7.757c-15.212,0-27.595-12.383-27.595-27.595l-0.25-8.529h-22.829v8.529
	c0,1.211,0.058,2.409,0.141,3.599h9.144c4.007,0,7.293,3.178,7.427,7.183l0,0c0,12.81,11.923,23.237,26.571,23.237h7.469
	c21.633,0,39.837,14.897,40.349,33.808c0.522,19.486-17.44,35.481-39.605,35.481h-40.097c-16.078,0-29.605,9.725-33.305,22.797
	c-1.208,4.268-5.701,7.2-10.735,7.2c-2.58,0-4.901-0.766-6.753-2.018c-1.685,7.215,3.715,14.162,11.138,14.212
	c5.309,0.035,9.984-3.716,11.307-8.857c3.952-15.368,17.925-26.764,34.511-26.764h41.643c23.019,0,41.673-18.995,41.131-42.135
	C347.997,404.26,329.092,386.569,306.625,386.569z"/>
<g>
	<path style="fill:#898989;" d="M432.06,53.29l-56.498,56.487l-5.758,6.187c-2.087-2.368-14.836-15.518-18.639-18.639l4.83-4.878
		l58.63-58.63L432.06,53.29z"/>
	<polygon style="fill:#898989;" points="164.406,95.067 143.956,117.303 79.193,52.541 97.594,34.035 151.09,87.541 	"/>
	<path style="fill:#898989;" d="M150.364,298.005l17.448,19.822l-64.044,63.744c-14.042,14.042-30.713,25.116-48.904,32.494
		c-1.286,0.522-2.563-0.756-2.04-2.042c3.47-8.534,7.747-16.733,12.763-24.491c5.669-8.76,12.282-16.958,19.728-24.404
		L150.364,298.005z"/>
</g>
<path style="fill:#727272;" d="M366.427,102.882l57.357-57.357l-9.16-11.706l-58.63,58.63l-4.83,4.878
	c2.006,1.647,6.501,6.083,10.608,10.256L366.427,102.882z"/>
<path style="fill:#898989;" d="M364.68,110.558c2.435,2.512,4.407,4.594,5.124,5.407l0.181-0.194
	C368.1,113.879,366.245,112.049,364.68,110.558z"/>
<path style="fill:#727272;" d="M76.019,397.966c5.669-8.76,12.282-16.958,19.728-24.404l64.385-64.459l-9.769-11.098l-65.05,65.124
	c-7.446,7.446-14.058,15.644-19.728,24.404c-5.015,7.759-9.293,15.957-12.763,24.491c-0.523,1.286,0.754,2.564,2.04,2.042
	c5.531-2.243,10.92-4.833,16.138-7.74C72.583,403.489,74.253,400.698,76.019,397.966z"/>
<path style="fill:#898989;" d="M373.123,309.805l7.526,7.295l46.038,46.028c14.032,14.042,25.107,30.713,32.493,48.895
	c0.523,1.286-0.755,2.564-2.041,2.042c-8.536-3.463-16.743-7.741-24.501-12.756c-8.76-5.669-16.948-12.292-24.404-19.738
	l-61.611-61.362L373.123,309.805z"/>
<g>
	<polygon style="fill:#727272;" points="89.825,44.387 80.07,53.418 143.956,117.303 152.956,107.518 	"/>
	<path style="fill:#727272;" d="M452.623,398.068c-3.669-1.954-7.261-4.056-10.758-6.317c-8.76-5.669-16.948-12.292-24.404-19.738
		l-57.336-57.105l-13.501,5.301l61.611,61.362c7.456,7.446,15.644,14.068,24.404,19.738c7.759,5.015,15.965,9.293,24.501,12.756
		c1.286,0.522,2.563-0.756,2.041-2.042C457.246,407.261,455.051,402.604,452.623,398.068z"/>
</g>
<circle style="fill:#F5DCB4;" cx="261.239" cy="207.955" r="148.51"/>
<g>
	<path style="fill:#FFC48F;" d="M261.239,59.444c-5.499,0-10.925,0.308-16.269,0.891L113.619,191.686
		c-0.582,5.344-0.891,10.77-0.891,16.269c0,8.03,0.646,15.908,1.872,23.592l170.23-170.229
		C277.147,60.091,269.268,59.444,261.239,59.444z"/>
	<path style="fill:#FFC48F;" d="M124.169,265.198c3.906,9.342,8.74,18.199,14.385,26.458L344.94,85.27
		c-8.259-5.645-17.116-10.479-26.458-14.385L124.169,265.198z"/>
	<path style="fill:#FFC48F;" d="M156.385,313.123c6.854,6.833,14.373,12.997,22.45,18.393l205.965-205.965
		c-5.397-8.077-11.561-15.597-18.393-22.45L156.385,313.123z"/>
	<path style="fill:#FFC48F;" d="M236.15,354.345l171.479-171.479c-1.877-11.031-4.969-21.647-9.136-31.707l-194.05,194.049
		C214.502,349.375,225.118,352.468,236.15,354.345z"/>
	<path style="fill:#FFC48F;" d="M409.21,220.582L273.866,355.925C345.812,349.867,403.151,292.528,409.21,220.582z"/>
</g>
<g>
	<path style="fill:#F4AA6E;" d="M387.824,292.676c5.439,5.439,5.087,14.62-0.783,20.5c-5.88,5.88-15.062,6.231-20.51,0.783
		l-212.3-212.3c-5.449-5.449-5.098-14.63,0.783-20.511c5.88-5.87,15.062-6.221,20.5-0.783L387.824,292.676z"/>
	<path style="fill:#F4AA6E;" d="M405.565,267.138c5.248,5.248,4.736,14.259-1.144,20.139c-5.88,5.88-14.901,6.392-20.139,1.144
		L179.769,83.908c-5.248-5.238-4.736-14.259,1.144-20.139s14.891-6.392,20.139-1.144L405.565,267.138z"/>
	<path style="fill:#F4AA6E;" d="M418.77,237.055c4.807,4.817,3.944,13.476-1.937,19.357c-5.87,5.88-14.54,6.743-19.357,1.927
		L209.852,70.713c-4.817-4.817-3.954-13.486,1.927-19.357c5.88-5.88,14.54-6.743,19.357-1.937L418.77,237.055z"/>
</g>
<g>
	<path style="fill:#EA985C;" d="M377.563,306.009l-212.3-212.3c-4.44-4.44-5.026-11.357-1.911-16.948
		c-3.009,0.544-5.946,2.002-8.338,4.388c-5.88,5.88-6.231,15.062-0.783,20.511l212.3,212.3c5.449,5.449,14.63,5.098,20.51-0.783
		c1.085-1.086,1.978-2.286,2.683-3.553C385.335,310.415,380.793,309.24,377.563,306.009z"/>
	<path style="fill:#EA985C;" d="M395.314,280.471L190.801,75.958c-4.299-4.291-4.727-11.117-1.511-16.679
		c-3.001,0.574-5.954,2.069-8.376,4.49c-5.88,5.88-6.392,14.901-1.144,20.139l204.513,204.513
		c5.238,5.248,14.259,4.736,20.139-1.144c1.064-1.064,1.947-2.233,2.656-3.461C402.786,284.637,398.395,283.56,395.314,280.471z"/>
	<path style="fill:#EA985C;" d="M408.509,250.388L220.884,62.763c-3.99-3.99-4.071-10.621-0.643-16.116
		c-2.984,0.641-5.973,2.221-8.462,4.71c-5.88,5.87-6.743,14.54-1.927,19.357l187.625,187.625c4.817,4.817,13.486,3.954,19.357-1.927
		c1.007-1.007,1.856-2.101,2.567-3.239C415.339,254.042,411.285,253.163,408.509,250.388z"/>
</g>
<g>
	<path style="fill:#ED3124;" d="M454.985,25.407c7.345,7.345,7.345,19.246,0,26.591c-3.673,3.673-8.489,5.509-13.296,5.509
		c-4.807,0-9.623-1.836-13.296-5.509l-12.373-12.373c-7.345-7.345-7.345-19.246,0-26.591c3.673-3.673,8.479-5.509,13.296-5.509
		c4.817,0,9.623,1.836,13.296,5.509L454.985,25.407z"/>
	<path style="fill:#ED3124;" d="M95.981,13.035c7.345,7.345,7.345,19.246,0,26.591L83.608,51.999
		c-3.673,3.673-8.489,5.509-13.296,5.509c-4.807,0-9.623-1.836-13.296-5.509c-7.345-7.345-7.345-19.246,0-26.591l12.373-12.373
		c3.673-3.673,8.479-5.509,13.296-5.509C87.502,7.526,92.308,9.362,95.981,13.035z"/>
</g>
<path d="M467.535,412.721c-7.683-20.357-19.967-39.344-35.526-54.914l-39.483-39.474c5.284-5.394,7.446-12.672,6.424-19.413
	c4.024-1.112,7.754-3.28,10.792-6.321c4.152-4.152,6.617-9.551,6.938-15.201c0.212-3.731-0.512-7.291-2.078-10.431
	c2.757-1.233,5.328-3.005,7.558-5.238c8.792-8.797,9.662-22.248,1.933-29.995l-7.441-7.441c4.169-40.38-7.571-80.815-32.467-112.495
	l48.387-48.379c2.88,1.061,5.955,1.615,9.116,1.615c7.032,0,13.644-2.739,18.618-7.714c10.264-10.265,10.264-26.969,0-37.234
	L447.935,7.715C442.96,2.739,436.348,0,429.317,0S415.674,2.739,410.7,7.714c-7.036,7.036-9.249,17.095-6.641,26.033l-49.264,49.368
	c-31.158-23.262-70.585-34.175-109.48-30.161l-8.862-8.862c-7.743-7.726-21.198-6.855-29.99,1.939
	c-2.234,2.23-4.005,4.802-5.238,7.558c-3.139-1.565-6.698-2.288-10.431-2.078c-5.65,0.321-11.049,2.785-15.201,6.937
	c-3.039,3.039-5.218,6.79-6.342,10.79c-6.734-1.013-14.002,1.148-19.392,6.427l-41.913-41.921
	c2.606-8.938,0.392-18.995-6.642-26.029C96.328,2.739,89.717,0,82.685,0c-7.032,0-13.643,2.739-18.617,7.714L51.696,20.086
	c-10.265,10.265-10.265,26.969,0,37.234c4.974,4.974,11.585,7.714,18.617,7.714c3.161,0,6.235-0.554,9.115-1.615l54.608,54.608
	c-18.841,26.523-28.879,58.224-28.621,91.359c0.262,33.636,11.12,65.629,30.947,92.102l-56.37,56.32
	c-7.773,7.772-14.745,16.397-20.727,25.639c-5.967,9.231-10.946,19.08-14.798,29.271c-1.046,2.766-0.374,5.887,1.715,7.979
	c1.438,1.439,3.364,2.208,5.326,2.208c0.89,0,1.788-0.158,2.652-0.483c20.364-7.672,39.358-19.958,54.944-35.543l55.778-56.123
	c22.018,17.406,48.106,28.432,75.913,32.093c2,30.292,27.282,54.326,58.073,54.326h8.529c2.883,0,5.576,1.148,7.585,3.232
	c2.008,2.083,3.055,4.825,2.947,7.711c-0.212,5.585-5.135,10.13-10.974,10.13h-41.202c-30.339,0-56.743,20.543-64.213,49.966
	c-1.456,5.768-0.198,11.761,3.452,16.447c3.634,4.665,9.11,7.341,15.024,7.341c8.786,0,16.374-5.867,18.453-14.267
	c3.113-12.574,14.332-21.355,27.284-21.355h41.643c13.197,0,25.557-5.211,34.802-14.674c9.243-9.463,14.164-21.95,13.855-35.165
	c-0.621-26.189-22.794-47.495-49.428-47.495h-7.757c-9.616,0-17.675-6.799-19.621-15.842c26.173-2.958,50.942-12.431,72.34-27.631
	l51.328,51.327c7.819,7.809,16.443,14.783,25.636,20.733c9.235,5.97,19.088,10.946,29.287,14.791
	c0.864,0.325,1.762,0.484,2.653,0.484c1.962,0,3.887-0.768,5.324-2.206C467.906,418.607,468.579,415.486,467.535,412.721z
	 M402.414,210.056l-4.378-4.378l4.227-4.227C402.4,204.311,402.451,207.181,402.414,210.056z M400.041,182.387l-12.647,12.647
	l-9.934-9.934l18.649-18.649C397.725,171.677,399.039,176.998,400.041,182.387z M390.309,150.966l-23.492,23.492l-9.934-9.934
	l26.739-26.738C386.083,142.065,388.315,146.465,390.309,150.966z M421.342,18.356c2.131-2.131,4.964-3.304,7.974-3.304
	s5.843,1.173,7.974,3.304l12.373,12.373c4.397,4.397,4.396,11.552,0,15.949c-2.131,2.131-4.963,3.304-7.974,3.304
	c-3.011,0-5.843-1.173-7.974-3.304l-12.372-12.373C416.946,29.908,416.946,22.753,421.342,18.356z M412.425,46.673l7.804,7.804
	l-45.934,45.926c-0.828-0.866-1.667-1.724-2.513-2.57c-1.724-1.724-3.506-3.423-5.334-5.086L412.425,46.673z M367.346,115.084
	c2.785,3.161,5.413,6.434,7.883,9.808l-28.99,28.989l-9.933-9.933l30.016-30.012C366.666,114.317,367.008,114.7,367.346,115.084z
	 M350.629,98.96c0.018,0.015,0.036,0.03,0.055,0.045c1.696,1.394,3.363,2.827,4.991,4.292l-30.012,30.007l-9.934-9.934
	l28.988-28.988C346.726,95.852,348.697,97.379,350.629,98.96z M331.815,85.998l-26.73,26.73l-9.934-9.934l23.472-23.472
	C323.131,81.313,327.535,83.54,331.815,85.998z M287.197,69.595c5.385,1.004,10.707,2.319,15.934,3.934L284.509,92.15l-9.934-9.934
	L287.197,69.595z M268.148,67.359l-4.215,4.215l-4.375-4.375C262.425,67.164,265.29,67.217,268.148,67.359z M214.293,62.176
	c0.189-1.902,1.211-3.903,2.807-5.498c1.926-1.926,4.262-2.828,6.122-2.828c1.082,0,2.004,0.305,2.592,0.891l187.629,187.63
	c1.6,1.604,1.115,5.674-1.931,8.719l-0.004,0.004c-1.589,1.591-3.591,2.613-5.493,2.803c-0.793,0.079-2.266,0.07-3.216-0.88
	L215.175,65.392C214.224,64.442,214.214,62.968,214.293,62.176z M158.176,90.081c0.053-0.15,0.102-0.301,0.146-0.454
	c0.401-1.129,1.074-2.218,2.009-3.153c2.938-2.932,7.361-3.285,9.862-0.787l3.841,3.841l83.158,83.157
	c2.939,2.939,7.704,2.939,10.643,0c2.939-2.939,2.939-7.704,0-10.643l-83.128-83.128c-0.013-0.014-0.026-0.027-0.04-0.041
	c-1.02-1.017-1.234-2.414-1.234-3.408c-0.001-2.237,1.047-4.621,2.803-6.377c2.884-2.884,7.233-3.408,9.496-1.144l204.513,204.513
	c1.351,1.351,1.463,3.139,1.409,4.084c-0.11,1.955-1.018,3.876-2.553,5.412c-1.576,1.576-3.677,2.575-5.761,2.739
	c-0.988,0.081-2.834,0.021-4.091-1.239l-83.972-83.972c-2.938-2.939-7.703-2.939-10.643,0s-2.939,7.704,0,10.643l83.961,83.961
	l3.909,3.909c2.5,2.5,2.146,6.923-0.783,9.857c-0.939,0.939-2.031,1.614-3.164,2.015c-0.148,0.043-0.296,0.09-0.443,0.142
	c-2.278,0.659-4.661,0.225-6.262-1.375l-212.3-212.3C157.954,94.74,157.519,92.357,158.176,90.081z M78.269,46.695
	c-2.129,2.12-4.953,3.287-7.956,3.287c-3.011,0-5.843-1.173-7.973-3.304c-4.397-4.397-4.397-11.552,0-15.949l12.373-12.373
	c2.13-2.131,4.963-3.304,7.973-3.304c3.01,0,5.843,1.173,7.974,3.304c4.396,4.396,4.397,11.548,0.004,15.945L78.269,46.695z
	 M91.773,54.477l7.81-7.81l43.354,43.362c-0.039,0.414-0.067,0.831-0.083,1.249c-0.166,4.336,0.915,8.454,3.092,11.965
	c-0.86,0.945-1.708,1.9-2.543,2.863L91.773,54.477z M156.239,114.31l11.902,11.902l-41.642,41.643
	C132.196,148.493,142.106,130.145,156.239,114.31z M121.382,194.257l57.401-57.401l9.934,9.934l-67.858,67.858
	C120.549,207.849,120.723,201.033,121.382,194.257z M123.023,233.769l76.337-76.336l9.933,9.933l-82.392,82.393
	C125.297,244.496,124.004,239.156,123.023,233.769z M132.655,265.29l87.282-87.282l9.934,9.934l-90.56,90.559
	C136.848,274.198,134.629,269.786,132.655,265.29z M98.446,376.25c-9.338,9.338-20.035,17.367-31.546,23.735
	c1.569-2.842,3.239-5.632,5.004-8.364c5.405-8.351,11.707-16.147,18.729-23.169l55.364-55.314c1.658,1.82,3.363,3.607,5.115,5.359
	c0.793,0.793,1.592,1.574,2.398,2.347L98.446,376.25z M156.577,302.389c-3.176-3.535-6.14-7.199-8.895-10.973l92.832-92.831
	l9.933,9.933L156.577,302.389z M167.22,313.033l93.871-93.871l9.934,9.934l-92.832,92.832
	C174.418,319.173,170.756,316.208,167.22,313.033z M191.108,330.298l90.559-90.559l9.933,9.933l-87.282,87.282
	C199.823,334.98,195.413,332.762,191.108,330.298z M235.842,346.586c-5.389-0.981-10.728-2.274-15.99-3.878l82.392-82.392
	l9.934,9.934L235.842,346.586z M298.868,394.095h7.757c18.529,0,33.952,14.715,34.38,32.798c0.214,9.127-3.186,17.754-9.574,24.292
	c-6.388,6.539-14.923,10.14-24.035,10.14h-41.643c-19.886,0-37.115,13.484-41.895,32.791c-0.406,1.641-2.022,2.832-3.843,2.832
	c-1.697,0-2.702-0.964-3.15-1.539c-0.457-0.586-1.158-1.821-0.734-3.503c5.77-22.731,26.175-38.608,49.622-38.608h41.202
	c14.063,0,25.491-10.81,26.014-24.617c0.261-7.016-2.279-13.664-7.15-18.719c-4.872-5.055-11.414-7.84-18.423-7.84h-8.529
	c-21.226,0-38.922-15.405-42.491-35.622h8.182C268.014,382.261,282.086,394.095,298.868,394.095z M275.354,348.227
	c-6.777,0.659-13.594,0.833-20.391,0.524l67.858-67.857l9.933,9.933L275.354,348.227z M301.757,343.11l41.641-41.641l11.902,11.902
	C339.464,327.503,321.117,337.412,301.757,343.11z M436.727,394.992c-8.305-5.374-16.101-11.682-23.171-18.741l-50.049-50.048
	c1.11-0.961,2.207-1.941,3.293-2.937c2.826,1.37,5.966,2.087,9.247,2.087c0.287,0,0.576-0.005,0.865-0.016
	c0.418-0.016,0.835-0.044,1.249-0.083l43.203,43.194c9.334,9.34,17.362,20.037,23.733,31.549
	C442.253,398.429,439.46,396.758,436.727,394.992z"/>
<g>
</g>
<g>
</g>
<g>
</g>
<g>
</g>
<g>
</g>
<g>
</g>
<g>
</g>
<g>
</g>
<g>
</g>
<g>
</g>
<g>
</g>
<g>
</g>
<g>
</g>
<g>
</g>
<g>
</g>
</svg>
