<?xml version="1.0" encoding="iso-8859-1"?>
<!-- Generator: Adobe Illustrator 19.0.0, SVG Export Plug-In . SVG Version: 6.00 Build 0)  -->
<svg version="1.1" id="Capa_1" xmlns="http://www.w3.org/2000/svg" xmlns:xlink="http://www.w3.org/1999/xlink" x="0px" y="0px"
	 viewBox="0 0 512 512" style="enable-background:new 0 0 512 512;" xml:space="preserve">
<path style="fill:#757574;" d="M424.5,41.78v197.44c0,9.27-7.51,16.78-16.78,16.78H103.28c-9.27,0-16.78-7.51-16.78-16.78V41.78
	c0-9.27,7.51-16.78,16.78-16.78h304.44C416.99,25,424.5,32.51,424.5,41.78z"/>
<path style="fill:#686867;" d="M233,239.22V41.78c0-9.27,7.51-16.78,16.78-16.78h-146.5c-9.27,0-16.78,7.51-16.78,16.78v197.44
	c0,9.27,7.51,16.78,16.78,16.78h146.5C240.51,256,233,248.49,233,239.22z"/>
<rect x="111.5" y="50" style="fill:#2CD4E5;" width="288" height="181"/>
<path style="fill:#10BDC6;" d="M111.5,50v20.329h205.902c28.773,0,52.098,23.325,52.098,52.098V231h30V50H111.5z"/>
<path style="fill:#757574;" d="M424.5,272.78v197.44c0,9.27-7.51,16.78-16.78,16.78H103.28c-9.27,0-16.78-7.51-16.78-16.78V272.78
	c0-9.27,7.51-16.78,16.78-16.78h304.44C416.99,256,424.5,263.51,424.5,272.78z"/>
<path style="fill:#686867;" d="M230.5,470.22V272.78c0-9.27,7.51-16.78,16.78-16.78h-144c-9.27,0-16.78,7.51-16.78,16.78v197.44
	c0,9.27,7.51,16.78,16.78,16.78h144C238.01,487,230.5,479.49,230.5,470.22z"/>
<path style="fill:#5B5B59;" d="M323.5,410.62v43.76c0,4.21-3.41,7.62-7.62,7.62H195.12c-4.21,0-7.62-3.41-7.62-7.62v-43.76
	c0-4.21,3.41-7.62,7.62-7.62h120.76C320.09,403,323.5,406.41,323.5,410.62z"/>
<path style="fill:#545454;" d="M315.88,403H195.12c-4.21,0-7.62,3.41-7.62,7.62V418h109.88c4.21,0,7.62,3.41,7.62,7.62V462h10.88
	c4.21,0,7.62-3.41,7.62-7.62v-43.76C323.5,406.41,320.09,403,315.88,403z"/>
<path style="fill:#5B5B59;" d="M399.5,287.67v84.66c0,3.68-2.99,6.67-6.67,6.67H118.17c-3.68,0-6.67-2.99-6.67-6.67v-84.66
	c0-3.68,2.99-6.67,6.67-6.67h274.66C396.51,281,399.5,283.99,399.5,287.67z"/>
<path style="fill:#545454;" d="M392.83,281H118.17c-3.68,0-6.67,2.99-6.67,6.67v4.83h262.83c3.68,0,6.67,2.99,6.67,6.67V379h11.83
	c3.68,0,6.67-2.99,6.67-6.67v-84.66C399.5,283.99,396.51,281,392.83,281z"/>
<g>
	<path style="fill:#04B3BC;" d="M188.5,85.34v112.32c0,4.61-3.73,8.34-8.34,8.34h-33.32c-4.61,0-8.34-3.73-8.34-8.34V85.34
		c0-4.61,3.73-8.34,8.34-8.34h33.32C184.77,77,188.5,80.73,188.5,85.34z"/>
	<path style="fill:#04B3BC;" d="M283.5,182.78v16.44c0,3.74-3.04,6.78-6.78,6.78h-56.44c-3.74,0-6.78-3.04-6.78-6.78v-16.44
		c0-3.74,3.04-6.78,6.78-6.78h56.44C280.46,176,283.5,179.04,283.5,182.78z"/>
	<path style="fill:#04B3BC;" d="M375.5,182.78v16.44c0,3.74-3.04,6.78-6.78,6.78h-56.44c-3.74,0-6.78-3.04-6.78-6.78v-16.44
		c0-3.74,3.04-6.78,6.78-6.78h56.44C372.46,176,375.5,179.04,375.5,182.78z"/>
</g>
<path style="fill:#757574;" d="M496.5,392.31v21.38c0,2.38-1.93,4.31-4.31,4.31h-15.95c-7.59,0-13.74-6.15-13.74-13.74v-2.52
	c0-7.59,6.15-13.74,13.74-13.74h15.95C494.57,388,496.5,389.93,496.5,392.31z"/>
<path d="M399.5,42.5h-288c-4.143,0-7.5,3.357-7.5,7.5v181c0,4.143,3.357,7.5,7.5,7.5h288c4.143,0,7.5-3.357,7.5-7.5V50
	C407,45.857,403.643,42.5,399.5,42.5z M392,223.5H119v-166h273V223.5z"/>
<path d="M315.88,395.5H195.12c-8.337,0-15.12,6.783-15.12,15.12v43.76c0,8.337,6.783,15.12,15.12,15.12h120.76
	c8.337,0,15.12-6.783,15.12-15.12v-43.76C331,402.283,324.217,395.5,315.88,395.5z M316,454.38c0,0.067-0.053,0.12-0.12,0.12H195.12
	c-0.067,0-0.12-0.053-0.12-0.12v-43.76c0-0.067,0.053-0.12,0.12-0.12h120.76c0.067,0,0.12,0.053,0.12,0.12V454.38z"/>
<path d="M392.83,273.5H324.5c-4.143,0-7.5,3.357-7.5,7.5s3.357,7.5,7.5,7.5H392v83H119v-83h145.368c4.143,0,7.5-3.357,7.5-7.5
	s-3.357-7.5-7.5-7.5H118.17c-7.813,0-14.17,6.356-14.17,14.17v84.66c0,7.813,6.356,14.17,14.17,14.17h274.66
	c7.813,0,14.17-6.356,14.17-14.17v-84.66C407,279.856,400.644,273.5,392.83,273.5z"/>
<path d="M188.5,364.5h137c4.143,0,7.5-3.357,7.5-7.5s-3.357-7.5-7.5-7.5h-137c-4.143,0-7.5,3.357-7.5,7.5S184.357,364.5,188.5,364.5
	z"/>
<path d="M159.5,364.5h8c4.143,0,7.5-3.357,7.5-7.5s-3.357-7.5-7.5-7.5h-8c-4.143,0-7.5,3.357-7.5,7.5S155.357,364.5,159.5,364.5z"/>
<path d="M132.5,349.5c-4.143,0-7.5,3.357-7.5,7.5s3.357,7.5,7.5,7.5h8c4.143,0,7.5-3.357,7.5-7.5s-3.357-7.5-7.5-7.5H132.5z"/>
<path d="M156,304c0-4.143-3.357-7.5-7.5-7.5h-8c-4.143,0-7.5,3.357-7.5,7.5s3.357,7.5,7.5,7.5h8C152.643,311.5,156,308.143,156,304z
	"/>
<path d="M188,304c0-4.143-3.357-7.5-7.5-7.5h-8c-4.143,0-7.5,3.357-7.5,7.5s3.357,7.5,7.5,7.5h8C184.643,311.5,188,308.143,188,304z
	"/>
<path d="M155.5,334.5h8c4.143,0,7.5-3.357,7.5-7.5s-3.357-7.5-7.5-7.5h-8c-4.143,0-7.5,3.357-7.5,7.5S151.357,334.5,155.5,334.5z"/>
<path d="M188.5,319.5c-4.143,0-7.5,3.357-7.5,7.5s3.357,7.5,7.5,7.5h8c4.143,0,7.5-3.357,7.5-7.5s-3.357-7.5-7.5-7.5H188.5z"/>
<path d="M214,327c0,4.143,3.357,7.5,7.5,7.5h8c4.143,0,7.5-3.357,7.5-7.5s-3.357-7.5-7.5-7.5h-8C217.357,319.5,214,322.857,214,327z
	"/>
<path d="M247,327c0,4.143,3.357,7.5,7.5,7.5h8c4.143,0,7.5-3.357,7.5-7.5s-3.357-7.5-7.5-7.5h-8C250.357,319.5,247,322.857,247,327z
	"/>
<path d="M280,327c0,4.143,3.357,7.5,7.5,7.5h8c4.143,0,7.5-3.357,7.5-7.5s-3.357-7.5-7.5-7.5h-8C283.357,319.5,280,322.857,280,327z
	"/>
<path d="M313,327c0,4.143,3.357,7.5,7.5,7.5h8c4.143,0,7.5-3.357,7.5-7.5s-3.357-7.5-7.5-7.5h-8C316.357,319.5,313,322.857,313,327z
	"/>
<path d="M346,327c0,4.143,3.357,7.5,7.5,7.5h8c4.143,0,7.5-3.357,7.5-7.5s-3.357-7.5-7.5-7.5h-8C349.357,319.5,346,322.857,346,327z
	"/>
<path d="M212.5,296.5h-8c-4.143,0-7.5,3.357-7.5,7.5s3.357,7.5,7.5,7.5h8c4.143,0,7.5-3.357,7.5-7.5S216.643,296.5,212.5,296.5z"/>
<path d="M244.5,296.5h-8c-4.143,0-7.5,3.357-7.5,7.5s3.357,7.5,7.5,7.5h8c4.143,0,7.5-3.357,7.5-7.5S248.643,296.5,244.5,296.5z"/>
<path d="M261,304c0,4.143,3.357,7.5,7.5,7.5h8c4.143,0,7.5-3.357,7.5-7.5s-3.357-7.5-7.5-7.5h-8C264.357,296.5,261,299.857,261,304z
	"/>
<path d="M300.5,311.5h8c4.143,0,7.5-3.357,7.5-7.5s-3.357-7.5-7.5-7.5h-8c-4.143,0-7.5,3.357-7.5,7.5S296.357,311.5,300.5,311.5z"/>
<path d="M340.5,296.5h-8c-4.143,0-7.5,3.357-7.5,7.5s3.357,7.5,7.5,7.5h8c4.143,0,7.5-3.357,7.5-7.5S344.643,296.5,340.5,296.5z"/>
<path d="M372.5,296.5h-8c-4.143,0-7.5,3.357-7.5,7.5s3.357,7.5,7.5,7.5h8c4.143,0,7.5-3.357,7.5-7.5S376.643,296.5,372.5,296.5z"/>
<path d="M345.5,349.5c-4.143,0-7.5,3.357-7.5,7.5s3.357,7.5,7.5,7.5h8c4.143,0,7.5-3.357,7.5-7.5s-3.357-7.5-7.5-7.5H345.5z"/>
<path d="M365,357c0,4.143,3.357,7.5,7.5,7.5h8c4.143,0,7.5-3.357,7.5-7.5s-3.357-7.5-7.5-7.5h-8C368.357,349.5,365,352.857,365,357z
	"/>
<path d="M146.84,213.5h33.32c8.734,0,15.84-7.105,15.84-15.84V85.34c0-8.734-7.105-15.84-15.84-15.84h-33.32
	c-8.734,0-15.84,7.105-15.84,15.84v112.32C131,206.395,138.105,213.5,146.84,213.5z M146,85.34c0-0.471,0.369-0.84,0.84-0.84h33.32
	c0.471,0,0.84,0.369,0.84,0.84v112.32c0,0.471-0.369,0.84-0.84,0.84h-33.32c-0.471,0-0.84-0.369-0.84-0.84V85.34z"/>
<path d="M213.5,93.5h161c4.143,0,7.5-3.357,7.5-7.5s-3.357-7.5-7.5-7.5h-161c-4.143,0-7.5,3.357-7.5,7.5S209.357,93.5,213.5,93.5z"
	/>
<path d="M213.5,155.5h161c4.143,0,7.5-3.357,7.5-7.5s-3.357-7.5-7.5-7.5h-161c-4.143,0-7.5,3.357-7.5,7.5S209.357,155.5,213.5,155.5
	z"/>
<path d="M213.5,124.5h95c4.143,0,7.5-3.357,7.5-7.5s-3.357-7.5-7.5-7.5h-95c-4.143,0-7.5,3.357-7.5,7.5S209.357,124.5,213.5,124.5z"
	/>
<path d="M374.5,109.5h-43c-4.143,0-7.5,3.357-7.5,7.5s3.357,7.5,7.5,7.5h43c4.143,0,7.5-3.357,7.5-7.5S378.643,109.5,374.5,109.5z"
	/>
<path d="M220.28,213.5h56.439c7.874,0,14.28-6.406,14.28-14.28v-16.44c0-7.874-6.406-14.28-14.28-14.28H220.28
	c-7.874,0-14.28,6.406-14.28,14.28v16.439C206,207.094,212.406,213.5,220.28,213.5z M221,183.5h55v15h-55V183.5z"/>
<path d="M368.72,168.5h-56.44c-7.874,0-14.28,6.406-14.28,14.28v16.439c0,7.874,6.406,14.28,14.28,14.28h56.439
	c7.874,0,14.28-6.406,14.28-14.28V182.78C383,174.906,376.594,168.5,368.72,168.5z M368,198.5h-55v-15h55V198.5z"/>
<path d="M492.19,380.5h-15.95c-9.541,0-17.633,6.324-20.305,15H432v-42h43c20.402,0,37-16.598,37-37s-16.598-37-37-37h-43v-6.72
	c0-6.503-2.57-12.417-6.747-16.78c4.177-4.363,6.747-10.277,6.747-16.78V41.78c0-13.389-10.892-24.28-24.28-24.28H103.28
	C89.892,17.5,79,28.392,79,41.78v197.44c0,6.503,2.57,12.417,6.747,16.78C81.57,260.363,79,266.277,79,272.78v65.72H36
	c-19.851,0-36,16.149-36,36s16.149,36,36,36h43v59.72c0,13.389,10.892,24.28,24.28,24.28h304.44c13.389,0,24.28-10.892,24.28-24.28
	V410.5h23.936c2.672,8.676,10.763,15,20.305,15h15.95c6.512,0,11.81-5.298,11.81-11.81v-21.38
	C504,385.798,498.702,380.5,492.19,380.5z M432,294.5h43c12.131,0,22,9.869,22,22s-9.869,22-22,22h-43V294.5z M79,395.5H36
	c-11.579,0-21-9.421-21-21s9.421-21,21-21h43V395.5z M417,470.22c0,5.117-4.163,9.28-9.28,9.28H103.28
	c-5.117,0-9.28-4.163-9.28-9.28V272.78c0-5.117,4.163-9.28,9.28-9.28h304.44c5.117,0,9.28,4.163,9.28,9.28V470.22z M417,239.22
	c0,5.117-4.163,9.28-9.28,9.28H103.28c-5.117,0-9.28-4.163-9.28-9.28V41.78c0-5.117,4.163-9.28,9.28-9.28h304.44
	c5.117,0,9.28,4.163,9.28,9.28V239.22z M489,410.5h-12.76c-3.44,0-6.24-2.8-6.24-6.24v-2.52c0-3.44,2.8-6.24,6.24-6.24H489V410.5z"
	/>
<g>
</g>
<g>
</g>
<g>
</g>
<g>
</g>
<g>
</g>
<g>
</g>
<g>
</g>
<g>
</g>
<g>
</g>
<g>
</g>
<g>
</g>
<g>
</g>
<g>
</g>
<g>
</g>
<g>
</g>
</svg>
