<?xml version="1.0" encoding="iso-8859-1"?>
<!-- Generator: Adobe Illustrator 19.0.0, SVG Export Plug-In . SVG Version: 6.00 Build 0)  -->
<svg version="1.1" id="Capa_1" xmlns="http://www.w3.org/2000/svg" xmlns:xlink="http://www.w3.org/1999/xlink" x="0px" y="0px"
	 viewBox="0 0 511.999 511.999" style="enable-background:new 0 0 511.999 511.999;" xml:space="preserve">
<polygon style="fill:#DDDBC7;" points="242.451,149.823 238.3,296.233 187.812,295.271 184.774,188.198 "/>
<path style="fill:#F2BC97;" d="M198.37,179.153c-0.135,0.716-0.213,1.445-0.189,2.193l2.882,90.663
	c0.187,5.883,5.01,10.554,10.895,10.554l0,0c5.9,0,10.728-4.694,10.896-10.59l3.167-111.217L198.37,179.153z"/>
<path style="fill:#D1CCAA;" d="M220.111,120.338l22.34,29.486l-79.035,60.157c-7.251,5.509-15.907,8.878-24.984,9.716l-26.695,2.466
	c-5.667,0.525-10.032-4.922-8.258-10.346l8.426-25.887c3.075-9.412,8.941-17.681,16.831-23.673l60.64-46.107
	C199.019,108.827,212.787,110.694,220.111,120.338z"/>
<path style="fill:#DDDBC7;" d="M336.06,84.86c6.296,25.131,7.46,50.084,3.862,73.232L318.539,294.31l-44.863-1.218l11.544-141.41
	c1.857-23.348,8.762-47.366,20.703-70.356l13.946-26.862c2.214-4.26,7.66-3.621,8.836,1.039L336.06,84.86z"/>
<path style="fill:#E8B62A;" d="M442.923,490.117c0.651,6.107-3.851,11.595-10.053,12.246l-10.934,1.165
	c-6.201,0.661-11.752-3.757-12.403-9.874L390.75,316.665l-3.41-32.119l-9.265-87.303l-4.323-40.704
	c-0.661-6.201,3.841-11.762,10.042-12.424l10.924-1.154c6.201-0.661,11.762,3.83,12.424,10.032l14.03,132.193l3.337,31.428
	L442.923,490.117z"/>
<path style="fill:#EAA428;" d="M430.14,493.653l-18.783-176.989l-3.41-32.119l-9.265-87.304l-4.323-40.702
	c-0.571-5.351,2.708-10.218,7.6-11.88c-2.08-1.321-4.6-1.981-7.241-1.699l-10.924,1.154c-6.201,0.661-10.703,6.222-10.042,12.424
	l4.323,40.702l9.265,87.304l3.41,32.119l18.783,176.989c0.651,6.118,6.201,10.535,12.403,9.875l10.934-1.165
	c0.834-0.087,1.634-0.269,2.398-0.522C432.488,500.086,430.511,497.151,430.14,493.653z"/>
<path style="fill:#00AA95;" d="M128.998,316.664h254.187c-20.273,57.346-25.247,114.69-14.9,172.036
	c1.479,8.237-4.859,15.792-13.211,15.792H157.551c-8.489,0-14.816-7.765-13.148-16.086
	C155.19,434.409,149.565,376.801,128.998,316.664z"/>
<path style="fill:#079B6D;" d="M254.393,488.407c10.786-53.998,5.163-111.605-15.404-171.742h-109.99
	c20.567,60.136,26.191,117.744,15.404,171.742c-1.669,8.321,4.659,16.086,13.148,16.086h109.99
	C259.051,504.493,252.724,496.728,254.393,488.407z"/>
<path style="fill:#E8B62A;" d="M143.86,372.278h224.473c3.355-18.538,8.3-37.076,14.853-55.614H128.999
	C135.426,335.461,140.395,354.01,143.86,372.278z"/>
<path style="fill:#EAA428;" d="M238.989,316.664h-109.99c0.735,2.148,1.444,4.292,2.141,6.433c0.217,0.669,0.427,1.336,0.641,2.004
	c0.479,1.497,0.95,2.993,1.41,4.487c0.23,0.749,0.458,1.496,0.685,2.244c0.451,1.493,0.891,2.984,1.323,4.474
	c0.192,0.664,0.388,1.327,0.578,1.99c0.606,2.126,1.197,4.25,1.764,6.369c0.002,0.008,0.004,0.016,0.006,0.024
	c0.565,2.111,1.104,4.218,1.63,6.322c0.164,0.658,0.321,1.313,0.481,1.971c0.362,1.48,0.716,2.96,1.059,4.437
	c0.17,0.733,0.337,1.465,0.503,2.197c0.334,1.479,0.657,2.956,0.971,4.431c0.138,0.647,0.28,1.295,0.414,1.942
	c0.435,2.098,0.858,4.193,1.254,6.284c0,0.001,0,0.002,0.001,0.003h109.99C250.385,354.01,245.417,335.461,238.989,316.664z"/>
<path style="fill:#008975;" d="M439.723,285.186c8.688,0,15.739,7.052,15.739,15.739c0,4.344-1.763,8.279-4.617,11.123
	c-2.844,2.854-6.779,4.617-11.123,4.617H70.363c-8.688,0-15.739-7.052-15.739-15.739c0-4.344,1.763-8.279,4.617-11.123
	c2.844-2.854,6.779-4.616,11.123-4.616h369.359V285.186z"/>
<path style="fill:#03725F;" d="M450.846,296.309c-2.844,2.854-6.779,4.617-11.123,4.617H70.363c-5.818,0-10.89-3.17-13.613-7.868
	c-1.344,2.316-2.126,4.999-2.126,7.868c0,8.688,7.052,15.739,15.739,15.739h369.36c4.344,0,8.279-1.763,11.123-4.617
	c2.854-2.844,4.616-6.779,4.616-11.123c0-2.871-0.782-5.554-2.126-7.872C452.644,294.244,451.815,295.343,450.846,296.309z"/>
<path style="fill:#F2BC97;" d="M299.714,274.236c-0.293,0-0.59-0.018-0.889-0.053l-0.496-0.059
	c-4.007-0.473-6.924-4.029-6.602-8.052l9.019-113.153c1.153-14.468,4.462-29.174,9.837-43.71c1.201-3.25,4.469-5.25,7.916-4.854
	c3.442,0.403,6.161,3.112,6.578,6.553c1.865,15.386,1.682,30.459-0.545,44.799l-17.407,112.171
	C306.551,271.575,303.366,274.236,299.714,274.236z"/>
<g>
	<path style="fill:#E8B62A;" d="M118.145,66.165c2.886,1.574,2.886,5.709,0,7.282l-9.979,5.467
		c-0.703,0.377-1.269,0.944-1.648,1.648l-5.467,9.979c-1.574,2.886-5.709,2.886-7.282,0l-5.467-9.979
		c-0.377-0.703-0.944-1.269-1.648-1.648l-9.979-5.467c-2.886-1.574-2.886-5.709,0-7.282l9.979-5.467
		c0.703-0.377,1.269-0.944,1.648-1.648l5.467-9.979c1.574-2.886,5.709-2.886,7.282,0l5.467,9.979
		c0.377,0.703,0.944,1.269,1.648,1.648L118.145,66.165z"/>
	<path style="fill:#E8B62A;" d="M498.757,164.546c2.886,1.574,2.886,5.709,0,7.282l-9.979,5.467
		c-0.703,0.377-1.269,0.944-1.648,1.648l-5.467,9.979c-1.574,2.886-5.709,2.886-7.282,0l-5.467-9.979
		c-0.377-0.703-0.944-1.269-1.648-1.648l-9.979-5.467c-2.886-1.574-2.886-5.709,0-7.282l9.979-5.467
		c0.703-0.377,1.269-0.944,1.648-1.648l5.467-9.979c1.574-2.886,5.709-2.886,7.282,0l5.467,9.979
		c0.377,0.703,0.944,1.269,1.648,1.648L498.757,164.546z"/>
	<path style="fill:#E8B62A;" d="M269.429,24.279c2.507,1.364,2.507,4.974,0,6.338l-8.698,4.754c-0.599,0.335-1.102,0.84-1.437,1.437
		l-4.754,8.698c-1.364,2.507-4.974,2.507-6.338,0l-4.754-8.698c-0.335-0.599-0.84-1.102-1.437-1.437l-8.698-4.754
		c-2.507-1.364-2.507-4.974,0-6.338l8.698-4.754c0.599-0.335,1.102-0.84,1.437-1.437l4.754-8.698c1.364-2.507,4.974-2.507,6.338,0
		l4.754,8.698c0.335,0.599,0.84,1.102,1.437,1.437L269.429,24.279z"/>
	<path style="fill:#E8B62A;" d="M58.516,231.124c2.507,1.364,2.507,4.974,0,6.338l-8.698,4.754c-0.599,0.335-1.102,0.84-1.437,1.437
		l-4.754,8.698c-1.364,2.507-4.974,2.507-6.338,0l-4.754-8.698c-0.335-0.599-0.84-1.102-1.437-1.437l-8.698-4.754
		c-2.507-1.364-2.507-4.974,0-6.338l8.698-4.754c0.599-0.335,1.102-0.84,1.437-1.437l4.754-8.698c1.364-2.507,4.974-2.507,6.338,0
		l4.754,8.698c0.335,0.599,0.84,1.102,1.437,1.437L58.516,231.124z"/>
</g>
<path d="M439.723,277.678h-11.799l-13.317-125.481c-1.098-10.306-10.371-17.802-20.678-16.701l-10.93,1.154
	c-4.992,0.532-9.48,2.975-12.636,6.879c-3.16,3.908-4.607,8.811-4.076,13.802l12.775,120.346h-50.024l18.303-118.432
	c3.836-24.67,2.49-50.311-3.998-76.209l-7.359-29.373c-1.305-5.175-5.403-8.899-10.442-9.486c-5.034-0.587-9.876,2.089-12.336,6.824
	l-13.945,26.861c-12.302,23.684-19.543,48.319-21.525,73.222l-10.05,126.592h-21.351l3.586-126.517
	c0.019-0.104,0.036-0.208,0.05-0.313c0.269-1.974-0.257-3.972-1.461-5.557l-22.422-29.494c-4.756-6.261-11.668-10.294-19.464-11.355
	c-7.795-1.054-15.53,0.976-21.793,5.733l-60.636,46.105c-9.137,6.938-15.855,16.385-19.431,27.329l-8.423,25.878
	c-1.62,4.955-0.647,10.344,2.605,14.415c2.951,3.696,7.373,5.806,12.044,5.806c0.477,0,0.957-0.022,1.437-0.067l26.695-2.465
	c10.483-0.97,20.454-4.848,28.836-11.215l9.88-7.51l1.964,69.23H70.363c-6.216,0-12.056,2.424-16.421,6.807
	c-4.401,4.385-6.826,10.224-6.826,16.441c0,12.818,10.428,23.248,23.248,23.248h53.234c18.964,57.746,23.489,112.48,13.445,162.759
	c-1.241,6.192,0.338,12.539,4.334,17.415c3.986,4.864,9.882,7.653,16.175,7.653h197.522c6.215,0,12.068-2.735,16.056-7.503
	c3.987-4.767,5.643-11.008,4.543-17.13c-9.123-50.563-5.938-101.806,9.454-152.558l16.94,159.638
	c0.529,4.973,2.983,9.433,6.91,12.559c3.36,2.675,7.455,4.096,11.708,4.096c0.679,0,1.361-0.037,2.045-0.109l10.924-1.163
	c5.026-0.528,9.536-2.973,12.7-6.886c3.125-3.864,4.557-8.7,4.033-13.618l-17.528-165.153h6.864c6.217,0,12.056-2.424,16.421-6.806
	c4.401-4.385,6.826-10.225,6.826-16.442C462.969,288.107,452.541,277.678,439.723,277.678z M382.037,152.969
	c0.369-0.456,1.192-1.244,2.545-1.389l10.93-1.154c1.361-0.149,2.322,0.45,2.778,0.818c0.455,0.367,1.241,1.187,1.385,2.54
	l3.421,32.233l-18.377,2.723l-3.503-32.998C381.073,154.391,381.669,153.425,382.037,152.969z M386.306,203.685l18.377-2.723
	l8.142,76.715h-18.664L386.306,203.685z M292.705,152.276c1.795-22.568,8.67-45.906,19.882-67.494l10.599-20.417l5.591,22.32
	c5.999,23.941,7.252,47.578,3.725,70.26l-18.658,120.732h-31.095L292.705,152.276z M158.874,204.004
	c-6.142,4.666-13.45,7.507-21.134,8.219l-26.696,2.465c-0.091,0.009-0.224,0.021-0.362-0.154c-0.137-0.171-0.097-0.294-0.064-0.393
	l8.424-25.879c2.62-8.019,7.541-14.944,14.239-20.027l60.637-46.106c2.538-1.928,5.571-2.943,8.705-2.943
	c0.656,0,1.317,0.044,1.978,0.134c3.819,0.521,7.204,2.493,9.533,5.561l17.848,23.478l-51.602,39.295
	c-0.01,0.008-0.02,0.016-0.03,0.023L158.874,204.004z M192.542,197.27l41.958-31.897l-3.183,112.305h-36.493L192.542,197.27z
	 M435.458,490.914c0.133,1.251-0.429,2.159-0.778,2.59c-0.64,0.791-1.561,1.285-2.605,1.395l-10.936,1.164
	c-1.025,0.11-2.023-0.175-2.811-0.804c-0.438-0.349-1.195-1.125-1.33-2.397l-17.901-168.689h18.663L435.458,490.914z
	 M445.526,306.75c-1.547,1.553-3.608,2.407-5.804,2.407l0,0c-0.55-0.065,0.574-0.061,0,0c-0.03,0.003,0.03-0.003,0,0l0,0
	c-0.095-0.002,0.095-0.002,0,0H236.911c-4.146,0-7.507,3.36-7.507,7.507s3.361,7.507,7.507,7.507h135.813
	c-4.355,13.5-7.883,27.04-10.58,40.599h-48.339c-4.146,0-7.507,3.36-7.507,7.507s3.361,7.507,7.507,7.507h45.692
	c-5.652,36.797-5.198,73.678,1.398,110.242c0.424,2.364-0.622,4.045-1.283,4.836c-0.663,0.793-2.134,2.122-4.538,2.122H157.551
	c-2.432,0-3.902-1.35-4.561-2.155c-0.666-0.813-1.71-2.534-1.225-4.953c6.985-34.961,7.301-71.867,0.991-110.28h134.816
	c4.146,0,7.507-3.36,7.507-7.507s-3.361-7.507-7.507-7.507H149.968c-2.754-13.305-6.285-26.781-10.595-40.41h40.849
	c4.146,0,7.507-3.36,7.507-7.507s-3.361-7.507-7.507-7.507H70.363c-0.067-0.001,0.067-0.001,0,0l0,0
	c-4.539,0-8.233-3.693-8.233-8.233c0-2.195,0.855-4.256,2.428-5.824c1.548-1.554,3.609-2.408,5.804-2.408l0,0c0.033,0,0,0,0.033,0
	c0.028,0-0.028,0,0,0h369.327c0.028,0-18.589,0.001-18.561,0.001c0.023,0,18.537-0.001,18.561-0.001l0,0
	c4.539,0,8.233,3.693,8.233,8.233C447.955,303.12,447.1,305.182,445.526,306.75z"/>
<path d="M73.07,80.033l9.118,4.994l4.991,9.109c2.044,3.749,5.965,6.077,10.232,6.077s8.187-2.328,10.225-6.065l4.997-9.12
	l9.11-4.99c3.748-2.045,6.076-5.966,6.075-10.233c0-4.266-2.329-8.186-6.065-10.223l-9.12-4.997l-4.994-9.115
	c-2.045-3.744-5.964-6.069-10.228-6.069c-4.267,0-8.188,2.328-10.225,6.065l-4.996,9.12l-9.108,4.99
	c-3.748,2.044-6.076,5.964-6.077,10.23C67.004,74.072,69.332,77.993,73.07,80.033z M90.206,67.313
	c2.005-1.077,3.635-2.706,4.681-4.655l2.524-4.608l2.495,4.555c1.078,2.005,2.707,3.634,4.653,4.677l4.607,2.524l-4.556,2.495
	c-2.003,1.078-3.631,2.706-4.676,4.653l-2.524,4.607l-2.491-4.547c-1.074-2.003-2.701-3.633-4.657-4.686l-4.607-2.523L90.206,67.313
	z"/>
<path d="M502.365,157.962l-9.12-4.997l-4.994-9.115c-2.045-3.744-5.964-6.069-10.228-6.069c-4.267,0-8.188,2.328-10.225,6.065
	l-4.996,9.12l-9.109,4.99c-3.749,2.044-6.077,5.965-6.077,10.232c0,4.267,2.328,8.188,6.065,10.226l9.119,4.994l4.991,9.109
	c2.044,3.749,5.965,6.077,10.232,6.077s8.187-2.328,10.225-6.065l4.997-9.12l9.108-4.989c3.749-2.044,6.077-5.965,6.077-10.232
	C508.43,163.921,506.1,159.999,502.365,157.962z M485.22,170.684c-2,1.077-3.627,2.704-4.673,4.652l-2.524,4.607l-2.495-4.554
	c-1.075-2.001-2.702-3.628-4.653-4.679l-4.607-2.523l4.551-2.493c2.003-1.076,3.632-2.704,4.681-4.655l2.524-4.608l2.495,4.555
	c1.077,2.004,2.706,3.632,4.653,4.677l4.607,2.524L485.22,170.684z"/>
<path d="M229.712,37.205l7.695,4.203l4.199,7.685c1.946,3.577,5.688,5.801,9.763,5.801c4.076,0,7.817-2.223,9.756-5.788l4.205-7.696
	l7.685-4.198c3.577-1.947,5.801-5.69,5.8-9.765c0-4.076-2.224-7.818-5.788-9.754l-7.695-4.205l-4.206-7.697
	C259.179,2.218,255.441,0,251.37,0c-4.076,0-7.818,2.223-9.757,5.788l-4.205,7.696l-7.683,4.198
	c-3.578,1.945-5.802,5.687-5.802,9.762C223.922,31.522,226.146,35.263,229.712,37.205z M245.68,26.074
	c1.808-1.014,3.299-2.504,4.355-4.387l1.334-2.442l1.376,2.517c1.015,1.809,2.506,3.299,4.383,4.351l2.442,1.335l-2.521,1.377
	c-1.804,1.015-3.293,2.503-4.347,4.382l-1.334,2.442l-1.375-2.517c-1.012-1.804-2.501-3.293-4.384-4.352l-2.442-1.334L245.68,26.074
	z"/>
<path d="M50.214,255.952l4.205-7.696l7.682-4.198c3.579-1.946,5.802-5.688,5.802-9.763c0-4.077-2.223-7.819-5.788-9.756
	l-7.695-4.205l-4.206-7.697c-1.948-3.569-5.686-5.788-9.756-5.788c-4.076,0-7.818,2.223-9.757,5.788l-4.205,7.696l-7.683,4.198
	c-3.579,1.946-5.802,5.688-5.802,9.764c0,4.076,2.223,7.818,5.788,9.755l7.696,4.205l4.199,7.685
	c1.946,3.577,5.688,5.801,9.763,5.801C44.533,261.74,48.274,259.518,50.214,255.952z M41.792,240.053l-1.334,2.442l-1.375-2.517
	c-1.012-1.804-2.501-3.293-4.384-4.351l-2.442-1.335l2.512-1.372c1.808-1.014,3.299-2.504,4.355-4.387l1.334-2.442l1.376,2.517
	c1.015,1.809,2.506,3.299,4.383,4.351l2.442,1.335l-2.52,1.377C44.335,236.686,42.846,238.174,41.792,240.053z"/>
<path d="M415.768,54.933c4.146,0,7.507-3.36,7.507-7.507v-7.87c0-4.147-3.361-7.507-7.507-7.507s-7.507,3.36-7.507,7.507v7.87
	C408.26,51.572,411.621,54.933,415.768,54.933z"/>
<path d="M429.408,68.574h7.87c4.146,0,7.507-3.36,7.507-7.507c0-4.147-3.361-7.507-7.507-7.507h-7.87
	c-4.146,0-7.507,3.36-7.507,7.507S425.262,68.574,429.408,68.574z"/>
<path d="M415.768,67.2c-4.146,0-7.507,3.36-7.507,7.507v7.87c0,4.147,3.361,7.507,7.507,7.507s7.507-3.36,7.507-7.507v-7.87
	C423.275,70.56,419.914,67.2,415.768,67.2z"/>
<path d="M394.257,68.574h7.87c4.146,0,7.507-3.36,7.507-7.507c0-4.147-3.361-7.507-7.507-7.507h-7.87
	c-4.146,0-7.507,3.36-7.507,7.507S390.111,68.574,394.257,68.574z"/>
<path d="M32.588,156.282c4.146,0,7.507-3.36,7.507-7.507v-7.87c0-4.147-3.361-7.507-7.507-7.507s-7.507,3.36-7.507,7.507v7.87
	C25.08,152.92,28.442,156.282,32.588,156.282z"/>
<path d="M46.229,169.923h7.87c4.146,0,7.507-3.36,7.507-7.507c0-4.147-3.361-7.507-7.507-7.507h-7.87
	c-4.146,0-7.507,3.36-7.507,7.507C38.722,166.563,42.083,169.923,46.229,169.923z"/>
<path d="M32.588,168.55c-4.146,0-7.507,3.36-7.507,7.507v7.87c0,4.147,3.361,7.507,7.507,7.507s7.507-3.36,7.507-7.507v-7.87
	C40.095,171.91,36.734,168.55,32.588,168.55z"/>
<path d="M26.454,162.416c0-4.147-3.361-7.507-7.507-7.507h-7.87c-4.146,0-7.507,3.36-7.507,7.507c0,4.147,3.361,7.507,7.507,7.507
	h7.87C23.092,169.923,26.454,166.562,26.454,162.416z"/>
<g>
</g>
<g>
</g>
<g>
</g>
<g>
</g>
<g>
</g>
<g>
</g>
<g>
</g>
<g>
</g>
<g>
</g>
<g>
</g>
<g>
</g>
<g>
</g>
<g>
</g>
<g>
</g>
<g>
</g>
</svg>
