<?xml version="1.0" encoding="iso-8859-1"?>
<!-- Generator: Adobe Illustrator 19.0.0, SVG Export Plug-In . SVG Version: 6.00 Build 0)  -->
<svg version="1.1" id="Capa_1" xmlns="http://www.w3.org/2000/svg" xmlns:xlink="http://www.w3.org/1999/xlink" x="0px" y="0px"
	 viewBox="0 0 512.001 512.001" style="enable-background:new 0 0 512.001 512.001;" xml:space="preserve">
<path style="fill:#EA4F26;" d="M201.995,111.035c1.794,1.794,1.794,4.699,0,6.493l-25.149,25.149v72.963h-25.049v-78.153
	c0-3.327,1.323-6.503,3.667-8.857l28.816-28.816c1.793-1.794,4.699-1.794,6.493,0L201.995,111.035z"/>
<path style="fill:#ED3124;" d="M164.822,145.53c0-3.327,1.323-6.503,3.667-8.857l28.816-28.816c0.262-0.262,0.551-0.473,0.853-0.658
	l-7.385-7.385c-1.794-1.794-4.699-1.794-6.493,0l-28.816,28.816c-2.345,2.355-3.667,5.531-3.667,8.857v78.153h13.025V145.53z"/>
<g>
	<circle style="fill:#FDDB87;" cx="26.552" cy="256.221" r="19.538"/>
	<circle style="fill:#FDDB87;" cx="56.37" cy="256.221" r="19.538"/>
	<circle style="fill:#FDDB87;" cx="45.589" cy="235.179" r="19.538"/>
	<circle style="fill:#FDDB87;" cx="73.864" cy="223.998" r="19.538"/>
	<circle style="fill:#FDDB87;" cx="88.172" cy="254.718" r="19.538"/>
</g>
<g>
	<path style="fill:#F7CF77;" d="M23.514,255.039c0-7.331,4.043-13.711,10.017-17.053c-2.169-0.831-4.516-1.306-6.978-1.306
		c-10.791,0-19.538,8.747-19.538,19.538c0,10.791,8.747,19.538,19.538,19.538c3.46,0,6.703-0.908,9.522-2.485
		C28.734,270.459,23.514,263.367,23.514,255.039z"/>
	<path style="fill:#F7CF77;" d="M53.334,255.039c0-7.331,4.043-13.711,10.017-17.053c-2.169-0.831-4.516-1.306-6.978-1.306
		c-10.791,0-19.538,8.747-19.538,19.538c0,10.791,8.747,19.538,19.538,19.538c3.46,0,6.703-0.908,9.522-2.485
		C58.554,270.46,53.334,263.367,53.334,255.039z"/>
	<path style="fill:#F7CF77;" d="M42.551,233.998c0-7.331,4.043-13.711,10.017-17.053c-2.169-0.831-4.516-1.306-6.978-1.306
		c-10.791,0-19.538,8.747-19.538,19.538c0,10.791,8.747,19.538,19.538,19.538c3.46,0,6.703-0.908,9.522-2.485
		C47.771,249.418,42.551,242.326,42.551,233.998z"/>
	<path style="fill:#F7CF77;" d="M70.823,222.822c0-7.331,4.043-13.711,10.017-17.053c-2.169-0.831-4.516-1.306-6.978-1.306
		c-10.791,0-19.538,8.747-19.538,19.538s8.747,19.538,19.538,19.538c3.46,0,6.703-0.908,9.522-2.485
		C76.045,238.243,70.823,231.151,70.823,222.822z"/>
	<path style="fill:#F7CF77;" d="M85.134,253.536c0-7.331,4.043-13.711,10.017-17.053c-2.169-0.831-4.516-1.306-6.978-1.306
		c-10.791,0-19.538,8.747-19.538,19.538s8.747,19.538,19.538,19.538c3.46,0,6.703-0.908,9.522-2.485
		C90.354,268.956,85.134,261.865,85.134,253.536z"/>
</g>
<path style="fill:#898989;" d="M324.133,179.068h-42.082v234.458h42.082c64.729,0,117.229-52.5,117.229-117.229
	S388.862,179.068,324.133,179.068z"/>
<path style="fill:#666666;" d="M504.485,348.038v56.831c0,4.779-3.878,8.657-8.657,8.657H282.051v-74.145h109.053h104.725
	C500.608,339.381,504.485,343.259,504.485,348.038z"/>
<path style="fill:#5B5E5E;" d="M391.104,339.381H282.051v74.145h75.155c26.766-17.199,47.252-43.315,57.28-74.145H391.104z"/>
<path style="fill:#00AA95;" d="M282.051,179.068c64.729,0,117.229,52.5,117.229,117.229s-52.5,117.229-117.229,117.229
	s-117.229-52.5-117.229-117.229S217.321,179.068,282.051,179.068z"/>
<path style="fill:#00A8A8;" d="M272.902,291.198c0-43.246,23.438-81.028,58.297-101.348c-14.949-6.917-31.597-10.783-49.148-10.783
	c-64.729,0-117.229,52.5-117.229,117.229s52.5,117.229,117.229,117.229c21.483,0,41.615-5.788,58.932-15.881
	C300.796,379.051,272.902,338.377,272.902,291.198z"/>
<path style="fill:#00A595;" d="M245.479,248.954l-4.469-24.448c-0.321-1.804-1.894-3.106-3.717-3.106h-45.416
	c-16.892,20.314-27.056,46.42-27.056,74.896c0,47.557,28.339,88.512,69.047,106.896L245.479,248.954z"/>
<path style="fill:#FFFFFF;" d="M282.051,259.224c20.47,0,37.072,16.602,37.072,37.072s-16.602,37.072-37.072,37.072
	s-37.072-16.602-37.072-37.072S261.581,259.224,282.051,259.224z"/>
<path style="fill:#BFC1C1;" d="M282.051,259.224c-9.797,0-18.702,3.809-25.33,10.019c2.889-0.722,5.909-1.111,9.021-1.111
	c20.47,0,37.072,16.602,37.072,37.072c0,10.673-4.52,20.289-11.742,27.054c16.111-4.031,28.053-18.603,28.053-35.961
	C319.123,275.827,302.521,259.224,282.051,259.224z"/>
<g>
	<circle style="fill:#666666;" cx="282.051" cy="216.142" r="18.035"/>
	<circle style="fill:#666666;" cx="362.207" cy="296.299" r="18.035"/>
	<circle style="fill:#666666;" cx="282.051" cy="376.455" r="18.035"/>
</g>
<g>
	<path style="fill:#595B5B;" d="M282.051,198.105c-6.01,0-11.318,2.952-14.595,7.472c1.902-0.682,3.943-1.073,6.079-1.073
		c9.959,0,18.035,8.076,18.035,18.035c0,3.95-1.285,7.592-3.44,10.564c6.965-2.498,11.956-9.139,11.956-16.962
		C300.086,206.181,292.01,198.105,282.051,198.105z"/>
	<path style="fill:#595B5B;" d="M362.207,278.262c-6.01,0-11.318,2.952-14.595,7.472c1.902-0.682,3.943-1.073,6.079-1.073
		c9.959,0,18.035,8.076,18.035,18.035c0,3.95-1.285,7.592-3.44,10.564c6.965-2.498,11.956-9.139,11.956-16.962
		C380.243,286.337,372.167,278.262,362.207,278.262z"/>
	<path style="fill:#595B5B;" d="M282.051,358.418c-6.01,0-11.318,2.952-14.595,7.472c1.902-0.682,3.943-1.073,6.079-1.073
		c9.959,0,18.035,8.076,18.035,18.035c0,3.95-1.285,7.592-3.44,10.564c6.965-2.498,11.956-9.139,11.956-16.962
		C300.086,366.494,292.01,358.418,282.051,358.418z"/>
</g>
<path style="fill:#DDDDDD;" d="M131.978,275.757l1.783,137.769H32.974c-3.116,0-5.771-2.274-6.242-5.361L7.725,283.692
	c-0.641-4.168,2.595-7.936,6.823-7.936h96.218H131.978z"/>
<path style="fill:#CECCC6;" d="M71.42,374.199c-3.116,0-5.771-2.274-6.242-5.36l-14.214-93.082H14.548
	c-4.228,0-7.465,3.767-6.823,7.936l19.007,124.473c0.471,3.086,3.126,5.361,6.242,5.361h100.787l-0.509-39.327L71.42,374.199
	L71.42,374.199z"/>
<path style="fill:#E8B62A;" d="M226.943,235.177l-12.454,165.443c-0.531,7.274-6.583,12.905-13.877,12.905h-66.57
	c-7.294,0-13.346-5.631-13.877-12.905L107.71,235.177L226.943,235.177L226.943,235.177z"/>
<path style="fill:#E59E2C;" d="M169.939,400.621l-12.454-165.443H107.71l12.454,165.443c0.531,7.274,6.583,12.905,13.877,12.905
	h49.774C176.522,413.526,170.47,407.895,169.939,400.621z"/>
<polygon style="fill:#DDDDDD;" points="218.344,349.401 222.342,296.297 112.311,296.297 116.309,349.401 "/>
<polygon style="fill:#E5BC80;" points="162.087,296.297 112.311,296.297 116.309,349.401 166.083,349.401 "/>
<g>
	<polygon style="fill:#ED3124;" points="38.395,275.757 59.296,413.526 92.952,413.526 78.423,275.757 	"/>
	<path style="fill:#ED3124;" d="M71.42,374.199c-3.116,0-5.771-2.274-6.242-5.36l-14.214-93.082h-12.57l20.901,137.769h33.656
		l-4.147-39.327H71.42z"/>
</g>
<path style="fill:#DDDDDD;" d="M222.475,210.73l4.469,24.448H107.71l4.469-24.448c0.321-1.804,1.894-3.106,3.717-3.106h102.861
	C220.581,207.624,222.154,208.926,222.475,210.73z"/>
<path style="fill:#CECCC6;" d="M165.671,207.624h-49.774c-1.824,0-3.397,1.303-3.717,3.106l-4.469,24.448h49.774l4.469-24.448
	C162.275,208.926,163.848,207.624,165.671,207.624z"/>
<path d="M282.051,241.69c14.089,0,25.55-11.461,25.55-25.55s-11.461-25.55-25.55-25.55c-14.089,0-25.55,11.461-25.55,25.55
	S267.962,241.69,282.051,241.69z M282.051,205.62c5.801,0,10.521,4.719,10.521,10.521c0,5.801-4.719,10.521-10.521,10.521
	s-10.521-4.719-10.521-10.521C271.53,210.339,276.25,205.62,282.051,205.62z"/>
<path d="M387.757,296.297c0-14.089-11.461-25.55-25.55-25.55c-14.089,0-25.55,11.461-25.55,25.55s11.461,25.55,25.55,25.55
	C376.296,321.847,387.757,310.384,387.757,296.297z M351.687,296.297c0-5.801,4.719-10.521,10.521-10.521
	s10.521,4.719,10.521,10.521s-4.719,10.521-10.521,10.521S351.687,302.097,351.687,296.297z"/>
<path d="M282.051,350.903c-14.089,0-25.55,11.461-25.55,25.55s11.461,25.55,25.55,25.55c14.089,0,25.55-11.461,25.55-25.55
	S296.139,350.903,282.051,350.903z M282.051,386.974c-5.801,0-10.521-4.719-10.521-10.521s4.719-10.521,10.521-10.521
	s10.521,4.719,10.521,10.521S287.852,386.974,282.051,386.974z"/>
<path d="M200.612,421.04c9.762,0,18.163-6.667,20.668-15.775c17.676,9.888,37.425,15.279,57.884,15.743
	c0.021,0,0.042,0.001,0.063,0.001c0.169,0.004,0.338,0.007,0.507,0.01c0.04,0.001,0.081,0.001,0.122,0.002
	c0.148,0.003,0.298,0.005,0.447,0.007c0.062,0.001,0.124,0.001,0.185,0.002c0.136,0.002,0.272,0.003,0.408,0.005
	c0.041,0,0.082,0.001,0.122,0.001c0.147,0.001,0.295,0.002,0.443,0.003c0.196,0.001,0.393,0.001,0.59,0.001h213.777
	c8.917,0,16.173-7.255,16.173-16.173v-56.83c0-8.917-7.254-16.173-16.173-16.173h-51.093c3.417-11.49,5.144-23.412,5.144-35.569
	c0-68.783-55.96-124.744-124.744-124.744h-43.084c-28.983,0-57.142,10.133-79.432,28.556h-18.26v-54.319l22.948-22.948
	c4.719-4.72,4.719-12.399,0-17.119L196.087,94.5c-4.72-4.72-12.401-4.72-17.121,0l-28.827,28.827
	c-3.777,3.792-5.857,8.821-5.857,14.16v62.622h-28.385c-5.482,0-10.157,3.913-11.11,9.269l-3.804,20.815
	c-0.443-0.209-0.892-0.407-1.347-0.591c0.368-1.762,0.56-3.584,0.56-5.446c0-14.641-11.911-26.552-26.552-26.552
	c-8.877,0-17.132,4.489-22.019,11.714c-1.94-0.453-3.961-0.692-6.036-0.692c-13.094,0-24.004,9.527-26.163,22.013
	C8.235,233.76,0,244.045,0,256.219c0,5.851,1.825,11.275,4.921,15.707c-0.463,0.415-0.901,0.862-1.312,1.34
	c-2.74,3.192-3.948,7.407-3.313,11.566l19.01,124.472c1.041,6.801,6.789,11.738,13.67,11.738L200.612,421.04
	c0.028,0-141.354,0.001-141.326,0.001C59.322,421.041,200.576,421.04,200.612,421.04 M159.311,137.487
	c0-1.336,0.524-2.598,1.467-3.544l26.748-26.749l7.087,7.087l-23.082,23.082c-1.409,1.41-2.2,3.32-2.2,5.313v57.432h-10.02V137.487z
	 M119.012,215.138h96.628l2.289,12.524H116.722L119.012,215.138z M26.552,244.696c3.078,0,5.972,1.198,8.147,3.375
	c2.933,2.935,7.691,2.936,10.627,0.001c2.935-2.935,2.936-7.692,0.001-10.628c-2.989-2.99-6.566-5.179-10.47-6.46
	c1.68-4.286,5.857-7.33,10.733-7.33c5.117,0,9.465,3.354,10.963,7.978c-1.504,1.374-2.447,3.352-2.447,5.549
	c0,4.15,3.364,7.515,7.515,7.515c6.353,0,11.522,5.169,11.522,11.523c0,6.518-5.277,12.023-11.522,12.023H38.546
	c-0.095-0.002-0.19-0.002-0.287,0H26.423c-6.176,0-11.393-5.506-11.393-12.023C15.029,249.864,20.198,244.696,26.552,244.696z
	 M34.007,406.011l-18.746-122.74h16.673l18.62,122.74H34.007z M65.756,406.011l-18.62-122.74h24.523l12.943,122.74H65.756z
	 M77.562,234.998c-1.729-1.303-3.623-2.4-5.643-3.252c-0.745-5.751-3.339-10.931-7.162-14.923c2.162-2.607,5.415-4.189,8.886-4.189
	c6.353,0,11.523,5.169,11.523,11.523C85.166,229.084,82.062,233.382,77.562,234.998z M86.64,247.324
	c2.106-1.18,4.026-2.637,5.716-4.316c5.065,1.211,8.841,5.776,8.841,11.207c0,6.353-5.169,11.523-11.522,11.523
	c-1.283,0-2.49,0.322-3.547,0.888c1.316-3.205,2.044-6.721,2.044-10.406C88.172,253.1,87.631,250.106,86.64,247.324z
	 M99.716,406.011l-12.943-122.74h17.023l8.874,117.897c0.122,1.676,0.439,3.297,0.927,4.842H99.716z M207.633,391.591
	c-0.031,0.246-0.049,0.494-0.056,0.741l-0.583,7.74c-0.242,3.329-3.047,5.938-6.382,5.938h-66.569c-3.336,0-6.14-2.608-6.384-5.955
	l-3.247-43.141h85.833L207.633,391.591z M215.372,288.782h-32.153c-4.151,0-7.515,3.365-7.515,7.515s3.364,7.515,7.515,7.515h31.022
	l-2.866,38.074H123.28l-2.866-38.074h26.312c4.151,0,7.515-3.365,7.515-7.515s-3.364-7.515-7.515-7.515h-27.444l-3.47-46.09
	c-0.005-0.075,0.007,0.074,0,0l0,0h103.029L215.372,288.782z M281.542,406.01c-0.106,0-0.212-0.001-0.319-0.002
	c-0.066,0-0.132-0.001-0.198-0.001c-0.109-0.001-0.219-0.002-0.329-0.004c-0.061-0.001-0.121-0.001-0.182-0.002
	c-0.15-0.002-0.301-0.004-0.451-0.007c-0.014,0-0.027,0-0.041-0.001c-0.147-0.003-0.295-0.006-0.443-0.009
	c-0.024,0-0.048-0.001-0.072-0.002c-20.174-0.461-39.654-6.4-56.588-17.259l11.515-152.971c0.005-0.066,0.009-0.133,0.012-0.199
	c0-0.003,0-0.007,0.001-0.01c0.003-0.06,0.005-0.119,0.006-0.179c0-0.007,0-0.013,0-0.02c0.001-0.057,0.002-0.113,0.002-0.17
	c0-0.01,0-0.021,0-0.031c0-0.052-0.001-0.105-0.002-0.157c0-0.015-0.001-0.031-0.001-0.046c-0.002-0.05-0.004-0.099-0.006-0.149
	c-0.001-0.017-0.002-0.033-0.003-0.05c-0.003-0.047-0.006-0.095-0.01-0.142c-0.002-0.02-0.003-0.041-0.005-0.061
	c-0.004-0.045-0.008-0.09-0.013-0.136c-0.002-0.021-0.005-0.041-0.007-0.062c-0.005-0.044-0.01-0.088-0.016-0.131
	c-0.003-0.026-0.007-0.052-0.011-0.078c-0.006-0.039-0.011-0.078-0.017-0.117c-0.004-0.028-0.01-0.056-0.014-0.084
	c-0.006-0.033-0.011-0.066-0.017-0.1l-4.463-24.413c-0.51-2.865-2.068-5.312-4.24-6.978c17.13-10.309,36.632-15.854,56.418-15.854
	c60.497,0,109.714,49.218,109.714,109.714s-49.217,109.714-109.714,109.714C281.882,406.011,281.711,406.01,281.542,406.01z
	 M399.781,406.011h-58.409c24.122-13.095,43.468-33.914,54.696-59.115h3.713V406.011z M344.387,188.274
	c51.349,9.126,90.463,54.093,90.463,108.023c0,12.219-1.98,24.16-5.892,35.569h-27.329c3.361-11.276,5.165-23.216,5.165-35.569
	C406.795,250.203,381.664,209.869,344.387,188.274z M450.12,406.011h-35.31v-59.115h35.31c0.056,0.001-15.984,0.002-15.928,0.002
	c0.054,0,15.875-0.001,15.928-0.002l0,0V406.011z M496.971,404.868c0,0.63-0.513,1.143-1.143,1.143h-30.678v-59.115h30.678
	c0.63,0,1.143,0.513,1.143,1.143V404.868z"/>
<path d="M282.051,251.71c-24.585,0-44.587,20.001-44.587,44.587c0,24.586,20.002,44.587,44.587,44.587
	c24.585,0,44.587-20.001,44.587-44.587C326.638,271.711,306.636,251.71,282.051,251.71z M282.051,325.855
	c-16.299,0-29.558-13.259-29.558-29.558s13.259-29.558,29.558-29.558s29.558,13.259,29.558,29.558S298.35,325.855,282.051,325.855z"
	/>
<g>
</g>
<g>
</g>
<g>
</g>
<g>
</g>
<g>
</g>
<g>
</g>
<g>
</g>
<g>
</g>
<g>
</g>
<g>
</g>
<g>
</g>
<g>
</g>
<g>
</g>
<g>
</g>
<g>
</g>
</svg>
