<?xml version="1.0" encoding="iso-8859-1"?>
<!-- Generator: Adobe Illustrator 19.0.0, SVG Export Plug-In . SVG Version: 6.00 Build 0)  -->
<svg version="1.1" id="Capa_1" xmlns="http://www.w3.org/2000/svg" xmlns:xlink="http://www.w3.org/1999/xlink" x="0px" y="0px"
	 viewBox="0 0 512 512" style="enable-background:new 0 0 512 512;" xml:space="preserve">
<g>
	<polygon style="fill:#BCB89B;" points="483.099,279.275 458.572,312.45 434.8,344.609 434.789,344.609 411.711,375.833 
		398.839,342.356 	"/>
	<polygon style="fill:#BCB89B;" points="504.457,344.609 434.8,344.609 458.572,312.45 	"/>
	<polygon style="fill:#BCB89B;" points="419.262,279.275 374.583,279.275 349.776,214.736 	"/>
</g>
<polygon style="fill:#DDDBC7;" points="483.099,279.275 398.839,342.356 374.583,279.275 419.262,279.275 "/>
<path style="fill:#BCB89B;" d="M390.13,405.015l-42.115,56.967c-2.554,3.449-7.16,4.676-11.092,2.936l-64.278-28.71l40.898-31.194
	L390.13,405.015L390.13,405.015z"/>
<path style="fill:#CECBB6;" d="M313.544,405.015l-40.898,31.194h-0.01l-45.433,34.653c-2.936,2.202-6.908,2.434-10.096,0.593
	l-114.769-66.44L313.544,405.015L313.544,405.015z"/>
<polygon style="fill:#BCB89B;" points="180.895,179.208 198.393,249.429 152.829,259.877 "/>
<path style="fill:#DDDBC7;" d="M80.818,41.983l42.587,59.401l-60.97,12.218L7.842,124.543c-2.564,0.513-4.354-2.484-2.675-4.495
	l65.535-78.437C73.387,38.393,78.374,38.584,80.818,41.983z"/>
<polygon style="fill:#BCB89B;" points="123.404,101.384 158.077,146.827 96.666,233.862 62.436,113.602 "/>
<path style="fill:#CECCBA;" d="M158.077,146.827l22.817,32.38l-28.066,80.669l-50.491,145.138L58.644,299.518
	c-1.911-4.616-1.327-9.885,1.549-13.968l36.473-51.678v-0.01L158.077,146.827z"/>
<polygon style="fill:#DDDBC7;" points="102.338,405.015 152.829,259.877 198.393,249.429 349.776,214.736 374.583,279.275 
	398.839,342.356 411.711,375.833 422.924,405.015 390.13,405.015 313.544,405.015 "/>
<path d="M508.984,338.575l-36.876-27.664l20.073-27.152l0.01-0.013c0.033-0.045,0.066-0.091,0.1-0.138
	c0.011-0.016,0.021-0.031,0.032-0.047c0.021-0.029,0.041-0.059,0.061-0.09c0.017-0.026,0.034-0.052,0.051-0.078
	c0.012-0.018,0.023-0.036,0.035-0.053c0.751-1.173,1.139-2.486,1.184-3.799c0-0.013,0.001-0.026,0.001-0.039
	c0.001-0.037,0.002-0.073,0.003-0.11c0-0.035,0-0.07,0-0.106c0-0.017,0-0.033,0-0.049c0-0.057-0.001-0.115-0.003-0.172
	c0-0.006,0-0.013-0.001-0.02c-0.001-0.053-0.004-0.107-0.007-0.16l-0.001-0.016c-0.025-0.472-0.096-0.945-0.212-1.414
	c-0.003-0.012-0.006-0.024-0.009-0.036c-0.01-0.04-0.021-0.079-0.031-0.12c-0.007-0.024-0.013-0.048-0.02-0.072
	c-0.007-0.026-0.014-0.052-0.022-0.077c-0.009-0.032-0.019-0.064-0.029-0.097c-0.004-0.015-0.009-0.029-0.014-0.043
	c-0.415-1.322-1.198-2.541-2.321-3.491c-0.003-0.002-0.006-0.005-0.009-0.007c-0.105-0.087-0.211-0.173-0.321-0.256
	c-0.006-0.004-0.012-0.009-0.018-0.013c-0.013-0.01-0.027-0.021-0.04-0.031c-0.02-0.015-0.04-0.028-0.059-0.042
	c-0.01-0.007-0.02-0.014-0.029-0.021c-1.348-0.966-2.908-1.426-4.452-1.413h-60.816l-67.252-62.462
	c-0.158-0.15-0.323-0.294-0.493-0.429c-0.008-0.006-0.015-0.012-0.023-0.018c-0.034-0.027-0.069-0.054-0.105-0.081
	c-0.017-0.013-0.034-0.026-0.051-0.039c-0.016-0.012-0.031-0.023-0.047-0.035c-0.805-0.596-1.699-1.011-2.629-1.245
	c-0.012-0.003-0.025-0.006-0.037-0.009c-0.039-0.009-0.078-0.02-0.119-0.028c-0.922-0.213-1.895-0.254-2.87-0.101
	c-0.199,0.031-0.398,0.071-0.595,0.119l-144.084,33.024l-15.709-63.044c-0.002-0.009-0.005-0.018-0.007-0.027
	c-0.011-0.044-0.023-0.088-0.034-0.132c-0.006-0.023-0.013-0.046-0.019-0.069c-0.012-0.041-0.023-0.082-0.036-0.124
	c-0.008-0.028-0.017-0.056-0.026-0.083c-0.011-0.036-0.022-0.072-0.034-0.108c-0.016-0.047-0.032-0.095-0.048-0.142
	c-0.006-0.017-0.011-0.033-0.017-0.049c-0.025-0.068-0.05-0.136-0.076-0.203c-0.001-0.002-0.002-0.004-0.002-0.006
	c-0.026-0.067-0.054-0.134-0.082-0.2c-0.001-0.001-0.002-0.003-0.002-0.005c-0.222-0.52-0.5-1.006-0.823-1.451l-22.739-32.268
	c-0.043-0.063-0.088-0.125-0.135-0.187l-0.007-0.009c-0.017-0.023-0.034-0.045-0.051-0.068l-34.606-45.356L89.958,37.581
	c-2.538-3.532-6.485-5.645-10.828-5.803c-4.354-0.152-8.421,1.665-11.2,4.998l-65.535,78.44c-2.8,3.353-3.181,8.126-0.949,11.879
	c1.881,3.164,5.286,5.045,8.873,5.045c0.671,0,1.348-0.065,2.021-0.201l47.765-9.572l31.34,110.101l-34.399,48.739
	c-4.388,6.229-5.268,14.153-2.351,21.198l43.692,105.498c0.136,0.328,0.294,0.642,0.47,0.941c0.001,0.002,0.003,0.004,0.004,0.007
	c0.023,0.04,0.047,0.079,0.071,0.118l0.01,0.016c0.022,0.036,0.045,0.072,0.067,0.108c0.005,0.007,0.009,0.015,0.014,0.022
	c0.022,0.034,0.045,0.068,0.067,0.104c0.005,0.007,0.01,0.015,0.015,0.022c0.024,0.035,0.048,0.07,0.072,0.105
	c0.004,0.006,0.008,0.011,0.012,0.017c0.022,0.031,0.045,0.063,0.068,0.095c0.007,0.01,0.015,0.021,0.022,0.031
	c0.016,0.022,0.033,0.044,0.049,0.065c0.067,0.089,0.136,0.177,0.207,0.262c0.001,0.002,0.003,0.004,0.005,0.006
	c0.025,0.03,0.051,0.061,0.076,0.09c0.005,0.006,0.01,0.012,0.016,0.019c0.028,0.033,0.056,0.065,0.085,0.098
	c0.001,0.001,0.002,0.001,0.002,0.002c0.479,0.538,1.039,1.012,1.673,1.404c0.001,0.001,0.003,0.002,0.004,0.003
	c0.034,0.021,0.069,0.042,0.104,0.062l0.022,0.013c0.017,0.01,0.034,0.02,0.051,0.03l114.777,66.444
	c2.602,1.502,5.485,2.246,8.362,2.246c3.55,0,7.092-1.133,10.079-3.374l41.875-31.94l60.219,26.898
	c2.21,0.977,4.524,1.448,6.807,1.448c5.156,0,10.148-2.405,13.402-6.8l39.853-53.908h28.989c2.485,0,4.809-1.224,6.217-3.271
	c1.408-2.047,1.715-4.657,0.824-6.977l-9.732-25.316l18.362-24.843h62.847c3.247,0,6.128-2.077,7.155-5.157
	C512.638,343.914,511.581,340.523,508.984,338.575z M463.456,286.817l-58.141,43.528l-16.733-43.528H463.456z M403.077,271.733
	h-20.293l-11.269-29.314L403.077,271.733z M192.234,243.798l-24.783,5.681l15.265-43.878L192.234,243.798z M113.486,96.285
	l-90.827,18.201l55.905-66.911L113.486,96.285L113.486,96.285C113.452,96.292,113.52,96.278,113.486,96.285z M74.942,119.392
	l48.341-9.687l28.458,37.297l-49.124,69.619L74.942,119.392z M68.629,296.633c-0.928-2.24-0.65-4.759,0.742-6.734l91.719-129.984
	c0.056-0.08-0.053,0.081,0,0l0,0l14.426,20.472l0,0c-0.047,0.125-0.006-0.003-0.047,0.125L104.74,383.824L68.629,296.633z
	 M344.971,457.495c-0.461,0.622-1.275,0.84-1.955,0.539l-52.68-23.53l28.772-21.946h59.084L344.971,457.495z M414.949,397.439
	C414.906,397.438,414.993,397.438,414.949,397.439l-157.918,0.034c-4.166,0-7.542,3.376-7.542,7.542
	c0,4.166,3.376,7.542,7.542,7.542h37.205l-22.922,17.483l-0.05,0.035c-0.03,0.022-0.06,0.044-0.09,0.066
	c-0.017,0.012-0.033,0.024-0.05,0.037c-0.015,0.012-0.031,0.022-0.046,0.034l-45.383,34.616c-0.519,0.389-1.226,0.428-1.793,0.1
	l-90.467-52.371h69.784c4.166,0,7.542-3.376,7.542-7.542c0-4.166-3.376-7.542-7.542-7.542h-87.255L161.6,266.296l186.5-42.747l0,0
	c0.057,0.167-0.011,0.005,0.057,0.167L414.949,397.439c0.013,0.034,0,0,0.013,0.034l0,0L414.949,397.439z M449.579,316.009
	c-0.071,0.087,0,0-0.067,0.092l-32.681,44.199l-5.89-15.321l38.572-28.877L449.579,316.009z M452.771,337.067l10.369-14.025
	l18.696,14.025H452.771z"/>
<g>
</g>
<g>
</g>
<g>
</g>
<g>
</g>
<g>
</g>
<g>
</g>
<g>
</g>
<g>
</g>
<g>
</g>
<g>
</g>
<g>
</g>
<g>
</g>
<g>
</g>
<g>
</g>
<g>
</g>
</svg>
