<?xml version="1.0" encoding="iso-8859-1"?>
<!-- Generator: Adobe Illustrator 19.0.0, SVG Export Plug-In . SVG Version: 6.00 Build 0)  -->
<svg version="1.1" id="Capa_1" xmlns="http://www.w3.org/2000/svg" xmlns:xlink="http://www.w3.org/1999/xlink" x="0px" y="0px"
	 viewBox="0 0 512 512" style="enable-background:new 0 0 512 512;" xml:space="preserve">
<path style="fill:#ED3124;" d="M267.308,180.337v77.991c0,53.598-43.457,97.054-97.054,97.054h-1.197h-64.439
	c-53.598,0-97.054-43.457-97.054-97.054v-77.991c0-35.867,14.535-68.324,38.036-91.836c23.512-23.501,55.969-38.036,91.836-38.036
	C209.159,50.465,267.308,108.613,267.308,180.337z"/>
<path style="fill:#E00E0E;" d="M97.461,258.327v-77.991c0-35.867,14.535-68.324,38.036-91.836
	c13.152-13.146,29.105-23.483,46.885-30.043c-14.006-5.168-29.146-7.992-44.947-7.992c-35.867,0-68.324,14.535-91.836,38.036
	c-23.501,23.512-38.036,55.969-38.036,91.836v77.991c0,53.598,43.457,97.054,97.054,97.054h64.439h1.197
	c4.109,0,8.156-0.258,12.13-0.753C134.511,348.656,97.461,307.816,97.461,258.327z"/>
<path style="fill:#E2B17D;" d="M14.074,293.269c14.031,36.328,49.269,62.113,90.544,62.113h64.439h1.197
	c41.275,0,76.513-25.785,90.544-62.113H14.074z"/>
<path style="fill:#C9884C;" d="M166.798,293.269v153.904c0,7.939-6.426,14.365-14.365,14.365h-29.994
	c-7.939,0-14.365-6.426-14.365-14.365V293.269H166.798z"/>
<path style="fill:#BA7842;" d="M141.953,447.172V293.269h-33.88v153.904c0,7.939,6.426,14.365,14.365,14.365h29.994
	c0.66,0,1.305-0.06,1.942-0.146C147.359,460.441,141.953,454.45,141.953,447.172z"/>
<path style="fill:#B76D30;" d="M108.073,293.269h58.724c0,16.838-12.705,30.491-29.08,30.491S108.073,310.107,108.073,293.269z"/>
<path style="fill:#F76626;" d="M127.432,158.984c20.434,0,37.007,16.573,37.007,37.007s-16.573,37.007-37.007,37.007
	s-37.007-16.573-37.007-37.007S106.998,158.984,127.432,158.984z"/>
<path style="fill:#EF5214;" d="M129.791,190.389c0-11.241,5.022-21.305,12.936-28.093c-4.664-2.121-9.84-3.313-15.296-3.313
	c-20.434,0-37.007,16.573-37.007,37.007s16.573,37.007,37.007,37.007c9.193,0,17.598-3.363,24.07-8.914
	C138.701,218.26,129.791,205.366,129.791,190.389z"/>
<path d="M127.432,151.482c-24.542,0-44.508,19.966-44.508,44.508s19.966,44.508,44.508,44.508s44.508-19.966,44.508-44.508
	S151.974,151.482,127.432,151.482z M127.432,225.496c-16.27,0-29.505-13.235-29.505-29.505s13.235-29.505,29.505-29.505
	s29.505,13.235,29.505,29.505S143.702,225.496,127.432,225.496z"/>
<path d="M320.122,172.486h47.353c4.143,0,7.501-3.359,7.501-7.501s-3.359-7.501-7.501-7.501h-47.353
	c-4.143,0-7.501,3.359-7.501,7.501S315.978,172.486,320.122,172.486z"/>
<path d="M405.481,172.486h24.004c4.143,0,7.501-3.359,7.501-7.501s-3.359-7.501-7.501-7.501h-24.004
	c-4.143,0-7.501,3.359-7.501,7.501S401.338,172.486,405.481,172.486z"/>
<path d="M456.49,172.486h48.009c4.143,0,7.501-3.359,7.501-7.501s-3.359-7.501-7.501-7.501H456.49c-4.143,0-7.501,3.359-7.501,7.501
	S452.347,172.486,456.49,172.486z"/>
<path d="M413.483,219.495H289.461c-4.143,0-7.501,3.359-7.501,7.501c0,4.143,3.359,7.501,7.501,7.501h124.022
	c4.143,0,7.501-3.359,7.501-7.501C420.984,222.853,417.625,219.495,413.483,219.495z"/>
<path d="M504.499,219.495h-62.011c-4.143,0-7.501,3.359-7.501,7.501c0,4.143,3.359,7.501,7.501,7.501h62.011
	c4.143,0,7.501-3.359,7.501-7.501C512,222.853,508.641,219.495,504.499,219.495z"/>
<path d="M325.467,203.492c4.143,0,7.501-3.359,7.501-7.501s-3.359-7.501-7.501-7.501h-50.642l0.009-7.998
	c0.003-2.686-0.072-5.355-0.222-8.004h15.096c4.143,0,7.501-3.359,7.501-7.501s-3.359-7.501-7.501-7.501h-16.775
	c-10.904-64.848-67.407-114.444-135.318-114.52h-0.158c-36.626,0-71.08,14.247-97.029,40.125
	c-25.973,25.928-40.299,60.409-40.34,97.094L0,258.172c-0.031,27.926,10.815,54.194,30.542,73.964
	c18.813,18.856,43.555,29.648,70.03,30.633v84.401c0,12.057,9.81,21.866,21.866,21.866h29.995c12.057,0,21.866-9.809,21.866-21.866
	v-84.332c26.342-1.01,50.969-11.735,69.739-30.463c19.771-19.727,30.676-45.97,30.708-73.896l0.062-54.99h50.657V203.492z
	 M41.162,321.541c-6.224-6.238-11.415-13.23-15.49-20.771h74.899v46.986C78.112,346.779,57.141,337.556,41.162,321.541z
	 M137.718,316.259c-9.681,0-17.93-6.484-20.933-15.489h41.379C155.307,309.871,147.342,316.259,137.718,316.259z M152.433,454.036
	h-2.98v-53.482c0-4.143-3.359-7.501-7.501-7.501c-4.143,0-7.501,3.359-7.501,7.501v53.482h-12.013c-3.785,0-6.863-3.08-6.863-6.863
	V323.755c5.366,4.088,11.844,6.731,18.877,7.36v43.464c0,4.143,3.359,7.501,7.501,7.501c4.143,0,7.501-3.359,7.501-7.501v-45.244
	c3.569-1.216,6.879-2.978,9.843-5.193v123.03C159.297,450.957,156.218,454.036,152.433,454.036z M233.442,321.757
	c-15.938,15.902-36.803,25.065-59.143,26.068V300.77h20.01c4.143,0,7.501-3.359,7.501-7.501s-3.359-7.501-7.501-7.501H19.276
	c-2.824-8.795-4.284-18.074-4.274-27.578l0.088-77.991c0.037-32.679,12.799-63.396,35.934-86.49
	c23.116-23.053,53.805-35.742,86.433-35.742h0.141c32.685,0.037,63.4,12.8,86.487,35.94c17.578,17.618,29.131,39.643,33.628,63.577
	h-77.773c-4.143,0-7.501,3.359-7.501,7.501s3.359,7.501,7.501,7.501h79.644c0.166,2.647,0.249,5.311,0.246,7.987l-0.044,39.021
	h-79.847c-4.143,0-7.501,3.359-7.501,7.501c0,4.143,3.359,7.501,7.501,7.501h79.83l-0.027,23.967
	c-0.011,9.408-1.462,18.592-4.251,27.303h-27.641c-4.143,0-7.501,3.359-7.501,7.501s3.359,7.501,7.501,7.501h21.261
	C245.002,308.397,239.749,315.465,233.442,321.757z"/>
<path d="M367.474,188.489c-4.143,0-7.501,3.359-7.501,7.501s3.359,7.501,7.501,7.501h96.017c4.143,0,7.501-3.359,7.501-7.501
	s-3.359-7.501-7.501-7.501H367.474z"/>
<path d="M196.444,203.492h12.002c4.143,0,7.501-3.359,7.501-7.501s-3.359-7.501-7.501-7.501h-12.002
	c-4.143,0-7.501,3.359-7.501,7.501S192.301,203.492,196.444,203.492z"/>
<g>
</g>
<g>
</g>
<g>
</g>
<g>
</g>
<g>
</g>
<g>
</g>
<g>
</g>
<g>
</g>
<g>
</g>
<g>
</g>
<g>
</g>
<g>
</g>
<g>
</g>
<g>
</g>
<g>
</g>
</svg>
