<?xml version="1.0" encoding="iso-8859-1"?>
<!-- Generator: Adobe Illustrator 19.0.0, SVG Export Plug-In . SVG Version: 6.00 Build 0)  -->
<svg version="1.1" id="Capa_1" xmlns="http://www.w3.org/2000/svg" xmlns:xlink="http://www.w3.org/1999/xlink" x="0px" y="0px"
	 viewBox="0 0 512 512" style="enable-background:new 0 0 512 512;" xml:space="preserve">
<path style="fill:#7C4513;" d="M7.529,332.141v69.827c0,8.242,6.682,14.925,14.925,14.925h467.092
	c8.243,0,14.925-6.682,14.925-14.925v-69.827H7.529z"/>
<path style="fill:#C6854A;" d="M504.471,156.451v223.031H365.668H106.406H7.529V156.451c0-15.44,12.509-27.949,27.949-27.949h70.144
	h299.881h71.017C491.962,128.502,504.471,141.011,504.471,156.451z"/>
<path style="fill:#753E11;" d="M247.467,401.968v-69.827H7.529v69.827c0,8.242,6.682,14.925,14.925,14.925h239.937
	C254.149,416.894,247.467,410.21,247.467,401.968z"/>
<path style="fill:#BC7439;" d="M275.416,128.502H105.623H35.479c-15.44,0-27.949,12.509-27.949,27.949v223.031h98.876h141.061
	V156.451C247.467,141.011,259.976,128.502,275.416,128.502z"/>
<path style="fill:#EA863B;" d="M441.956,203.856c2.992,10.652-4.046,21.504-14.958,23.281l-11.234,1.988
	c-2.891-17.217-8.624-34.274-17.408-50.487c-42.727-78.898-141.322-108.223-220.22-65.496
	c-78.246,42.365-107.731,139.686-66.55,218.253c41.703,79.531,142.306,110.231,221.274,67.464
	c11.224-6.074,21.444-13.292,30.589-21.414l10.822,11.947c5.562,6.405,4.477,16.163-2.299,21.253
	c-7.69,5.773-15.812,10.993-24.295,15.581c-28.25,15.3-60.085,23.391-92.04,23.391c-35.599,0-69.722-9.718-99.177-27.256
	s-54.242-42.898-71.188-74.18c-50.829-93.867-15.822-211.576,78.045-262.405c28.25-15.3,60.085-23.391,92.04-23.391
	c71.208,0,136.483,38.872,170.365,101.436C432.65,176.6,438.081,190.002,441.956,203.856z"/>
<path style="fill:#FFBF85;" d="M415.764,229.125l-20.721,3.474v67.574c0,8.553-7.138,15.45-15.792,15.039
	c-8.092-0.382-14.326-7.359-14.326-15.46v-62.103l-30.118,5.05v23.341c0,8.553-7.138,15.45-15.792,15.039
	c-8.092-0.382-14.326-7.359-14.326-15.46v-17.87l-35.82,6.013c-5.813,0.974-8.282,7.961-4.367,12.368l98.947,111.315
	c-9.146,8.122-19.366,15.34-30.589,21.414c-78.968,42.767-179.571,12.067-221.274-67.464
	c-41.181-78.567-11.696-175.887,66.55-218.253c78.898-42.727,177.493-13.402,220.22,65.496
	C407.14,194.851,412.873,211.908,415.764,229.125z"/>
<path style="fill:#EAA26C;" d="M236.362,263.58c0-63.493,25.573-121.008,66.971-162.826c-40.242-12.397-85.243-9.247-125.196,12.389
	C99.89,155.507,70.405,252.828,111.586,331.395c34.774,66.317,110.5,98.669,180.488,82.797
	C257.349,373.709,236.362,321.098,236.362,263.58z"/>
<g>
	<path style="fill:#ED3124;" d="M195.452,341.235c-22.716,0-41.743,15.736-46.809,36.899c24.451,21.159,54.702,34.495,86.38,38.652
		c5.399-7.78,8.571-17.221,8.571-27.408C243.596,362.789,222.041,341.235,195.452,341.235z"/>
	<path style="fill:#ED3124;" d="M275.798,278.837c-11.063,7.834-18.292,20.724-18.292,35.311c0,23.885,19.363,43.249,43.248,43.249
		c12.762,0,24.229-5.53,32.145-14.321L275.798,278.837z"/>
	<path style="fill:#ED3124;" d="M410.919,208.618c-3.12-10.199-7.286-20.242-12.563-29.98c-9.673-17.862-22.216-33.172-36.737-45.69
		c-10.759,8.281-17.698,21.28-17.698,35.907c0,25.016,20.279,45.296,45.296,45.296C397.08,214.15,404.474,212.143,410.919,208.618z"
		/>
	<path style="fill:#ED3124;" d="M178.136,113.142c-0.759,0.411-1.505,0.836-2.254,1.257c7.887,22.812,29.538,39.201,55.032,39.201
		c31.592,0,57.29-25.164,58.186-56.54C252.68,89.342,213.438,94.024,178.136,113.142z"/>
	<path style="fill:#ED3124;" d="M165.145,211.827c23.291,0,42.165,18.874,42.165,42.165c0,23.291-18.874,42.165-42.165,42.165
		s-42.165-18.874-42.165-42.165S141.854,211.827,165.145,211.827z"/>
</g>
<path style="fill:#00C37A;" d="M259.514,201.949v19.757c0,5.08-4.116,9.196-9.196,9.196h-8.714c-5.08,0-9.196-4.116-9.196-9.196
	v-19.757c0-5.08,4.116-9.196,9.196-9.196h8.714C255.398,192.753,259.514,196.869,259.514,201.949z"/>
<path style="fill:#F9CB2A;" d="M325.18,187.683c3.855,3.313,4.297,9.116,0.994,12.971l-5.682,6.606
	c-3.303,3.855-9.116,4.297-12.971,0.984l-20.309-17.448c-3.855-3.313-4.297-9.116-0.994-12.971l5.682-6.606
	c3.303-3.855,9.116-4.297,12.971-0.984L325.18,187.683z"/>
<path style="fill:#DD732C;" d="M292.074,414.192c-69.988,15.872-145.714-16.481-180.488-82.797
	c-41.181-78.567-11.696-175.887,66.55-218.253c39.953-21.637,84.954-24.786,125.196-12.389c8.358-8.443,17.359-16.244,26.926-23.326
	c-23.322-9.765-48.706-15.043-74.902-15.043c-31.955,0-63.789,8.092-92.04,23.391C69.45,136.604,34.444,254.313,85.272,348.18
	c16.946,31.282,41.733,56.641,71.188,74.18c29.455,17.539,63.578,27.256,99.177,27.256c20.939,0,41.818-3.496,61.68-10.196
	C308.271,431.669,299.83,423.234,292.074,414.192z"/>
<path d="M165.145,204.298c-27.401,0-49.694,22.293-49.694,49.694s22.293,49.694,49.694,49.694s49.694-22.293,49.694-49.694
	S192.546,204.298,165.145,204.298z M165.145,288.627c-19.098,0-34.635-15.538-34.635-34.635s15.538-34.635,34.635-34.635
	s34.635,15.538,34.635,34.635S184.243,288.627,165.145,288.627z"/>
<path d="M250.317,185.224h-8.712c-9.223,0-16.726,7.504-16.726,16.726v19.755c0,9.223,7.503,16.726,16.726,16.726h8.712
	c9.223,0,16.726-7.504,16.726-16.726V201.95C267.043,192.728,259.54,185.224,250.317,185.224z M251.984,221.705
	c0,0.92-0.748,1.668-1.668,1.668h-8.712c-0.92,0-1.668-0.748-1.668-1.668V201.95c0-0.92,0.748-1.667,1.668-1.667h8.712
	c0.92,0,1.668,0.748,1.668,1.667V221.705z"/>
<path d="M330.091,181.972l-20.317-17.45c-3.389-2.909-7.707-4.33-12.165-3.991c-4.455,0.338-8.512,2.391-11.423,5.781l-5.675,6.609
	c-2.911,3.389-4.329,7.709-3.991,12.165c0.338,4.455,2.391,8.511,5.78,11.422l20.317,17.45c3.061,2.628,6.88,4.039,10.872,4.039
	c0.429,0,0.859-0.016,1.292-0.049c4.455-0.338,8.512-2.391,11.423-5.781l5.676-6.609c2.911-3.389,4.328-7.709,3.99-12.165
	C335.533,188.938,333.48,184.882,330.091,181.972z M320.459,195.746C320.458,195.746,320.458,195.746,320.459,195.746l-5.677,6.609
	c-0.371,0.434-0.824,0.553-1.138,0.576c-0.316,0.022-0.78-0.026-1.213-0.398l-20.317-17.45c-0.433-0.371-0.552-0.824-0.576-1.138
	c-0.023-0.314,0.026-0.779,0.398-1.213l5.676-6.609c0.371-0.434,0.824-0.553,1.138-0.576c0.042-0.003,0.085-0.005,0.133-0.005
	c0.304,0,0.705,0.08,1.081,0.403l20.317,17.45c0.433,0.371,0.552,0.824,0.576,1.138C320.879,194.848,320.83,195.313,320.459,195.746
	z"/>
<path d="M191.247,189.239h8.031c4.158,0,7.529-3.37,7.529-7.529s-3.371-7.529-7.529-7.529h-8.031c-4.158,0-7.529,3.37-7.529,7.529
	S187.089,189.239,191.247,189.239z"/>
<path d="M219.331,289.805l-11.043,7.027c-3.509,2.233-4.543,6.886-2.31,10.395c1.436,2.255,3.871,3.489,6.36,3.489
	c1.382,0,2.782-0.38,4.035-1.179l11.043-7.027c3.509-2.233,4.543-6.886,2.31-10.395
	C227.493,288.606,222.839,287.572,219.331,289.805z"/>
<path d="M476.525,120.973h-71.963c-37.648-41.592-91.559-66.118-149.205-66.118c-33.205,0-66.272,8.403-95.625,24.301
	c-20.574,11.141-38.427,25.375-53.294,41.817H35.475C15.914,120.973,0,136.887,0,156.448v245.886
	c0,12.033,9.79,21.823,21.823,21.823h123.318c2.452,1.61,4.941,3.168,7.468,4.672c31.113,18.524,66.74,28.317,103.029,28.317
	c33.205,0,66.271-8.403,95.621-24.298c4.942-2.673,9.81-5.579,14.56-8.691h124.358c12.033,0,21.823-9.79,21.823-21.823V156.448
	C512,136.887,496.086,120.973,476.525,120.973z M15.059,156.448c0-11.258,9.159-20.417,20.416-20.417h58.627
	c-45.095,60.863-53.836,144.846-15.449,215.736c3.787,6.991,7.973,13.73,12.528,20.186H15.059V156.448z M21.823,409.098
	c-3.73,0-6.764-3.034-6.764-6.764v-15.322h87.853c6.8,7.924,14.206,15.31,22.154,22.086H21.823z M370.266,399.673
	c-0.211,1.987-1.211,3.745-2.814,4.949c-7.427,5.575-15.285,10.614-23.361,14.982c-27.158,14.708-57.746,22.484-88.454,22.484
	c-33.579,0-66.542-9.058-95.325-26.197c-28.775-17.133-52.434-41.787-68.419-71.296c-48.851-90.213-15.201-203.35,75.01-252.199
	c27.158-14.708,57.746-22.484,88.454-22.484c68.434,0,131.177,37.357,163.746,97.495c6.636,12.243,11.885,25.188,15.604,38.484
	c0.848,3.02,0.38,6.149-1.317,8.81c-1.704,2.67-4.474,4.494-7.602,5.003c-0.034,0.005-0.068,0.011-0.102,0.018l-3.922,0.694
	c-3.388-15.802-9.02-31.03-16.787-45.364c-21.622-39.927-57.499-69.046-101.02-81.989c-43.522-12.947-89.48-8.165-129.405,13.457
	c-39.572,21.426-68.578,56.932-81.678,99.981c-13.088,43.006-8.81,88.602,12.045,128.391c21.122,40.28,57.054,69.869,101.178,83.311
	c16.647,5.073,33.601,7.587,50.415,7.586c27.725-0.001,55.059-6.838,79.933-20.308c9.309-5.039,18.136-10.935,26.32-17.579
	l5.866,6.475C369.891,395.856,370.472,397.735,370.266,399.673z M369.79,231.901c-1.691-1.433-3.926-2.047-6.109-1.679l-30.118,5.05
	c-3.627,0.607-6.285,3.748-6.285,7.425v23.342c0,2.077-0.829,4.013-2.335,5.449c-1.504,1.435-3.48,2.174-5.572,2.07
	c-3.943-0.188-7.152-3.749-7.152-7.94v-17.87c0-2.215-0.975-4.318-2.665-5.748c-1.691-1.432-3.927-2.045-6.11-1.678l-35.819,6.012
	c-5.391,0.904-9.871,4.666-11.689,9.82c-1.817,5.152-0.691,10.891,2.939,14.976l6.9,7.762c-10.015,9.318-15.8,22.385-15.8,36.338
	c0,27.401,22.293,49.694,49.694,49.694c11.886,0,23.208-4.212,32.115-11.77l20.909,23.522c-7.297,5.866-15.147,11.083-23.419,15.56
	c-24.944,13.51-52.615,19.687-80.505,18.29c2.118-6.079,3.215-12.502,3.215-18.998c0-31.83-25.895-57.725-57.725-57.725
	c-21.293,0-40.366,11.506-50.404,29.545c-10.083-10.416-18.709-22.309-25.6-35.451c-37.299-71.161-13.155-159.35,53.412-202.19
	c10.911,21.508,33.093,35.42,57.73,35.42c32.47,0,59.486-24.093,64.065-55.341c2.073,0.526,4.141,1.095,6.202,1.709
	c19.735,5.87,37.745,15.389,53.289,27.954c-9.289,9.239-14.631,21.848-14.631,35.216c0,27.401,22.293,49.694,49.694,49.694
	c6.017,0,11.943-1.087,17.508-3.183c0.499,1.924,0.962,3.856,1.386,5.799l-13.112,2.198c-3.627,0.607-6.285,3.747-6.285,7.425
	v67.574c0,2.077-0.829,4.013-2.335,5.449c-1.504,1.434-3.477,2.167-5.572,2.07c-3.943-0.188-7.152-3.749-7.152-7.94v-62.103
	C372.455,235.434,371.48,233.331,369.79,231.901z M275.786,290.155l45.99,51.739c-6.167,5.122-13.945,7.972-22.105,7.972
	c-19.098,0-34.635-15.538-34.635-34.635C265.035,305.632,268.967,296.635,275.786,290.155z M236.926,391.529
	c0,6.03-1.277,11.973-3.723,17.431c-7.608-1.151-15.197-2.871-22.718-5.163c-20.622-6.283-39.276-16.425-55.154-29.758
	c6.813-15.237,21.912-25.177,38.929-25.177C217.786,348.863,236.926,368.003,236.926,391.529z M184.736,118.172
	c22.158-11.392,46.241-17.176,70.554-17.176c7.789,0,15.603,0.594,23.384,1.788c-3.157,24.376-24.078,43.287-49.278,43.287
	C210.217,146.071,192.977,135.084,184.736,118.172z M353.38,170.667c0-9.614,3.966-18.664,10.83-25.156
	c10.808,10.662,20.091,22.987,27.526,36.714c3.604,6.651,6.703,13.512,9.285,20.544c-4.109,1.667-8.52,2.532-13.006,2.532
	C368.918,205.302,353.38,189.764,353.38,170.667z M496.941,371.953h-23.304c-4.158,0-7.529,3.37-7.529,7.529
	c0,4.159,3.371,7.529,7.529,7.529h23.304v15.322c0,3.731-3.035,6.764-6.764,6.764H382.884c1.254-2.424,2.065-5.081,2.357-7.836
	c0.531-5.008-0.685-10.051-3.372-14.251h36.197c4.158,0,7.529-3.37,7.529-7.529c0-4.159-3.371-7.529-7.529-7.529h-49.424
	l-30.588-34.388c-0.204-0.263-0.427-0.514-0.67-0.753l-54.545-61.323c-0.318-0.446-0.678-0.847-1.069-1.202l-11.654-13.101
	l27.045-4.539v8.971c0,12.318,9.444,22.412,21.499,22.982c6.252,0.297,12.165-1.909,16.677-6.213c4.448-4.245,7-10.203,7-16.348
	V249.07l15.059-2.525v53.206c0,12.318,9.444,22.412,21.499,22.982c6.253,0.296,12.165-1.909,16.677-6.213
	c4.448-4.244,7-10.202,7-16.347v-61.201l14.436-2.42c0.012-0.002,0.023-0.004,0.035-0.006c0.011-0.002,0.021-0.003,0.032-0.005
	l11.187-1.98c7.333-1.21,13.826-5.493,17.823-11.759c3.977-6.233,5.114-13.881,3.121-20.974
	c-4.019-14.369-9.693-28.365-16.863-41.593c-4.604-8.5-9.765-16.58-15.425-24.203h59.606c11.257,0,20.416,9.159,20.416,20.417
	L496.941,371.953L496.941,371.953z"/>
<g>
</g>
<g>
</g>
<g>
</g>
<g>
</g>
<g>
</g>
<g>
</g>
<g>
</g>
<g>
</g>
<g>
</g>
<g>
</g>
<g>
</g>
<g>
</g>
<g>
</g>
<g>
</g>
<g>
</g>
</svg>
