<?xml version="1.0" encoding="iso-8859-1"?>
<!-- Generator: Adobe Illustrator 19.0.0, SVG Export Plug-In . SVG Version: 6.00 Build 0)  -->
<svg version="1.1" id="Capa_1" xmlns="http://www.w3.org/2000/svg" xmlns:xlink="http://www.w3.org/1999/xlink" x="0px" y="0px"
	 viewBox="0 0 512 512" style="enable-background:new 0 0 512 512;" xml:space="preserve">
<g>
	<path style="fill:#F9BDA0;" d="M203.059,53.715v52.723h-40.94V53.715c0-10.24,8.296-18.536,18.536-18.536h3.868
		C194.763,35.179,203.059,43.475,203.059,53.715z"/>
	<path style="fill:#F9BDA0;" d="M244.009,26.051v81.499h-40.95V26.051c0-10.24,8.296-18.536,18.536-18.536h3.878
		C235.703,7.515,244.009,15.811,244.009,26.051z"/>
	<path style="fill:#F9BDA0;" d="M284.949,53.715v52.723h-40.94V53.715c0-10.24,8.296-18.536,18.536-18.536h3.868
		C276.653,35.179,284.949,43.475,284.949,53.715z"/>
	<path style="fill:#F9BDA0;" d="M325.899,65.889v41.661h-40.95V65.889c0-10.24,8.306-18.536,18.536-18.536h3.878
		C317.603,47.352,325.899,55.649,325.899,65.889z"/>
</g>
<g>
	<path style="fill:#F2AB8F;" d="M192.824,37.158c-2.5-1.255-5.312-1.979-8.301-1.979h-3.868c-10.24,0-18.536,8.296-18.536,18.536
		v52.723h20.47V53.715C182.589,46.464,186.759,40.204,192.824,37.158z"/>
	<path style="fill:#F2AB8F;" d="M233.766,9.493c-2.499-1.254-5.309-1.978-8.294-1.978h-3.878c-10.24,0-18.536,8.296-18.536,18.536
		v81.499h20.47V26.051C223.529,18.798,227.701,12.537,233.766,9.493z"/>
	<path style="fill:#F2AB8F;" d="M274.714,37.158c-2.5-1.255-5.312-1.979-8.301-1.979h-3.868c-10.24,0-18.536,8.296-18.536,18.536
		v52.723h20.47V53.715C264.479,46.464,268.65,40.204,274.714,37.158z"/>
	<path style="fill:#F2AB8F;" d="M315.661,49.33c-2.499-1.254-5.311-1.978-8.298-1.978h-3.878c-10.23,0-18.536,8.296-18.536,18.536
		v41.661h20.47V65.889C305.419,58.636,309.596,52.375,315.661,49.33z"/>
</g>
<path style="fill:#CFD1D1;" d="M386.718,112.83c5.701,1.473,9.118,7.294,7.645,12.985l-51.19,197.887l-37.914-19.107L285.22,151.296
	l58.384-49.617L386.718,112.83z"/>
<polygon style="fill:#BDC1C1;" points="356.382,104.984 343.604,101.679 285.22,151.296 305.259,304.595 343.173,323.702 
	356.382,272.638 "/>
<polygon style="fill:#F9BDA0;" points="339.097,337.527 342.502,331.758 342.502,320.996 236.216,320.996 236.216,338.759 "/>
<path style="fill:#DDDDDD;" d="M343.604,101.168v219.94c0,5.881-4.769,10.651-10.661,10.651h-92.26H146.95l-0.331-176.294v-54.296
	c0-5.881,4.779-10.651,10.661-10.651h175.663C338.835,90.517,343.604,95.286,343.604,101.168z"/>
<path style="fill:#C9C0BD;" d="M194.994,233.566h-3.537v-47.363c0-25.728-17.468-47.927-42.479-53.982l-2.358-0.571v23.814
	l0.331,176.294h93.733h22.53l0.415-12.224v-12.685C263.628,266.44,232.839,233.566,194.994,233.566z"/>
<path style="fill:#F9BDA0;" d="M342.502,331.758v18.436c0,13.657-11.072,24.728-24.728,24.728h-12.344v123.925
	c0,3.114-2.524,5.638-5.638,5.638H172.175c-3.114,0-5.638-2.524-5.638-5.638V388.759l0.451-20.48h-10.11
	c-21.864,0-39.587-17.724-39.587-39.587v-33.455v-54.226v-74.395c0-6.58,5.333-11.913,11.913-11.913h6.703
	c17.398,0,31.502,14.104,31.502,31.502v71.409h27.584c24.628,0,44.587,22.043,44.587,49.236v26.802L342.502,331.758z"/>
<path style="fill:#F2AB8F;" d="M195.865,498.847V388.759l0.228-10.372c0.122-5.546-4.34-10.108-9.887-10.108l0,0
	c-21.864,0-39.587-17.724-39.587-39.587v-33.455v-54.226v-74.395c0-3.326,1.366-6.33,3.563-8.491
	c-4.286-2.183-9.134-3.423-14.274-3.423h-6.703c-6.58,0-11.913,5.333-11.913,11.913v74.395v54.226v33.455
	c0,21.864,17.724,39.587,39.587,39.587h10.11l-0.451,20.48v110.088c0,3.114,2.524,5.638,5.638,5.638h29.327
	C198.389,504.485,195.865,501.961,195.865,498.847z"/>
<path style="fill:#ED3124;" d="M282.986,178.839c7.825,7.825,8.306,20.63,0.601,28.566c-4.449,4.579-10.521,6.573-16.392,6.002
	l7.745,13.847c2.515,4.499,0.26,10.18-4.659,11.723c-10.14,3.176-20.28,3.176-30.419,0c-4.92-1.543-7.174-7.224-4.659-11.723
	l7.765-13.877c-5.892,0.641-12.013-1.303-16.512-5.871c-7.795-7.925-7.344-20.811,0.511-28.676l28.005-28.005L282.986,178.839z"/>
<path d="M401.638,127.7c2.51-9.701-3.341-19.634-13.041-22.144l-38.34-9.918c-2.3-7.183-8.955-12.434-16.845-12.634V67.826
	c0-15.432-12.556-27.988-27.988-27.988c-5.649,0-10.912,1.682-15.316,4.573c-4.337-9.851-14.194-16.746-25.63-16.746
	c-4.673,0-9.082,1.151-12.958,3.185v-2.864C251.521,12.556,238.966,0,223.533,0s-27.988,12.556-27.988,27.988v2.864
	c-3.877-2.034-8.285-3.185-12.958-3.185l0,0c-15.432,0-27.988,12.556-27.988,27.988v27.542c-8.755,1.299-15.493,8.864-15.493,17.974
	v46.144c-1.055-0.086-2.121-0.13-3.197-0.13h-6.701c-10.712,0-19.428,8.715-19.428,19.428v162.084c0,25.971,21.128,47.1,47.1,47.1
	h2.146v121.176h-17.938c-4.15,0-7.515,3.365-7.515,7.515s3.365,7.515,7.515,7.515h192.555c4.15,0,7.515-3.365,7.515-7.515
	s-3.365-7.515-7.515-7.515h-20.704V382.434h4.835c17.776,0,32.237-14.462,32.237-32.238V327.35c0.43-1.17,0.742-2.397,0.924-3.665
	L401.638,127.7z M305.425,54.868c7.145,0,12.958,5.813,12.958,12.958v15.172h-25.917V67.826
	C292.467,60.682,298.28,54.868,305.425,54.868z M264.479,42.695c7.145,0,12.958,5.813,12.958,12.958v27.344h-25.917V55.654
	C251.521,48.509,257.334,42.695,264.479,42.695z M210.575,27.988c0-7.145,5.813-12.958,12.958-12.958
	c7.145,0,12.958,5.813,12.958,12.958v55.01h-25.917V27.988z M169.63,55.654c0-7.145,5.813-12.958,12.958-12.958
	c7.145,0,12.958,5.813,12.958,12.958v27.344H169.63V55.654z M154.137,101.17c0-1.732,1.41-3.142,3.142-3.142h175.668
	c1.732,0,3.142,1.41,3.142,3.142v0.385c-0.002,0.091-0.002,0.181,0,0.272v42.501c0,4.15,3.365,7.515,7.515,7.515
	s7.515-3.365,7.515-7.515v-32.942l33.715,8.722c1.677,0.435,2.689,2.152,2.255,3.829l-35.97,139.037v-62.824
	c0-4.15-3.365-7.515-7.515-7.515s-7.515,3.365-7.515,7.515v120.953c0,0.459-0.099,0.895-0.278,1.289
	c-0.036,0.07-0.071,0.142-0.105,0.213c-0.534,0.977-1.57,1.64-2.759,1.64h-85.853v-17.4c0-31.289-23.375-56.745-52.105-56.745
	h-20.062v-63.9c0-14.935-8.434-27.937-20.791-34.492V101.17z M317.775,367.405h-12.35c-4.15,0-7.515,3.365-7.515,7.515v122.051
	H174.057V375.794h25.431c4.15,0,7.515-3.365,7.515-7.515c0-4.15-3.365-7.515-7.515-7.515h-42.605
	c-17.684,0-32.071-14.386-32.071-32.071V166.61c0-2.425,1.973-4.399,4.399-4.399h6.701c13.227,0,23.988,10.761,23.988,23.988v71.414
	c0,4.15,3.365,7.515,7.515,7.515h27.577c20.443,0,37.075,18.714,37.075,41.715v38.195c0,4.15,3.365,7.515,7.515,7.515
	s7.515-3.365,7.515-7.515v-5.765h85.853c0.688,0,1.368-0.039,2.036-0.113v11.035C334.983,359.685,327.263,367.405,317.775,367.405z"
	/>
<path d="M231.061,219.264l-2.417,4.318c-2.309,4.13-2.631,9.022-0.881,13.421c1.749,4.397,5.339,7.729,9.851,9.143
	c5.792,1.816,11.625,2.722,17.457,2.722c5.831,0,11.665-0.907,17.456-2.721c4.512-1.414,8.103-4.746,9.852-9.143
	c1.75-4.401,1.429-9.292-0.882-13.422l-2.449-4.378c3.691-1.414,7.078-3.63,9.924-6.561c10.444-10.755,10.142-28.304-0.674-39.119
	l-28.013-28.013c-1.409-1.41-3.32-2.201-5.313-2.201c-1.993,0-3.905,0.792-5.313,2.201l-28.005,28.005
	c-10.892,10.891-11.14,28.505-0.552,39.264C223.967,215.687,227.364,217.878,231.061,219.264z M232.283,184.143l22.69-22.69
	l22.699,22.699c5.041,5.041,5.274,13.126,0.52,18.021c-2.683,2.763-6.425,4.131-10.263,3.753c-2.79-0.278-5.493,1.023-7.025,3.364
	c-1.532,2.342-1.636,5.341-0.27,7.784l7.747,13.846c0.039,0.07,0.142,0.254,0.033,0.53c-0.107,0.272-0.306,0.334-0.38,0.356
	c-8.723,2.733-17.204,2.733-25.927,0c-0.074-0.023-0.273-0.085-0.38-0.356c-0.109-0.276-0.006-0.46,0.033-0.529l7.764-13.878
	c1.374-2.455,1.26-5.472-0.293-7.817c-1.401-2.116-3.762-3.367-6.264-3.367c-0.272,0-0.544,0.015-0.818,0.044
	c-3.859,0.422-7.627-0.915-10.335-3.667C226.994,197.337,227.205,189.221,232.283,184.143z"/>
<g>
</g>
<g>
</g>
<g>
</g>
<g>
</g>
<g>
</g>
<g>
</g>
<g>
</g>
<g>
</g>
<g>
</g>
<g>
</g>
<g>
</g>
<g>
</g>
<g>
</g>
<g>
</g>
<g>
</g>
</svg>
