<?xml version="1.0" encoding="iso-8859-1"?>
<!-- Generator: Adobe Illustrator 19.0.0, SVG Export Plug-In . SVG Version: 6.00 Build 0)  -->
<svg version="1.1" id="Capa_1" xmlns="http://www.w3.org/2000/svg" xmlns:xlink="http://www.w3.org/1999/xlink" x="0px" y="0px"
	 viewBox="0 0 512.001 512.001" style="enable-background:new 0 0 512.001 512.001;" xml:space="preserve">
<path style="fill:#ED3124;" d="M394.172,235.776c3.249,5.689-0.86,12.777-7.419,12.777h-62.417l-2.046-135.073L394.172,235.776z"/>
<path style="fill:#E21E1A;" d="M193.662,248.554h-62.417c-6.559,0-10.668-7.089-7.419-12.777l73.269-125.334L193.662,248.554z"/>
<path style="fill:#AEEFFF;" d="M324.336,186.586v132.813c0,15.817-8.428,30.434-22.116,38.362l-6.469,3.749
	c-2.989,1.74-4.839,4.939-4.839,8.408v19.506c0,3.609-2.929,6.539-6.539,6.539h-45.501c-3.609,0-6.539-2.929-6.539-6.539v-17.047
	c0-3.459-1.84-6.669-4.839-8.398l-10.718-6.219c-13.687-7.928-22.116-22.545-22.116-38.362V186.586L324.336,186.586L324.336,186.586
	z"/>
<path style="fill:#7CE5E8;" d="M290.287,363.981l-10.718-6.219c-13.687-7.928-22.116-22.545-22.116-38.362V186.667l-62.791-0.08
	V319.4c0,15.817,8.428,30.434,22.116,38.362l10.718,6.219c2.999,1.73,4.839,4.939,4.839,8.398v17.047
	c0,3.609,2.929,6.539,6.539,6.539h45.501c3.609,0,6.539-2.929,6.539-6.539V369.92c0-1.632,0.422-3.197,1.167-4.585
	C291.539,364.823,290.947,364.361,290.287,363.981z"/>
<path style="fill:#34D6D2;" d="M295.752,361.511l6.469-3.749c13.687-7.928,22.116-22.545,22.116-38.362v-52.588l-4.635-1.386
	c-2.634-0.788-4.513-2.27-6.502-3.836c-3.292-2.595-7.023-5.537-14.232-5.537c-7.207,0-10.937,2.939-14.232,5.536
	c-3.035,2.395-5.658,4.462-11.135,4.462c-5.474,0-8.096-2.068-11.135-4.463c-3.291-2.594-7.021-5.535-14.228-5.535
	c-7.207,0-10.936,2.939-14.229,5.536c-3.035,2.395-5.658,4.462-11.133,4.462s-8.097-2.068-11.137-4.463
	c-1.401-1.105-2.989-2.357-4.957-3.382l-12.12-6.315v67.508c0,15.817,8.428,30.434,22.116,38.362l10.718,6.219
	c2.999,1.73,4.839,4.939,4.839,8.398v17.047c0,3.609,2.929,6.539,6.539,6.539h45.501c3.609,0,6.539-2.929,6.539-6.539v-19.506
	C290.913,366.45,292.762,363.251,295.752,361.511z"/>
<path style="fill:#20C6AA;" d="M291.177,367.745c0.017-0.074,0.025-0.149,0.044-0.222c0.195-0.766,0.488-1.498,0.858-2.188
	c-0.54-0.511-1.133-0.973-1.792-1.354l-10.718-6.219c-13.687-7.928-22.116-22.545-22.116-38.362v-61.234
	c-2.363-1.227-5.265-2.114-9.217-2.114c-7.207,0-10.936,2.939-14.229,5.536c-3.035,2.395-5.658,4.462-11.133,4.462
	s-8.097-2.068-11.137-4.463c-1.401-1.105-2.989-2.357-4.957-3.382l-12.12-6.315v67.508c0,15.817,8.428,30.434,22.116,38.362
	l10.718,6.219c2.999,1.73,4.839,4.939,4.839,8.398v17.047c0,3.609,2.929,6.539,6.539,6.539h45.501c3.609,0,6.539-2.929,6.539-6.539
	v-19.506c0-0.416,0.029-0.826,0.082-1.23C291.035,368.368,291.105,368.057,291.177,367.745z"/>
<path style="fill:#AEEFFF;" d="M324.336,121.749v64.837H194.662v-61.008c0-43.231,20.306-83.963,54.829-109.998l9.018-6.799
	c2.34-1.76,5.579-1.69,7.838,0.18l8.028,6.639C306.02,41.765,324.336,80.687,324.336,121.749z"/>
<path style="fill:#7CE5E8;" d="M292.548,33.746c-5.437-6.547-11.505-12.631-18.172-18.144l-8.028-6.639
	c-2.26-1.87-5.499-1.94-7.838-0.18l-9.018,6.799c-34.523,26.035-54.829,66.767-54.829,109.998v61.008h62.791v-61.008
	C257.454,91.391,270.162,58.774,292.548,33.746z"/>
<path style="fill:#ED3124;" d="M258.509,8.783l-9.018,6.799c-29.311,22.104-48.365,54.804-53.453,90.631h127.416
	c-3.995-35.216-21.459-67.773-49.078-90.611l-8.028-6.639C264.088,7.093,260.849,7.022,258.509,8.783z"/>
<path style="fill:#E21E1A;" d="M245.566,18.667c-0.659,0.536-1.316,1.075-1.965,1.622c-0.365,0.309-0.726,0.62-1.088,0.932
	c-0.594,0.512-1.184,1.028-1.768,1.549c-0.368,0.328-0.733,0.656-1.097,0.987c-0.58,0.528-1.153,1.063-1.722,1.6
	c-0.344,0.325-0.69,0.647-1.031,0.975c-0.624,0.601-1.238,1.209-1.85,1.821c-0.27,0.27-0.544,0.535-0.812,0.807
	c-0.856,0.87-1.7,1.75-2.53,2.64c-0.241,0.258-0.474,0.522-0.713,0.782c-0.594,0.647-1.186,1.297-1.768,1.955
	c-0.336,0.38-0.665,0.765-0.996,1.148c-0.474,0.548-0.946,1.098-1.41,1.652c-0.352,0.421-0.7,0.844-1.047,1.269
	c-0.433,0.53-0.862,1.063-1.287,1.599c-0.349,0.44-0.698,0.881-1.041,1.326c-0.416,0.538-0.824,1.081-1.231,1.624
	c-0.333,0.444-0.669,0.887-0.997,1.335c-0.429,0.587-0.848,1.182-1.268,1.776c-0.43,0.609-0.858,1.219-1.279,1.835
	c-0.51,0.747-1.017,1.496-1.512,2.252c-0.334,0.51-0.656,1.026-0.983,1.541c-0.324,0.51-0.65,1.02-0.967,1.534
	c-0.339,0.55-0.671,1.104-1.002,1.658c-0.289,0.483-0.576,0.967-0.86,1.454c-0.335,0.577-0.666,1.156-0.993,1.737
	c-0.262,0.466-0.521,0.935-0.777,1.405c-0.33,0.603-0.658,1.206-0.979,1.814c-0.232,0.438-0.456,0.881-0.683,1.322
	c-0.331,0.645-0.665,1.288-0.986,1.937c-0.124,0.251-0.241,0.505-0.364,0.757c-0.747,1.534-1.464,3.081-2.154,4.642
	c-0.122,0.275-0.248,0.549-0.368,0.825c-0.316,0.729-0.62,1.463-0.924,2.198c-0.156,0.376-0.313,0.751-0.465,1.128
	c-0.292,0.725-0.575,1.453-0.855,2.183c-0.147,0.384-0.294,0.769-0.438,1.155c-0.277,0.742-0.549,1.486-0.813,2.234
	c-0.126,0.357-0.249,0.716-0.373,1.075c-0.27,0.785-0.539,1.571-0.795,2.361c-0.078,0.241-0.151,0.483-0.228,0.725
	c-0.906,2.845-1.72,5.724-2.44,8.63c-0.049,0.197-0.101,0.393-0.149,0.59c-0.208,0.854-0.402,1.711-0.594,2.568
	c-0.071,0.317-0.143,0.634-0.211,0.953c-0.179,0.833-0.35,1.667-0.514,2.502c-0.065,0.333-0.129,0.667-0.192,1
	c-0.16,0.849-0.315,1.698-0.459,2.55c-0.048,0.284-0.092,0.569-0.138,0.854c-0.148,0.912-0.294,1.825-0.424,2.741h62.788
	C262.659,79.219,274.433,54,292.544,33.75c-2.718-3.273-5.595-6.431-8.624-9.459c-0.002-0.001-0.003-0.003-0.005-0.005
	c-0.749-0.748-1.507-1.488-2.274-2.22c-0.116-0.111-0.236-0.219-0.353-0.329c-0.659-0.625-1.321-1.245-1.993-1.857
	c-0.315-0.286-0.637-0.566-0.955-0.85c-0.488-0.436-0.973-0.875-1.468-1.305c-0.825-0.716-1.659-1.423-2.503-2.121l-8.028-6.639
	c-2.26-1.87-5.499-1.94-7.838-0.18l-9.018,6.799c-1.006,0.758-1.996,1.532-2.977,2.314C246.195,18.15,245.882,18.41,245.566,18.667z
	"/>
<path style="fill:#ED3124;" d="M264.142,363.894l9.03,62.388c0.2,1.384-0.468,2.773-1.705,3.425c-5.978,3.151-11.962,3.151-17.939,0
	c-1.237-0.652-1.905-2.042-1.705-3.425l9.03-62.388C261.129,361.996,263.868,361.996,264.142,363.894z"/>
<circle style="fill:#0DBFB6;" cx="288.491" cy="304.539" r="11.998"/>
<circle style="fill:#08B291;" cx="239.501" cy="319.536" r="11.998"/>
<path style="fill:#DDDBC7;" d="M486.693,90.066c2.02,2.02,3.259,4.799,3.259,7.878c0,6.139-4.979,11.128-11.128,11.128H366.108
	c-3.069,0-5.859-1.25-7.868-3.259c-2.02-2.02-3.259-4.799-3.259-7.868c0-6.149,4.979-11.138,11.128-11.138h14.677
	c-0.49-1.53-0.76-3.169-0.76-4.869c0-6.619,4.029-12.308,9.758-14.737c0.44-16.137,13.657-29.094,29.904-29.094
	c12.677,0,23.505,7.898,27.864,19.036c1.96-0.62,4.059-0.95,6.219-0.95c11.528,0,20.876,9.348,20.876,20.876
	c0,3.519-0.87,6.829-2.41,9.738h6.589C481.894,86.806,484.684,88.056,486.693,90.066z"/>
<path style="fill:#CEC9A7;" d="M397.698,99.443h14.677c-0.49-1.53-0.76-3.169-0.76-4.869c0-6.619,4.029-12.308,9.758-14.737
	c0.378-13.856,10.181-25.361,23.229-28.337c-5.359-8.066-14.511-13.393-24.917-13.393c-16.247,0-29.464,12.957-29.904,29.094
	c-5.729,2.43-9.758,8.118-9.758,14.737c0,1.7,0.27,3.339,0.76,4.869h-14.677c-6.149,0-11.128,4.989-11.128,11.138
	c0,3.069,1.24,5.849,3.259,7.868c2.01,2.01,4.799,3.259,7.868,3.259h20.578C387.421,103.639,392.062,99.443,397.698,99.443z"/>
<path style="fill:#DDDBC7;" d="M159.609,379.747c2.11,2.1,3.409,5.009,3.409,8.218c0,6.419-5.209,11.628-11.628,11.628H33.675
	c-3.209,0-6.119-1.3-8.218-3.409c-2.11-2.1-3.409-5.009-3.409-8.218c0-6.419,5.209-11.628,11.628-11.628h15.327
	c-0.52-1.61-0.8-3.309-0.8-5.089c0-6.919,4.209-12.847,10.198-15.397c0.46-16.857,14.257-30.384,31.224-30.384
	c13.247,0,24.555,8.248,29.104,19.886c2.06-0.64,4.239-0.99,6.509-0.99c12.038,0,21.796,9.758,21.796,21.796
	c0,3.679-0.91,7.139-2.52,10.178h6.879C154.6,376.338,157.51,377.638,159.609,379.747z"/>
<g>
	<path style="fill:#CEC9A7;" d="M143.138,358.967c0.8-0.249,1.622-0.439,2.456-0.596c-2.119-5.534-6.424-9.985-11.863-12.29
		C137.885,349.464,141.154,353.893,143.138,358.967z"/>
	<path style="fill:#CEC9A7;" d="M58.085,389.951h15.327c-0.52-1.61-0.8-3.309-0.8-5.089c0-6.919,4.209-12.847,10.198-15.397
		c0.46-16.857,14.257-30.384,31.224-30.384c0.474,0,0.94,0.034,1.409,0.055c-5.623-8.248-15.083-13.667-25.819-13.667
		c-16.967,0-30.764,13.527-31.224,30.384c-5.989,2.549-10.198,8.478-10.198,15.397c0,1.78,0.28,3.479,0.8,5.089H33.675
		c-6.419,0-11.628,5.209-11.628,11.628c0,3.209,1.3,6.119,3.409,8.218c2.1,2.11,5.009,3.409,8.218,3.409h12.964
		C47.583,394.121,52.344,389.951,58.085,389.951z"/>
</g>
<path d="M378.715,193.588c-2.053-3.596-6.634-4.846-10.229-2.793c-3.597,2.054-4.848,6.634-2.793,10.229l21.969,38.471
	c0.073,0.128,0.297,0.52-0.006,1.04c-0.302,0.521-0.753,0.521-0.901,0.521h-54.92v-99.322l12.428,21.764
	c1.384,2.424,3.914,3.781,6.519,3.781c1.261,0,2.538-0.318,3.711-0.988c3.597-2.054,4.848-6.634,2.793-10.229l-25.862-45.288
	c-2.944-39.289-21.626-75.614-52.27-100.952l-8.026-6.637c-4.948-4.095-11.991-4.258-17.134-0.391l-9.018,6.8
	c-24.035,18.124-41.639,43.328-50.757,71.487c-0.258,0.559-0.449,1.155-0.563,1.778c-2.565,8.28-4.399,16.808-5.45,25.476
	c-0.399,0.424-0.756,0.901-1.057,1.429l-69.837,122.293c-2.867,5.02-2.845,11.005,0.059,16.007
	c2.904,5.002,8.089,7.988,13.871,7.988h55.92v63.347c0,18.426,9.907,35.612,25.85,44.848l10.736,6.229
	c0.67,0.386,1.086,1.114,1.086,1.901v17.048c0,7.739,6.297,14.037,14.037,14.037h8.677l-3.471,23.98
	c-0.42,2.899,0.889,5.779,3.35,7.371c4.929,3.187,9.999,4.781,15.069,4.781c5.07,0,10.141-1.594,15.069-4.781
	c2.462-1.592,3.77-4.471,3.35-7.371l-3.471-23.98h6.928c7.74,0,14.037-6.298,14.037-14.037v-19.507c0-0.79,0.426-1.527,1.101-1.92
	l6.469-3.749c15.947-9.238,25.854-26.425,25.854-44.85V256.05h54.92c5.782,0,10.968-2.986,13.871-7.988
	c2.903-5.002,2.926-10.986,0.059-16.006L378.715,193.588z M187.164,241.055h-55.92c-0.148,0-0.6,0-0.901-0.521
	c-0.303-0.521-0.079-0.912-0.006-1.041l56.827-99.512V241.055z M254.006,21.568l8.274-6.239l7.316,6.051
	c18.007,14.89,31.409,34.011,39.25,55.339h-97.094C220.532,55.099,235.034,35.874,254.006,21.568z M206.693,91.715h106.662
	c0.546,2.315,1.029,4.648,1.448,6.999H204.999C205.5,96.364,206.065,94.03,206.693,91.715z M259.706,424.176l2.792-19.295
	l2.792,19.295C263.412,424.709,261.585,424.709,259.706,424.176z M316.837,319.4c0,13.094-7.041,25.308-18.376,31.875l-6.479,3.755
	c-5.285,3.073-8.567,8.779-8.567,14.89v18.547h-8.138l-5.356-37.008c-0.534-3.687-3.694-6.425-7.422-6.425
	c-3.727,0-6.888,2.736-7.422,6.425l-5.356,37.008h-9.888V372.38c0-6.132-3.292-11.839-8.574-14.884l-10.723-6.221
	c-11.335-6.566-18.375-18.78-18.375-31.875v-52.34c1.092,0.569,2.107,1.37,3.389,2.38c3.538,2.789,8.383,6.609,17.325,6.609
	c8.94,0,13.786-3.819,17.324-6.609c2.771-2.186,4.298-3.389,8.038-3.389c3.74,0,5.268,1.204,8.039,3.389
	c3.538,2.789,8.383,6.609,17.324,6.609c8.942,0,13.788-3.819,17.326-6.609c2.772-2.186,4.3-3.389,8.041-3.389
	c3.742,0,5.27,1.204,8.042,3.39c2.392,1.885,5.381,4.24,9.828,5.57L316.837,319.4L316.837,319.4z M316.837,258.091
	c-0.177-0.139-0.358-0.281-0.545-0.429c-3.537-2.789-8.383-6.609-17.326-6.609c-8.941,0-13.787,3.819-17.325,6.608
	c-2.772,2.187-4.3,3.39-8.042,3.39c-3.74,0-5.267-1.204-8.038-3.389c-3.538-2.789-8.383-6.609-17.325-6.609
	c-8.94,0-13.786,3.819-17.324,6.609c-2.771,2.186-4.298,3.389-8.038,3.389s-5.268-1.204-8.039-3.389
	c-2.869-2.263-6.599-5.202-12.674-6.232v-57.265h114.676L316.837,258.091L316.837,258.091z M316.837,179.168H202.161v-53.589
	c0-3.977,0.187-7.936,0.552-11.868h112.775c0.374,0,0.74-0.028,1.099-0.081c0.166,2.692,0.25,5.4,0.25,8.119V179.168z"/>
<path d="M230.505,427.018c-4.142,0-7.498,3.356-7.498,7.499v30.994c0,4.142,3.356,7.499,7.498,7.499
	c4.142,0,7.499-3.356,7.499-7.499v-30.994C238.003,430.375,234.646,427.018,230.505,427.018z"/>
<path d="M288.493,456.012c-4.142,0-7.499,3.356-7.499,7.499v40.992c0,4.142,3.356,7.499,7.499,7.499s7.498-3.356,7.498-7.498V463.51
	C295.992,459.369,292.634,456.012,288.493,456.012z"/>
<path d="M259.499,465.01c-4.142,0-7.498,3.356-7.498,7.498v18.996c0,4.142,3.356,7.499,7.498,7.499c4.142,0,7.499-3.356,7.499-7.499
	v-18.996C266.998,468.367,263.64,465.01,259.499,465.01z"/>
<path d="M230.505,481.007c-4.142,0-7.498,3.356-7.498,7.499v14.997c0,4.142,3.356,7.499,7.498,7.499
	c4.142,0,7.499-3.356,7.499-7.499v-14.997C238.003,484.364,234.646,481.007,230.505,481.007z"/>
<path d="M288.493,285.046c-10.75,0-19.496,8.746-19.496,19.496s8.746,19.496,19.496,19.496s19.496-8.746,19.496-19.496
	S299.243,285.046,288.493,285.046z M288.493,309.041c-2.48,0-4.499-2.019-4.499-4.499c0-2.48,2.019-4.499,4.499-4.499
	s4.499,2.019,4.499,4.499C292.992,307.023,290.974,309.041,288.493,309.041z"/>
<path d="M239.503,300.043c-10.75,0-19.496,8.746-19.496,19.496s8.746,19.496,19.496,19.496s19.496-8.746,19.496-19.496
	S250.253,300.043,239.503,300.043z M239.503,324.038c-2.48,0-4.499-2.019-4.499-4.499s2.019-4.499,4.499-4.499
	s4.499,2.019,4.499,4.499S241.984,324.038,239.503,324.038z"/>
<path d="M491.997,84.766c-2.749-2.751-6.209-4.536-9.965-5.185c0.074-0.835,0.112-1.673,0.112-2.512
	c0-15.646-12.728-28.375-28.375-28.375c-0.669,0-1.336,0.023-1.999,0.069c-6.68-11.198-18.7-18.155-32.085-18.155
	c-18.925,0-34.424,13.735-37.029,31.996c-5.563,3.84-9.227,9.916-9.985,16.705h-6.565c-10.27,0-18.626,8.36-18.626,18.637
	c0,4.974,1.938,9.65,5.455,13.171c3.519,3.518,8.195,5.455,13.171,5.455h112.717c10.27,0,18.626-8.355,18.626-18.626
	C497.451,92.963,495.514,88.283,491.997,84.766z M478.825,101.574H366.108c-1.309,0-2.17-0.666-2.564-1.062
	c-0.687-0.687-1.064-1.599-1.064-2.567c0-2.008,1.628-3.64,3.629-3.64h14.677c2.395,0,4.645-1.144,6.057-3.077
	c1.412-1.934,1.815-4.426,1.086-6.706c-0.268-0.836-0.403-1.706-0.403-2.584c0-3.422,2.036-6.497,5.187-7.832
	c2.703-1.146,4.488-3.765,4.568-6.7c0.334-12.225,10.177-21.801,22.408-21.801c9.293,0,17.49,5.602,20.882,14.27
	c1.439,3.676,5.481,5.612,9.245,4.416c1.26-0.398,2.59-0.601,3.956-0.601c7.377,0,13.378,6.002,13.378,13.378
	c0,2.205-0.518,4.301-1.539,6.23c-1.23,2.324-1.153,5.123,0.204,7.376c1.356,2.253,3.794,3.63,6.424,3.63h6.589
	c1.308,0,2.169,0.666,2.565,1.064c0.485,0.484,1.063,1.325,1.063,2.575C482.454,99.947,480.827,101.574,478.825,101.574z"/>
<path d="M154.384,369.07c0.097-0.967,0.146-1.938,0.146-2.91c0-16.153-13.141-29.294-29.294-29.294
	c-0.762,0-1.521,0.029-2.278,0.088c-6.893-11.705-19.397-18.984-33.335-18.984c-19.643,0-35.722,14.296-38.355,33.277
	c-5.883,4.013-9.733,10.436-10.445,17.592h-7.148c-10.546,0-19.126,8.58-19.126,19.127c0,5.12,1.996,9.927,5.594,13.508
	c3.605,3.623,8.412,5.618,13.532,5.618h117.716c10.546,0,19.126-8.58,19.126-19.126c0-5.121-1.996-9.928-5.594-13.509
	C162.03,371.551,158.365,369.691,154.384,369.07z M151.391,392.096H33.675c-1.102,0-2.133-0.427-2.928-1.226
	c-0.774-0.771-1.201-1.803-1.201-2.903c0-2.277,1.853-4.13,4.129-4.13h15.327c2.398,0,4.651-1.146,6.062-3.085
	c1.411-1.938,1.811-4.435,1.074-6.717c-0.29-0.898-0.438-1.836-0.438-2.785c0-3.704,2.213-7.04,5.637-8.497
	c2.697-1.148,4.478-3.764,4.559-6.695c0.354-12.947,10.776-23.09,23.727-23.09c9.849,0,18.531,5.935,22.121,15.118
	c1.433,3.663,5.453,5.6,9.211,4.43c1.391-0.432,2.83-0.651,4.281-0.651c7.883,0,14.297,6.414,14.297,14.297
	c0,2.36-0.555,4.604-1.648,6.67c-1.23,2.324-1.153,5.123,0.204,7.376c1.356,2.254,3.793,3.631,6.424,3.631h6.879
	c1.102,0,2.133,0.427,2.928,1.226c0.774,0.771,1.201,1.803,1.201,2.904C155.52,390.243,153.667,392.096,151.391,392.096z"/>
<g>
</g>
<g>
</g>
<g>
</g>
<g>
</g>
<g>
</g>
<g>
</g>
<g>
</g>
<g>
</g>
<g>
</g>
<g>
</g>
<g>
</g>
<g>
</g>
<g>
</g>
<g>
</g>
<g>
</g>
</svg>
