<?xml version="1.0" encoding="iso-8859-1"?>
<!-- Generator: Adobe Illustrator 19.0.0, SVG Export Plug-In . SVG Version: 6.00 Build 0)  -->
<svg version="1.1" id="Capa_1" xmlns="http://www.w3.org/2000/svg" xmlns:xlink="http://www.w3.org/1999/xlink" x="0px" y="0px"
	 viewBox="0 0 512 512" style="enable-background:new 0 0 512 512;" xml:space="preserve">
<g>
	<path style="fill:#85B52A;" d="M353.5,187.389V96.28c0-4.85,3.93-8.78,8.78-8.78h12.44c4.85,0,8.78,3.93,8.78,8.78v101.935
		L353.5,187.389z"/>
	<path style="fill:#85B52A;" d="M353.5,344.899V455c0,10.75-8.75,19.5-19.5,19.5s-19.5-8.75-19.5-19.5v-6.5h-30v6.5
		c0,27.29,22.21,49.5,49.5,49.5s49.5-22.21,49.5-49.5V322.707L353.5,344.899z"/>
</g>
<g>
	<path style="fill:#78A31A;" d="M374.72,87.5h-12.44c-1.257,0-2.449,0.268-3.53,0.744c3.09,1.359,5.25,4.443,5.25,8.036v94.898
		l19.5,7.037V96.28C383.5,91.43,379.57,87.5,374.72,87.5z"/>
	<path style="fill:#78A31A;" d="M364,337.132V455c0,23.953-17.112,43.988-39.75,48.53c3.154,0.633,6.413,0.97,9.75,0.97
		c27.29,0,49.5-22.21,49.5-49.5V322.707L364,337.132z"/>
</g>
<path style="fill:#666666;" d="M318.38,168.38c53.09,0,96.12,43.04,96.12,96.12c0,26.54-10.76,50.57-28.15,67.96
	c-17.39,17.4-41.43,28.16-67.97,28.16H302.5h-80.71h-15.17c-53.09,0-96.12-43.04-96.12-96.12c0-26.54,10.76-50.57,28.15-67.96
	c17.39-17.4,41.43-28.16,67.97-28.16H318.38z"/>
<path style="fill:#464949;" d="M227.774,264.5c0-26.54,10.76-50.57,28.15-67.96c16.786-16.795,39.768-27.401,65.213-28.118
	c-0.916-0.026-1.835-0.042-2.757-0.042H206.62c-26.54,0-50.58,10.76-67.97,28.16c-17.39,17.39-28.15,41.42-28.15,67.96
	c0,53.08,43.03,96.12,96.12,96.12h15.17h80.71h15.88c0.922,0,1.841-0.016,2.757-0.042
	C269.323,359.118,227.774,316.658,227.774,264.5z"/>
<circle style="fill:#535454;" cx="262.5" cy="350.5" r="40"/>
<path style="fill:#424444;" d="M262.5,345.105c0-12.811,6.031-24.207,15.4-31.528c-4.741-1.98-9.942-3.077-15.4-3.077
	c-22.09,0-40,17.91-40,40s17.91,40,40,40c9.279,0,17.814-3.169,24.6-8.472C272.655,375.995,262.5,361.737,262.5,345.105z"/>
<circle style="fill:#3B3D3D;" cx="262.5" cy="350.5" r="19.42"/>
<path style="fill:#343535;" d="M262.5,331.08c-5.793,0-10.979,2.551-14.537,6.574c0.767-0.092,1.544-0.154,2.337-0.154
	c10.725,0,19.42,8.695,19.42,19.42c0,4.932-1.854,9.421-4.883,12.846c9.621-1.156,17.083-9.334,17.083-19.266
	C281.92,339.775,273.225,331.08,262.5,331.08z"/>
<path style="fill:#2CD4E5;" d="M318.38,193.38c39.459,0,71.508,32.3,71.116,71.837c-0.388,39.147-32.875,70.403-72.023,70.403
	H299.63c-5.91-14.72-20.3-25.12-37.13-25.12s-31.22,10.4-37.13,25.12h-18.75c-39.22,0-71.12-31.91-71.12-71.12
	s31.9-71.12,71.12-71.12h37.224c1.437,0,2.768,0.672,3.701,1.764c3.852,4.504,9.564,7.356,15.955,7.356s12.103-2.852,15.955-7.356
	c0.934-1.092,2.265-1.764,3.701-1.764H318.38z"/>
<g>
	<path style="fill:#54E3EA;" d="M193.427,334.373l139.495-139.495c-4.696-0.98-9.559-1.498-14.542-1.498h-35.224
		c-0.232,0-0.46,0.024-0.685,0.057L158.806,317.103C168.346,325.782,180.253,331.891,193.427,334.373z"/>
	<path style="fill:#54E3EA;" d="M136.823,278.121c1.607,8.246,4.635,15.989,8.831,22.957l103.897-103.896
		c-0.712-0.635-1.385-1.312-2.006-2.037c-0.934-1.092-2.265-1.764-3.701-1.764h-22.28L136.823,278.121z"/>
</g>
<path style="fill:#25CEC1;" d="M318.38,193.38h-35.224c-1.437,0-2.768,0.672-3.701,1.764c-1.522,1.78-3.339,3.296-5.369,4.486
	h24.874c39.459,0,71.508,32.3,71.116,71.837c-0.276,27.806-16.754,51.617-40.303,63.087c33.427-5.734,59.377-34.379,59.723-69.337
	C389.888,225.68,357.839,193.38,318.38,193.38z"/>
<circle style="fill:#2CD4E5;" cx="135.5" cy="76.5" r="30"/>
<path style="fill:#11C197;" d="M135.5,63c0-5.939,1.733-11.47,4.709-16.129c-1.535-0.242-3.107-0.371-4.709-0.371
	c-16.57,0-30,13.43-30,30s13.43,30,30,30c10.631,0,19.962-5.533,25.291-13.871C146.459,90.369,135.5,77.967,135.5,63z"/>
<circle style="fill:#2CD4E5;" cx="279.5" cy="110.5" r="17"/>
<path style="fill:#11C197;" d="M279.008,104.5c0-4.046,1.419-7.757,3.778-10.676c-1.064-0.208-2.161-0.324-3.286-0.324
	c-9.39,0-17,7.61-17,17s7.61,17,17,17c5.344,0,10.106-2.469,13.222-6.324C284.906,119.645,279.008,112.765,279.008,104.5z"/>
<g>
	<circle style="fill:#2CD4E5;" cx="340.5" cy="24.5" r="17"/>
	<circle style="fill:#2CD4E5;" cx="54.5" cy="337.5" r="17"/>
	<path style="fill:#2CD4E5;" d="M449.5,347.5c13.81,0,25,11.19,25,25s-11.19,25-25,25s-25-11.19-25-25S435.69,347.5,449.5,347.5z"/>
</g>
<path style="fill:#11C197;" d="M449.5,362.5c0-5.433,1.738-10.456,4.679-14.556c-1.516-0.287-3.079-0.444-4.679-0.444
	c-13.81,0-25,11.19-25,25s11.19,25,25,25c8.377,0,15.784-4.122,20.321-10.444C458.249,384.865,449.5,374.71,449.5,362.5z"/>
<path style="fill:#2CD4E5;" d="M140.5,433.5c8.28,0,15,6.72,15,15s-6.72,15-15,15s-15-6.72-15-15S132.22,433.5,140.5,433.5z"/>
<g>
	<path style="fill:#11C197;" d="M339,19.5c0-4.535,1.786-8.644,4.68-11.692c-1.031-0.195-2.092-0.308-3.18-0.308
		c-9.39,0-17,7.61-17,17s7.61,17,17,17c4.855,0,9.223-2.045,12.32-5.308C344.952,34.702,339,27.802,339,19.5z"/>
	<path style="fill:#11C197;" d="M53,332.5c0-4.535,1.786-8.644,4.68-11.692c-1.031-0.195-2.092-0.308-3.18-0.308
		c-9.39,0-17,7.61-17,17s7.61,17,17,17c4.855,0,9.223-2.045,12.32-5.308C58.952,347.702,53,340.802,53,332.5z"/>
	<path style="fill:#11C197;" d="M141,443.5c0-3.594,1.269-6.891,3.378-9.475c-1.239-0.332-2.535-0.525-3.878-0.525
		c-8.28,0-15,6.72-15,15s6.72,15,15,15c4.687,0,8.871-2.155,11.622-5.525C145.723,456.262,141,450.437,141,443.5z"/>
</g>
<path d="M135.5,114c20.678,0,37.5-16.822,37.5-37.5S156.178,39,135.5,39S98,55.822,98,76.5S114.822,114,135.5,114z M135.5,54
	c12.407,0,22.5,10.093,22.5,22.5S147.907,99,135.5,99S113,88.907,113,76.5S123.093,54,135.5,54z"/>
<path d="M279.5,135c13.51,0,24.5-10.991,24.5-24.5S293.01,86,279.5,86S255,96.991,255,110.5S265.99,135,279.5,135z M279.5,101
	c5.238,0,9.5,4.262,9.5,9.5s-4.262,9.5-9.5,9.5s-9.5-4.262-9.5-9.5S274.262,101,279.5,101z"/>
<path d="M340.5,49c13.51,0,24.5-10.991,24.5-24.5S354.01,0,340.5,0S316,10.991,316,24.5S326.99,49,340.5,49z M340.5,15
	c5.238,0,9.5,4.262,9.5,9.5s-4.262,9.5-9.5,9.5s-9.5-4.262-9.5-9.5S335.262,15,340.5,15z"/>
<path d="M54.5,313C40.991,313,30,323.991,30,337.5S40.991,362,54.5,362S79,351.009,79,337.5S68.009,313,54.5,313z M54.5,347
	c-5.238,0-9.5-4.262-9.5-9.5s4.262-9.5,9.5-9.5s9.5,4.262,9.5,9.5S59.738,347,54.5,347z"/>
<path d="M449.5,340c-17.921,0-32.5,14.58-32.5,32.5s14.579,32.5,32.5,32.5s32.5-14.58,32.5-32.5S467.421,340,449.5,340z M449.5,390
	c-9.649,0-17.5-7.851-17.5-17.5s7.851-17.5,17.5-17.5s17.5,7.851,17.5,17.5S459.149,390,449.5,390z"/>
<path d="M140.5,426c-12.407,0-22.5,10.093-22.5,22.5s10.093,22.5,22.5,22.5s22.5-10.093,22.5-22.5S152.907,426,140.5,426z
	 M140.5,456c-4.136,0-7.5-3.364-7.5-7.5s3.364-7.5,7.5-7.5s7.5,3.364,7.5,7.5S144.636,456,140.5,456z"/>
<path d="M262.5,326c-13.509,0-24.5,10.991-24.5,24.5s10.991,24.5,24.5,24.5c4.143,0,7.5-3.358,7.5-7.5s-3.357-7.5-7.5-7.5
	c-5.238,0-9.5-4.262-9.5-9.5s4.262-9.5,9.5-9.5s9.5,4.262,9.5,9.5c0,4.142,3.357,7.5,7.5,7.5s7.5-3.358,7.5-7.5
	C287,336.991,276.01,326,262.5,326z"/>
<path d="M391,190.654V96.28c0-8.977-7.304-16.28-16.28-16.28h-12.44C353.304,80,346,87.303,346,96.28v68.339
	c-8.796-2.435-18.057-3.737-27.617-3.737H206.618C149.483,160.882,103,207.365,103,264.5s46.483,103.618,103.618,103.618h11.77
	C225.4,385.612,242.53,398,262.5,398s37.1-12.388,44.112-29.882h11.771c9.56,0,18.822-1.302,27.617-3.737V455
	c0,6.617-5.383,12-12,12s-12-5.383-12-12v-6.5c0-0.28-0.016-0.556-0.046-0.828C329.324,441.34,334,431.956,334,421.5
	c0-4.142-3.357-7.5-7.5-7.5s-7.5,3.358-7.5,7.5c0,10.752-8.748,19.5-19.5,19.5s-19.5-8.748-19.5-19.5c0-4.142-3.357-7.5-7.5-7.5
	s-7.5,3.358-7.5,7.5c0,10.456,4.676,19.84,12.046,26.172c-0.03,0.272-0.046,0.548-0.046,0.828v6.5c0,31.43,25.57,57,57,57
	s57-25.57,57-57V338.346c19.124-18.809,31-44.967,31-73.846S410.124,209.464,391,190.654z M361,96.28c0-0.706,0.574-1.28,1.28-1.28
	h12.439c0.706,0,1.28,0.574,1.28,1.28v25.195h-15V96.28H361z M361,136.475h15v41.942c-4.739-3.182-9.753-5.984-15-8.361V136.475z
	 M262.5,383c-17.92,0-32.5-14.58-32.5-32.5c0-4.302,0.841-8.412,2.366-12.174c0.02-0.049,0.04-0.098,0.06-0.147
	c4.76-11.576,16.017-19.82,29.207-20.168c0.028-0.001,0.056-0.001,0.084-0.002c0.102-0.002,0.204-0.004,0.306-0.006
	c0.031,0,0.063-0.001,0.095-0.001c0.127-0.001,0.255-0.002,0.382-0.002s0.255,0.001,0.382,0.002c0.032,0,0.063,0.001,0.095,0.001
	c0.102,0.001,0.204,0.003,0.306,0.006c0.028,0.001,0.056,0.001,0.084,0.002c13.186,0.347,24.439,8.586,29.202,20.156
	c0.024,0.058,0.048,0.116,0.071,0.175c1.522,3.758,2.36,7.862,2.36,12.158C295,368.42,280.421,383,262.5,383z M376,455
	c0,23.159-18.841,42-42,42c-22.825,0-41.456-18.3-41.988-41h15.007c0.527,14.427,12.428,26,26.981,26c14.888,0,27-12.112,27-27
	v-96.056c5.247-2.377,10.261-5.179,15-8.361L376,455L376,455z M318.383,353.118h-8.455c0.047-0.867,0.072-1.739,0.072-2.618
	c0-2.51-0.196-4.974-0.573-7.38h8.953c43.352,0,78.62-35.269,78.62-78.62c0-10.981-2.232-21.615-6.635-31.607
	c-1.671-3.79-6.099-5.507-9.888-3.839c-3.79,1.67-5.509,6.097-3.839,9.888c3.558,8.073,5.361,16.672,5.361,25.558
	c0,35.08-28.54,63.62-63.62,63.62h-13.978c-7.916-14.878-23.04-24.438-40.057-25.085c-0.008,0-0.015-0.001-0.023-0.001
	c-0.382-0.014-0.765-0.024-1.149-0.029c-0.04-0.001-0.08-0.001-0.12-0.002c-0.184-0.002-0.369-0.004-0.553-0.004
	s-0.369,0.001-0.553,0.004c-0.04,0-0.08,0.001-0.12,0.002c-0.384,0.005-0.767,0.015-1.149,0.029c-0.007,0-0.015,0.001-0.022,0.001
	c-17.017,0.646-32.141,10.206-40.057,25.085H206.62c-35.08,0-63.62-28.54-63.62-63.62s28.54-63.62,63.62-63.62h35.993
	c5.356,5.771,12.904,9.12,20.887,9.12s15.531-3.349,20.887-9.12h33.993c11.017,0,21.876,2.873,31.406,8.308
	c3.599,2.051,8.179,0.799,10.23-2.8c2.053-3.598,0.799-8.178-2.799-10.23c-11.79-6.724-25.221-10.277-38.838-10.277h-37.57
	c-2.469,0-4.78,1.215-6.18,3.25c-2.528,3.676-6.688,5.871-11.13,5.871s-8.603-2.194-11.131-5.871c-1.399-2.034-3.71-3.25-6.179-3.25
	h-39.57c-43.351,0-78.62,35.269-78.62,78.62s35.269,78.62,78.62,78.62h8.953c-0.377,2.406-0.573,4.87-0.573,7.38
	c0,0.878,0.025,1.751,0.072,2.618h-8.454c-48.864,0-88.618-39.754-88.618-88.618s39.754-88.618,88.618-88.618h111.765
	c48.863,0,88.617,39.754,88.617,88.618S367.246,353.118,318.383,353.118z"/>
<g>
</g>
<g>
</g>
<g>
</g>
<g>
</g>
<g>
</g>
<g>
</g>
<g>
</g>
<g>
</g>
<g>
</g>
<g>
</g>
<g>
</g>
<g>
</g>
<g>
</g>
<g>
</g>
<g>
</g>
</svg>
