<?xml version="1.0" encoding="iso-8859-1"?>
<!-- Generator: Adobe Illustrator 19.0.0, SVG Export Plug-In . SVG Version: 6.00 Build 0)  -->
<svg version="1.1" id="Capa_1" xmlns="http://www.w3.org/2000/svg" xmlns:xlink="http://www.w3.org/1999/xlink" x="0px" y="0px"
	 viewBox="0 0 511.999 511.999" style="enable-background:new 0 0 511.999 511.999;" xml:space="preserve">
<path style="fill:#898989;" d="M261.004,7.509h-10.009c-68.543,0-124.113,55.561-124.113,124.113v89.141
	c0,42.379,21.239,79.783,53.649,102.183l53.449,98.47v43.039h42.038v-43.039l52.298-96.368
	c34.181-22.1,56.802-60.545,56.802-104.285v-89.141C385.118,63.07,329.547,7.509,261.004,7.509z M261.124,396.394h-12.251
	l-34.231-57.052c29.827,6.806,56.832,7.797,80.714,0L261.124,396.394z M360.095,220.764c0,54.64-44.451,99.091-99.091,99.091
	h-10.009c-54.64,0-99.091-44.451-99.091-99.091v-89.141c0-54.64,44.451-99.091,99.091-99.091h10.009
	c54.64,0,99.091,44.451,99.091,99.091V220.764z"/>
<path style="fill:#128CA0;" d="M288.029,471.523v30.436c0,1.399-1.134,2.534-2.534,2.534h-60.993c-1.399,0-2.534-1.134-2.534-2.534
	v-30.436c0-8.878,7.197-16.075,16.075-16.075h33.911C280.832,455.448,288.029,462.646,288.029,471.523z"/>
<path style="fill:#06847E;" d="M254.999,501.959v-30.436c0-8.878,7.197-16.075,16.075-16.075h-33.03
	c-8.878,0-16.075,7.197-16.075,16.075v30.436c0,1.399,1.135,2.534,2.534,2.534h33.03
	C256.134,504.493,254.999,503.359,254.999,501.959z"/>
<path style="fill:#85B52A;" d="M256,119.141c29.847,0,54.049,24.202,54.049,54.049S285.847,227.24,256,227.24
	s-54.049-24.202-54.049-54.049S226.152,119.141,256,119.141z"/>
<path style="fill:#79A811;" d="M248.493,158.177c0-15.002,6.118-28.574,15.99-38.367c-2.765-0.436-5.596-0.668-8.483-0.668
	c-29.847,0-54.049,24.202-54.049,54.049s24.202,54.049,54.049,54.049c14.846,0,28.291-5.99,38.06-15.682
	C268.242,207.487,248.493,185.137,248.493,158.177z"/>
<path style="fill:#6F9618;" d="M258.001,146.666h-0.455c-5.289,0-10.534,1.467-15.165,4.242c-3.774,2.26-8.753,2.312-12.568,0.134
	c-5.02-2.863-10.49-4.377-15.821-4.377h-5.079c-2.465,4.366-4.337,9.106-5.515,14.118c1.059,0.571,2.269,0.896,3.556,0.896h7.036
	c2.766,0,5.586,0.809,8.382,2.403c4.13,2.356,8.835,3.602,13.608,3.602c4.977,0,9.857-1.347,14.115-3.898
	c2.302-1.378,4.878-2.108,7.45-2.108H258c3.265,0,6.279,1.326,8.487,3.735c2.205,2.405,3.263,5.54,2.978,8.827
	c-0.51,5.864-5.746,10.459-11.92,10.459c-2.571,0-5.149-0.73-7.451-2.108c-4.257-2.549-9.137-3.898-14.114-3.898
	c-4.773,0-9.479,1.245-13.607,3.601c-2.797,1.595-5.617,2.404-8.383,2.404h-8.597c-0.741,0-1.455,0.111-2.132,0.311
	c1.167,5.227,3.089,10.167,5.65,14.702h5.079c5.331,0,10.802-1.513,15.822-4.377c3.813-2.176,8.794-2.125,12.566,0.134
	c4.632,2.776,9.877,4.243,15.166,4.243c13.893,0,25.698-10.618,26.878-24.172c0.646-7.421-1.858-14.81-6.867-20.274
	C272.542,149.802,265.415,146.666,258.001,146.666z"/>
<path style="fill:#6C6D6A;" d="M261.854,19.47h-9.707c-62.828,0-113.76,50.933-113.76,113.76v87.927
	c0,62.828,50.933,113.76,113.76,113.76h9.707c62.828,0,113.76-50.933,113.76-113.76V133.23
	C375.614,70.402,324.681,19.47,261.854,19.47z M360.095,220.764c0,54.64-44.451,99.091-99.091,99.091h-10.009
	c-54.64,0-99.091-44.451-99.091-99.091v-89.141c0-54.64,44.451-99.091,99.091-99.091h10.009c54.64,0,99.091,44.451,99.091,99.091
	V220.764z"/>
<path d="M363.395,250.459c0.023-0.074,0.044-0.148,0.064-0.223c2.697-9.363,4.143-19.251,4.143-29.47V131.62
	c0-30.901-13.217-58.774-34.295-78.262c-0.107-0.105-0.217-0.207-0.331-0.305c-10.971-10.059-24.049-17.856-38.485-22.645
	c-0.079-0.027-0.158-0.053-0.237-0.078c-10.467-3.443-21.644-5.308-33.248-5.308h-10.009c-58.779,0-106.597,47.82-106.597,106.597
	v89.145c0,10.239,1.451,20.145,4.159,29.525c0.006,0.022,0.012,0.043,0.019,0.065c12.856,44.429,53.904,77.007,102.42,77.007h10.009
	C309.482,327.363,350.505,294.836,363.395,250.459z M263.506,40.071c7.246,0.195,14.284,1.236,21.019,3.028v19.491h-21.019V40.071z
	 M263.506,77.603h21.019V96.62h-21.019V77.603z M263.506,111.634h21.019v7.018c-6.425-3.374-13.515-5.646-21.019-6.562V111.634z
	 M227.473,43.098c6.735-1.792,13.774-2.833,21.019-3.028v22.519h-21.019V43.098z M227.473,77.603h21.019V96.62h-21.019V77.603z
	 M227.473,111.634h21.019v0.456c-7.504,0.917-14.594,3.188-21.019,6.562V111.634z M191.441,62.098
	c6.321-5.422,13.386-9.999,21.019-13.553v14.045h-21.019V62.098z M191.441,77.603h21.019V96.62h-21.019V77.603z M191.441,111.634
	h21.019v18.084c-0.947,0.949-1.864,1.928-2.748,2.936h-18.272V111.634z M191.441,147.667h8.547
	c-2.967,6.485-4.839,13.57-5.381,21.019h-3.166V147.667z M191.441,183.7h3.901c0.642,3.713,1.616,7.314,2.894,10.769
	c0.082,0.261,0.179,0.516,0.288,0.764c1.273,3.308,2.824,6.48,4.624,9.487h-11.707V183.7z M176.427,273.882
	c-4.004-5.604-7.391-11.676-10.064-18.116h10.064L176.427,273.882L176.427,273.882z M176.427,240.752h-14.819
	c-1.438-6.435-2.197-13.124-2.197-19.986v-1.033h17.016L176.427,240.752L176.427,240.752z M176.427,204.719h-17.016V183.7h17.016
	V204.719z M176.427,168.686h-17.016v-21.019h17.016V168.686z M176.427,132.653h-17.016v-1.033c0-6.862,0.759-13.551,2.197-19.986
	h14.819L176.427,132.653L176.427,132.653z M176.427,96.62h-10.064c2.673-6.44,6.062-12.511,10.064-18.116L176.427,96.62
	L176.427,96.62z M212.46,303.843c-7.633-3.555-14.698-8.131-21.019-13.553v-0.491h21.019V303.843z M212.46,274.784h-21.019v-19.017
	h21.019V274.784z M212.46,240.752h-21.019v-21.019h21.019V240.752z M210.898,184.701c-0.94-3.682-1.44-7.539-1.44-11.511
	s0.5-7.828,1.44-11.511h3.094c2.766,0,5.586,0.809,8.382,2.403c4.13,2.356,8.835,3.602,13.608,3.602
	c4.977,0,9.857-1.347,14.115-3.898c2.302-1.378,4.878-2.108,7.45-2.108h0.455c3.265,0,6.279,1.326,8.487,3.735
	c2.205,2.405,3.263,5.54,2.978,8.827c-0.51,5.864-5.746,10.459-11.92,10.459c-2.571,0-5.149-0.73-7.451-2.108
	c-4.257-2.549-9.137-3.898-14.114-3.898c-4.773,0-9.479,1.245-13.607,3.601c-2.797,1.595-5.617,2.404-8.383,2.404H210.898z
	 M248.493,312.315c-7.246-0.195-14.284-1.236-21.019-3.028v-19.491h21.019V312.315z M248.493,274.784h-21.019v-19.017h21.019
	V274.784z M248.493,240.752h-21.019v-13.023c6.425,3.374,13.515,5.646,21.019,6.562V240.752z M284.526,309.289
	c-6.735,1.792-13.774,2.833-21.019,3.028v-22.519h21.019V309.289z M284.526,274.784h-21.019v-19.017h21.019V274.784z
	 M284.526,240.752h-21.019v-6.461c7.504-0.917,14.594-3.188,21.019-6.562V240.752z M256,219.733
	c-15.915,0-29.987-8.028-38.384-20.248c4.154-0.522,8.311-1.93,12.198-4.148c3.813-2.176,8.794-2.125,12.566,0.134
	c4.632,2.776,9.877,4.243,15.166,4.243c13.893,0,25.698-10.618,26.878-24.172c0.646-7.421-1.858-14.81-6.867-20.274
	c-5.014-5.467-12.14-8.603-19.554-8.603h-0.455c-5.289,0-10.534,1.467-15.165,4.242c-3.774,2.26-8.753,2.312-12.568,0.134
	c-3.887-2.217-8.043-3.624-12.197-4.147c8.397-12.219,22.47-20.248,38.384-20.248c25.664,0,46.543,20.879,46.543,46.543
	S281.664,219.733,256,219.733z M320.559,290.289c-6.321,5.422-13.386,9.999-21.019,13.553v-14.045h21.019V290.289z M320.559,274.784
	h-21.019v-19.017h21.019V274.784z M320.559,240.752h-21.019v-21.019h21.019V240.752z M320.559,204.719h-11.707
	c3.806-6.357,6.499-13.454,7.806-21.019h3.901V204.719z M320.559,168.686h-3.166c-0.541-7.449-2.414-14.534-5.381-21.019h8.547
	V168.686z M320.559,132.653h-18.272c-0.884-1.008-1.801-1.988-2.747-2.936v-18.084h21.019V132.653z M320.559,96.62h-21.019V77.603
	h21.019V96.62z M320.559,62.589h-21.019V48.544c7.633,3.555,14.698,8.131,21.019,13.553V62.589z M335.572,78.505
	c4.003,5.603,7.391,11.676,10.064,18.116h-10.064V78.505z M335.572,111.634h14.819c1.438,6.435,2.197,13.124,2.197,19.986v1.033
	h-17.016V111.634z M335.572,147.667h17.016v21.019h-17.016V147.667z M335.572,183.7h17.016v21.019h-17.016V183.7z M335.572,219.733
	h17.016v1.033c0,6.862-0.759,13.55-2.197,19.986h-14.819V219.733z M335.572,255.766h10.064c-2.673,6.441-6.062,12.512-10.064,18.116
	V255.766z"/>
<path d="M293.025,332.206c-21.013,6.861-46.105,6.801-76.715-0.182c-2.933-0.672-5.982,0.477-7.747,2.913
	c-1.766,2.435-1.907,5.689-0.359,8.269l34.231,57.052c1.356,2.261,3.8,3.644,6.438,3.644h12.251c2.637,0,5.081-1.383,6.438-3.644
	l34.231-57.052c1.611-2.686,1.385-6.092-0.567-8.542C299.274,332.213,296.006,331.236,293.025,332.206z M256.874,388.887h-3.751
	l-23.383-38.974c18.398,2.902,34.969,3.179,50.022,0.829L256.874,388.887z"/>
<path d="M385.118,178.624c4.147,0,7.507-3.361,7.507-7.507V131.62C392.624,59.045,333.58,0,261.004,0h-10.009
	c-72.576,0-131.62,59.045-131.62,131.62v89.145c0,42.629,20.675,82.605,55.405,107.309l51.693,95.248v27.655
	c-7.164,4.051-12.011,11.74-12.011,20.54v32.974c0,4.146,3.36,7.507,7.507,7.507h66.06c4.147,0,7.507-3.361,7.507-7.507v-32.974
	c0-8.8-4.847-16.49-12.011-20.54v-27.655l50.492-93.034c36.737-24.521,58.608-65.317,58.608-109.523c0-4.146-3.36-7.507-7.507-7.507
	c-4.147,0-7.507,3.361-7.507,7.507c0,39.737-19.951,76.366-53.369,97.983c-1.055,0.683-1.922,1.618-2.521,2.723l-52.301,96.366
	c-0.597,1.099-0.909,2.33-0.909,3.581v26.524h-27.025v-26.524c0-1.251-0.313-2.481-0.909-3.581l-53.445-98.474
	c-0.563-1.036-1.36-1.925-2.33-2.595c-31.567-21.81-50.413-57.699-50.413-96.001V131.62c0-64.297,52.31-116.607,116.607-116.607
	h10.009c64.297,0,116.607,52.31,116.607,116.607v39.497C377.611,175.263,380.972,178.624,385.118,178.624z M229.475,471.519
	c0-4.722,3.842-8.564,8.564-8.564h33.92c4.722,0,8.564,3.842,8.564,8.564v25.467h-51.047L229.475,471.519L229.475,471.519z"/>
<g>
</g>
<g>
</g>
<g>
</g>
<g>
</g>
<g>
</g>
<g>
</g>
<g>
</g>
<g>
</g>
<g>
</g>
<g>
</g>
<g>
</g>
<g>
</g>
<g>
</g>
<g>
</g>
<g>
</g>
</svg>
