<?xml version="1.0" encoding="iso-8859-1"?>
<!-- Generator: Adobe Illustrator 19.0.0, SVG Export Plug-In . SVG Version: 6.00 Build 0)  -->
<svg version="1.1" id="Capa_1" xmlns="http://www.w3.org/2000/svg" xmlns:xlink="http://www.w3.org/1999/xlink" x="0px" y="0px"
	 viewBox="0 0 512 512" style="enable-background:new 0 0 512 512;" xml:space="preserve">
<path style="fill:#AFAFAF;" d="M81.698,447.031v11.878v33.708c0,6.556,5.314,11.87,11.87,11.87h34.236
	c3.563,0,6.79-2.271,7.823-5.681c0.944-3.109,2.641-5.893,4.881-8.134c3.536-3.536,8.425-5.72,13.814-5.72h203.351
	c8.813,0,16.263,5.836,18.695,13.855c1.034,3.409,4.26,5.679,7.822,5.679h34.236c6.556,0,11.87-5.314,11.87-11.87v-33.708V447.03
	L81.698,447.031L81.698,447.031z"/>
<path style="fill:#535454;" d="M336.137,218.336H175.861v-44.755c0-2.924,2.37-5.294,5.294-5.294h149.689
	c2.924,0,5.294,2.37,5.294,5.294v44.755H336.137z"/>
<path style="fill:#464949;" d="M205.585,218.336c0-17.33,14.048-31.378,31.378-31.378h99.175v-13.377
	c0-2.924-2.37-5.294-5.294-5.294H181.155c-2.924,0-5.294,2.37-5.294,5.294v44.755L205.585,218.336L205.585,218.336z"/>
<path style="fill:#128CA0;" d="M438.464,202.467c9.316,0,16.879,7.563,16.879,16.879V442.03c0,9.316-7.563,16.879-16.879,16.879
	H73.534c-9.316,0-16.879-7.563-16.879-16.879V219.346c0-9.316,7.563-16.879,16.879-16.879L438.464,202.467L438.464,202.467z"/>
<path style="fill:#079984;" d="M200.904,442.029V219.345c0-9.316,7.563-16.879,16.879-16.879H73.534
	c-9.316,0-16.879,7.563-16.879,16.879v222.684c0,9.316,7.563,16.879,16.879,16.879h144.249
	C208.467,458.909,200.904,451.346,200.904,442.029z"/>
<path style="fill:#2CD4E5;" d="M303.08,233.683v194.011c0,3.409-2.764,6.173-6.173,6.173H87.871c-3.409,0-6.173-2.764-6.173-6.173
	V233.683c0-3.409,2.764-6.173,6.173-6.173h209.036C300.316,227.51,303.08,230.273,303.08,233.683z"/>
<path style="fill:#06C9C9;" d="M296.907,227.51H87.871c-3.409,0-6.173,2.764-6.173,6.173v19.872h144.297
	c25.699,0,46.532,20.833,46.532,46.532v133.779h24.38c3.409,0,6.173-2.764,6.173-6.173V233.682
	C303.08,230.273,300.317,227.51,296.907,227.51z"/>
<path style="fill:#04747F;" d="M431.301,233.113v195.151c0,3.094-2.508,5.603-5.603,5.603h-92.974c-3.094,0-5.603-2.508-5.603-5.603
	V233.113c0-3.094,2.508-5.603,5.603-5.603h92.974C428.793,227.51,431.301,230.019,431.301,233.113z"/>
<path style="fill:#06686D;" d="M425.699,227.51h-92.974c-3.094,0-5.603,2.508-5.603,5.603v7.42h51.99
	c19.695,0,35.661,15.967,35.661,35.662v157.672h10.926c3.094,0,5.603-2.508,5.603-5.603V233.113
	C431.301,230.019,428.793,227.51,425.699,227.51z"/>
<circle style="fill:#A09F9D;" cx="175.863" cy="162.401" r="14.024"/>
<path style="fill:#535454;" d="M133.988,24.57c2.144,5.259-0.391,11.259-5.65,13.403l-5.069,2.064
	c-5.259,2.144-11.269-0.391-13.403-5.65l-4.327-10.638c-2.144-5.259,0.391-11.259,5.65-13.403l5.069-2.064
	c5.259-2.144,11.269,0.391,13.403,5.65L133.988,24.57z"/>
<circle style="fill:#A09F9D;" cx="336.139" cy="162.401" r="14.024"/>
<path style="fill:#535454;" d="M400.809,10.346c5.259,2.144,7.793,8.144,5.65,13.403l-4.327,10.638
	c-2.134,5.259-8.144,7.793-13.403,5.65l-5.069-2.064c-5.259-2.144-7.793-8.144-5.65-13.403l4.327-10.638
	c2.134-5.259,8.144-7.793,13.403-5.65L400.809,10.346z"/>
<path style="fill:#E8B62A;" d="M303.08,284.609v48.083l-82.51,35.091c-2.436,1.036-5.221-0.351-5.863-2.919l-2.547-10.192
	c-0.647-2.589-3.468-3.972-5.91-2.898l-56.408,24.786c-2.559,1.125-5.496-0.45-5.975-3.205l-2.23-12.819
	c-0.444-2.551-3.022-4.137-5.499-3.381l-54.438,16.609v-46.079l54.438-16.609c2.477-0.755,5.056,0.829,5.499,3.381l2.23,12.819
	c0.479,2.755,3.416,4.329,5.975,3.205l56.408-24.786c2.442-1.073,5.263,0.31,5.91,2.898l2.523,10.094
	c0.65,2.6,3.493,3.982,5.939,2.885L303.08,284.609z"/>
<path style="fill:#E5A300;" d="M272.527,300.087v45.598l30.553-12.993v-48.083l-30.597,13.716
	C272.505,298.91,272.527,299.496,272.527,300.087z"/>
<circle style="fill:#535454;" cx="379.213" cy="278.601" r="31.054"/>
<path style="fill:#464949;" d="M379.211,247.545c-7.227,0-13.873,2.476-19.15,6.618c1.981-0.397,4.03-0.608,6.128-0.608
	c17.15,0,31.054,13.904,31.054,31.054c0,9.922-4.66,18.75-11.904,24.435c14.215-2.846,24.926-15.395,24.926-30.445
	C410.265,261.449,396.361,247.545,379.211,247.545z"/>
<circle style="fill:#363A3A;" cx="379.213" cy="278.601" r="13.022"/>
<path style="fill:#2D2828;" d="M379.211,273.089c0-2.709,0.828-5.223,2.243-7.307c-0.73-0.127-1.477-0.206-2.243-0.206
	c-7.192,0-13.022,5.83-13.022,13.022c0,7.192,5.83,13.022,13.022,13.022c4.484,0,8.437-2.267,10.78-5.716
	C383.87,284.84,379.211,279.514,379.211,273.089z"/>
<circle style="fill:#535454;" cx="379.213" cy="343.714" r="13.022"/>
<path style="fill:#2D2828;" d="M376.969,341.707c0-4.376,2.165-8.237,5.474-10.598c-1.035-0.264-2.114-0.421-3.231-0.421
	c-7.192,0-13.022,5.83-13.022,13.022c0,7.192,5.83,13.022,13.022,13.022c2.817,0,5.418-0.904,7.548-2.424
	C381.134,352.869,376.969,347.782,376.969,341.707z"/>
<path d="M438.464,194.954H343.65v-12.371c8.182-3.055,14.024-10.951,14.024-20.185c0-6.678-3.054-12.654-7.84-16.608
	c0.094-0.183,0.181-0.373,0.261-0.567l39.978-97.089c0.84,0.122,1.687,0.183,2.532,0.183c2.345,0,4.689-0.47,6.915-1.408
	c4.382-1.847,7.78-5.29,9.572-9.695l4.326-10.635c3.698-9.091-0.689-19.496-9.781-23.195l-5.069-2.062
	c-4.404-1.792-9.242-1.76-13.622,0.087c-4.382,1.847-7.78,5.29-9.572,9.695l-4.326,10.635c-3.009,7.398-0.665,15.664,5.211,20.48
	l-40.057,97.283c-0.184,0.448-0.322,0.904-0.416,1.361c-11.548,0.185-20.916,9.504-21.181,21.033H197.392
	c-0.264-11.529-9.633-20.848-21.181-21.033c-0.094-0.458-0.231-0.914-0.416-1.361L135.739,42.22
	c5.876-4.816,8.22-13.084,5.211-20.48l-4.326-10.636c-1.791-4.404-5.19-7.847-9.572-9.695c-4.381-1.847-9.218-1.878-13.622-0.087
	l-5.07,2.062c-9.091,3.699-13.478,14.104-9.78,23.194l4.326,10.636c1.791,4.404,5.19,7.847,9.572,9.695
	c2.226,0.939,4.57,1.408,6.915,1.408c0.845,0,1.692-0.061,2.532-0.183l39.978,97.089c0.08,0.194,0.167,0.383,0.261,0.567
	c-4.785,3.954-7.84,9.93-7.84,16.608c0,8.462,4.905,15.798,12.021,19.318v13.238h-92.81c-13.45,0-24.392,10.942-24.392,24.392
	v222.684c0,13.45,10.942,24.392,24.392,24.392h0.651v26.195c0,10.687,8.696,19.383,19.383,19.383h41.221
	c4.149,0,7.513-3.364,7.513-7.513c0-3.213,1.25-6.232,3.519-8.501c2.27-2.27,5.289-3.52,8.502-3.52h203.351
	c6.628,0,12.021,5.392,12.021,12.021c0,4.149,3.364,7.513,7.513,7.513h41.221c10.687,0,19.383-8.696,19.383-19.383v-26.195h0.651
	c13.45,0,24.392-10.942,24.392-24.392V219.345C462.856,205.896,451.914,194.954,438.464,194.954z M384.967,27.401l4.326-10.636
	c0.377-0.926,1.096-1.343,1.492-1.511s1.197-0.391,2.123-0.014l5.068,2.062c1.417,0.577,2.101,2.198,1.525,3.615l-4.326,10.636
	c-0.377,0.926-1.096,1.343-1.492,1.511c-0.396,0.167-1.197,0.391-2.123,0.014l-5.069-2.062
	C385.075,30.439,384.391,28.818,384.967,27.401z M125.507,31.015l-5.069,2.062c-0.927,0.377-1.727,0.153-2.123-0.014
	s-1.115-0.584-1.492-1.511l-4.326-10.636c-0.576-1.416,0.107-3.038,1.524-3.614l5.069-2.062c0.373-0.151,0.725-0.206,1.04-0.206
	c0.466,0,0.847,0.12,1.084,0.219c0.396,0.167,1.115,0.584,1.492,1.511l4.326,10.636C127.606,28.818,126.923,30.439,125.507,31.015z
	 M336.137,155.887c3.59,0,6.511,2.921,6.511,6.511s-2.921,6.511-6.511,6.511s-6.511-2.921-6.511-6.511
	S332.547,155.887,336.137,155.887z M191.749,176.923H320.25c2.284,2.496,5.148,4.455,8.375,5.66v12.371H181.371v-11.733
	C185.418,182.148,189.002,179.924,191.749,176.923z M175.861,155.887c3.59,0,6.511,2.921,6.511,6.511s-2.921,6.511-6.511,6.511
	c-3.59,0-6.511-2.921-6.511-6.511S172.271,155.887,175.861,155.887z M422.787,492.616c0,2.402-1.955,4.358-4.358,4.358H383.66
	c-3.264-11.269-13.678-19.534-25.985-19.534H154.325c-7.225,0-14.018,2.813-19.127,7.921c-3.285,3.285-5.62,7.267-6.869,11.613
	h-34.76c-2.402,0-4.358-1.955-4.358-4.358v-26.195h333.575L422.787,492.616L422.787,492.616z M447.83,442.029
	c0,5.165-4.201,9.366-9.366,9.366H73.534c-5.165,0-9.366-4.201-9.366-9.366V219.345c0-5.165,4.201-9.366,9.366-9.366h364.929
	c5.165,0,9.366,4.201,9.366,9.366V442.029z"/>
<path d="M303.08,219.997h-64.891c-4.149,0-7.513,3.364-7.513,7.513s3.364,7.513,7.513,7.513h57.378v44.72l-74.525,33.408
	l-2.833-11.332c-0.537-2.148-1.993-3.949-3.981-4.923c-1.988-0.975-4.303-1.023-6.33-0.132l-57.333,25.191l-2.363-13.59
	c-0.37-2.123-1.632-3.985-3.467-5.113c-1.835-1.128-4.066-1.414-6.128-0.786l-49.397,15.07v-82.512h84.646
	c4.149,0,7.513-3.364,7.513-7.513s-3.364-7.513-7.513-7.513H81.698c-4.149,0-7.513,3.364-7.513,7.513v206.356
	c0,4.149,3.364,7.513,7.513,7.513H303.08c4.149,0,7.513-3.364,7.513-7.513V227.51C310.593,223.36,307.229,219.997,303.08,219.997z
	 M295.567,426.353H89.211v-47.028l45.645-13.925l2.549,14.658c0.396,2.275,1.816,4.241,3.851,5.333
	c1.106,0.593,2.327,0.893,3.551,0.893c1.028,0,2.058-0.21,3.022-0.635l57.963-25.468l2.849,11.397
	c0.533,2.133,1.973,3.924,3.941,4.904c1.968,0.98,4.266,1.047,6.288,0.188l76.697-32.618V426.353z M295.567,327.722l-74.482,31.677
	l-2.875-11.5c-0.537-2.148-1.993-3.949-3.981-4.923c-1.988-0.975-4.303-1.023-6.33-0.132l-57.333,25.191l-2.363-13.59
	c-0.37-2.123-1.632-3.985-3.467-5.113c-1.196-0.735-2.56-1.113-3.936-1.113c-0.735,0-1.474,0.108-2.192,0.327l-49.397,15.07v-30.369
	l45.645-13.925l2.549,14.658c0.396,2.275,1.816,4.241,3.851,5.333c2.036,1.092,4.46,1.187,6.573,0.257l57.963-25.468l2.849,11.397
	c0.539,2.157,2.005,3.965,4.006,4.936c1.998,0.972,4.326,1.007,6.356,0.098l76.564-34.322V327.722z"/>
<path d="M431.301,219.997h-104.18c-4.149,0-7.513,3.364-7.513,7.513v206.356c0,4.149,3.364,7.513,7.513,7.513h104.18
	c4.149,0,7.513-3.364,7.513-7.513V227.51C438.814,223.36,435.45,219.997,431.301,219.997z M423.788,426.353h-89.154v-191.33h89.154
	V426.353z"/>
<path d="M379.211,317.165c21.266,0,38.567-17.301,38.567-38.566c0-21.266-17.301-38.567-38.567-38.567
	c-21.266,0-38.566,17.301-38.566,38.567C340.645,299.864,357.946,317.165,379.211,317.165z M379.211,255.058
	c12.98,0,23.541,10.56,23.541,23.541c0,12.98-10.56,23.541-23.541,23.541c-12.98,0-23.541-10.56-23.541-23.541
	C355.671,265.618,366.231,255.058,379.211,255.058z"/>
<circle cx="379.213" cy="278.601" r="13.022"/>
<path d="M379.211,323.175c-11.323,0-20.535,9.212-20.535,20.535s9.212,20.535,20.535,20.535c11.324,0,20.535-9.212,20.535-20.535
	S390.535,323.175,379.211,323.175z M379.211,349.22c-3.038,0-5.509-2.471-5.509-5.51c0-3.038,2.471-5.509,5.509-5.509
	c3.038,0,5.51,2.471,5.51,5.509C384.721,346.749,382.25,349.22,379.211,349.22z"/>
<path d="M347.156,390.291h8.014c4.149,0,7.513-3.364,7.513-7.513s-3.364-7.513-7.513-7.513h-8.014c-4.149,0-7.513,3.364-7.513,7.513
	S343.007,390.291,347.156,390.291z"/>
<path d="M383.218,375.265h-8.014c-4.149,0-7.513,3.364-7.513,7.513s3.364,7.513,7.513,7.513h8.014c4.149,0,7.513-3.364,7.513-7.513
	S387.367,375.265,383.218,375.265z"/>
<path d="M411.267,375.265h-8.014c-4.149,0-7.513,3.364-7.513,7.513s3.364,7.513,7.513,7.513h8.014c4.149,0,7.513-3.364,7.513-7.513
	S415.416,375.265,411.267,375.265z"/>
<path d="M347.156,416.336h8.014c4.149,0,7.513-3.364,7.513-7.513c0-4.149-3.364-7.513-7.513-7.513h-8.014
	c-4.149,0-7.513,3.364-7.513,7.513C339.643,412.972,343.007,416.336,347.156,416.336z"/>
<path d="M383.218,401.31h-8.014c-4.149,0-7.513,3.364-7.513,7.513c0,4.149,3.364,7.513,7.513,7.513h8.014
	c4.149,0,7.513-3.364,7.513-7.513C390.731,404.674,387.367,401.31,383.218,401.31z"/>
<path d="M411.267,401.31h-8.014c-4.149,0-7.513,3.364-7.513,7.513c0,4.149,3.364,7.513,7.513,7.513h8.014
	c4.149,0,7.513-3.364,7.513-7.513C418.78,404.674,415.416,401.31,411.267,401.31z"/>
<g>
</g>
<g>
</g>
<g>
</g>
<g>
</g>
<g>
</g>
<g>
</g>
<g>
</g>
<g>
</g>
<g>
</g>
<g>
</g>
<g>
</g>
<g>
</g>
<g>
</g>
<g>
</g>
<g>
</g>
</svg>
