<?xml version="1.0" encoding="iso-8859-1"?>
<!-- Generator: Adobe Illustrator 19.0.0, SVG Export Plug-In . SVG Version: 6.00 Build 0)  -->
<svg version="1.1" id="Capa_1" xmlns="http://www.w3.org/2000/svg" xmlns:xlink="http://www.w3.org/1999/xlink" x="0px" y="0px"
	 viewBox="0 0 511.998 511.998" style="enable-background:new 0 0 511.998 511.998;" xml:space="preserve">
<path style="fill:#757574;" d="M377.679,171.122v45.379H86.066v-57.398c0-6.22,5.045-11.266,11.266-11.266h30.693h205.598h32.791
	C372.634,147.837,377.679,152.882,377.679,171.122z"/>
<path style="fill:#E2B17D;" d="M364.42,258.504l-0.449-7.22H262.146v7.22c-4.847,12.577-17.035,21.504-31.322,21.504
	s-26.476-8.927-31.322-21.504v-5.262H99.417l-0.093,5.262L48.302,415.326h367.141L364.42,258.504z"/>
<path style="fill:#D69C67;" d="M199.501,258.504v-5.262H99.417l-0.093,5.262L48.302,415.326h115.634l46.324-142.382
	C205.477,269.223,201.716,264.252,199.501,258.504z"/>
<path style="fill:#B56C30;" d="M404.953,217.164v28.134c0,7.007-5.675,12.682-12.682,12.682H69.376
	c-7.007,0-12.682-5.675-12.682-12.682v-28.134c0-7.007,5.675-12.682,12.682-12.682h322.895
	C399.278,204.482,404.953,210.157,404.953,217.164z"/>
<path style="fill:#AA5F26;" d="M392.271,235.666H69.376c-7.007,0-12.682-5.675-12.682-12.682v22.313
	c0,7.007,5.675,12.682,12.682,12.682h322.895c7.007,0,12.682-5.675,12.682-12.682v-22.313
	C404.953,229.991,399.278,235.666,392.271,235.666z"/>
<path d="M99.417,379.064l7.259,1.935c-0.18,0.677,0.062,1.185,0.297,1.491c0.235,0.306,0.664,0.672,1.364,0.672h247.07
	c0.7,0,1.128-0.366,1.363-0.672c0.235-0.307,0.48-0.814,0.298-1.491l-18.568-69.648c-0.2-0.752-0.884-1.277-1.663-1.277H126.907
	c-0.778,0-1.461,0.525-1.662,1.277l-18.569,69.648L99.417,379.064z"/>
<path d="M55.814,422.837v28.533c0,0.275,0.224,0.5,0.5,0.5h351.118c0.275,0,0.5-0.224,0.5-0.5v-28.533H55.814z"/>
<path d="M135.536,196.97h190.575V64.011l-46.586-48.987H138.884c-1.846,0-3.347,1.501-3.347,3.347L135.536,196.97L135.536,196.97z"
	/>
<path d="M295.86,375.633H166.836c-4.149,0-7.512-3.362-7.512-7.512s3.363-7.512,7.512-7.512h129.023c4.15,0,7.512,3.362,7.512,7.512
	S300.008,375.633,295.86,375.633z"/>
<path d="M142.71,375.633h-7.343c-4.149,0-7.512-3.362-7.512-7.512s3.363-7.512,7.512-7.512h7.343c4.149,0,7.512,3.362,7.512,7.512
	S146.859,375.633,142.71,375.633z"/>
<path d="M159.493,333.675h-7.343c-4.149,0-7.512-3.362-7.512-7.512c0-4.15,3.363-7.512,7.512-7.512h7.343
	c4.149,0,7.512,3.362,7.512,7.512C167.005,330.313,163.641,333.675,159.493,333.675z"/>
<path d="M174.179,353.605h-7.344c-4.149,0-7.512-3.362-7.512-7.512s3.363-7.512,7.512-7.512h7.344c4.149,0,7.512,3.362,7.512,7.512
	S178.328,353.605,174.179,353.605z"/>
<path d="M206.697,353.605h-7.343c-4.149,0-7.512-3.362-7.512-7.512s3.363-7.512,7.512-7.512h7.343c4.149,0,7.512,3.362,7.512,7.512
	S210.846,353.605,206.697,353.605z"/>
<path d="M239.215,353.605h-7.343c-4.149,0-7.512-3.362-7.512-7.512s3.363-7.512,7.512-7.512h7.343c4.15,0,7.512,3.362,7.512,7.512
	S243.365,353.605,239.215,353.605z"/>
<path d="M271.733,353.605h-7.343c-4.15,0-7.512-3.362-7.512-7.512s3.362-7.512,7.512-7.512h7.343c4.15,0,7.512,3.362,7.512,7.512
	S275.882,353.605,271.733,353.605z"/>
<path d="M304.252,353.605h-7.343c-4.15,0-7.512-3.362-7.512-7.512s3.362-7.512,7.512-7.512h7.343c4.15,0,7.512,3.362,7.512,7.512
	S308.401,353.605,304.252,353.605z"/>
<path d="M189.913,333.675h-7.344c-4.149,0-7.512-3.362-7.512-7.512c0-4.15,3.363-7.512,7.512-7.512h7.344
	c4.149,0,7.512,3.362,7.512,7.512C197.425,330.313,194.062,333.675,189.913,333.675z"/>
<path d="M220.334,333.675h-7.343c-4.149,0-7.512-3.362-7.512-7.512c0-4.15,3.363-7.512,7.512-7.512h7.343
	c4.149,0,7.512,3.362,7.512,7.512C227.846,330.313,224.483,333.675,220.334,333.675z"/>
<path d="M250.754,333.675h-7.343c-4.149,0-7.512-3.362-7.512-7.512c0-4.15,3.363-7.512,7.512-7.512h7.343
	c4.15,0,7.512,3.362,7.512,7.512C258.266,330.313,254.903,333.675,250.754,333.675z"/>
<path d="M281.174,333.675h-7.343c-4.15,0-7.512-3.362-7.512-7.512c0-4.15,3.362-7.512,7.512-7.512h7.343
	c4.15,0,7.512,3.362,7.512,7.512C288.686,330.313,285.323,333.675,281.174,333.675z"/>
<path d="M311.595,333.675h-7.343c-4.15,0-7.512-3.362-7.512-7.512c0-4.15,3.362-7.512,7.512-7.512h7.343
	c4.15,0,7.512,3.362,7.512,7.512C319.107,330.313,315.743,333.675,311.595,333.675z"/>
<path d="M328.378,375.633h-7.343c-4.15,0-7.512-3.362-7.512-7.512s3.362-7.512,7.512-7.512h7.343c4.15,0,7.512,3.362,7.512,7.512
	S332.527,375.633,328.378,375.633z"/>
<path style="fill:#B56C30;" d="M364.326,379.063c1.563,5.863-2.854,11.613-8.916,11.613H108.335c-6.063,0-10.48-5.748-8.916-11.613
	l18.567-69.652c1.081-4.038,4.742-6.85,8.916-6.85h209.941c4.175,0,7.836,2.811,8.916,6.85L364.326,379.063z"/>
<path style="fill:#A85E27;" d="M364.326,379.063l-18.567-69.652c-1.081-4.038-4.742-6.85-8.916-6.85H126.902
	c-4.175,0-7.836,2.811-8.916,6.85l-0.985,3.694h201.241c4.175,0,7.836,2.811,8.916,6.85l18.567,69.652
	c0.095,0.357,0.166,0.713,0.218,1.069h9.467C361.473,390.674,365.89,384.926,364.326,379.063z"/>
<path style="fill:#C6854A;" d="M415.443,415.326v36.043c0,4.427-3.588,8.014-8.014,8.014H56.316c-4.427,0-8.014-3.588-8.014-8.014
	v-36.043H415.443z"/>
<path style="fill:#B27542;" d="M163.22,451.368v-36.043H48.302v36.043c0,4.426,3.588,8.014,8.014,8.014h114.918
	C166.808,459.382,163.22,455.794,163.22,451.368z"/>
<g>
	<path style="fill:#757574;" d="M488.871,276.682v10.846c0,3.377-2.737,6.116-6.116,6.116h-18.189c-3.377,0-6.116-2.737-6.116-6.116
		v-10.846c0-3.377,2.737-6.116,6.116-6.116h18.189C486.133,270.567,488.871,273.305,488.871,276.682z"/>
	<path style="fill:#757574;" d="M140.612,459.382v13.752c0,6.304-5.119,11.423-11.423,11.423h-13.217
		c-4.5,0-8.56,1.825-11.507,4.763c-2.937,2.948-4.763,7.007-4.763,11.507c0,2.024-1.637,3.661-3.661,3.661H62.453
		c-2.024,0-3.661-1.637-3.661-3.661v-41.445h25.175h15.734L140.612,459.382L140.612,459.382z"/>
	<path style="fill:#757574;" d="M402.855,459.382v41.445c0,2.024-1.637,3.661-3.661,3.661h-33.588c-2.024,0-3.661-1.637-3.661-3.661
		c0-4.5-1.825-8.56-4.763-11.507c-2.948-2.937-7.007-4.763-11.507-4.763h-13.217c-6.304,0-11.423-5.119-11.423-11.423v-13.752h40.91
		h15.734L402.855,459.382L402.855,459.382z"/>
</g>
<path style="fill:#DDDBC7;" d="M333.623,61.009v143.472H128.025V18.368c0-5.99,4.867-10.857,10.857-10.857h143.867L333.623,61.009z"
	/>
<path style="fill:#BCB9A2;" d="M288.424,61.009h45.199L282.748,7.512l0.474,48.346C283.25,58.711,285.57,61.009,288.424,61.009z"/>
<path d="M336.843,295.048H126.902c-3.429,0-6.671,1.05-9.372,2.879c-0.041,0.028-0.081,0.056-0.121,0.084
	c-0.052,0.036-0.104,0.071-0.155,0.107c-2.079,1.469-3.821,3.407-5.06,5.686c-0.02,0.037-0.041,0.074-0.061,0.112
	c-0.007,0.013-0.013,0.026-0.02,0.038c-0.584,1.101-1.053,2.28-1.384,3.522l-18.569,69.653l0,0
	c-1.267,4.75-0.416,9.697,2.329,13.723l0.019,0.028c0.085,0.124,0.172,0.248,0.26,0.371c0.025,0.035,0.05,0.069,0.076,0.103
	c0.023,0.031,0.046,0.063,0.07,0.095c0.049,0.066,0.098,0.131,0.148,0.196c3.193,4.157,8.032,6.54,13.273,6.54H355.41
	c5.241,0,10.08-2.384,13.274-6.54c1.18-1.535,2.067-3.225,2.65-5.001c0.997-3.034,1.104-6.319,0.251-9.515l0,0l-18.57-69.66
	C351.059,300.156,344.408,295.048,336.843,295.048z M357.069,381.903c-0.069,0.24-0.185,0.438-0.299,0.587
	c-0.235,0.306-0.663,0.672-1.363,0.672H108.338c-0.701,0-1.129-0.366-1.364-0.672c-0.059-0.077-0.118-0.166-0.171-0.267
	c-0.159-0.303-0.26-0.716-0.125-1.226l0,0l18.568-69.647c0.2-0.752,0.883-1.277,1.662-1.277h209.931
	c0.778,0,1.462,0.525,1.663,1.277l18.567,69.647l0,0C357.161,381.346,357.142,381.649,357.069,381.903z"/>
<path d="M482.755,263.055h-18.189c-6.805,0-12.461,5.013-13.469,11.539h-8.213v-37.092c0-7.6-6.183-13.783-13.783-13.783h-16.638
	v-7.124c0-10.821-8.803-19.624-19.623-19.624h-7.65v-37.867c0-10.355-8.423-18.778-18.778-18.778h-25.278V61.009
	c0-0.062-0.001-0.124-0.002-0.186c-0.001-0.032-0.002-0.063-0.004-0.095c-0.001-0.029-0.002-0.057-0.003-0.086
	c-0.002-0.049-0.005-0.098-0.009-0.146c-0.001-0.01-0.001-0.02-0.002-0.029c-0.13-1.815-0.903-3.451-2.095-4.681L288.19,2.336
	C286.773,0.844,284.806,0,282.748,0H138.881c-10.129,0-18.369,8.24-18.369,18.368v121.957h-23.18
	c-10.355,0-18.778,8.423-18.778,18.778v37.868h-9.748c-10.82,0-19.623,8.803-19.623,19.624v7.124H30.639v-2.453
	c0-4.15-3.363-7.512-7.512-7.512s-7.512,3.362-7.512,7.512v22.028c0,4.15,3.363,7.512,7.512,7.512s7.512-3.362,7.512-7.512v-4.551
	h18.544v7.124c0,10.821,8.803,19.624,19.623,19.624h20.212l-47.811,147.36c-0.231,0.665-0.373,1.372-0.408,2.106
	c0,0.003,0,0.006,0,0.01c-0.001,0.012-0.001,0.023-0.001,0.035c-0.002,0.052-0.004,0.105-0.005,0.158
	c0,0.009-0.001,0.018-0.001,0.027c0,0.018,0,0.035,0,0.052c0,0.028-0.001,0.055-0.001,0.083v36.045
	c0,6.799,4.393,12.59,10.49,14.685v34.772c0,6.16,5.012,11.172,11.173,11.172h33.589c6.161,0,11.173-5.012,11.173-11.172
	c0-2.337,0.913-4.54,2.553-6.187c1.665-1.658,3.867-2.571,6.205-2.571h13.217c10.441,0,18.935-8.494,18.935-18.935v-6.239h165.399
	v6.239c0,10.442,8.494,18.935,18.935,18.935h13.216c2.337,0,4.54,0.913,6.186,2.553c1.659,1.665,2.572,3.868,2.572,6.205
	c0,6.16,5.012,11.172,11.172,11.172h33.589c6.161,0,11.173-5.012,11.173-11.172v-34.211c7.16-1.376,12.587-7.689,12.587-15.245
	v-36.045c0-0.028-0.001-0.056-0.001-0.085c0-0.026,0-0.052-0.001-0.078c-0.001-0.055-0.003-0.11-0.005-0.165
	c0-0.012-0.001-0.025-0.001-0.037c-0.035-0.737-0.177-1.447-0.411-2.113l-47.943-147.354h18.248c10.82,0,19.623-8.803,19.623-19.624
	v-7.124h15.397v37.092c0,7.6,6.183,13.783,13.783,13.783h9.454c1.009,6.525,6.664,11.538,13.469,11.538h18.189
	c7.514,0,13.627-6.114,13.627-13.627v-10.848C496.383,269.168,490.269,263.055,482.755,263.055z M341.135,155.349h25.274
	c2.071,0,3.758,1.687,3.758,3.758v37.864h-29.032L341.135,155.349L341.135,155.349z M290.26,26.312l25.852,27.185H290.26V26.312z
	 M93.578,159.107c0-2.071,1.686-3.758,3.758-3.758h23.177v41.622H93.578V159.107z M133.1,473.134c0,2.156-1.755,3.911-3.911,3.911
	h-13.217c-6.34,0-12.311,2.47-16.829,6.972c-3.563,3.576-5.853,8.079-6.644,12.959H66.304v-30.081H133.1V473.134z M395.344,496.976
	h-26.195c-0.791-4.88-3.086-9.386-6.663-12.977c-4.5-4.484-10.47-6.953-16.81-6.953H332.46c-2.156,0-3.911-1.755-3.911-3.911v-6.239
	h66.796L395.344,496.976L395.344,496.976z M407.931,451.367c0,0.276-0.226,0.503-0.503,0.503H56.317
	c-0.276,0-0.502-0.226-0.502-0.503v-28.53h352.116V451.367z M405.099,407.814H58.646l46.137-141.798h89.933
	c7.111,13.045,21.027,21.504,36.108,21.504s28.996-8.459,36.108-21.504h92.031L405.099,407.814z M213.355,265.491h34.923
	c-4.739,4.396-10.942,7.004-17.454,7.004C224.305,272.496,218.096,269.888,213.355,265.491z M397.441,245.868
	c0,2.536-2.063,4.6-4.599,4.6H68.806c-2.536,0-4.599-2.064-4.599-4.6v-29.274c0-2.536,2.063-4.6,4.599-4.6h152.853
	c4.149,0,7.512-3.362,7.512-7.512c0-4.15-3.363-7.512-7.512-7.512h-86.124V18.371c0-1.846,1.502-3.347,3.347-3.347h136.352v45.985
	c0,4.15,3.362,7.512,7.512,7.512h43.363V196.97h-49.629c-4.15,0-7.512,3.362-7.512,7.512c0,4.15,3.362,7.512,7.512,7.512h116.36
	c2.536,0,4.599,2.064,4.599,4.6L397.441,245.868L397.441,245.868z M481.359,286.132h-15.397v-8.053h15.397V286.132z"/>
<path d="M295.86,360.609H166.836c-4.149,0-7.512,3.362-7.512,7.512s3.363,7.512,7.512,7.512h129.023c4.15,0,7.512-3.362,7.512-7.512
	S300.008,360.609,295.86,360.609z"/>
<path d="M142.71,360.609h-7.343c-4.149,0-7.512,3.362-7.512,7.512s3.363,7.512,7.512,7.512h7.343c4.149,0,7.512-3.362,7.512-7.512
	S146.859,360.609,142.71,360.609z"/>
<path d="M167.005,326.163c0-4.15-3.363-7.512-7.512-7.512h-7.343c-4.149,0-7.512,3.362-7.512,7.512c0,4.15,3.363,7.512,7.512,7.512
	h7.343C163.641,333.675,167.005,330.312,167.005,326.163z"/>
<path d="M159.324,346.093c0,4.15,3.363,7.512,7.512,7.512h7.344c4.149,0,7.512-3.362,7.512-7.512s-3.363-7.512-7.512-7.512h-7.344
	C162.687,338.581,159.324,341.943,159.324,346.093z"/>
<path d="M191.843,346.093c0,4.15,3.363,7.512,7.512,7.512h7.343c4.149,0,7.512-3.362,7.512-7.512s-3.363-7.512-7.512-7.512h-7.343
	C195.206,338.581,191.843,341.943,191.843,346.093z"/>
<path d="M224.36,346.093c0,4.15,3.363,7.512,7.512,7.512h7.343c4.15,0,7.512-3.362,7.512-7.512s-3.362-7.512-7.512-7.512h-7.343
	C227.724,338.581,224.36,341.943,224.36,346.093z"/>
<path d="M264.39,353.605h7.343c4.15,0,7.512-3.362,7.512-7.512s-3.362-7.512-7.512-7.512h-7.343c-4.15,0-7.512,3.362-7.512,7.512
	S260.241,353.605,264.39,353.605z"/>
<path d="M304.252,338.581h-7.343c-4.15,0-7.512,3.362-7.512,7.512s3.362,7.512,7.512,7.512h7.343c4.15,0,7.512-3.362,7.512-7.512
	S308.401,338.581,304.252,338.581z"/>
<path d="M182.571,333.675h7.344c4.149,0,7.512-3.362,7.512-7.512c0-4.15-3.363-7.512-7.512-7.512h-7.344
	c-4.149,0-7.512,3.362-7.512,7.512C175.059,330.313,178.422,333.675,182.571,333.675z"/>
<path d="M212.991,333.675h7.343c4.149,0,7.512-3.362,7.512-7.512c0-4.15-3.363-7.512-7.512-7.512h-7.343
	c-4.149,0-7.512,3.362-7.512,7.512C205.479,330.313,208.843,333.675,212.991,333.675z"/>
<path d="M243.411,333.675h7.343c4.15,0,7.512-3.362,7.512-7.512c0-4.15-3.362-7.512-7.512-7.512h-7.343
	c-4.149,0-7.512,3.362-7.512,7.512C235.899,330.313,239.262,333.675,243.411,333.675z"/>
<path d="M273.832,333.675h7.343c4.15,0,7.512-3.362,7.512-7.512c0-4.15-3.362-7.512-7.512-7.512h-7.343
	c-4.15,0-7.512,3.362-7.512,7.512C266.319,330.313,269.682,333.675,273.832,333.675z"/>
<path d="M304.252,333.675h7.343c4.15,0,7.512-3.362,7.512-7.512c0-4.15-3.362-7.512-7.512-7.512h-7.343
	c-4.15,0-7.512,3.362-7.512,7.512C296.74,330.313,300.102,333.675,304.252,333.675z"/>
<path d="M328.378,360.609h-7.343c-4.15,0-7.512,3.362-7.512,7.512s3.362,7.512,7.512,7.512h7.343c4.15,0,7.512-3.362,7.512-7.512
	S332.527,360.609,328.378,360.609z"/>
<g>
</g>
<g>
</g>
<g>
</g>
<g>
</g>
<g>
</g>
<g>
</g>
<g>
</g>
<g>
</g>
<g>
</g>
<g>
</g>
<g>
</g>
<g>
</g>
<g>
</g>
<g>
</g>
<g>
</g>
</svg>
