<?xml version="1.0" encoding="iso-8859-1"?>
<!-- Generator: Adobe Illustrator 19.0.0, SVG Export Plug-In . SVG Version: 6.00 Build 0)  -->
<svg version="1.1" id="Capa_1" xmlns="http://www.w3.org/2000/svg" xmlns:xlink="http://www.w3.org/1999/xlink" x="0px" y="0px"
	 viewBox="0 0 512 512" style="enable-background:new 0 0 512 512;" xml:space="preserve">
<path style="fill:#00C37A;" d="M401.317,134.29c1.06,2.1,0.21,4.66-1.89,5.72l-18.69,9.41c-12.24,6.16-27.16,1.22-33.32-11.02
	l-9.4-18.69c-1.06-2.1-0.21-4.66,1.89-5.72l18.69-9.41c12.24-6.16,27.16-1.22,33.32,11.02L401.317,134.29z"/>
<path style="fill:#02AD67;" d="M400.514,136.929c-12.24,6.16-27.16,1.22-33.32-11.02l-9.4-18.69
	c-0.327-0.648-0.452-1.338-0.435-2.016l-17.451,8.786c-2.1,1.06-2.95,3.62-1.89,5.72l9.4,18.69c6.16,12.24,21.08,17.18,33.32,11.02
	l18.69-9.41c1.452-0.733,2.287-2.185,2.325-3.704L400.514,136.929z"/>
<path style="fill:#915922;" d="M489.53,161.08c1.92,4.5-0.17,9.7-4.67,11.63l-44.98,19.22l-66.187,51.48l-43.637-3.072L396.5,188.67
	v-85.88c0-5.96,4.83-10.79,10.79-10.79h9.42c5.96,0,10.79,4.83,10.79,10.79v60.72l45.18-19.31c4.5-1.92,9.7,0.17,11.62,4.66
	L489.53,161.08z"/>
<path style="fill:#824C1C;" d="M416.943,194.021v-85.88c0-5.404,3.975-9.865,9.158-10.654c-1.853-3.274-5.36-5.487-9.391-5.487
	h-9.42c-5.96,0-10.79,4.83-10.79,10.79v85.88l-66.443,51.668l25.056,1.764L416.943,194.021z"/>
<polygon style="fill:#915922;" points="267,243.5 260,235.5 203,321.5 300,315.5 300,250.5 "/>
<path style="fill:#7C4513;" d="M491.083,248.91c-8.6-8.59-20.47-13.91-33.59-13.91c-1.145,0-99.34,0.377-197.493,0.5l6.493,65
	l-56.5,3.273v-14.591c0-14.705-1.529-29.369-4.561-43.758l-1.038-4.923c-0.637-3.021-3.307-5.182-6.394-5.178
	C120.852,235.419,56.666,235,56.666,235L55,419.976L457.5,420c26.227-0.003,47.494-21.272,47.494-47.5v-90
	C504.993,269.38,499.673,257.51,491.083,248.91z"/>
<path style="fill:#703B0F;" d="M457.5,363l-401.986-0.023l-0.513,57L457.5,420c26.227-0.003,47.494-21.272,47.494-47.5v-57
	C504.993,341.728,483.727,362.997,457.5,363z"/>
<g>
	<path style="fill:#E8B62A;" d="M296.676,193.064l-27.03,16.035c-2.529,1.5-5.764-0.112-6.088-3.035l-3.504-31.574
		c-0.268-2.417,1.644-4.527,4.076-4.501c14.071,0.146,25.314,5.865,33.723,17.159C299.291,189.079,298.746,191.835,296.676,193.064z
		"/>
	<path style="fill:#E8B62A;" d="M220.752,168.734l-7.771,30.447c-0.727,2.849-4.154,3.997-6.451,2.159l-24.804-19.848
		c-1.899-1.52-2.038-4.364-0.3-6.066c10.054-9.843,22.042-13.75,35.976-11.708C219.784,164.067,221.347,166.401,220.752,168.734z"/>
</g>
<path style="fill:#915922;" d="M102.5,282.5v90c0,26.23-21.27,47.5-47.5,47.5S7.5,398.73,7.5,372.5v-90C7.5,256.27,28.77,235,55,235
	c13.12,0,24.99,5.32,33.59,13.91C97.18,257.51,102.5,269.38,102.5,282.5z"/>
<path style="fill:#824C1C;" d="M55,372.5c-26.23,0-47.5-21.27-47.5-47.5v47.5C7.5,398.73,28.77,420,55,420s47.5-21.27,47.5-47.5V325
	C102.5,351.23,81.23,372.5,55,372.5z"/>
<path style="fill:#DDDDDD;" d="M359.834,268.129L355.68,344l-19.956-0.921c-0.786-0.051-1.563,0.198-2.172,0.697l-8.079,6.61
	c-1.147,0.939-2.797,0.939-3.944,0l-7.056-5.773c-1.147-0.939-2.797-0.939-3.944,0l-7.056,5.773c-1.147,0.939-2.797,0.939-3.944,0
	l-7.056-5.773c-1.147-0.939-2.797-0.939-3.944,0l-7.056,5.773c-1.147,0.939-2.797,0.939-3.944,0l-7.056-5.773
	c-1.147-0.939-2.797-0.939-3.944,0l-7.056,5.773c-1.147,0.939-2.797,0.939-3.944,0l-7.056-5.773c-1.147-0.939-2.797-0.939-3.944,0
	l-7.056,5.773c-1.147,0.939-2.797,0.939-3.944,0l-8.405-6.877c-0.408-0.334-0.895-0.559-1.414-0.654l-10.598-1.929
	c-1.393,0.019-2.538-1.094-2.559-2.487l-0.867-58.508c-0.025-1.669,1.271-3.061,2.938-3.155L359.834,268.129z"/>
<path style="fill:#128CA0;" d="M420.24,258h-56.48c-7.32,0-13.26,5.94-13.26,13.26v75.48c0,7.32,5.94,13.26,13.26,13.26h56.48
	c7.32,0,13.26-5.94,13.26-13.26v-75.48C433.5,263.94,427.56,258,420.24,258z M408.5,327c0,6.08-4.92,11-11,11s-11-4.92-11-11v-36
	c0-6.08,4.92-11,11-11c3.04,0,5.79,1.23,7.78,3.22s3.22,4.74,3.22,7.78V327z"/>
<path style="fill:#0A897F;" d="M392,346.74v-10.221c-3.286-1.901-5.5-5.446-5.5-9.519v-36c0-4.073,2.214-7.617,5.5-9.519V271.26
	c0-7.32,5.94-13.26,13.26-13.26h-41.5c-7.32,0-13.26,5.94-13.26,13.26v75.48c0,7.32,5.94,13.26,13.26,13.26h41.5
	C397.94,360,392,354.06,392,346.74z"/>
<path style="fill:#CCCBCA;" d="M229.683,275.774l-17.062,1.002c-1.667,0.094-2.962,1.486-2.938,3.155l0.867,58.508
	c0.021,1.393,1.166,2.506,2.559,2.487l10.598,1.929c0.519,0.094,1.006,0.319,1.414,0.654l4.561,3.731L229.683,275.774
	L229.683,275.774z"/>
<path d="M256.796,213.127c0.281,2.532,1.828,4.749,4.108,5.885c1.056,0.526,2.201,0.788,3.346,0.788c1.326,0,2.65-0.352,3.826-1.05
	l36.14-21.439c1.739-1.031,2.988-2.722,3.464-4.687c0.475-1.965,0.137-4.039-0.938-5.751
	c-11.003-17.528-27.037-25.675-47.699-24.225c-2.036,0.144-3.926,1.11-5.233,2.679c-1.307,1.568-1.919,3.601-1.693,5.63
	L256.796,213.127z M289.403,188.657l-18.981,11.261l-2.464-22.202C276.532,178.621,283.627,182.242,289.403,188.657z"/>
<path d="M173.614,184.606l33.13,26.51c1.349,1.079,3.006,1.644,4.687,1.644c0.798,0,1.602-0.128,2.38-0.388
	c2.416-0.809,4.256-2.789,4.886-5.258l10.391-40.71c0.5-1.958,0.188-4.036-0.865-5.762c-1.053-1.726-2.758-2.953-4.729-3.404
	c-20.17-4.614-37.278,0.968-50.854,16.593c-1.34,1.541-1.992,3.562-1.809,5.595C171.015,181.46,172.02,183.33,173.614,184.606z
	 M212.495,170.761l-5.457,21.379l-17.441-13.956C196.304,172.763,203.877,170.31,212.495,170.761z"/>
<path d="M457,227.5h-50.636l37.355-29.055l44.098-18.843c8.283-3.552,12.146-13.182,8.608-21.474l-5.229-12.217
	c-3.542-8.285-13.169-12.148-21.464-8.608L435,152.148V102.79c0-10.085-8.205-18.29-18.29-18.29h-9.42
	c-10.085,0-18.29,8.205-18.29,18.29v2.791c-9.46-10.91-25.472-14.479-38.943-7.7l-18.694,9.413c-2.802,1.413-4.887,3.832-5.873,6.81
	c-0.988,2.987-0.752,6.178,0.66,8.977l9.401,18.692c5.675,11.274,17.09,17.791,28.924,17.791c4.876,0,9.824-1.107,14.469-3.444
	L389,151.056v33.945L334.348,227.5h-74.766c-0.092-0.001-0.184,0-0.276,0.002c-0.002,0-0.003,0-0.005,0
	c-0.059,0.002-0.118,0.004-0.177,0.007c-0.011,0-0.021,0.001-0.031,0.002c-0.051,0.003-0.101,0.006-0.151,0.01l-0.047,0.004
	c-0.046,0.004-0.092,0.008-0.138,0.012c-0.018,0.002-0.037,0.003-0.055,0.005c-0.044,0.005-0.087,0.01-0.131,0.016
	c-0.02,0.002-0.039,0.005-0.058,0.007c-0.047,0.006-0.094,0.013-0.141,0.02c-0.014,0.002-0.028,0.004-0.042,0.006
	c-0.057,0.009-0.113,0.019-0.169,0.029c-0.005,0.001-0.01,0.002-0.016,0.003c-1.672,0.306-3.242,1.179-4.4,2.566
	c-0.008,0.01-0.016,0.02-0.025,0.03c-0.03,0.037-0.06,0.073-0.09,0.111c-0.017,0.021-0.034,0.043-0.051,0.065
	c-0.021,0.026-0.041,0.053-0.061,0.08c-0.022,0.029-0.043,0.058-0.065,0.088c-0.011,0.015-0.022,0.029-0.032,0.044l-27.392,37.899
	l-10.351,0.586c-1.275-12.231-2.945-24.139-4.663-35.239c-0.566-3.655-3.713-6.353-7.412-6.353H55.5
	c-0.038,0-0.076,0.001-0.114,0.001C55.258,227.5,55.129,227.5,55,227.5c-30.327,0-55,24.673-55,55v90
	c0,30.068,24.253,54.578,54.225,54.994c0.091,0.003,0.183,0.006,0.275,0.006h140.461c4.143,0,7.5-3.357,7.5-7.5s-3.357-7.5-7.5-7.5
	H92.712C103.35,402.465,110,388.244,110,372.5v-90c0-14.683-5.719-28.493-16.11-38.896c-0.375-0.374-0.753-0.742-1.136-1.104
	h104.402c1.638,11.055,3.169,22.792,4.254,34.705c0.002,0.069,0.005,0.137,0.009,0.206c0.014,0.239,0.039,0.474,0.073,0.706
	c2.581,28.969,2.483,58.908-5.131,82.587c-1.269,3.943,0.9,8.168,4.844,9.436c0.764,0.246,1.536,0.362,2.298,0.362
	c3.17,0,6.115-2.026,7.138-5.206c1.734-5.391,3.114-11.044,4.188-16.892l4.409-0.061c0.164,0.161,0.335,0.315,0.515,0.462l11,9
	c2.762,2.26,6.736,2.26,9.498,0l6.251-5.114l6.251,5.114c2.762,2.26,6.736,2.26,9.498,0l6.251-5.114l6.251,5.114
	c2.762,2.26,6.736,2.26,9.498,0l6.251-5.114l6.251,5.114c2.762,2.26,6.736,2.26,9.498,0l6.251-5.114l6.251,5.114
	c1.381,1.13,3.065,1.695,4.749,1.695s3.368-0.565,4.749-1.695l8.715-7.13l6.496,0.419c2.006,9.364,10.346,16.406,20.3,16.406h56.48
	c11.447,0,20.76-9.313,20.76-20.76v-75.48c0-11.447-9.313-20.76-20.76-20.76h-56.48c-8.023,0-14.998,4.575-18.452,11.253
	l-75.897,4.296l-1.812-23.55H457c0.024,0-0.024,0,0,0l0,0c22.056,0,40,17.944,40,40v90c0,22.056-17.944,40-40,40H261.944
	c-4.143,0-7.5,3.357-7.5,7.5s3.357,7.5,7.5,7.5H457c30.327,0,55-24.673,55-55v-90C512,252.173,487.327,227.5,457,227.5z
	 M372.198,142.721c-8.524,4.289-18.955,0.839-23.248-7.69l-7.945-15.797l15.797-7.954c8.522-4.291,18.953-0.84,23.248,7.69
	l7.945,15.797L372.198,142.721z M95,282.5v90c0,22.056-17.944,40-40,40s-40-17.944-40-40v-90c0-22.056,17.944-40,40-40
	c10.679,0,20.726,4.161,28.283,11.711C90.839,261.774,95,271.821,95,282.5z M358,271.26c0-3.176,2.584-5.76,5.76-5.76h56.48
	c3.176,0,5.76,2.584,5.76,5.76v75.48c0,3.176-2.584,5.76-5.76,5.76h-56.48c-3.176,0-5.76-2.584-5.76-5.76V271.26z M253.592,255.978
	l0.84,10.92l-9.105,0.515L253.592,255.978z M343,276.908v59.125l-8.018-0.518c-1.903-0.125-3.764,0.478-5.231,1.68l-6.251,5.114
	l-6.251-5.114c-2.762-2.26-6.736-2.26-9.498,0l-6.251,5.114l-6.251-5.114c-2.762-2.26-6.736-2.26-9.498,0l-6.251,5.114l-6.251-5.114
	c-2.762-2.26-6.736-2.26-9.498,0l-6.251,5.114l-6.251-5.114c-2.762-2.26-6.736-2.26-9.498,0l-6.251,5.114l-3.639-2.978
	c-0.287-1.471-1.012-2.834-2.095-3.902c-1.429-1.408-3.354-2.198-5.37-2.159l-7.489,0.103c1.547-15.895,1.303-32.727,0.1-49.333
	l12.829-0.726c0.052,0.001,0.105,0.002,0.157,0.002c0.334,0,0.667-0.023,0.997-0.067l31.052-1.758
	c0.339,0.019,0.683,0.015,1.031-0.014c0.228-0.018,0.453-0.046,0.674-0.083L343,276.908z M381.933,227.5h-23.15l42.32-32.909
	c1.828-1.421,2.896-3.606,2.896-5.921l0,0c0.149-1.071,0.148-84.819,0-85.88l0,0c0-1.814,1.476-3.29,3.29-3.29h9.42
	c1.814,0,3.29,1.476,3.29,3.29v60.72c0,2.52,1.266,4.871,3.368,6.259c2.103,1.389,4.762,1.628,7.079,0.638l45.176-19.308
	c0.687-0.294,1.486,0.023,1.782,0.713l5.227,12.212c0.295,0.69-0.031,1.495-0.719,1.79l-44.98,19.22
	c-0.592,0.253-1.149,0.581-1.657,0.977L381.933,227.5z"/>
<path d="M77.5,365c-4.143,0-7.5,3.357-7.5,7.5c0,8.271-6.729,15-15,15s-15-6.729-15-15v-90c0-8.271,6.729-15,15-15
	c4.143,0,7.5-3.357,7.5-7.5s-3.357-7.5-7.5-7.5c-16.542,0-30,13.458-30,30v90c0,16.542,13.458,30,30,30s30-13.458,30-30
	C85,368.357,81.643,365,77.5,365z"/>
<path d="M55.5,318.5c-4.143,0-7.5,3.357-7.5,7.5v46c0,4.143,3.357,7.5,7.5,7.5s7.5-3.357,7.5-7.5v-46
	C63,321.857,59.643,318.5,55.5,318.5z"/>
<path d="M63,284c0-4.143-3.357-7.5-7.5-7.5S48,279.857,48,284v17c0,4.143,3.357,7.5,7.5,7.5s7.5-3.357,7.5-7.5V284z"/>
<path d="M77.5,274.5c-4.143,0-7.5,3.357-7.5,7.5v55c0,4.143,3.357,7.5,7.5,7.5s7.5-3.357,7.5-7.5v-55
	C85,277.857,81.643,274.5,77.5,274.5z"/>
<path d="M397.5,345.5c10.201,0,18.5-8.299,18.5-18.5v-36c0-4.942-1.923-9.589-5.418-13.085c-3.493-3.492-8.14-5.415-13.082-5.415
	c-10.201,0-18.5,8.299-18.5,18.5v36C379,337.201,387.299,345.5,397.5,345.5z M394,291c0-1.93,1.57-3.5,3.5-3.5
	c1.265,0,2.096,0.642,2.476,1.021c0.383,0.383,1.024,1.214,1.024,2.479v36c0,1.93-1.57,3.5-3.5,3.5s-3.5-1.57-3.5-3.5V291z"/>
<path d="M126.5,292.5h41c4.143,0,7.5-3.357,7.5-7.5s-3.357-7.5-7.5-7.5h-41c-4.143,0-7.5,3.357-7.5,7.5S122.357,292.5,126.5,292.5z"
	/>
<path d="M194,318c0-4.143-3.357-7.5-7.5-7.5h-31c-4.143,0-7.5,3.357-7.5,7.5s3.357,7.5,7.5,7.5h31
	C190.643,325.5,194,322.143,194,318z"/>
<path d="M126.5,370.5h29c4.143,0,7.5-3.357,7.5-7.5s-3.357-7.5-7.5-7.5h-29c-4.143,0-7.5,3.357-7.5,7.5S122.357,370.5,126.5,370.5z"
	/>
<path d="M330,387c0-4.143-3.357-7.5-7.5-7.5h-105c-4.143,0-7.5,3.357-7.5,7.5s3.357,7.5,7.5,7.5h105
	C326.643,394.5,330,391.143,330,387z"/>
<path d="M357,387c0,4.143,3.357,7.5,7.5,7.5h91c4.143,0,7.5-3.357,7.5-7.5s-3.357-7.5-7.5-7.5h-91
	C360.357,379.5,357,382.857,357,387z"/>
<path d="M483.5,316.5c4.143,0,7.5-3.357,7.5-7.5s-3.357-7.5-7.5-7.5h-26c-4.143,0-7.5,3.357-7.5,7.5s3.357,7.5,7.5,7.5H483.5z"/>
<g>
</g>
<g>
</g>
<g>
</g>
<g>
</g>
<g>
</g>
<g>
</g>
<g>
</g>
<g>
</g>
<g>
</g>
<g>
</g>
<g>
</g>
<g>
</g>
<g>
</g>
<g>
</g>
<g>
</g>
</svg>
