<?xml version="1.0" encoding="iso-8859-1"?>
<!-- Generator: Adobe Illustrator 19.0.0, SVG Export Plug-In . SVG Version: 6.00 Build 0)  -->
<svg version="1.1" id="Capa_1" xmlns="http://www.w3.org/2000/svg" xmlns:xlink="http://www.w3.org/1999/xlink" x="0px" y="0px"
	 viewBox="0 0 512 512" style="enable-background:new 0 0 512 512;" xml:space="preserve">
<path style="fill:#00AA95;" d="M452.43,130h35.68c9.05,0,16.39,7.34,16.39,16.39v265.22c0,9.05-7.34,16.39-16.39,16.39H23.89
	c-9.05,0-16.39-7.34-16.39-16.39V146.39c0-9.05,7.34-16.39,16.39-16.39h378.26H452.43z"/>
<path style="fill:#029E6E;" d="M256,411.61V146.39c0-9.05,7.34-16.39,16.39-16.39H23.89c-9.05,0-16.39,7.34-16.39,16.39v265.22
	c0,9.05,7.34,16.39,16.39,16.39h248.5C263.34,428,256,420.66,256,411.61z"/>
<path style="fill:#DDDDDD;" d="M280.5,155v245c0-13.25-10.75-24-24-24s-24,10.75-24,24V155c0-13.25,10.75-24,24-24
	S280.5,141.75,280.5,155z"/>
<g>
	<path style="fill:#C3C9C8;" d="M256.5,155c0-8.878,4.83-16.627,12-20.779c-3.531-2.045-7.628-3.221-12-3.221
		c-13.25,0-24,10.75-24,24v245c0-13.25,10.75-24,24-24V155z"/>
	<path style="fill:#C3C9C8;" d="M280.5,400v-24c-4.372,0-8.469,1.176-12,3.221C275.67,383.373,280.5,391.122,280.5,400z"/>
</g>
<path style="fill:#ECF0F0;" d="M479.5,158v242c0,1.657-1.343,3-3,3h-193c-1.657,0-3-1.343-3-3l0,0V158c0-1.657,1.343-3,3-3h118.4
	H453h23.5C478.157,155,479.5,156.343,479.5,158z"/>
<path style="fill:#DDDDDD;" d="M453,155h-32.055v154.75l16,17.021v26.979c0,4.142,3.357,7.5,7.5,7.5s7.5-3.358,7.5-7.5v-26.979
	l16-17.021V155H453z"/>
<path style="fill:#ECF0F0;" d="M232.5,400L232.5,400c0,1.657-1.343,3-3,3h-194c-1.657,0-3-1.343-3-3V158c0-1.657,1.343-3,3-3h127h44
	h23c1.657,0,3,1.343,3,3V400z"/>
<path style="fill:#DDDDDD;" d="M206.5,155h-31.75v131.618c0,3.223,3.691,5.051,6.255,3.098l14.745-11.235l14.745,11.235
	c2.563,1.953,6.255,0.125,6.255-3.098V155H206.5z"/>
<path style="fill:#FFE477;" d="M205.5,126.14v144.997c0,3.223-3.691,5.051-6.255,3.098L184.5,263l-14.745,11.235
	c-2.564,1.953-6.255,0.125-6.255-3.098V126.14c0-6.152,4.988-11.14,11.14-11.14h19.72C200.512,115,205.5,119.988,205.5,126.14z"/>
<path style="fill:#F4C951;" d="M184.5,126.14c0-5.937,4.647-10.774,10.5-11.108c-0.213-0.012-0.424-0.032-0.64-0.032h-19.72
	c-6.152,0-11.14,4.988-11.14,11.14v144.997c0,3.223,3.691,5.051,6.255,3.098L184.5,263V126.14z"/>
<path style="fill:#2CD4E5;" d="M163.5,185v70H68.35c-4.33,0-7.85-3.52-7.85-7.85v-54.3c0-4.33,3.52-7.85,7.85-7.85L163.5,185
	L163.5,185z"/>
<path style="fill:#ED3124;" d="M101.5,298.782v18.437c0,2.641-2.141,4.782-4.782,4.782H65.282c-2.641,0-4.782-2.141-4.782-4.782
	v-18.437c0-2.641,2.141-4.782,4.782-4.782h31.437C99.359,294,101.5,296.141,101.5,298.782z"/>
<path style="fill:#FF7400;" d="M451,107.5V294l-23.5,25L404,294V107.5c0-12.98,10.52-23.5,23.5-23.5c6.49,0,12.36,2.63,16.62,6.88
	C448.37,95.14,451,101.01,451,107.5z"/>
<path style="fill:none;stroke:#000000;stroke-width:15;stroke-linecap:round;stroke-linejoin:round;stroke-miterlimit:10;" d="
	M97.787,322H64.213c-2.051,0-3.713-1.663-3.713-3.713v-20.573c0-2.051,1.662-3.713,3.713-3.713h33.573
	c2.051,0,3.713,1.663,3.713,3.713v20.573C101.5,320.337,99.838,322,97.787,322z"/>
<path d="M488.11,122.5H458.5v-15c0-8.271-3.222-16.054-9.083-21.93c-5.862-5.849-13.646-9.07-21.917-9.07c-17.094,0-31,13.907-31,31
	v15H212.643c-1.698-8.542-9.25-15-18.282-15H174.64c-9.033,0-16.585,6.458-18.282,15H23.89C10.717,122.5,0,133.217,0,146.39v265.22
	c0,13.173,10.717,23.89,23.89,23.89h464.22c13.173,0,23.89-10.717,23.89-23.89V146.39C512,133.217,501.283,122.5,488.11,122.5z
	 M280.5,263c-4.143,0-7.5,3.358-7.5,7.5v102.677c-4.802-2.964-10.454-4.677-16.5-4.677s-11.698,1.712-16.5,4.677V155
	c0-9.098,7.402-16.5,16.5-16.5c9.098,0,16.5,7.402,16.5,16.5v63c0,4.142,3.357,7.5,7.5,7.5s7.5-3.358,7.5-7.5v-55.5h108.5v20h-82
	c-4.143,0-7.5,3.358-7.5,7.5s3.357,7.5,7.5,7.5h82v75h-82c-4.143,0-7.5,3.358-7.5,7.5s3.357,7.5,7.5,7.5h82v6.5
	c0,1.909,0.728,3.746,2.035,5.137L420,321.972V338c0,4.142,3.357,7.5,7.5,7.5s7.5-3.358,7.5-7.5v-16.028l21.465-22.835
	c1.308-1.391,2.035-3.228,2.035-5.137V162.5H472v233H288v-125C288,266.358,284.643,263,280.5,263z M156,247.5H68.35
	c-0.187,0-0.35-0.164-0.35-0.35v-54.3c0-0.187,0.163-0.35,0.35-0.35H156V247.5z M156,177.5H68.35c-8.464,0-15.35,6.886-15.35,15.35
	v54.3c0,8.464,6.886,15.35,15.35,15.35H156V279c0,2.851,1.616,5.456,4.171,6.721c2.557,1.265,5.607,0.973,7.874-0.755l16.455-12.537
	l16.455,12.537c1.331,1.015,2.933,1.534,4.546,1.534c1.134,0,2.273-0.257,3.328-0.779c2.555-1.265,4.171-3.87,4.171-6.721V162.5h12
	v233H40v-233h116V177.5z M225.902,147.5H213v-10h17.321C228.303,140.509,226.789,143.883,225.902,147.5z M420,125.44v18.099
	l-8.5-9.042v-18.099L420,125.44z M443.5,254.566l-8.5,9.445v-17.576l8.5-9.445V254.566z M420,223.539l-8.5-9.042v-18.099l8.5,9.042
	V223.539z M411.5,236.397l8.5,9.042v18.099l-8.5-9.042V236.397z M443.5,214.566l-8.5,9.445v-17.576l8.5-9.445V214.566z
	 M443.5,174.566l-8.5,9.445v-17.576l8.5-9.445V174.566z M420,183.539l-8.5-9.042v-18.099l8.5,9.042V183.539z M411.5,276.397
	l8.5,9.042v14.631l-8.5-9.043V276.397z M435,286.434l8.5-9.445v14.039l-8.5,9.043V286.434z M443.5,134.566l-8.5,9.445v-17.578
	l8.5-9.444V134.566z M427.5,91.5c4.271,0,8.292,1.666,11.311,4.677c0.578,0.58,1.106,1.195,1.583,1.842l-12.514,13.903
	l-13.176-14.017C417.626,94.019,422.274,91.5,427.5,91.5z M396.5,147.5H287.098c-0.887-3.617-2.401-6.991-4.418-10H396.5V147.5z
	 M171,126.14c0-2.007,1.633-3.64,3.64-3.64h19.721c2.007,0,3.64,1.633,3.64,3.64v137.717l-8.955-6.823
	c-1.342-1.023-2.943-1.534-4.545-1.534s-3.203,0.511-4.545,1.534L171,263.857V126.14z M497,411.61c0,4.902-3.988,8.89-8.89,8.89
	H23.89c-4.901,0-8.89-3.988-8.89-8.89V146.39c0-4.902,3.988-8.89,8.89-8.89H156v10H32.5c-4.143,0-7.5,3.358-7.5,7.5v248
	c0,4.142,3.357,7.5,7.5,7.5h200c4.143,0,7.5-3.358,7.5-7.5v-3c0-9.098,7.402-16.5,16.5-16.5c9.098,0,16.5,7.402,16.5,16.5v3
	c0,4.142,3.357,7.5,7.5,7.5h199c4.143,0,7.5-3.358,7.5-7.5V155c0-4.142-3.357-7.5-7.5-7.5h-21v-10h29.61
	c4.901,0,8.89,3.988,8.89,8.89V411.61z"/>
<path d="M122.5,329.5h83c4.143,0,7.5-3.358,7.5-7.5s-3.357-7.5-7.5-7.5h-83c-4.143,0-7.5,3.358-7.5,7.5S118.357,329.5,122.5,329.5z"
	/>
<path d="M55.5,354.5h150c4.143,0,7.5-3.358,7.5-7.5s-3.357-7.5-7.5-7.5h-150c-4.143,0-7.5,3.358-7.5,7.5S51.357,354.5,55.5,354.5z"
	/>
<path d="M55.5,380.5h150c4.143,0,7.5-3.358,7.5-7.5s-3.357-7.5-7.5-7.5h-150c-4.143,0-7.5,3.358-7.5,7.5S51.357,380.5,55.5,380.5z"
	/>
<path d="M314.5,227.5h53c4.143,0,7.5-3.358,7.5-7.5s-3.357-7.5-7.5-7.5h-53c-4.143,0-7.5,3.358-7.5,7.5S310.357,227.5,314.5,227.5z"
	/>
<path d="M314.5,256.5h19c4.143,0,7.5-3.358,7.5-7.5s-3.357-7.5-7.5-7.5h-19c-4.143,0-7.5,3.358-7.5,7.5S310.357,256.5,314.5,256.5z"
	/>
<path d="M314.5,317.5h37c4.143,0,7.5-3.358,7.5-7.5s-3.357-7.5-7.5-7.5h-37c-4.143,0-7.5,3.358-7.5,7.5S310.357,317.5,314.5,317.5z"
	/>
<path d="M314.5,347.5h92c4.143,0,7.5-3.358,7.5-7.5s-3.357-7.5-7.5-7.5h-92c-4.143,0-7.5,3.358-7.5,7.5S310.357,347.5,314.5,347.5z"
	/>
<g>
</g>
<g>
</g>
<g>
</g>
<g>
</g>
<g>
</g>
<g>
</g>
<g>
</g>
<g>
</g>
<g>
</g>
<g>
</g>
<g>
</g>
<g>
</g>
<g>
</g>
<g>
</g>
<g>
</g>
</svg>
